<svg width="81" height="56" viewBox="0 0 81 56" fill="none" xmlns="http://www.w3.org/2000/svg">
<path d="M20.1234 26.0056L13.6687 24.6237C11.8969 24.2468 10.2516 25.6287 10.2516 27.3875V30.0258C10.2516 32.1615 11.8969 32.6641 13.9219 32.6641H21.0094C22.4016 32.6641 23.7937 32.4128 23.7937 30.9052V30.5283C23.7937 28.267 22.275 26.3825 20.1234 26.0056ZM12.6562 30.0258C12.6562 29.9002 12.6562 29.9002 12.6562 27.2619C12.6562 27.0107 12.9094 26.7594 13.1625 26.885L19.6172 28.267C20.5031 28.5182 21.1359 29.272 21.2625 30.1514C16.8328 30.1514 13.0359 30.1514 12.6562 30.0258Z" fill="white"/>
<path d="M77.5828 12.5631L68.4703 8.29164C65.4328 6.9097 62.1422 6.40718 58.9781 7.03533L57.5859 4.27145C56.5734 1.75883 54.1687 0 51.3844 0H21.7688C18.9844 0 16.5797 1.6332 15.5672 4.14582L10.6312 14.3219C9.49219 12.6887 7.59375 11.6837 5.56875 11.6837H3.41719C1.51875 11.6837 0 13.1913 0 15.0757V16.4577C0 18.3421 1.51875 19.8497 3.41719 19.8497H6.70781C5.31563 21.6085 4.68281 23.8699 4.68281 26.1312V33.6691C4.68281 36.5586 5.69531 39.3225 7.72031 41.7095V47.3629C7.72031 49.8755 9.74531 51.8856 12.2766 51.8856H16.9594C19.4906 51.8856 21.5156 49.8755 21.5156 47.3629V45.1015H46.8281C52.3969 52.6394 61.1297 55.9058 61.2563 55.9058C61.5094 56.0314 61.7625 56.0314 62.1422 55.9058C62.2687 55.7801 81 48.9961 81 32.0359V17.9652C81 15.7039 79.6078 13.5681 77.5828 12.5631ZM17.8453 5.15087C18.4781 3.51767 19.9969 2.51262 21.7688 2.51262H51.3844C53.1562 2.51262 54.675 3.51767 55.4344 5.2765L56.5734 7.66349C56.0672 7.78912 55.5609 8.04038 55.0547 8.29164L45.9422 12.5631C43.9172 13.5681 42.525 15.5782 42.525 17.8396H11.5172C12.0234 17.0858 11.5172 18.3421 17.8453 5.15087ZM2.53125 16.4577V15.0757C2.53125 14.5732 2.91094 14.1963 3.41719 14.1963H5.56875C8.1 14.1963 8.98594 16.4577 9.23906 16.8345C9.1125 17.0858 8.98594 17.2114 8.73281 17.4627H3.41719C2.91094 17.3371 2.53125 16.9602 2.53125 16.4577ZM18.9844 47.2372C18.9844 48.3679 18.0984 49.2473 16.9594 49.2473H12.15C11.0109 49.373 10.125 48.3679 10.125 47.2372V43.5939C11.6438 44.4734 13.4156 44.9759 15.1875 44.9759H18.9844V47.2372ZM15.0609 42.5889C10.5047 42.5889 6.96094 38.1918 6.96094 33.5435V26.0056C6.96094 23.8699 7.84688 21.8598 9.36563 20.2266H42.525V31.2821H28.6031C27.9703 31.2821 27.3375 31.7846 27.3375 32.5384C27.3375 33.2922 27.8438 33.7947 28.6031 33.7947H42.6516C42.7781 34.6741 42.7781 35.4279 43.0312 36.1817H28.6031C27.9703 36.1817 27.3375 36.6842 27.3375 37.438C27.3375 38.1918 27.8438 38.6943 28.6031 38.6943H43.5375C44.0438 40.0763 44.55 41.4582 45.3094 42.5889H15.0609ZM78.4688 32.0359C78.4688 45.9809 64.2937 52.3881 61.7625 53.3932C52.65 49.7499 45.0562 41.9607 45.0562 32.0359C45.0562 27.3876 45.0562 24.8749 45.0562 17.9652C45.0562 16.5833 45.8156 15.4526 47.0812 14.8245L56.1938 10.553C59.8641 8.79417 63.9141 8.79417 67.5844 10.553L76.6969 14.8245C77.8359 15.4526 78.7219 16.5833 78.7219 17.9652V32.0359H78.4688Z" fill="white"/>
<path d="M74.1656 17.714L65.8125 13.8194C63.2812 12.5631 60.1172 12.5631 57.5859 13.8194L49.3594 17.714C48.9797 17.9652 48.6 18.3421 48.6 18.8446V32.0359C48.6 41.9607 57.3328 47.3629 61.1297 49.2473C61.5094 49.373 61.8891 49.373 62.2687 49.2473C66.0656 47.3629 74.7984 41.9607 74.7984 32.0359V18.8446C74.7984 18.3421 74.5453 17.9652 74.1656 17.714ZM72.3938 32.0359C72.3938 40.0763 65.3063 44.8503 61.7625 46.7347C57.5859 44.4734 51.1313 39.9506 51.1313 32.0359V19.5984L58.725 15.9551C60.6234 15.0757 62.9016 15.0757 64.8 15.9551L72.3938 19.5984V32.0359Z" fill="white"/>
<path d="M56.8266 31.659C56.3203 31.2821 55.5609 31.4077 55.0547 31.9103C54.5484 32.4128 54.8016 33.1666 55.3078 33.6691L60.1172 37.3124C60.6234 37.6893 61.3828 37.5637 61.8891 37.0611L68.9766 27.8901C69.3562 27.3876 69.2297 26.6338 68.7234 26.1312C68.2172 25.7543 67.4578 25.88 66.9516 26.3825L60.6234 34.5485L56.8266 31.659Z" fill="white"/>
</svg>
