<svg width="80" height="62" viewBox="0 0 80 62" fill="none" xmlns="http://www.w3.org/2000/svg">
<path d="M56.5512 51.6862C56.4611 50.5065 55.5217 49.569 54.3393 49.4789C53.0169 49.5795 52.0267 50.7307 52.1274 52.0501C52.2174 53.2299 53.1569 54.1674 54.3393 54.2574C55.6617 54.157 56.6518 53.0057 56.5512 51.6862Z" fill="white"/>
<path d="M62.4084 49.6363C62.3184 48.4566 61.3789 47.519 60.1965 47.429C58.8741 47.5296 57.884 48.6808 57.9846 50.0002C58.0747 51.18 59.0141 52.1175 60.1965 52.2075C61.5189 52.1071 62.5091 50.9558 62.4084 49.6363Z" fill="white"/>
<path d="M79.9891 13.19V13.0792C79.9587 13.0021 79.9216 12.928 79.878 12.8576L79.7948 12.7468L79.6282 12.5667L79.531 12.4836L79.3506 12.4005H79.2812L49.1344 0.101024C48.8006 -0.0336746 48.4272 -0.0336746 48.0934 0.101024L18.0159 12.1927H17.9465L17.7661 12.2758L17.6689 12.3589L17.5024 12.539L17.4191 12.6498C17.3756 12.7203 17.3384 12.7944 17.3081 12.8714V12.9822C17.2935 13.0972 17.2935 13.2135 17.3081 13.3285V24.4091H1.38798C0.621466 24.4091 0 25.0292 0 25.7942C0 26.5591 0.621466 27.1792 1.38798 27.1792V27.3593H17.1415V32.0962H11.7423C10.9758 32.0962 10.3543 32.7164 10.3543 33.4813C10.3543 34.2462 10.9758 34.8664 11.7423 34.8664H17.1415V39.6034H4.34437C3.57786 39.6034 2.95639 40.2235 2.95639 40.9884C2.95639 41.7533 3.57786 42.3735 4.34437 42.3735H17.1415V48.1631C17.1443 48.7223 17.4838 49.2249 18.0021 49.4374L48.0934 61.903C48.2438 61.9626 48.4036 61.9953 48.5653 62C48.727 61.9953 48.8868 61.9626 49.0372 61.903L79.1285 49.4374C79.6468 49.2249 79.9863 48.7223 79.9891 48.1631V13.5362C80.0036 13.4213 80.0036 13.3049 79.9891 13.19ZM48.6069 2.91272L60.0161 7.46962L34.0609 18.4256L22.1937 13.4947L48.6069 2.91272ZM47.1773 58.565L19.9175 47.2351V42.3596H25.6776C26.4441 42.3596 27.0655 41.7395 27.0655 40.9746C27.0655 40.2097 26.4441 39.5895 25.6776 39.5895H19.9175V34.8525H33.1032C33.8697 34.8525 34.4912 34.2324 34.4912 33.4675C34.4912 32.7026 33.8697 32.0824 33.1032 32.0824H19.9175V27.3593H22.6934C23.4599 27.3593 24.0814 26.7391 24.0814 25.9742C24.0814 25.2093 23.4599 24.5891 22.6934 24.5891H19.9175V15.5585L30.5216 19.9353L47.1773 26.8607V58.565ZM48.6208 24.5199L37.6558 19.9353L63.6387 8.9378L75.0062 13.5085L58.4477 20.4339L48.6208 24.5199ZM49.9949 58.565V26.8607L57.8092 23.6196L77.2409 15.5308L77.3103 47.2351L49.9949 58.565Z" fill="white"/>
</svg>
