<svg width="40" height="35" viewBox="0 0 40 35" fill="none" xmlns="http://www.w3.org/2000/svg">
<path d="M24.1429 0H5.62857C2.5286 0 0 2.55361 0 5.68426V29.3157C0 32.4464 2.5286 35 5.62857 35H24.1429C27.2429 35 29.7715 32.4464 29.7715 29.3157V5.68426C29.7715 2.55361 27.2429 0 24.1429 0ZM8.05716 28.7097C7.38569 28.7097 6.82861 28.1472 6.82861 27.469C6.82861 26.7766 7.38569 26.2283 8.05716 26.2283C8.72855 26.2283 9.27141 26.7766 9.27141 27.469C9.27141 28.1472 8.72855 28.7097 8.05716 28.7097ZM8.05716 22.636C7.38569 22.636 6.82861 22.0878 6.82861 21.4097C6.82861 20.7172 7.38569 20.169 8.05716 20.169C8.72855 20.169 9.28571 20.7172 9.28571 21.4097C9.28571 22.0878 8.72855 22.636 8.05716 22.636ZM14.8857 28.7097C14.2143 28.7097 13.6571 28.1616 13.6571 27.469C13.6571 26.791 14.2143 26.2283 14.8857 26.2283C15.5572 26.2283 16.1 26.791 16.1 27.469C16.1 28.1616 15.5572 28.7097 14.8857 28.7097ZM14.8857 22.636C14.2143 22.636 13.6571 22.0878 13.6571 21.4097C13.6571 20.7172 14.2143 20.169 14.8857 20.169C15.5572 20.169 16.1 20.7172 16.1 21.4097C16.1 22.0878 15.5572 22.636 14.8857 22.636ZM21.7143 28.7097C21.0428 28.7097 20.4858 28.1616 20.4858 27.4835C20.4858 26.791 21.0428 26.2428 21.7143 26.2428C22.3857 26.2428 22.9429 26.791 22.9429 27.4835C22.9429 28.1616 22.3857 28.7097 21.7143 28.7097ZM21.7143 22.636C21.0428 22.636 20.4858 22.0878 20.4858 21.4097C20.4858 20.7172 21.0428 20.169 21.7143 20.169C22.3857 20.169 22.9429 20.7172 22.9429 21.4097C22.9429 22.0878 22.3857 22.636 21.7143 22.636ZM21.7143 13.2296H8.05716C7.25717 13.2296 6.62859 12.5803 6.62859 11.7869C6.62859 10.9934 7.25717 10.3442 8.05716 10.3442H21.7143C22.5 10.3442 23.1429 10.9934 23.1429 11.7869C23.1429 12.5803 22.5 13.2296 21.7143 13.2296Z" fill="#BC2024"/>
<path d="M37.6857 11.8157H34.1143C32.8428 11.8157 31.8 12.8689 31.8 14.1529V16.014H40V14.1529C40 12.8689 38.9572 11.8157 37.6857 11.8157Z" fill="#BC2024"/>
<path d="M31.8 28.9406C31.8 29.2003 31.8714 29.4455 32 29.662L34.6715 34.2931C34.9286 34.7259 35.4 35 35.9 35C36.4143 35 36.8857 34.7259 37.1286 34.2931L39.8 29.6764C39.9286 29.4455 40 29.2003 40 28.9406V18.8994H31.8V28.9406Z" fill="#BC2024"/>
</svg>
