<svg width="87" height="49" viewBox="0 0 87 49" fill="none" xmlns="http://www.w3.org/2000/svg">
<path d="M85.0837 0H82.4805C81.1165 0 80.0033 1.08889 79.9788 2.43585H77.9775C77.274 2.43585 76.7031 3.00202 76.7031 3.69985C76.7031 4.39835 77.274 4.96386 77.9775 4.96386H80.0246C81.3886 4.96386 82.5017 3.87563 82.5269 2.52801H84.4512V46.4252C84.4512 46.4509 84.4299 46.472 84.404 46.472H2.59596C2.57007 46.472 2.54883 46.4509 2.54883 46.4252V2.52801H4.45912C4.48434 3.87563 5.5968 4.96386 6.96149 4.96386H71.9048C72.6084 4.96386 73.1792 4.39835 73.1792 3.69985C73.1792 3.00202 72.6084 2.43585 71.9048 2.43585H7.00729C6.98273 1.08889 5.86961 0 4.50492 0H1.91627C0.859566 0 0 0.852546 0 1.90062V46.4252C0 47.8446 1.16489 49 2.59596 49H84.404C85.8351 49 87 47.8446 87 46.4252V1.90062C87 0.852546 86.1404 0 85.0837 0Z" fill="white"/>
<path d="M7.31992 9.18182C6.61633 9.18182 6.0455 9.74799 6.0455 10.4458V41.5595C6.0455 42.2573 6.61633 42.8235 7.31992 42.8235H80.0578C80.7614 42.8235 81.3322 42.2573 81.3322 41.5595V10.4458C81.3322 9.74799 80.7614 9.18182 80.0578 9.18182H7.31992ZM65.558 40.2955H61.4945V34.6351C61.4945 33.9366 60.9236 33.3711 60.22 33.3711C59.5165 33.3711 58.9456 33.9366 58.9456 34.6351V40.2955H54.8821V11.7098H58.9456V28.4336C58.9456 29.1314 59.5165 29.6976 60.22 29.6976C60.9236 29.6976 61.4945 29.1314 61.4945 28.4336V11.7098H65.558V40.2955ZM68.1068 11.7098H72.171V40.2955H68.1068V11.7098ZM28.432 11.7098H32.4956V40.2955H28.432V11.7098ZM25.8832 40.2955H21.8197V11.7098H25.8832V40.2955ZM35.0444 11.7098H39.1079V40.2955H35.0444V11.7098ZM41.6567 11.7098H45.7209V40.2955H41.6567V11.7098ZM48.2698 11.7098H52.3333V40.2955H48.2698V11.7098ZM8.59433 11.7098H12.6579V13.856C12.6579 14.5539 13.2287 15.12 13.9323 15.12C14.6365 15.12 15.2067 14.5539 15.2067 13.856V11.7098H19.2709V40.2955H15.2067V20.2715C15.2067 19.5737 14.6365 19.0075 13.9323 19.0075C13.2287 19.0075 12.6579 19.5737 12.6579 20.2715V40.2955H8.59433V11.7098ZM78.7834 40.2955H74.7198V11.7098H78.7834V40.2955Z" fill="white"/>
</svg>
