<svg width="87" height="64" viewBox="0 0 87 64" fill="none" xmlns="http://www.w3.org/2000/svg">
<path d="M76.7571 28.8092C73.7967 27.3261 68.2462 27.3089 68.0114 27.3089C67.3076 27.3089 66.737 27.8807 66.737 28.5859C66.737 29.2912 67.3076 29.863 68.0114 29.863C69.4437 29.8632 73.6022 30.0842 75.6173 31.0937C75.8003 31.1855 75.9947 31.2287 76.1862 31.2287C76.6536 31.2287 77.1038 30.9699 77.327 30.5226C77.6419 29.8918 77.3867 29.1247 76.7571 28.8092Z" fill="white"/>
<path d="M83.1108 46.9911L77.8475 45.4842C77.6203 45.4191 77.4616 45.2083 77.4616 44.9715V43.211C77.8898 42.9137 78.2983 42.581 78.6801 42.2096C80.5306 40.4102 81.5496 37.9966 81.5496 35.4132V32.9839L82.0585 31.9642C82.617 30.8446 82.9122 29.5912 82.9122 28.3397V21.7587C82.9122 21.0534 82.3416 20.4816 81.6378 20.4816H69.374C64.9146 20.4816 61.2864 24.1173 61.2864 28.5859V28.6621C61.2864 29.7028 61.5319 30.745 61.9963 31.6757L62.649 32.9837V35.0696C62.649 38.3753 64.2747 41.3413 66.737 43.1261L66.7373 44.9711C66.7373 45.2557 66.7373 45.3735 65.685 45.6749L63.1168 46.4101L55.6876 43.7031C55.7143 43.3518 55.5961 42.9946 55.3403 42.7254L52.9663 40.2261V36.0306C53.2173 35.8234 53.4647 35.6105 53.7045 35.3854C56.6994 32.5725 58.4169 28.6011 58.4169 24.4895V21.1389C59.3213 19.1669 59.7795 17.0803 59.7795 14.9312V1.27705C59.7795 0.571777 59.2089 0 58.5051 0H39.4282C32.7146 0 27.2528 5.47325 27.2528 12.2006V14.9316C27.2528 17.0806 27.711 19.1673 28.6154 21.1392V24.0221C28.6154 28.7959 30.7336 33.0966 34.0659 35.932V40.2263L31.692 42.7256C31.4362 42.9948 31.318 43.352 31.3446 43.7033L23.5036 46.5603C22.9354 46.7673 22.4074 47.0478 21.9281 47.3875L20.6968 46.7706C24.362 45.1719 25.5231 42.9234 25.5788 42.8117C25.7583 42.4523 25.7583 42.029 25.5788 41.6695C24.6601 39.8282 24.5488 36.4532 24.4594 33.7415C24.4297 32.8387 24.4015 31.9858 24.3476 31.2264C23.9131 25.101 19.2661 20.4816 13.538 20.4816C7.80995 20.4816 3.16276 25.1008 2.72844 31.2264C2.67457 31.9859 2.64636 32.8388 2.61663 33.7418C2.52725 36.4534 2.41578 39.828 1.49718 41.6694C1.31774 42.0288 1.31774 42.4521 1.49718 42.8116C1.55292 42.9233 2.71161 45.1671 6.38413 46.7677L2.96412 48.4811C1.13576 49.3979 0 51.2394 0 53.2876V62.7223C0 63.4275 0.570598 63.9993 1.27441 63.9993C1.97823 63.9993 2.54883 63.4275 2.54883 62.7223V53.2876C2.54883 52.2128 3.14474 51.2465 4.10395 50.7659L8.36271 48.6322L9.84408 50.0429C10.8799 51.0293 12.2087 51.5222 13.538 51.5222C14.867 51.5222 16.1964 51.0289 17.2319 50.0429L18.7132 48.6323L20.1018 49.3281C19.4479 50.3765 19.0768 51.6058 19.0768 52.8936V62.7226C19.0768 63.4279 19.6474 63.9997 20.3512 63.9997C21.055 63.9997 21.6256 63.4279 21.6256 62.7226V52.8936C21.6256 51.1405 22.7303 49.56 24.3746 48.9608L32.6417 45.9485L36.0831 51.1216C36.523 51.7829 37.228 52.2071 38.0173 52.2854C38.1053 52.2941 38.1928 52.2983 38.2802 52.2983C38.9765 52.2983 39.6435 52.0237 40.142 51.5243L42.2416 49.4204V62.7228C42.2416 63.4281 42.8122 63.9998 43.516 63.9998C44.2198 63.9998 44.7904 63.4281 44.7904 62.7228V49.4204L46.8899 51.5243C47.3883 52.0238 48.0553 52.2985 48.7518 52.2985C48.8389 52.2985 48.9266 52.2942 49.0145 52.2856C49.8039 52.2072 50.5089 51.7831 50.9489 51.1217L54.3905 45.9488L62.6573 48.9611C64.3015 49.5603 65.4063 51.1408 65.4063 52.8939V62.7229C65.4063 63.4282 65.9769 64 66.6807 64C67.3846 64 67.9552 63.4282 67.9552 62.7229V52.8939C67.9552 51.1183 67.2512 49.4531 66.0702 48.2215L66.3851 48.1314C66.7027 48.0405 67.136 47.916 67.571 47.7023L70.8248 50.9629V62.7229C70.8248 63.4282 71.3954 64 72.0992 64C72.803 64 73.3736 63.4282 73.3736 62.7229V50.9629L76.6049 47.725C76.7766 47.8125 76.9571 47.8864 77.1471 47.9407L82.4106 49.4476C83.6119 49.7916 84.4512 50.9063 84.4512 52.1585V62.7229C84.4512 63.4282 85.0218 64 85.7256 64C86.4294 64 87 63.4282 87 62.7229V52.1585C87 49.7716 85.4007 47.6468 83.1108 46.9911ZM8.17579 44.7355C5.79196 43.8759 4.59622 42.73 4.08577 42.1043C4.43377 41.1926 4.65943 40.1485 4.81219 39.0463C5.51498 40.7349 6.69203 42.1764 8.17579 43.2049V44.7355ZM15.4765 48.1917C14.3895 49.2266 12.6867 49.2264 11.6001 48.1915L10.4149 47.0629C10.6149 46.6875 10.7248 46.2618 10.7248 45.8159V44.4547C11.6138 44.7331 12.5589 44.8833 13.5384 44.8833C14.5166 44.8833 15.4612 44.7324 16.3518 44.4556L16.3516 45.8157C16.3516 46.2618 16.4614 46.6877 16.6615 47.0633L15.4765 48.1917ZM13.5387 42.3292C9.73313 42.3292 6.63732 39.2268 6.63732 35.4135C6.63732 34.7083 6.06672 34.1365 5.3629 34.1365C5.29154 34.1365 5.22187 34.1438 5.15373 34.1552C5.15747 34.0454 5.16104 33.9354 5.16478 33.8266C5.19315 32.9485 5.22051 32.1191 5.27098 31.4077C5.43376 29.1131 6.34879 26.9987 7.8475 25.4536C9.35964 23.8946 11.3807 23.0361 13.5384 23.0361C15.696 23.0361 17.7169 23.8946 19.2292 25.4536C20.7279 26.9987 21.643 29.1131 21.8057 31.4077C21.856 32.1189 21.8836 32.9482 21.9124 33.8261C21.915 33.9015 21.9175 33.978 21.9201 34.0539C20.5335 31.9132 18.3922 30.3357 15.6253 29.4448C13.0692 28.6219 10.8708 28.6728 10.778 28.6752C10.4442 28.6845 10.1275 28.8245 9.89591 29.0653L7.59653 31.4549C7.108 31.9626 7.12261 32.7711 7.62932 33.2606C8.13603 33.7502 8.94282 33.7353 9.43134 33.2277L11.3447 31.2395C12.9924 31.3202 18.2934 31.9379 20.3551 36.4871C19.8363 39.8395 16.9609 42.3292 13.5387 42.3292ZM18.9002 44.7397L18.9004 43.2166C20.383 42.1938 21.5617 40.755 22.265 39.0536C22.4178 40.1533 22.6433 41.195 22.9906 42.1046C22.483 42.7244 21.2817 43.8805 18.9002 44.7397ZM31.1642 24.0219V20.8535C31.1642 20.6613 31.1209 20.4714 31.0374 20.2982C30.2174 18.5965 29.8016 16.791 29.8016 14.9316V12.2007C29.8016 6.88158 34.1201 2.55427 39.4282 2.55427H57.2307V14.9317C57.2307 16.7911 56.8149 18.5967 55.9949 20.2984C55.9114 20.4716 55.8681 20.6614 55.8681 20.8537V24.4899C55.8681 27.9483 54.4807 31.156 51.9614 33.5223C51.6469 33.8176 51.3205 34.0944 50.983 34.3524C50.9755 34.3575 50.9684 34.3631 50.9611 34.3684C48.6011 36.1639 45.7103 37.0366 42.6915 36.8406C36.2275 36.4212 31.1642 30.7906 31.1642 24.0219ZM38.3398 49.718C38.331 49.7269 38.3104 49.7478 38.2688 49.7434C38.2273 49.7393 38.211 49.7149 38.204 49.7044L34.2406 43.7469L35.5161 42.4039L41.5287 46.5223L38.3398 49.718ZM43.5161 44.7898L36.6148 40.0627V37.6789C38.4005 38.6462 40.3999 39.2512 42.5265 39.3891C42.8625 39.4109 43.1964 39.4216 43.5292 39.4216C45.9661 39.4216 48.3113 38.8379 50.4175 37.7299V40.0627L43.5161 44.7898ZM48.8282 49.7047C48.8213 49.7153 48.805 49.7396 48.7635 49.7437C48.7219 49.749 48.7015 49.727 48.6925 49.7184L45.5035 46.5228L51.5162 42.4043L52.7918 43.7472L48.8282 49.7047ZM72.0992 48.6272L69.2071 45.7294C69.2576 45.4997 69.2862 45.2482 69.286 44.9708L69.2858 44.4319C70.0884 44.6958 70.9342 44.8525 71.8095 44.8787C71.9077 44.8817 72.0051 44.8831 72.1029 44.8831C73.0701 44.8831 74.0142 44.7367 74.9128 44.4573V44.9715C74.9128 45.2262 74.9447 45.4758 75.0049 45.7157L72.0992 48.6272ZM76.9051 40.3768C75.5544 41.6903 73.7701 42.384 71.8861 42.3258C68.1981 42.2149 65.1978 38.9598 65.1978 35.0699V32.6825C65.1978 32.4842 65.1518 32.2887 65.0633 32.1114L64.276 30.5337C63.9877 29.9556 63.8352 29.3086 63.8352 28.6622V28.5861C63.8352 25.5256 66.32 23.0359 69.374 23.0359H80.3634V28.3399C80.3634 29.197 80.1612 30.0554 79.7787 30.8221L79.1353 32.1114C79.0468 32.2889 79.0008 32.4842 79.0008 32.6825V35.4134C79.0008 37.3 78.2565 39.0627 76.9051 40.3768Z" fill="white"/>
<path d="M80.275 53.2525C79.5712 53.2525 79.0006 53.8243 79.0006 54.5296V62.7223C79.0006 63.4275 79.5712 63.9993 80.275 63.9993C80.9788 63.9993 81.5494 63.4275 81.5494 62.7223V54.5296C81.5494 53.8245 80.9788 53.2525 80.275 53.2525Z" fill="white"/>
<path d="M6.725 54.9406C6.02118 54.9406 5.45058 55.5124 5.45058 56.2177V62.7223C5.45058 63.4275 6.02118 63.9993 6.725 63.9993C7.42881 63.9993 7.99941 63.4275 7.99941 62.7223V56.2177C7.99941 55.5126 7.42881 54.9406 6.725 54.9406Z" fill="white"/>
<path d="M53.9556 15.3942C49.1356 10.5642 39.0509 11.4876 34.9385 12.1088C33.6432 12.3044 32.7032 13.4029 32.7032 14.7206V17.6626C32.7032 18.3679 33.2738 18.9396 33.9776 18.9396C34.6814 18.9396 35.252 18.3679 35.252 17.6626V14.7204C35.252 14.677 35.2805 14.6399 35.3186 14.6341C36.9612 14.386 40.2208 14.0032 43.598 14.2289C47.5722 14.494 50.4507 15.4936 52.1534 17.2001C52.6511 17.6989 53.4581 17.6989 53.9556 17.2001C54.4533 16.7014 54.4533 15.8928 53.9556 15.3942Z" fill="white"/>
<path d="M28.5272 55.9835C27.8233 55.9835 27.2528 56.5553 27.2528 57.2606V62.7224C27.2528 63.4277 27.8233 63.9995 28.5272 63.9995C29.231 63.9995 29.8016 63.4277 29.8016 62.7224V57.2606C29.8016 56.5555 29.231 55.9835 28.5272 55.9835Z" fill="white"/>
<path d="M58.5051 55.9835C57.8013 55.9835 57.2307 56.5553 57.2307 57.2606V62.7224C57.2307 63.4277 57.8013 63.9995 58.5051 63.9995C59.2089 63.9995 59.7795 63.4277 59.7795 62.7224V57.2606C59.7795 56.5555 59.2089 55.9835 58.5051 55.9835Z" fill="white"/>
</svg>
