<svg width="41" height="42" viewBox="0 0 41 42" fill="none" xmlns="http://www.w3.org/2000/svg">
<path d="M32.5918 19.7693C27.956 19.7693 24.1836 23.6338 24.1836 28.3827C24.1836 30.1959 24.7291 31.9311 25.7754 33.4199L31.6311 41.5073C31.8575 41.8173 32.2141 42 32.5918 42H32.593C32.9707 42 33.3273 41.8162 33.5537 41.5061L39.6464 33.0643C40.532 31.6704 41 30.0517 41 28.3827C41 23.6338 37.2276 19.7693 32.5918 19.7693ZM32.5918 32.0741C30.6047 32.0741 28.9883 30.4182 28.9883 28.3827C28.9883 26.3471 30.6047 24.6912 32.5918 24.6912C34.5789 24.6912 36.1953 26.3471 36.1953 28.3827C36.1953 30.4182 34.5789 32.0741 32.5918 32.0741Z" fill="#BC2024"/>
<path d="M1.81937 0.175093C1.44749 -0.0520535 0.986562 -0.0591903 0.608834 0.159507C0.232227 0.378122 0 0.786723 0 1.23011V25.9217C0 26.3543 0.221736 26.7544 0.582969 26.9767L12.0918 34.0012V6.43996L1.81937 0.175093Z" fill="#BC2024"/>
<path d="M38.0147 7.55797L26.5859 0.532999V19.1831C28.3053 18.0014 30.3703 17.3084 32.5918 17.3084C34.8133 17.3084 36.8783 18.0014 38.5977 19.1831V8.61298C38.5977 8.18043 38.3759 7.78028 38.0147 7.55797Z" fill="#BC2024"/>
<path d="M24.1836 0.532999L14.4941 6.43979V34.0012L21.8679 29.5183C21.8299 29.1412 21.7812 28.7657 21.7812 28.3826C21.7812 25.7727 22.7038 23.4027 24.1836 21.5078V0.532999Z" fill="#BC2024"/>
</svg>
