<svg width="40" height="40" viewBox="0 0 40 40" fill="none" xmlns="http://www.w3.org/2000/svg">
<path d="M29.375 30.5469C30.0222 30.5469 30.5469 30.0222 30.5469 29.375C30.5469 28.7278 30.0222 28.2031 29.375 28.2031C28.7278 28.2031 28.2031 28.7278 28.2031 29.375C28.2031 30.0222 28.7278 30.5469 29.375 30.5469Z" fill="#BC2024"/>
<path d="M10.625 11.7969C11.2722 11.7969 11.7969 11.2722 11.7969 10.625C11.7969 9.97779 11.2722 9.45312 10.625 9.45312C9.97779 9.45312 9.45312 9.97779 9.45312 10.625C9.45312 11.2722 9.97779 11.7969 10.625 11.7969Z" fill="#BC2024"/>
<path d="M13.6953 1.01094C12.3547 2.65781 11.2828 4.78672 10.4586 7.11328C8.65 7.19844 7.19453 8.65547 7.11328 10.4648C5.0625 11.2453 2.78516 12.3195 0.979688 13.7906C2.93984 7.76328 7.68047 3.00078 13.6953 1.01094Z" fill="#BC2024"/>
<path d="M13.6914 38.9875C7.67969 36.9969 2.94062 32.2359 0.979688 26.2102C3.60703 28.3539 7.23125 29.6578 9.69531 30.4305C10.5766 33.6898 11.8906 36.7742 13.6914 38.9875Z" fill="#BC2024"/>
<path d="M39.0211 13.7922C38.9992 13.7742 38.9773 13.7555 38.9555 13.7375C36.257 11.5055 32.8336 10.3547 30.3086 9.58438C29.4273 6.31953 28.1117 3.22891 26.3086 1.0125C32.3211 3.00312 37.0609 7.76484 39.0211 13.7922Z" fill="#BC2024"/>
<path d="M39.0211 26.207C37.0609 32.2352 32.3203 36.9984 26.3047 38.9891C27.6445 37.3422 28.7172 35.2133 29.5414 32.8867C31.3406 32.8023 32.7914 31.3586 32.8859 29.5617C34.9023 28.8195 37.1047 27.7937 38.9563 26.2617C38.9781 26.2437 39 26.2258 39.0211 26.207Z" fill="#BC2024"/>
<path d="M27.7414 9.02266C25.243 8.53594 22.5914 8.28125 20 8.28125C17.8734 8.28125 15.707 8.45234 13.618 8.78359C13.3766 8.39141 13.0594 8.04922 12.6867 7.77969C14.4031 3.14844 17.0414 0 20 0C23.2164 0 26.0539 3.72109 27.7414 9.02266Z" fill="#BC2024"/>
<path d="M27.3133 32.2203C25.5969 36.8516 22.9586 40 20 40C16.7836 40 13.9461 36.2789 12.2586 30.9773C14.757 31.4641 17.4086 31.7188 20 31.7188C22.1266 31.7188 24.293 31.5477 26.382 31.2164C26.6234 31.6086 26.9406 31.9508 27.3133 32.2203Z" fill="#BC2024"/>
<path d="M9.07266 27.7586C3.74531 26.0719 0 23.2266 0 20C0 17.0422 3.14844 14.4039 7.77969 12.6859C8.05781 13.0703 8.4125 13.3961 8.82031 13.6406C8.45547 15.8813 8.28125 18.0734 8.28125 20C8.28125 22.3156 8.53516 25.032 9.07266 27.7586Z" fill="#BC2024"/>
<path d="M40 20C40 22.9578 36.8516 25.5961 32.2203 27.3141C31.9422 26.9297 31.5875 26.6039 31.1797 26.3594C31.5445 24.1187 31.7188 21.9266 31.7188 20C31.7188 17.6844 31.4648 14.968 30.9273 12.2414C36.2547 13.9281 40 16.7734 40 20Z" fill="#BC2024"/>
<path d="M29.375 20C29.375 22.0109 29.2164 23.9961 28.9227 25.8883C27.3453 26.0922 26.0922 27.3453 25.8883 28.9227C23.9961 29.2164 22.0109 29.375 20 29.375C17.0633 29.375 14.1836 29.0367 11.5648 28.4352C10.9633 25.8164 10.625 22.9367 10.625 20C10.625 17.9891 10.7836 16.0039 11.0773 14.1117C12.6547 13.9078 13.9078 12.6547 14.1117 11.0773C16.0039 10.7836 17.9891 10.625 20 10.625C22.9367 10.625 25.8164 10.9633 28.4352 11.5648C29.0367 14.1836 29.375 17.0633 29.375 20Z" fill="#BC2024"/>
</svg>
