<svg width="42" height="43" viewBox="0 0 42 43" fill="none" xmlns="http://www.w3.org/2000/svg">
<path d="M17.2918 14.8008C17.9567 15.0409 18.6419 14.685 18.8695 14.0479C19.0994 13.3973 18.7782 12.6737 18.1341 12.4326C17.4765 12.1926 16.7857 12.5433 16.5564 13.1855C16.3264 13.8362 16.6478 14.5595 17.2918 14.8008Z" fill="#BC2024"/>
<path d="M21.6609 18.5015C25.8835 18.3846 30.0315 16.8394 33.3419 14.15C33.7652 13.8068 34.2651 13.6073 34.7838 13.4791L35.2693 12.114C35.4508 11.6047 35.2933 11.0338 34.8776 10.6967C30.7404 7.33558 25.553 5.4029 20.2718 5.25399C15.6528 5.12482 11.262 3.46854 7.57306 0.625447L7.12608 0.27111C6.81723 0.0213363 6.40995 -0.0623136 6.02776 0.0472039C5.64681 0.157897 5.34166 0.448237 5.20704 0.828441L0.0745202 15.1182C-0.106933 15.6275 0.0504851 16.1984 0.46507 16.5355C3.36823 18.8935 6.87236 20.5297 10.4767 21.3594C13.9521 19.6148 17.779 18.6108 21.6609 18.5015ZM23.494 15.7707C23.7265 15.1168 24.4326 14.7798 25.0711 15.0176C25.7098 15.2556 26.039 15.9786 25.8065 16.6323C25.5741 17.2862 24.8681 17.6233 24.2294 17.3852C23.5909 17.1474 23.2616 16.4244 23.494 15.7707ZM14.2445 12.3243C14.9402 10.367 17.066 9.35326 18.9753 10.0655C20.8883 10.7778 21.8785 12.9517 21.1815 14.9091C20.4866 16.8663 18.3619 17.8824 16.4507 17.1679C14.536 16.4534 13.5444 14.291 14.2445 12.3243ZM9.61892 10.6003C9.85131 9.94637 10.5574 9.60933 11.1961 9.84735C11.8346 10.0853 12.1638 10.8081 11.9315 11.4619C11.699 12.1158 10.9929 12.4528 10.3543 12.2148C9.71572 11.9769 9.38645 11.254 9.61892 10.6003Z" fill="#BC2024"/>
<path d="M11.7811 42.1708C11.9157 42.5522 12.2221 42.8425 12.6018 42.9521C12.9929 43.0653 13.3994 42.9731 13.7025 42.7269C17.4264 39.7016 22.0947 37.8781 26.8459 37.7453C32.1271 37.5964 37.3965 35.6637 41.5349 32.3026C41.9495 31.9654 42.1069 31.3946 41.9255 30.8853L36.793 16.6795C36.6584 16.2981 36.352 16.0078 35.9723 15.8983C35.5902 15.7876 35.1828 15.8712 34.8716 16.1234C31.1477 19.1487 26.4794 20.8882 21.7282 21.0199C16.4483 21.1687 11.2608 23.1015 7.12239 26.4638C6.70665 26.8009 6.54923 27.3718 6.73069 27.881L11.7811 42.1708ZM30.8039 25.6138C31.4426 25.3758 32.1487 25.7129 32.3811 26.3667C32.6136 27.0206 32.2844 27.7435 31.6457 27.9814C31.0071 28.2193 30.301 27.8822 30.0685 27.2285C29.8361 26.5746 30.1654 25.8518 30.8039 25.6138ZM23.0248 25.8314C24.9377 25.1191 27.061 26.1328 27.7556 28.0902C28.4525 30.0475 27.4624 32.2213 25.5494 32.9337C23.6433 33.6448 21.5214 32.6493 20.8185 30.6749C20.1216 28.7175 21.1117 26.5437 23.0248 25.8314ZM16.9289 30.7843C17.5674 30.5463 18.2735 30.8835 18.506 31.5372C18.7384 32.1911 18.4091 32.914 17.7706 33.1519C17.1319 33.3898 16.4259 33.0527 16.1935 32.399C15.961 31.7451 16.2903 31.0221 16.9289 30.7843Z" fill="#BC2024"/>
<path d="M24.7082 30.5667C25.3531 30.3252 25.6733 29.6012 25.4436 28.9514C25.2143 28.3095 24.5238 27.9582 23.8659 28.1984C23.2211 28.4399 22.9008 29.1638 23.1305 29.8137C23.3618 30.4612 24.0616 30.8078 24.7082 30.5667Z" fill="#BC2024"/>
</svg>
