<svg width="30" height="30" viewBox="0 0 30 30" fill="none" xmlns="http://www.w3.org/2000/svg">
<path d="M14.9999 0C6.71565 0 0 6.71565 0 14.9999C0 23.2841 6.71565 30 14.9999 30C23.2841 30 30 23.2841 30 14.9999C29.9907 6.71949 23.2805 0.00933831 14.9999 0ZM14.9999 28.4998C7.54401 28.4998 1.4999 22.4557 1.4999 14.9999C1.4999 7.54401 7.54401 1.4999 14.9999 1.4999C22.4557 1.4999 28.4998 7.54401 28.4998 14.9999C28.4913 22.4521 22.4521 28.4913 14.9999 28.4998Z" fill="white"/>
<path d="M13.2437 9.18537C12.9317 8.91263 12.4579 8.94449 12.1852 9.25623C11.9127 9.56824 11.9446 10.042 12.2563 10.3148L17.611 14.9999L12.256 19.6852C11.944 19.958 11.9124 20.4318 12.1849 20.7435C12.4576 21.0555 12.9314 21.0874 13.2434 20.8146L19.2433 15.5646C19.4062 15.4223 19.4996 15.2163 19.4996 14.9999C19.4996 14.7834 19.4062 14.5777 19.2433 14.4352L13.2437 9.18537Z" fill="white"/>
</svg>
