<svg width="76" height="76" viewBox="0 0 76 76" fill="none" xmlns="http://www.w3.org/2000/svg">
<path d="M37.9997 0C17.013 0 0 17.013 0 37.9997C0 58.9863 17.013 76 37.9997 76C58.9863 76 76 58.9863 76 37.9997C75.9763 17.0227 58.9773 0.0236571 37.9997 0ZM37.9997 72.1995C19.1115 72.1995 3.79976 56.8878 3.79976 37.9997C3.79976 19.1115 19.1115 3.79976 37.9997 3.79976C56.8878 3.79976 72.1995 19.1115 72.1995 37.9997C72.178 56.8788 56.8788 72.178 37.9997 72.1995Z" fill="white"/>
<path d="M33.5507 23.2696C32.7603 22.5787 31.56 22.6594 30.8691 23.4491C30.1789 24.2395 30.2596 25.4398 31.0493 26.1307L44.6146 37.9997L31.0486 49.8693C30.2582 50.5602 30.1782 51.7605 30.8684 52.5502C31.5593 53.3406 32.7596 53.4213 33.55 52.7304L48.7497 39.4302C49.1623 39.0698 49.3989 38.5479 49.3989 37.9997C49.3989 37.4514 49.1623 36.9302 48.7497 36.5691L33.5507 23.2696Z" fill="white"/>
</svg>
