<svg width="911" height="818" viewBox="0 0 911 818" fill="none" xmlns="http://www.w3.org/2000/svg">
<path d="M591.093 442.479C589.466 435.722 592.132 426.884 593.806 418.096C595.096 411.29 597.098 404.035 594.091 397.969C587.758 385.197 574.887 382.214 562.23 376.804C549.8 371.492 539.109 384.293 526.35 385.46C513.402 386.648 505.026 382.054 494.133 389.258C483.008 396.613 475.369 393.97 471.28 407.773C469.969 412.196 470.217 416.392 470.697 420.238C471.763 428.727 475.401 435.917 472.908 444.052C471.521 448.564 467.428 453.934 464.955 460.43C460.156 473.052 454.602 486.428 460.342 495.125C468.098 506.87 490.009 504.325 503.505 511.058C516.178 517.38 522.102 504.081 534.473 503.943C548.267 503.806 557.34 509.302 568.161 501.214M429.612 377.494C428.892 380.849 429.152 384.027 429.343 386.863C429.766 393.075 431.184 398.079 428.469 403.542C426.867 406.756 423.422 410.407 421.821 415.198C418.65 424.661 415.325 434.613 419.739 441.3C425.481 449.99 441.93 446.472 451.914 451.449C461.03 455.992 465.471 447.311 474.078 447.435C484.071 447.578 490.361 451.165 497.96 445.142C504.856 439.677 517.694 436.373 522.575 426.574C529.042 413.585 517.354 410.113 514.522 401.713C512.976 397.116 513.894 391.085 514.361 384.713C514.704 380.021 516.124 374.606 514.084 369.913M449.691 368.9C443.192 373.195 440.874 373.87 439.585 382.391C439.155 385.218 439.421 387.873 439.466 390.211C439.569 395.28 439.829 399.19 437.046 403.321C435.309 405.888 432.218 408.682 431.046 412.618C428.694 420.51 426.48 428.745 430.232 434.427C434.959 441.592 448.671 437.581 456.905 441.686C464.244 445.348 467.946 438.979 474.698 439.232C482.791 439.528 487.694 442.158 493.678 437.166C499.007 432.726 508.844 429.77 512.851 421.729C518.476 410.425 509.845 407.925 507.049 401.388C505.546 397.871 505.601 393.266 505.448 388.074C505.343 384.452 506.454 379.947 504.896 375.933M654.32 10.8393C732.78 49.9648 828.196 42.7838 873.287 111.052C919.804 181.485 801.487 306.378 806.729 390.632C811.812 472.298 941.781 513.181 902.675 591.68C863.569 670.178 734.119 687.399 665.884 732.512C595.486 779.052 535.008 738.161 450.788 743.403C369.163 748.488 335.761 846.96 257.294 807.833C178.834 768.707 55.8437 753.165 10.7529 684.897C-35.7642 614.463 99.5094 471.895 94.2676 387.64C89.1869 305.968 2.14158 240.632 41.2477 162.133C80.3538 83.6345 153.092 126.757 221.333 81.6466C291.732 35.1065 343.484 71.8818 427.697 66.6374C509.327 61.5611 575.86 -28.2861 654.32 10.8393ZM262.285 798.07C185.575 759.816 65.3212 744.766 21.2384 678.022C-8.41832 633.112 37.3937 558.255 71.4767 488.747C89.6751 451.636 104.569 416.083 102.835 387.424C99.4645 332.217 57.7802 284.65 45.0471 235.138C39.3831 213.099 39.45 190.675 51.2067 167.026C89.3748 90.2712 160.351 132.305 227.042 88.2163C295.831 42.7396 346.411 78.6448 428.698 73.5133C508.469 68.5339 573.496 -19.2329 650.174 18.9793C726.859 57.1937 820.036 50.2881 864.08 117.057C884.392 147.858 872.539 189.283 853.684 233.014C830.404 287.117 796.382 344.771 799.239 390.286C804.268 470.075 931.199 510 892.933 586.821C854.701 663.562 728.247 680.425 661.579 724.513C592.797 770.015 533.697 730.085 451.389 735.187C371.633 740.148 338.97 836.307 262.285 798.07ZM267.276 788.306C192.32 750.934 74.7988 736.367 31.7287 671.156C2.73489 627.251 47.4307 554.102 80.699 486.173C98.4616 449.915 113.043 415.187 111.41 387.209C108.193 333.302 67.5737 286.859 55.1655 238.499C49.6456 216.965 49.7036 195.049 61.1681 171.934C98.3961 96.9305 167.604 137.873 232.753 94.8019C299.932 50.3887 349.34 85.4237 429.704 80.3983C507.611 75.5295 571.125 -10.1593 646.021 27.1396C720.93 64.4431 811.876 57.8151 854.876 123.079C874.708 153.194 863.14 193.67 844.764 236.373C822.1 289.219 788.931 345.519 791.758 389.958C796.725 467.853 920.617 506.819 883.184 581.96C845.835 656.939 722.369 673.448 657.272 716.521C590.098 760.989 532.392 722.018 451.984 726.968C374.098 731.798 342.183 825.662 267.276 788.306ZM272.266 778.544C199.068 742.046 84.2764 727.97 42.2144 664.282C13.8835 621.382 57.47 549.943 89.9167 483.592C107.243 448.186 121.517 414.292 119.98 386.986C116.908 334.384 77.3671 289.07 65.2815 241.845C59.9057 220.816 59.9548 199.407 71.1273 176.827C107.415 103.575 174.856 143.418 238.464 101.365C304.034 58.0156 352.269 92.1805 430.708 87.268C506.753 82.5029 568.76 -1.10553 641.872 35.287C715.002 71.6703 803.714 65.3268 845.666 129.092C865.019 158.522 853.736 198.049 835.832 239.722C813.789 291.319 781.478 346.253 784.261 389.61C789.188 465.634 910.04 503.648 873.446 577.111C836.967 650.323 716.488 666.479 652.965 708.53C587.407 751.96 531.088 713.946 452.583 718.76C376.568 723.459 345.392 815.01 272.266 778.544ZM277.257 768.78C205.816 733.157 93.7539 719.57 52.7045 657.416C25.0365 615.521 67.5069 545.79 99.1389 481.018C116.03 446.465 129.995 413.406 128.548 386.769C125.62 335.472 87.1535 291.276 75.3882 245.194C70.1567 224.67 70.2037 203.771 81.0794 181.717C116.427 110.215 182.102 148.961 244.166 107.932C308.133 65.6481 355.19 98.9406 431.705 94.1342C505.889 89.4728 566.387 7.9516 637.712 43.4217C709.066 78.8941 795.54 72.8258 836.448 135.085C855.313 163.828 844.329 202.411 826.897 243.053C805.471 293.392 774.016 346.966 776.766 389.255C781.638 463.408 899.453 500.458 863.693 572.241C828.101 643.699 710.61 659.502 648.658 700.537C584.707 742.933 529.775 705.876 453.175 710.548C379.039 715.111 348.607 804.358 277.257 768.78ZM282.248 759.018C212.564 724.269 103.232 711.172 63.1902 650.542C36.1851 609.652 77.5393 541.628 108.357 478.436C124.814 444.729 138.469 412.511 137.116 386.552C134.342 336.556 96.9446 293.493 85.502 248.547C80.4145 228.528 80.4549 208.129 91.0363 186.617C125.443 116.866 189.353 154.513 249.873 114.509C312.23 73.2887 358.123 105.706 432.704 101.018C505.026 96.4599 564.018 17.0191 633.558 51.5828C703.131 86.1419 787.373 80.3513 827.241 141.114C845.626 169.171 834.927 206.807 817.973 246.426C797.169 295.511 766.57 347.724 769.276 388.932C774.094 461.187 888.869 497.285 853.951 567.383C819.235 637.077 704.741 652.521 644.359 692.541C582.026 733.899 528.479 697.805 453.776 702.332C381.509 706.771 351.823 793.707 282.248 759.018ZM287.241 749.248C219.314 715.373 112.711 702.767 73.6781 643.66C47.3428 603.778 87.5809 537.462 117.574 475.854C133.596 442.999 146.996 411.617 145.686 386.329C143.164 337.635 106.731 295.701 95.618 251.892C90.6747 232.378 90.7063 212.487 101.002 191.512C134.463 123.51 196.61 160.068 255.592 121.074C316.341 80.9104 361.06 112.465 433.715 107.889C504.175 103.435 561.661 26.0746 629.41 59.7296C697.207 93.3777 779.218 87.8647 818.034 147.12C835.939 174.492 825.445 211.144 809.043 249.767C788.757 297.547 759.113 348.448 761.786 388.586C766.558 458.966 878.294 494.106 844.206 562.531C810.365 630.467 698.867 645.554 640.059 684.551C579.333 724.875 527.18 689.741 454.385 694.118C383.981 698.424 355.031 783.054 287.241 749.248ZM292.225 739.483C226.052 706.49 122.189 694.368 84.1616 636.792C58.4892 597.916 97.6089 533.314 126.797 473.28C142.382 441.279 155.483 410.727 154.254 386.112C151.894 338.714 116.525 297.911 105.725 255.242C100.926 236.233 100.948 216.849 110.952 196.409C143.472 130.158 203.854 165.617 261.285 127.647C320.424 88.546 363.971 119.23 434.703 114.76C503.302 110.41 559.278 35.137 625.245 67.8788C691.267 100.616 771.042 95.3713 808.816 153.137C826.237 179.814 816.019 215.523 800.109 253.121C780.419 299.637 751.658 349.187 754.287 388.244C759.014 456.744 867.703 490.93 834.457 557.671C801.492 623.842 692.989 638.577 635.745 676.557C576.636 715.843 525.86 681.67 454.97 685.905C386.444 690.081 358.247 772.403 292.225 739.483ZM297.216 729.719C232.8 697.601 131.667 685.97 94.6474 629.917C69.6355 592.053 107.648 529.154 136.015 470.698C151.164 439.549 163.964 409.834 162.824 385.889C160.632 339.795 126.311 300.118 115.841 258.587C111.186 240.083 111.207 221.209 120.914 201.295C152.494 136.795 211.116 171.158 266.996 134.209C324.526 96.1723 366.9 125.987 435.707 121.629C502.442 117.39 556.914 44.1902 621.092 76.0164C685.332 107.84 762.875 102.873 799.605 159.134C816.545 185.125 806.598 219.881 791.175 256.453C772.087 301.707 744.196 349.902 746.786 387.887C751.46 454.511 857.112 487.731 824.697 552.798C792.615 617.207 687.099 631.589 631.429 668.547C573.927 706.799 524.547 673.578 455.56 677.677C388.916 681.734 361.454 761.756 297.216 729.719ZM302.207 719.956C239.548 688.712 141.144 677.571 105.137 623.052C80.7885 586.192 117.685 525.001 145.237 468.125C159.953 437.821 172.452 408.942 171.397 385.681C169.365 340.89 136.109 302.337 125.959 261.949C121.448 243.949 121.46 225.582 130.875 206.203C161.515 143.454 218.37 176.719 272.71 140.788C328.636 103.817 369.832 132.759 436.715 128.508C501.588 124.372 554.552 53.2592 616.948 84.1722C679.412 115.085 754.724 110.396 790.4 165.155C806.86 190.462 797.192 224.266 782.254 259.812C763.769 303.804 736.754 350.645 739.307 387.552C743.93 452.293 846.542 484.562 814.968 547.944C783.76 610.595 681.241 624.619 627.142 660.562C571.257 697.775 523.262 665.518 456.175 669.466C391.386 673.393 364.669 751.105 302.207 719.956ZM307.197 710.194C246.296 679.824 150.622 669.173 115.623 616.177C91.9441 580.325 127.718 520.84 154.455 465.543C168.735 436.092 180.933 408.05 179.96 385.455C178.096 341.969 145.896 304.544 136.068 265.292C131.702 247.798 131.705 229.938 140.828 211.094C170.527 150.096 225.616 182.262 278.412 147.356C332.729 111.448 372.752 139.52 437.71 135.382C500.722 131.349 552.171 62.315 612.783 92.3215C673.466 122.321 746.546 117.909 781.182 171.172C797.162 195.793 787.765 228.645 773.311 263.171C755.428 305.902 729.283 351.387 731.797 387.222C736.38 450.068 835.953 481.379 805.22 543.084C774.888 603.97 675.356 617.641 622.828 652.568C568.557 688.75 521.942 657.448 456.76 661.252C393.856 665.053 367.878 740.451 307.197 710.194ZM312.188 700.43C253.037 670.933 160.1 660.774 126.109 609.302C103.093 574.455 137.757 516.68 163.67 462.967C177.515 434.369 189.413 407.156 188.528 385.238C186.831 343.057 155.682 306.751 146.175 268.642C141.953 251.652 141.947 234.3 150.787 215.986C179.546 156.739 232.867 187.814 284.121 153.925C336.828 119.081 375.681 146.276 438.714 142.25C499.871 138.324 549.807 71.3679 608.637 100.461C667.546 129.543 738.386 125.413 771.977 177.171C787.471 201.104 778.352 233.005 764.391 266.507C747.111 307.976 721.842 352.108 724.318 386.864C728.839 447.839 825.371 478.198 795.471 538.223C766.015 597.344 669.478 610.664 618.523 644.569C565.862 679.71 520.639 649.374 457.362 653.036C396.328 656.706 371.093 729.8 312.188 700.43ZM317.181 690.661C259.786 662.038 169.582 652.362 136.601 602.43C114.248 568.589 147.796 512.52 172.895 460.387C186.303 432.642 197.901 406.266 197.105 385.017C195.568 344.138 165.482 308.964 156.298 271.99C152.226 255.508 152.211 238.663 160.753 220.881C188.571 163.385 240.126 193.362 289.839 160.491C340.936 126.71 378.624 153.037 439.724 149.122C499.02 145.3 547.447 80.4307 604.488 108.608C661.615 136.777 730.223 132.925 762.768 183.184C777.781 206.432 768.936 237.372 755.459 269.855C738.781 310.062 714.381 352.839 716.819 386.523C721.286 445.622 814.782 475.016 785.721 533.362C757.147 590.728 663.597 603.695 614.215 636.577C563.169 670.687 519.333 641.308 457.954 644.825C398.798 648.366 374.302 719.147 317.181 690.661ZM322.172 680.898C266.532 653.156 179.059 643.963 147.087 595.555C125.397 562.719 157.826 508.365 182.119 457.807C195.094 430.907 206.391 405.368 205.673 384.801C204.304 345.227 175.269 311.171 166.412 275.342C162.484 259.365 162.46 243.027 170.709 225.78C197.588 170.036 247.377 198.914 295.546 167.068C345.033 134.35 381.549 159.807 440.726 155.998C498.157 152.286 545.081 89.4908 600.33 116.76C655.682 144.017 722.059 140.443 753.559 189.196C768.092 211.759 759.525 241.749 746.534 273.205C730.452 312.148 706.935 353.574 709.336 386.18C713.752 443.395 804.208 471.837 775.982 528.497C748.283 584.098 657.728 596.714 609.913 628.571C560.476 661.641 518.027 633.218 458.56 636.595C401.263 640.016 377.518 708.496 322.172 680.898ZM327.163 671.135C273.28 644.267 188.537 635.564 157.577 588.689C136.55 556.858 167.87 504.215 191.342 455.234C203.881 429.187 214.876 404.484 214.247 384.586C213.046 346.317 185.067 313.39 176.525 278.694C172.742 263.222 172.71 247.391 180.666 230.68C206.605 176.686 254.627 204.466 301.253 173.644C349.137 141.992 384.474 166.576 441.725 162.881C497.295 159.273 542.71 98.5643 596.179 124.913C649.756 151.26 713.894 147.961 744.347 195.215C758.394 217.091 750.105 246.129 737.605 276.569C722.125 314.25 699.478 354.32 701.839 385.854C706.204 441.186 793.621 468.67 766.233 523.659C739.411 577.496 651.85 589.76 605.606 620.602C557.786 652.633 516.721 625.174 459.152 628.406C403.733 631.676 380.726 697.842 327.163 671.135ZM332.147 661.369C280.02 635.376 198.007 627.164 168.056 581.813C147.698 550.989 177.895 500.051 200.552 452.649C212.655 427.455 223.352 403.582 222.811 384.36C221.769 347.394 194.849 315.588 186.634 282.037C182.995 267.07 182.954 251.747 190.621 235.563C215.621 183.314 261.882 210.004 306.959 180.198C353.234 149.61 387.398 173.324 442.726 169.734C496.435 166.23 540.343 107.602 592.021 133.042C643.816 158.475 705.723 155.454 735.131 201.203C748.698 222.393 740.68 250.479 728.666 279.892C713.788 316.311 691.947 355.035 694.342 385.483C698.543 438.948 783.032 465.465 756.479 518.766C730.538 570.848 645.967 582.752 601.294 612.578C555.081 643.576 515.41 617.076 459.74 620.163C406.204 623.329 383.939 687.198 332.147 661.369ZM337.138 651.607C286.768 626.488 207.485 618.765 178.542 574.938C158.847 545.12 187.928 495.889 209.77 450.067C221.437 425.725 231.833 402.689 231.374 384.135C230.502 348.466 204.635 317.796 196.744 285.38C193.249 270.918 193.173 256.087 200.58 240.456C224.535 189.907 269.132 215.556 312.668 186.768C357.335 157.236 390.325 180.087 443.728 176.61C495.575 173.21 537.974 116.669 587.87 141.196C637.89 165.718 697.558 162.972 725.926 207.225C739.013 227.729 731.274 254.864 719.745 283.251C705.47 318.408 684.499 355.776 686.854 385.153C690.995 436.74 772.455 462.293 746.739 513.924C721.674 564.24 640.098 575.793 596.991 604.595C552.395 634.555 514.102 609.016 460.345 611.956C408.674 614.989 387.155 676.547 337.138 651.607ZM342.128 641.844C293.516 617.599 216.969 610.369 189.032 568.072C170 539.259 197.972 491.739 218.99 447.501C230.224 424.005 240.316 401.812 239.946 383.927C239.235 349.561 214.426 320.012 206.862 288.741C203.511 274.784 203.426 260.46 210.541 245.364C233.549 196.564 276.387 221.118 318.38 193.354C361.437 164.885 393.254 186.866 444.734 183.495C494.719 180.198 535.612 125.738 583.719 149.349C631.956 172.959 689.4 170.492 716.717 213.237C729.324 233.056 721.856 259.238 710.813 286.599C697.141 320.494 677.037 356.513 679.362 384.814C683.445 434.515 761.871 459.119 736.997 509.066C712.806 557.624 634.226 568.819 592.69 596.606C549.702 625.531 512.801 600.845 460.944 603.747C411.135 606.539 390.363 665.894 342.128 641.844ZM347.119 632.081C300.261 608.718 226.447 601.971 199.517 561.198C181.148 533.39 208.004 487.577 228.208 444.919C239.005 422.275 248.799 400.912 248.514 383.711C247.968 350.656 224.217 322.229 216.969 292.092C213.762 278.64 213.669 264.823 220.491 250.262C242.552 203.21 283.631 226.667 324.082 199.921C365.529 172.516 396.177 193.62 445.729 190.369C493.852 187.176 533.232 134.794 579.561 157.501C626.023 180.199 681.229 178.008 707.505 219.257C719.625 238.388 712.436 263.619 701.886 289.956C688.816 322.589 669.582 357.253 671.87 384.475C675.893 432.297 751.289 455.939 727.248 504.205C703.94 551.001 628.341 561.84 588.386 588.607C547.014 616.494 511.493 592.762 461.546 595.531C413.607 598.192 393.579 655.243 347.119 632.081ZM352.112 622.311C307.012 599.822 235.927 593.565 210.003 554.323C192.304 527.523 218.041 483.424 237.432 442.339C247.794 420.548 257.287 400.021 257.085 383.487C256.706 351.737 234.006 324.43 227.085 295.437C224.022 282.49 223.922 269.173 230.453 255.148C251.567 209.845 290.886 232.206 329.794 206.484C369.638 180.145 399.107 200.376 446.726 197.236C492.999 194.158 530.872 143.856 575.413 165.648C620.095 187.426 673.067 185.519 698.296 225.269C709.936 243.715 703.018 267.993 692.952 293.31C680.478 324.68 662.12 357.99 664.375 384.142C668.338 430.087 740.709 452.774 717.502 499.36C695.07 544.392 622.465 554.88 584.074 580.629C544.31 607.482 510.178 584.7 462.134 587.333C416.072 589.842 396.788 644.589 352.112 622.311ZM357.103 612.548C313.752 590.931 245.405 585.167 220.496 547.451C203.459 521.655 228.08 479.265 246.657 439.759C256.583 418.82 265.774 399.13 265.661 383.266C265.443 352.819 243.806 326.642 237.208 298.785C234.289 286.342 234.18 273.533 240.419 260.042C260.585 216.488 298.143 237.76 335.509 213.056C373.743 187.78 402.047 207.144 447.736 204.107C492.135 201.129 528.501 152.907 571.259 173.786C614.166 194.653 664.9 193.021 689.085 231.266C700.247 249.02 693.604 272.354 684.025 296.644C672.152 326.752 654.662 358.714 656.883 383.78C660.787 427.839 730.127 449.571 707.753 494.477C686.195 537.75 616.587 547.881 579.769 572.607C541.622 598.422 508.876 576.597 462.73 579.085C418.546 581.488 400.003 633.938 357.103 612.548ZM362.094 602.785C320.5 582.043 254.882 576.768 230.979 540.583C214.605 515.793 238.111 475.11 255.872 437.183C265.363 417.097 274.255 398.237 274.229 383.049C274.179 353.907 253.591 328.856 247.314 302.134C244.54 290.197 244.422 277.896 250.375 264.942C269.595 223.136 305.4 243.314 341.218 219.626C377.843 195.414 404.974 213.907 448.738 210.983C491.275 208.108 526.132 161.974 567.102 181.937C608.233 201.893 656.735 200.539 679.873 237.285C690.549 254.351 684.184 276.734 675.098 300.001C663.828 328.847 647.207 359.453 649.395 383.45C653.239 425.631 719.548 446.406 698.015 489.627C677.334 531.136 610.72 540.915 575.473 564.627C538.933 589.408 507.578 568.533 463.341 570.888C421.011 573.139 403.21 623.292 362.094 602.785ZM367.078 593.02C327.241 573.152 264.353 568.367 241.465 533.708C225.754 509.923 248.15 470.95 265.088 434.608C274.144 415.368 282.733 397.351 282.788 382.837C282.905 354.999 263.375 331.07 257.419 305.491C254.789 294.059 254.655 282.262 260.326 269.839C278.598 229.782 312.644 248.864 346.918 226.2C381.94 203.054 407.901 220.67 449.739 217.859C490.415 215.088 523.765 171.034 562.95 190.091C602.3 209.133 648.57 208.058 670.664 243.298C680.859 259.679 674.766 281.109 666.166 303.349C655.498 330.933 639.747 360.184 641.898 383.102C645.689 423.406 708.961 443.217 688.259 484.764C668.461 524.511 604.789 533.868 571.152 556.63C536.177 580.302 506.253 560.453 463.919 562.672C423.483 564.792 406.425 612.641 367.078 593.02ZM372.068 583.257C333.986 564.27 273.83 559.969 251.95 526.833C236.909 504.056 258.109 466.756 274.305 432.025C282.887 413.618 291.214 396.458 291.358 382.613C291.635 356.078 273.161 333.278 267.535 308.837C265.049 297.91 264.906 286.62 270.284 274.732C287.612 236.417 319.896 254.409 352.627 232.77C386.032 210.685 410.819 227.438 450.734 224.733C489.554 222.068 521.389 180.099 558.788 198.233C596.362 216.365 640.394 215.564 661.441 249.306C671.156 265.001 665.335 285.478 657.225 306.701C647.16 333.024 632.276 360.925 634.397 382.767C638.127 421.193 698.368 440.047 678.508 479.91C659.584 517.899 598.904 526.889 566.844 548.638C533.479 571.27 504.95 552.379 464.52 554.456C425.948 556.442 409.634 601.987 372.068 583.257ZM377.059 573.494C340.734 555.382 283.308 551.57 262.434 519.965C248.056 498.193 268.139 462.601 283.521 429.45C291.667 411.895 299.693 395.571 299.926 382.397C300.368 357.173 282.955 335.487 277.649 312.189C275.307 301.767 275.156 290.985 280.242 279.631C296.622 243.065 327.147 259.962 358.337 239.34C390.138 218.32 413.748 234.194 451.738 231.602C488.697 229.041 519.025 189.152 554.639 206.38C590.432 223.598 632.239 223.078 652.241 255.314C661.47 270.321 655.933 289.85 648.302 310.044C638.84 335.105 624.825 361.651 626.909 382.414C630.582 418.955 687.791 436.853 668.764 475.036C650.716 511.26 593.03 519.899 562.542 540.632C530.786 562.223 503.644 544.29 465.117 546.231C428.421 548.095 412.85 591.336 377.059 573.494ZM382.052 563.724C347.484 546.486 292.788 543.165 272.928 513.086C259.213 492.319 278.181 458.435 292.754 426.865C300.465 410.163 308.189 394.676 308.505 382.169C309.115 358.25 292.757 337.693 287.767 315.527C285.569 305.61 285.409 295.336 290.21 284.519C305.643 249.702 334.406 265.509 364.055 245.905C394.246 225.949 416.684 240.952 452.748 238.474C487.843 236.023 516.668 198.208 550.491 214.527C584.508 230.834 624.143 230.55 643.032 261.326C651.81 275.628 646.515 294.224 639.377 313.394C630.515 337.2 617.372 362.384 619.424 382.077C623.036 416.739 677.213 433.682 659.026 470.187C641.861 504.648 587.157 512.932 558.241 532.643C528.102 553.196 502.34 536.217 465.716 538.022C430.895 539.741 416.065 580.685 382.052 563.724ZM387.043 553.961C354.232 537.598 302.266 534.766 283.412 506.218C270.36 486.457 288.211 454.28 301.97 424.29C309.244 408.44 316.67 393.783 317.071 381.959C317.841 359.343 302.541 339.907 297.878 318.886C295.832 309.477 295.656 299.707 300.167 289.419C314.653 256.35 341.657 271.061 369.762 252.482C398.346 233.582 419.609 247.722 453.75 245.35C486.984 243.003 514.292 207.272 546.342 222.674C578.584 238.07 615.983 238.054 633.823 267.339C642.121 280.955 637.097 298.598 630.445 316.742C622.178 339.284 609.91 363.121 611.927 381.729C615.479 414.512 666.627 430.492 649.28 465.319C632.989 498.023 581.274 505.946 553.937 524.644C525.408 544.156 501.039 528.136 466.318 529.805C433.36 531.391 419.274 570.031 387.043 553.961ZM392.034 544.198C360.98 528.709 311.75 526.37 293.904 499.346C281.515 480.589 298.248 450.127 311.194 421.71C318.028 406.703 325.157 392.892 325.648 381.737C326.583 360.433 312.3 342.128 308.001 322.234C306.074 313.336 305.914 304.067 310.132 294.313C323.672 262.993 348.916 276.609 375.48 259.047C402.454 241.211 422.552 254.483 454.76 252.221C486.133 249.978 511.934 216.328 542.193 230.82C572.655 245.297 607.827 245.568 624.622 273.347C632.441 286.278 627.693 302.976 621.527 320.094C613.86 341.381 602.464 363.856 604.448 381.394C607.947 412.302 656.056 427.322 639.542 460.47C624.127 491.409 575.409 498.974 549.643 516.656C522.721 535.135 499.742 520.065 466.926 521.592C435.832 523.044 422.487 559.387 392.034 544.198ZM397.025 534.435C367.725 519.828 321.227 517.972 304.39 492.471C292.67 474.722 308.28 445.965 320.41 419.135C326.808 404.981 333.636 392.006 334.215 381.521C335.309 361.526 322.087 344.336 318.108 325.584C316.324 317.191 316.156 308.429 320.082 299.211C332.674 269.64 356.166 282.161 381.179 265.621C406.544 248.849 425.47 261.251 455.755 259.095C485.266 256.955 509.559 225.393 538.035 238.972C566.722 252.537 599.656 253.084 615.404 279.364C622.742 291.61 618.266 307.355 612.586 323.447C605.522 343.472 594.995 364.591 596.942 381.051C600.38 410.08 645.461 424.138 629.786 455.607C615.252 484.791 569.517 491.993 545.329 508.663C520.017 526.1 498.431 511.99 467.518 513.38C438.297 514.695 425.696 548.734 397.025 534.435ZM402.015 524.672C374.473 510.939 330.705 509.573 314.873 485.603C303.816 468.86 318.31 441.81 329.625 416.559C335.587 403.258 342.112 391.127 342.777 381.302C344.035 362.619 331.864 346.548 328.215 328.934C326.575 321.046 326.398 312.792 330.032 304.108C341.677 276.286 363.41 287.711 386.879 272.196C410.641 256.489 428.388 268.019 456.747 265.976C484.396 263.94 507.183 234.457 533.87 247.121C560.775 259.773 591.484 260.599 606.188 285.374C613.046 296.935 608.841 311.727 603.654 326.794C597.19 345.565 587.533 365.328 589.45 380.712C592.828 407.862 634.877 420.964 620.037 450.746C606.379 478.165 563.639 485.017 541.015 500.668C517.313 517.066 497.114 503.912 468.103 505.167C440.769 506.348 428.911 538.083 402.015 524.672ZM406.999 514.906C381.207 502.046 340.178 501.165 325.359 478.728C314.965 462.99 328.343 437.648 338.843 413.977C344.369 401.528 350.593 390.233 351.345 381.085C352.768 363.713 341.655 348.764 338.329 332.286C336.833 324.903 336.647 317.156 339.999 309.002C350.696 282.929 370.668 293.265 392.598 278.761C414.75 264.117 431.327 274.77 457.76 272.84C483.548 270.908 504.828 243.506 529.731 255.263C554.861 267.004 583.333 268.099 596.988 291.382C603.362 302.248 599.437 316.105 594.739 330.139C588.874 347.655 580.089 366.056 581.969 380.361C585.294 405.635 624.306 417.771 610.304 445.883C597.523 471.537 557.77 478.035 536.726 492.667C514.634 508.023 495.829 495.829 468.716 496.939C443.234 497.998 432.12 527.429 406.999 514.906ZM411.992 505.137C387.957 493.151 349.658 492.76 335.844 471.854C326.113 457.121 338.375 433.487 348.061 411.395C353.153 399.792 359.073 389.341 359.914 380.862C361.497 364.8 351.444 350.965 348.444 335.632C347.093 328.754 346.898 321.514 349.957 313.895C359.708 289.57 377.92 298.81 398.307 285.331C418.849 271.751 434.253 281.533 458.762 279.716C482.685 277.895 502.436 252.619 525.573 263.415C548.902 274.298 575.169 275.617 587.772 297.392C593.665 307.573 590.012 320.478 585.8 333.485C580.536 349.746 572.62 366.791 574.463 380.017C577.729 403.406 613.708 414.593 600.541 441.018C588.634 464.914 551.877 471.055 532.405 484.671C511.922 498.987 494.505 487.749 469.301 488.726C445.706 489.651 435.335 516.778 411.992 505.137ZM416.983 495.374C394.705 484.262 359.135 484.361 346.337 464.981C337.276 451.255 348.414 429.327 357.292 408.817C361.942 398.064 367.573 388.461 368.492 380.64C370.232 365.888 361.244 353.177 358.56 338.977C357.354 332.604 357.149 325.871 359.917 318.788C368.725 296.221 385.173 304.355 404.016 291.9C422.948 279.384 437.18 288.296 459.763 286.592C481.825 284.874 500.067 261.685 521.424 271.561C542.971 281.531 567.006 283.128 578.57 303.407C583.983 312.902 580.606 324.863 576.88 336.844C572.216 351.85 565.172 367.533 566.984 379.683C570.19 401.193 603.14 411.417 590.813 436.164C579.789 458.298 546.015 464.076 528.113 476.676C509.239 489.959 493.217 479.673 469.91 480.512C448.178 481.304 438.544 506.125 416.983 495.374ZM421.974 485.611C401.45 475.38 368.613 475.963 356.82 458.113C348.422 445.393 358.442 425.179 366.505 406.248C370.719 396.348 376.047 387.589 377.057 380.431C378.96 366.997 371.029 355.391 368.672 342.336C367.609 336.468 367.396 330.243 369.873 323.687C377.735 302.869 392.423 309.907 409.725 298.47C427.047 287.017 440.107 295.06 460.767 293.461C480.968 291.847 497.701 270.746 517.269 279.706C537.041 288.765 558.844 290.639 569.356 309.411C574.289 318.22 571.181 329.235 567.943 340.183C563.879 353.933 557.705 368.261 559.481 379.332C562.633 398.966 592.545 408.232 581.057 431.301C570.909 451.67 540.13 457.097 523.799 468.682C506.541 480.926 491.9 471.595 470.504 472.294C450.643 472.955 441.76 495.474 421.974 485.611ZM426.965 475.848C408.198 466.492 378.091 467.564 367.306 451.239C359.571 439.523 368.475 421.017 375.723 403.666C379.501 394.619 384.518 386.7 385.627 380.207C387.684 368.096 380.815 357.598 378.788 345.681C377.869 340.318 377.654 334.603 379.833 328.58C386.754 309.513 399.68 315.462 415.434 305.04C431.153 294.653 443.041 301.825 461.769 300.337C480.108 298.827 495.327 279.804 513.118 287.86C531.108 296.005 550.679 298.158 560.144 315.43C564.598 323.554 561.766 333.625 559.016 343.54C555.55 356.042 550.25 369 551.995 378.995C555.092 396.76 581.97 405.054 571.315 426.443C562.041 445.054 534.259 450.123 519.501 460.686C503.853 471.889 490.605 463.517 471.106 464.078C453.116 464.607 444.966 484.827 426.965 475.848ZM431.956 466.085C414.946 457.603 387.568 459.166 377.799 444.366C370.726 433.656 378.514 416.858 384.948 401.086C388.29 392.891 393.003 385.816 394.195 379.99C396.401 369.193 390.608 359.808 388.892 349.038C388.118 344.18 387.894 338.972 389.787 333.486C395.761 316.168 406.929 321.021 421.138 311.623C435.248 302.299 445.964 308.602 462.768 307.22C479.252 305.816 492.956 288.877 508.958 296.018C525.172 303.252 542.513 305.682 550.931 321.456C554.904 328.895 552.348 338.022 550.079 346.901C547.209 358.162 542.79 369.753 544.492 378.667C547.528 394.553 571.374 401.891 561.559 421.602C553.169 438.452 528.367 443.164 515.18 452.712C501.14 462.882 489.281 455.46 471.684 455.884C455.588 456.26 448.182 474.176 431.956 466.085ZM436.947 456.322C421.694 448.714 397.053 450.769 388.282 437.498C381.873 427.793 388.542 412.709 394.163 398.51C397.072 391.162 401.477 384.943 402.763 379.773C405.114 370.304 400.393 362.022 399.006 352.39C398.376 348.037 398.143 343.336 399.744 338.386C404.776 322.825 414.179 326.573 426.848 318.193C439.35 309.926 448.893 315.358 463.769 314.096C478.392 312.796 490.589 297.937 504.809 304.165C519.248 310.488 534.35 313.194 541.724 327.462C545.21 334.213 542.935 342.405 541.155 350.251C538.88 360.271 535.337 370.486 537.009 378.324C539.992 392.333 560.801 398.706 551.82 416.737C544.305 431.822 522.498 436.183 510.882 444.715C498.452 453.844 487.987 447.382 472.292 447.671C458.06 447.913 451.397 463.525 436.947 456.322ZM490.418 486.235C478.677 480.383 459.498 483.411 452.748 473.197C447.671 465.505 452.108 453.836 456.1 442.796C458.137 437.153 461.913 432.644 463.398 428.774C466.011 421.974 463.47 415.881 462.733 408.529C462.398 405.188 462.14 401.5 463.159 397.612C466.315 385.562 472.182 387.104 481.763 380.774C491.045 374.633 498.249 378.357 509.272 377.282C520.169 376.219 529.353 365.499 540 369.904C550.881 374.403 561.511 377.668 566.802 388.928C569.329 394.309 567.612 400.638 566.795 406.39C565.723 413.962 563.926 421.399 565.523 427.08C568.404 437.346 583.132 441.793 575.826 456.459C570.068 468.023 554.238 471.671 545.767 478.166C536.561 485.223 528.877 480.676 516.985 480.678C506.496 480.674 501.317 491.668 490.418 486.235ZM493.319 437.166C486.842 433.936 475.859 438.436 472.138 432.802C469.057 428.128 470.161 421.603 471.684 415.286C472.427 412.205 475.14 410.252 477.03 408.345C479.834 405.523 480.778 402.73 480.996 398.804C481.095 396.971 480.834 394.828 480.961 392.524C481.341 385.773 481.868 383.983 486.816 380.711C491.276 377.763 494.958 378.867 500.207 378.124C505.527 377.374 510.191 372.895 515.466 374.568C521.02 376.318 524.93 380.446 527.096 387.184C528.167 390.511 527.424 394.14 527.932 396.663C528.75 400.728 529.53 403.852 530.968 406.28C533.75 410.962 539.313 412.479 534.512 422.107C531.381 428.384 524.536 430.995 520.776 434.404C516.404 438.371 512.894 436.7 506.702 436.252C501.841 435.898 498.876 439.938 493.319 437.166ZM471.158 433.984C466.438 431.627 458.185 436.618 455.472 432.508C453.051 428.846 453.067 424.038 453.75 419.284C454.071 417.06 456.364 415.889 458.449 414.702C461.237 413.117 463.431 411.509 463.953 408.728C464.203 407.402 463.94 405.768 463.761 403.995C463.256 399.013 461.962 396.107 465.369 393.852C468.218 391.967 470.731 392.195 474.052 391.571C477.503 390.923 480.67 388.52 484.161 389.286C487.948 390.12 489.593 394.537 490.733 399.761C491.314 402.407 491.048 405.152 491.846 406.575C493.485 409.497 494.962 411.146 496.322 412.506C499.135 415.308 501.575 415.869 497.615 423.813C495.365 428.334 491.524 430.612 489.321 432.978C486.573 435.932 484.453 435.234 480.147 434.608C477.168 434.18 474.939 435.867 471.158 433.984ZM508.958 404.88C517.944 409.358 518.385 404.919 513.91 413.91C509.435 422.9 511.173 423.646 502.19 419.162C499.224 417.688 493.704 423.161 492.003 420.584C490.245 417.927 489.216 414.843 489.013 411.652C488.822 408.565 498.633 409.989 500.114 407.024C501.589 404.057 494.548 397.074 497.123 395.372C499.779 393.614 502.862 392.584 506.051 392.381C509.128 392.195 505.992 403.406 508.958 404.88Z" stroke="url(#paint0_linear_71_8524)" stroke-opacity="0.25" stroke-width="2" stroke-miterlimit="10"/>
<defs>
<linearGradient id="paint0_linear_71_8524" x1="750" y1="573" x2="-467.5" y2="-340" gradientUnits="userSpaceOnUse">
<stop stop-color="#D2E5F1"/>
<stop offset="1" stop-color="#D2E5F1" stop-opacity="0"/>
</linearGradient>
</defs>
</svg>
