<svg width="18" height="19" viewBox="0 0 18 19" fill="none" xmlns="http://www.w3.org/2000/svg">
<path d="M15.5697 7.97307C15.5919 5.29432 13.3723 2.8386 10.6219 2.49902C10.5672 2.49236 10.5076 2.48221 10.4445 2.47147C10.3083 2.44828 10.1675 2.42444 10.0254 2.42444C9.46171 2.42444 9.31102 2.83146 9.27136 3.07421C9.23278 3.31024 9.26958 3.50844 9.38054 3.66357C9.56722 3.92449 9.89569 3.97081 10.1595 4.00793C10.2368 4.0189 10.3098 4.02911 10.3709 4.04321C12.8421 4.61079 13.6741 5.50314 14.0808 8.02163C14.0907 8.08318 14.0952 8.159 14.1 8.23942C14.1177 8.54047 14.1547 9.16682 14.8098 9.16682H14.8098C14.8644 9.16682 14.923 9.16198 14.984 9.15242C15.594 9.05713 15.5749 8.4846 15.5657 8.20951C15.5632 8.13203 15.5607 8.05875 15.5671 8.01001C15.5688 7.99774 15.5697 7.9854 15.5697 7.97307Z" fill="#AA1E27"/>
<path d="M9.8655 1.51575C9.93869 1.52118 10.008 1.52637 10.0657 1.53545C14.1236 2.17691 15.9897 4.15314 16.5069 8.35685C16.5157 8.4283 16.5171 8.51546 16.5185 8.60774C16.5237 8.93617 16.5343 9.6194 17.2481 9.63356L17.2703 9.6338C17.4941 9.6338 17.6722 9.56441 17.7996 9.42739C18.0218 9.18848 18.0063 8.83356 17.9938 8.54832C17.9908 8.47834 17.9878 8.41243 17.9886 8.35472C18.0402 4.05543 14.4197 0.156838 10.2408 0.0118602C10.2234 0.0112702 10.2069 0.0122142 10.1902 0.0146335C10.182 0.0158726 10.1668 0.0174068 10.1407 0.0174068C10.099 0.0174068 10.0478 0.0136894 9.9934 0.00991301C9.92767 0.00531054 9.85316 0 9.77761 0C9.11212 0 8.98559 0.48621 8.96941 0.776047C8.93209 1.44588 9.56251 1.49303 9.8655 1.51575Z" fill="#AA1E27"/>
<path d="M16.3111 13.7899C16.2248 13.7221 16.1356 13.652 16.0521 13.5829C15.609 13.2164 15.1377 12.8786 14.6818 12.5519C14.5872 12.4841 14.4926 12.4163 14.3984 12.3484C13.8144 11.9268 13.2895 11.7219 12.7935 11.7219C12.1255 11.7219 11.543 12.1013 11.0623 12.8494C10.8494 13.1811 10.591 13.3424 10.2726 13.3424C10.0843 13.3424 9.87032 13.2872 9.63674 13.1782C7.75196 12.2996 6.40611 10.9526 5.63648 9.17461C5.26444 8.31525 5.38505 7.75351 6.03981 7.29633C6.41162 7.03694 7.10369 6.55404 7.05467 5.62929C6.99916 4.57916 4.74498 1.41945 3.79522 1.06057C3.3931 0.908575 2.9706 0.907159 2.53719 1.05703C1.44535 1.43432 0.661829 2.0969 0.271131 2.97302C-0.106421 3.81958 -0.0893718 4.81359 0.320442 5.84762C1.50516 8.83722 3.17082 11.4437 5.27133 13.5947C7.32734 15.7003 9.85436 17.425 12.7821 18.7208C13.046 18.8376 13.3228 18.9012 13.5249 18.9477C13.5938 18.9636 13.6533 18.9772 13.6966 18.9894C13.7205 18.996 13.745 18.9996 13.7697 18.9999L13.7928 19C13.7929 19 13.7928 19 13.7929 19C15.1699 19 16.8234 17.7066 17.3312 16.232C17.7761 14.9409 16.9638 14.3026 16.3111 13.7899Z" fill="#AA1E27"/>
<path d="M10.4746 4.93078C10.2388 4.93692 9.74816 4.94943 9.576 5.46307C9.49547 5.70311 9.50511 5.91152 9.60471 6.08252C9.75086 6.33341 10.0309 6.4103 10.2856 6.45249C11.2093 6.60484 11.6837 7.12988 11.7786 8.10465C11.8227 8.55918 12.1204 8.87657 12.5027 8.87657C12.531 8.87657 12.5599 8.87486 12.5887 8.87126C13.0485 8.81503 13.2714 8.46778 13.2512 7.83925C13.2586 7.18328 12.9246 6.43856 12.3566 5.84537C11.7866 5.25036 11.0995 4.91526 10.4746 4.93078Z" fill="#AA1E27"/>
</svg>
