<svg width="74" height="53" viewBox="0 0 74 53" fill="none" xmlns="http://www.w3.org/2000/svg">
<path d="M35.5267 13.3191C32.5185 16.3127 30.8261 20.3796 30.8232 24.6221V24.6677C30.8212 27.9913 31.8629 31.2317 33.8015 33.9324C34.0549 34.2998 34.4873 34.5016 34.9319 34.4599C35.3765 34.4183 35.7639 34.1398 35.9446 33.7317C36.1253 33.3236 36.0711 32.8498 35.803 32.493C35.7019 32.3513 35.6118 32.2022 35.5156 32.0568L56.7283 32.1023C57.4094 32.1023 57.9616 31.5506 57.9616 30.87C57.9616 30.1894 57.4094 29.6377 56.7283 29.6377L50.4636 29.6241C51.7051 28.7318 52.5706 27.4102 52.8918 25.916H52.9892C55.7336 25.914 57.9582 23.6921 57.9616 20.9497V19.7174C57.9616 19.0368 57.4094 18.485 56.7283 18.485C56.0473 18.485 55.4951 19.0368 55.4951 19.7174V20.9497C55.4931 22.3305 54.3734 23.4493 52.9917 23.4514H52.9053C52.3307 20.5778 49.8102 18.5062 46.8777 18.4972C43.9452 18.4883 41.412 20.5444 40.8197 23.4144H33.3513C33.7933 18.5851 36.7833 14.3596 41.1923 12.3333C45.6013 10.307 50.7577 10.7887 54.7145 13.5964C55.2675 13.9938 56.0383 13.868 56.4361 13.3154C56.8338 12.7627 56.7079 11.9925 56.1549 11.595C49.7797 7.05961 41.0588 7.789 35.5267 13.3203V13.3191ZM34.2269 29.5859C33.7609 28.398 33.4661 27.1499 33.3513 25.8791H40.8197C41.1337 27.38 41.9964 28.7101 43.2393 29.6093L34.2269 29.5859ZM46.8625 20.9497C48.9058 20.9497 50.5622 22.6049 50.5622 24.6467C50.5622 26.6885 48.9058 28.3437 46.8625 28.3437C44.8193 28.3437 43.1629 26.6885 43.1629 24.6467C43.1629 22.6049 44.8193 20.9497 46.8625 20.9497Z" fill="white"/>
<path d="M60.4367 24.6467C60.4278 32.1297 54.3595 38.1936 46.8712 38.2024C44.0522 38.2164 41.3009 37.3395 39.0106 35.6971C38.6529 35.44 38.185 35.3931 37.7833 35.5741C37.3816 35.7552 37.107 36.1366 37.0631 36.5748C37.0191 37.013 37.2124 37.4413 37.5702 37.6984C43.9463 42.2223 52.6584 41.4894 58.1879 35.9639C63.7174 30.4384 64.4508 21.7326 59.9236 15.3611C59.6702 14.9937 59.2378 14.7919 58.7932 14.8335C58.3486 14.8751 57.9612 15.1537 57.7805 15.5617C57.5998 15.9698 57.654 16.4436 57.9221 16.8004C59.563 19.0876 60.4426 21.8325 60.4367 24.6467Z" fill="white"/>
<path d="M46.8625 25.8791C47.5436 25.8791 48.0958 25.3273 48.0958 24.6467C48.0958 23.9661 47.5436 23.4144 46.8625 23.4144C46.1815 23.4144 45.6293 23.9661 45.6293 24.6467C45.6293 25.3273 46.1815 25.8791 46.8625 25.8791Z" fill="white"/>
<path d="M13.5655 25.8791C14.2466 25.8791 14.7987 25.3273 14.7987 24.6467C14.7987 23.9661 14.2466 23.4144 13.5655 23.4144C12.8844 23.4144 12.3323 23.9661 12.3323 24.6467C12.3323 25.3273 12.8844 25.8791 13.5655 25.8791Z" fill="white"/>
<path d="M1.23326 29.5144C0.552172 29.5144 3.80416e-05 30.0662 3.80416e-05 30.7468C3.80416e-05 31.4274 0.552172 31.9791 1.23326 31.9791L27.2543 32.0407C29.3866 37.6914 33.8555 42.1478 39.5147 44.2668C45.1739 46.3858 51.4729 45.9613 56.7962 43.1022L65.1821 51.4895C67.2005 53.5047 70.4717 53.5033 72.4884 51.4864C74.5051 49.4694 74.5037 46.2007 72.4853 44.1854L64.404 36.121C68.2742 30.2247 68.9127 22.7771 66.1024 16.3089C63.2921 9.84064 57.4111 5.22156 50.4574 4.02111C49.5942 3.51586 48.6816 3.01923 47.7443 2.54231C44.4299 0.872626 40.7702 0.00193424 37.0584 2.41577e-06H28.7342C25.7873 -0.00183141 22.9353 1.04044 20.6849 2.94159L11.9056 10.3726C11.8501 10.4196 11.7877 10.4578 11.7206 10.4859C7.2625 12.2396 2.93141 13.4534 2.86235 13.4731C1.158 13.9803 -0.00767437 15.5496 3.80416e-05 17.3266V20.9497C0.00343543 23.6911 2.22655 25.9126 4.96993 25.916H7.53381C7.84669 27.3615 8.6702 28.6459 9.8535 29.5342L1.23326 29.5144ZM70.7378 45.9218C71.7935 46.974 71.7957 48.6822 70.7427 49.7371C69.6898 50.792 67.9804 50.7942 66.9247 49.742L58.9395 41.7515C59.9184 41.0666 60.8375 40.3002 61.6872 39.4606C62.1188 39.0281 62.5208 38.5746 62.9105 38.1125L70.7378 45.9218ZM65.3609 24.6467C65.3617 33.4655 59.1282 41.0567 50.4728 42.7778C41.8173 44.4989 33.1506 39.8705 29.7728 31.7233C26.395 23.576 29.2469 14.179 36.5845 9.2791C43.922 4.37919 53.7015 5.3411 59.9422 11.5766C63.4229 15.0351 65.3742 19.7416 65.3609 24.6467ZM32.038 9.83281C31.6347 10.237 31.2635 10.6622 30.8973 11.091H22.4928L25.4526 8.58569C26.3727 7.81607 27.5343 7.39425 28.7342 7.39402H34.9829C33.9298 8.11667 32.9441 8.93292 32.038 9.83281ZM2.46649 20.9497V19.7174H4.93294C5.61403 19.7174 6.16616 19.1656 6.16616 18.485C6.16616 17.8044 5.61403 17.2527 4.93294 17.2527H2.47882C2.49993 16.6024 2.92955 16.0362 3.55049 15.8404C3.73178 15.7899 8.0419 14.5822 12.632 12.7769C12.9454 12.6485 13.2367 12.4718 13.4952 12.2531L22.2758 4.82213C24.0816 3.29736 26.37 2.46202 28.7342 2.46467H37.0584C39.6125 2.4692 42.1449 2.9334 44.5343 3.83503C42.766 4.03125 41.0303 4.45327 39.3695 5.09078C38.6035 4.98658 37.8315 4.93265 37.0584 4.92935H28.7342C26.9544 4.9311 25.232 5.55792 23.8679 6.70021L18.3307 11.3831C17.936 11.7172 17.7919 12.262 17.9699 12.7473C18.1479 13.2327 18.6101 13.5555 19.1274 13.5557H29.093C27.2311 16.5244 26.1526 19.9162 25.9582 23.4144H19.6083C19.016 20.5444 16.4829 18.4883 13.5504 18.4972C10.6179 18.5062 8.09741 20.5778 7.52271 23.4514H4.96993C3.58816 23.4493 2.46853 22.3305 2.46649 20.9497ZM17.2652 24.6467C17.2652 26.6885 15.6088 28.3437 13.5655 28.3437C11.5222 28.3437 9.86584 26.6885 9.86584 24.6467C9.86584 22.6049 11.5222 20.9497 13.5655 20.9497C15.6088 20.9497 17.2652 22.6049 17.2652 24.6467ZM19.6083 25.8791H25.9594C26.0301 27.1251 26.2121 28.3624 26.5033 29.5761L17.2541 29.5551C18.462 28.6585 19.2995 27.3507 19.6083 25.8791Z" fill="white"/>
</svg>
