<svg width="74" height="33" viewBox="0 0 74 33" fill="none" xmlns="http://www.w3.org/2000/svg">
<path d="M68.5801 0H42.0586C41.4598 0 40.9746 0.471549 40.9746 1.05319C40.9746 1.63483 41.4598 2.10638 42.0586 2.10638H68.5801C70.3731 2.10638 71.832 3.5237 71.832 5.26596V20.178C71.832 20.7597 72.3172 21.2312 72.916 21.2312C73.5148 21.2312 74 20.7597 74 20.178V5.26596C74 2.36224 71.5687 0 68.5801 0Z" fill="white"/>
<path d="M72.916 24.0397C72.3172 24.0397 71.832 24.5113 71.832 25.0929V27.734C71.832 29.4763 70.3731 30.8936 68.5801 30.8936H5.41992C3.62687 30.8936 2.16797 29.4763 2.16797 27.734V5.26596C2.16797 3.5237 3.62687 2.10638 5.41992 2.10638H37C37.5988 2.10638 38.084 1.63483 38.084 1.05319C38.084 0.471549 37.5988 0 37 0H5.41992C2.4313 0 0 2.36224 0 5.26596V27.734C0 30.6378 2.4313 33 5.41992 33H68.5801C71.5687 33 74 30.6378 74 27.734V25.0929C74 24.5113 73.5148 24.0397 72.916 24.0397Z" fill="white"/>
<path d="M5.41992 14.0146C4.82113 14.0146 4.33594 14.4862 4.33594 15.0678V27.734C4.33594 28.3157 4.82113 28.7872 5.41992 28.7872H68.5801C69.1789 28.7872 69.6641 28.3157 69.6641 27.734V5.26596C69.6641 4.68431 69.1789 4.21277 68.5801 4.21277H5.41992C4.82113 4.21277 4.33594 4.68431 4.33594 5.26596V10.1529C4.33594 10.7345 4.82113 11.2061 5.41992 11.2061C6.01871 11.2061 6.50391 10.7345 6.50391 10.1529V6.31915H67.4961V26.6809H6.50391V15.0678C6.50391 14.4862 6.01871 14.0146 5.41992 14.0146Z" fill="white"/>
<path d="M9.75875 10.5319C10.3575 10.5319 10.8427 10.0604 10.8427 9.47872C10.8427 8.89708 10.3575 8.42553 9.75875 8.42553H9.75731C9.15866 8.42553 8.67404 8.89708 8.67404 9.47872C8.67404 10.0604 9.1601 10.5319 9.75875 10.5319Z" fill="white"/>
<path d="M9.75875 24.5745C10.3575 24.5745 10.8427 24.1029 10.8427 23.5213C10.8427 22.9396 10.3575 22.4681 9.75875 22.4681H9.75731C9.15866 22.4681 8.67404 22.9396 8.67404 23.5213C8.67404 24.1029 9.1601 24.5745 9.75875 24.5745Z" fill="white"/>
<path d="M64.247 10.5319C64.8458 10.5319 65.331 10.0604 65.331 9.47872C65.331 8.89708 64.8458 8.42553 64.247 8.42553H64.2456C63.6469 8.42553 63.1623 8.89708 63.1623 9.47872C63.1623 10.0604 63.6484 10.5319 64.247 10.5319Z" fill="white"/>
<path d="M64.247 24.5745C64.8458 24.5745 65.331 24.1029 65.331 23.5213C65.331 22.9396 64.8458 22.4681 64.247 22.4681H64.2456C63.6469 22.4681 63.1623 22.9396 63.1623 23.5213C63.1623 24.1029 63.6484 24.5745 64.247 24.5745Z" fill="white"/>
<path d="M13.2395 20.7365L13.7276 19.4913H17.0954L17.5779 20.7336C17.7416 21.1554 18.1541 21.4152 18.5922 21.4152C18.7194 21.4152 18.8488 21.3933 18.9748 21.3471C19.5348 21.1416 19.8175 20.534 19.6061 19.9899L16.6659 12.4202C16.4718 11.9207 15.9721 11.5851 15.4225 11.5851C14.8744 11.5851 14.3754 11.9195 14.1807 12.4167L11.2133 19.9869C11.0001 20.5305 11.2811 21.139 11.8406 21.3459C12.3995 21.5531 13.0263 21.2802 13.2395 20.7365ZM16.2773 17.385H14.5533L15.4192 15.1759L16.2773 17.385Z" fill="white"/>
<path d="M25.0788 11.5851H22.7683C22.1695 11.5851 21.6843 12.0567 21.6843 12.6383V20.3617C21.6843 20.9433 22.1695 21.4149 22.7683 21.4149H25.4822C27.2605 21.4149 28.7071 20.0073 28.7071 18.2769C28.7071 17.3204 28.2628 16.4631 27.5647 15.888C27.8346 15.4585 27.993 14.9557 27.993 14.4165C27.993 12.8553 26.6857 11.5851 25.0788 11.5851ZM23.8521 13.6915H25.0786C25.4901 13.6915 25.8248 14.0167 25.8248 14.4165C25.8248 14.818 25.4901 15.1446 25.0786 15.1446H23.8521V13.6915ZM25.4822 19.3085H23.8523V17.251H25.4822C26.0649 17.251 26.5391 17.7113 26.5391 18.2771C26.5391 18.8458 26.0649 19.3085 25.4822 19.3085Z" fill="white"/>
<path d="M35.4717 13.6915C36.0512 13.6915 36.6098 13.8572 37.0873 14.1706C37.5835 14.4963 38.2571 14.3695 38.5923 13.8874C38.9273 13.4054 38.797 12.7508 38.3008 12.4251C37.4635 11.8755 36.4852 11.5851 35.4717 11.5851C32.6824 11.5851 30.4131 13.7899 30.4131 16.5C30.4131 19.2101 32.6824 21.4149 35.4717 21.4149C36.6768 21.3906 37.9421 20.9623 38.8059 19.9487C39.1908 19.5031 39.1311 18.8389 38.6727 18.465C38.2141 18.091 37.5303 18.149 37.1455 18.5946C36.8143 18.9733 36.271 19.2905 35.4717 19.3087C33.8778 19.3087 32.5811 18.0488 32.5811 16.5001C32.5811 14.9515 33.8777 13.6915 35.4717 13.6915Z" fill="white"/>
<path d="M42.9375 21.391C43.5363 21.391 44.0215 20.9195 44.0215 20.3378V12.6622C44.0215 12.0805 43.5363 11.609 42.9375 11.609H41.2489C40.6501 11.609 40.1649 12.0805 40.1649 12.6622C40.1649 13.2438 40.6501 13.7154 41.2489 13.7154H41.8535V20.3378C41.8535 20.9195 42.3387 21.391 42.9375 21.391Z" fill="white"/>
<path d="M51.2959 17.1082C51.9642 16.1298 52.4624 15.2878 52.3004 14.1116C52.1042 12.6849 50.8007 11.6091 49.2685 11.6091C47.8034 11.6091 46.5354 12.6219 46.2536 14.0171C46.1383 14.5878 46.521 15.1414 47.1085 15.2534C47.6962 15.3662 48.2656 14.9937 48.381 14.4228C48.4638 14.0129 48.8371 13.7154 49.2687 13.7154C49.7264 13.7154 50.0977 13.9993 50.1516 14.3908C50.2044 14.7745 50.07 15.0927 49.4979 15.9311L46.7404 19.7311C46.5071 20.0525 46.4778 20.4735 46.6641 20.8227C46.8504 21.172 47.2215 21.3912 47.6264 21.3912H51.5868C52.1856 21.3912 52.6708 20.9196 52.6708 20.338C52.6708 19.7563 52.1856 19.2848 51.5868 19.2848H49.7169C49.7409 19.2509 51.234 17.1957 51.2959 17.1082Z" fill="white"/>
<path d="M55.1557 21.2227C55.3455 21.3525 55.5633 21.4149 55.7789 21.4149C56.1196 21.4149 56.4551 21.2593 56.6661 20.9682L58.7783 18.0552L60.887 20.9676C61.098 21.2592 61.4334 21.4149 61.7745 21.4149C61.9899 21.4149 62.2076 21.3527 62.3973 21.2231C62.887 20.8884 63.0046 20.2314 62.6601 19.7556L60.1045 16.226L62.2661 13.2448C62.6109 12.7693 62.4937 12.1123 62.0042 11.7772C61.5144 11.4422 60.8384 11.5563 60.4938 12.0317L58.7796 14.396L57.068 12.0322C56.7237 11.5567 56.0478 11.4422 55.5578 11.7768C55.0681 12.1114 54.9505 12.7685 55.2951 13.2442L57.4533 16.2252L54.894 19.7551C54.5491 20.2307 54.6662 20.8877 55.1557 21.2227Z" fill="white"/>
</svg>
