<svg width="74" height="47" viewBox="0 0 74 47" fill="none" xmlns="http://www.w3.org/2000/svg">
<path d="M70.1945 19.5091L73.7448 15.3631C73.9383 15.1371 74.0279 14.8421 73.9924 14.5486L72.3431 0.940804C72.293 0.526841 72.0024 0.179477 71.5994 0.0514027C71.1964 -0.0762442 70.7546 0.038311 70.4681 0.345404L63.0002 8.35486L49.3523 9.7234C48.7567 9.78302 48.3231 10.307 48.3837 10.8933C48.4444 11.4797 48.9774 11.9072 49.5719 11.847L63.6297 10.4373C63.8939 10.4109 64.1389 10.2899 64.3184 10.0974L70.4697 3.5L71.7836 14.3415L68.634 18.0196L62.2607 22.2524C61.9405 22.4653 61.7592 22.8299 61.7854 23.2096L62.2807 30.3964C62.3167 30.9179 62.7309 31.337 63.2595 31.3865L67.7982 31.812L70.1244 37.6429L69.0615 40.3393L65.9635 36.2688C65.7226 35.9523 65.3241 35.793 64.9269 35.8546L60.2211 36.5863C59.8332 36.6466 59.5089 36.9088 59.373 37.2715L57.8482 41.3467L49.0477 43.1031C48.4609 43.2203 48.0818 43.7835 48.2007 44.3613C48.3049 44.8674 48.757 45.2166 49.262 45.2166C49.3334 45.2166 49.4058 45.2097 49.4785 45.1952L58.8718 43.3203C59.2402 43.2467 59.5436 42.9906 59.6735 42.6432L61.1876 38.5969L64.6202 38.0631L68.498 43.1581C68.7342 43.4683 69.1224 43.6284 69.5129 43.5754C69.9031 43.5227 70.2335 43.2658 70.376 42.9043L72.2987 38.0267C72.3973 37.7768 72.3967 37.4998 72.2971 37.2503L69.5727 30.4214C69.4234 30.0471 69.0731 29.7873 68.6665 29.7492L64.3816 29.3474L63.9908 23.6782L69.9716 19.706C70.0552 19.6508 70.1301 19.5845 70.1945 19.5091Z" fill="white"/>
<path d="M44.2924 44.0524L40.6995 44.7695L32.1411 35.9287C31.8716 35.6502 31.4708 35.536 31.0915 35.6302L24.8817 37.1709L22.0976 33.7971C21.9144 33.5751 21.6484 33.4348 21.3591 33.4077L10.9563 32.4322C10.6529 32.4036 10.3503 32.5026 10.1243 32.705C9.89845 32.9072 9.76952 33.1939 9.76952 33.4946V35.7422L5.65428 39.8849L4.30551 34.06L6.05232 29.5417C6.15768 29.269 6.14525 28.9658 6.01763 28.7025C5.89015 28.4391 5.65861 28.2387 5.37707 28.148L2.37587 27.1789L6.02211 12.5099L12.905 8.36396L18.7451 11.0386C19.2879 11.2873 19.9325 11.0555 20.185 10.521C20.4375 9.98652 20.2022 9.35184 19.6594 9.10323L13.2923 6.18728C12.9632 6.03658 12.5791 6.05807 12.2695 6.24448L4.50973 10.9186C4.26577 11.0656 4.09059 11.3017 4.02252 11.5752L0.0312829 27.6314C-0.10342 28.1731 0.208334 28.7256 0.746424 28.8993L3.62188 29.8277L2.1624 33.6026C2.08623 33.7994 2.07106 34.0142 2.11861 34.2195L3.98219 42.2677C4.07036 42.6485 4.36289 42.9516 4.7446 43.0576C5.12631 43.1635 5.53649 43.0559 5.81399 42.7767L11.6285 36.9236C11.8266 36.7242 11.9375 36.4562 11.9375 36.1773V34.6683L20.7014 35.4903L23.635 39.0452C23.9008 39.3674 24.3325 39.5085 24.7411 39.4071L31.008 37.8522L39.5433 46.6691C39.75 46.8826 40.0346 47 40.3279 47C40.3995 47 40.4716 46.993 40.5433 46.9788L44.723 46.1446C45.3098 46.0275 45.6889 45.4642 45.57 44.8865C45.4513 44.3087 44.8798 43.9349 44.2924 44.0524Z" fill="white"/>
<path d="M45.2819 6.77201C39.9611 6.77201 37.3749 6.16095 34.6369 5.51389C32.0801 4.90967 29.442 4.28638 24.5697 4.20569V2.98728C24.5697 2.39786 24.0843 1.92 23.4857 1.92C22.8871 1.92 22.4017 2.39786 22.4017 2.98728V27.6862C22.4017 28.2756 22.8871 28.7535 23.4857 28.7535C24.0843 28.7535 24.5697 28.2756 24.5697 27.6862V22.3597C29.1714 22.437 31.5855 23.0075 34.1309 23.609C36.871 24.2565 39.7046 24.926 45.2819 24.926C45.8806 24.926 46.3659 24.4482 46.3659 23.8588V7.83929C46.3659 7.24972 45.8806 6.77201 45.2819 6.77201ZM34.1309 7.5894C36.6876 8.19362 39.3258 8.81692 44.1979 8.8976V12.1484C39.5963 12.0711 37.1822 11.5006 34.6369 10.8991C32.0801 10.2949 29.442 9.6716 24.5697 9.59091V6.34011C29.1714 6.41753 31.5855 6.98788 34.1309 7.5894ZM34.6369 21.5334C32.0801 20.9291 29.442 20.3059 24.5697 20.2252V16.988C29.1713 17.0653 31.5854 17.6358 34.1307 18.2372C34.4883 18.3217 34.8457 18.4061 35.2094 18.4892C35.2918 18.508 35.3741 18.5169 35.4552 18.5169C35.9482 18.5169 36.3941 18.1837 36.5103 17.6906C36.6456 17.1164 36.2825 16.5429 35.6993 16.4097C35.3412 16.3279 34.989 16.2446 34.6367 16.1614C32.08 15.5573 29.442 14.934 24.5698 14.8532V11.7255C29.1716 11.8027 31.5857 12.3732 34.131 12.9748C36.6878 13.579 39.3259 14.2023 44.1981 14.283V17.4105C42.8195 17.387 41.5667 17.3176 40.3936 17.2002C39.7968 17.1404 39.2661 17.5676 39.2054 18.1539C39.1448 18.7404 39.5786 19.264 40.174 19.3238C41.4187 19.4485 42.7435 19.5216 44.1981 19.5455V22.7825C39.596 22.7052 37.1822 22.1347 34.6369 21.5334Z" fill="white"/>
</svg>
