<svg width="55" height="55" viewBox="0 0 55 55" fill="none" xmlns="http://www.w3.org/2000/svg">
<path d="M54.8989 13.0352C54.7096 12.3311 54.2477 11.7309 53.6158 11.367C52.9835 11.0013 52.2317 10.9024 51.5264 11.0918C50.822 11.2815 50.2219 11.743 49.8581 12.375L49.3998 13.1726C48.9644 12.9224 48.4081 13.0697 48.1535 13.5029L45.8255 17.4717L45.028 17.0134C44.8168 16.8912 44.5653 16.8581 44.3299 16.9216C44.0941 16.9856 43.8936 17.1405 43.7723 17.3527C43.5239 17.7909 43.6752 18.3477 44.1115 18.5992L44.909 19.0575L37.1187 32.56L35.1939 37.7028L34.2774 39.4167C33.7408 40.3503 33.7981 41.5109 34.4242 42.3869L32.362 44.9167L31.7847 43.4687C31.5243 42.8233 30.9215 42.3811 30.2283 42.3269C29.5346 42.2723 28.8701 42.6152 28.5125 43.2118L28.1827 43.7708L27.8712 40.1042C27.7996 39.2367 27.1279 38.5394 26.2642 38.4347C25.4 38.3304 24.582 38.8482 24.3059 39.6736L22.0513 46.4385C21.8938 46.917 22.1515 47.4326 22.6286 47.5937C22.7181 47.6353 22.8143 47.6604 22.9128 47.6667C23.3066 47.668 23.6574 47.4169 23.7836 47.0436L26.0288 40.2787L26.3497 44C26.4159 44.794 26.9865 45.4542 27.7625 45.6342C28.5385 45.8141 29.3413 45.4721 29.7499 44.7887L30.0891 44.2292L30.6574 45.6686C30.8987 46.2751 31.4442 46.7079 32.0899 46.8042C32.7357 46.9004 33.3837 46.6457 33.7918 46.1359L35.9274 43.432C36.1637 43.4938 36.4071 43.5247 36.6515 43.5238C37.6338 43.5314 38.5458 43.014 39.0434 42.1667L39.9599 40.6359L43.4519 36.3918L51.3246 22.7242L52.122 23.1825C52.3346 23.3043 52.4895 23.5052 52.5526 23.742C52.6161 23.977 52.583 24.2277 52.4613 24.4385L48.7952 30.7911C48.6569 30.9997 48.61 31.2557 48.6654 31.5001C48.7209 31.7441 48.8735 31.9549 49.0883 32.0833C49.2996 32.206 49.5511 32.2391 49.7865 32.1755C50.0223 32.1115 50.2228 31.9567 50.3441 31.7445L54.0101 25.3918C54.3757 24.7594 54.4746 24.0074 54.2849 23.302C54.0951 22.5975 53.6338 21.9973 53.0019 21.6334L52.2044 21.1751L54.4957 17.2059C54.7458 16.7703 54.5986 16.2144 54.1658 15.9593L54.6241 15.1617C54.9996 14.5194 55.0989 13.7522 54.8989 13.0352ZM51.4436 13.2917C51.5649 13.0795 51.7663 12.9242 52.003 12.8611C52.2384 12.8029 52.4872 12.8356 52.6993 12.9528C52.9119 13.0741 53.0667 13.2756 53.1303 13.5119C53.1885 13.7473 53.1558 13.9962 53.0386 14.2083L52.5803 15.0059L50.9854 14.0893L51.4436 13.2917ZM38.9517 38.8854L37.137 37.8309L38.4384 34.3477L41.3253 36.0159L38.9517 38.8854ZM36.2022 41.5342C35.8151 41.2643 35.696 40.7451 35.9274 40.3333L36.3856 39.5362L37.9801 40.4528L37.5219 41.241C37.3934 41.4639 37.1777 41.6224 36.9267 41.6783C36.6756 41.7338 36.4129 41.6819 36.2022 41.5342ZM42.3703 34.5129L39.1992 32.6795L46.5312 19.9742L49.7023 21.8075L42.3703 34.5129ZM50.6188 20.2217L47.4478 18.3884L49.2808 15.2168L52.4519 17.0501L50.6188 20.2217Z" fill="white"/>
<path d="M14.4623 41.0759L11.2183 44.312L9.27519 42.3685C8.91763 42.0131 8.34033 42.0131 7.98277 42.3685C7.80913 42.5409 7.71157 42.7749 7.71157 43.0193C7.71157 43.2637 7.80913 43.4983 7.98277 43.6701L9.92588 45.6136C10.2696 45.9546 10.7341 46.1458 11.2183 46.1453C11.7052 46.148 12.1737 45.9569 12.5197 45.6136L15.7548 42.3685C16.0662 42.0046 16.0452 41.4626 15.7069 41.1242C15.3681 40.7854 14.8262 40.7644 14.4623 41.0759Z" fill="white"/>
<path d="M3.66604 43.5417C3.66604 47.8453 7.15397 51.3333 11.4564 51.3333C15.7588 51.3333 19.2467 47.8453 19.2467 43.5417C19.2467 43.0354 18.8363 42.625 18.3302 42.625C17.8241 42.625 17.4137 43.0354 17.4137 43.5417C17.4137 46.8324 14.7465 49.5 11.4564 49.5C8.16625 49.5 5.49906 46.8324 5.49906 43.5417C5.49906 40.251 8.16625 37.5833 11.4564 37.5833C12.7461 37.5798 14.0014 37.9982 15.0307 38.7753C15.4357 39.0792 16.0103 38.9968 16.3137 38.5918C16.6176 38.1867 16.5357 37.6124 16.1307 37.3085C13.77 35.5378 10.6115 35.2532 7.97248 36.5727C5.33303 37.8926 3.66604 40.5907 3.66604 43.5417Z" fill="white"/>
<path d="M32.9944 7.33333C33.5005 7.33333 33.9109 6.92334 33.9109 6.41667C33.9109 5.91044 33.5005 5.5 32.9944 5.5H9.1651C8.65896 5.5 8.24859 5.91044 8.24859 6.41667V10.0833C8.24859 10.59 8.65896 11 9.1651 11H32.9944C33.5005 11 33.9109 10.59 33.9109 10.0833C33.9109 9.57711 33.5005 9.16667 32.9944 9.16667H10.0816V7.33333H32.9944Z" fill="white"/>
<path d="M11.9146 12.8333C11.4085 12.8333 10.9981 13.2438 10.9981 13.75C10.9981 14.2567 11.4085 14.6667 11.9146 14.6667H30.2448C30.751 14.6667 31.1614 14.2567 31.1614 13.75C31.1614 13.2438 30.751 12.8333 30.2448 12.8333H11.9146Z" fill="white"/>
<path d="M35.7439 19.25H15.5807C15.0745 19.25 14.6642 19.6604 14.6642 20.1667C14.6642 20.6733 15.0745 21.0833 15.5807 21.0833H35.7439C36.25 21.0833 36.6604 20.6733 36.6604 20.1667C36.6604 19.6604 36.25 19.25 35.7439 19.25Z" fill="white"/>
<path d="M26.5788 25.6667C26.5788 25.1604 26.1684 24.75 25.6623 24.75H7.33208C6.82594 24.75 6.41557 25.1604 6.41557 25.6667C6.41557 26.1733 6.82594 26.5833 7.33208 26.5833H25.6623C26.1684 26.5833 26.5788 26.1733 26.5788 25.6667Z" fill="white"/>
<path d="M35.7439 24.75H29.3283C28.8222 24.75 28.4118 25.1604 28.4118 25.6667C28.4118 26.1733 28.8222 26.5833 29.3283 26.5833H35.7439C36.25 26.5833 36.6604 26.1733 36.6604 25.6667C36.6604 25.1604 36.25 24.75 35.7439 24.75Z" fill="white"/>
<path d="M16.4972 31.1667C17.0033 31.1667 17.4137 30.7567 17.4137 30.25C17.4137 29.7438 17.0033 29.3333 16.4972 29.3333H7.33208C6.82594 29.3333 6.41557 29.7438 6.41557 30.25C6.41557 30.7567 6.82594 31.1667 7.33208 31.1667H16.4972Z" fill="white"/>
<path d="M20.1632 31.1667H26.5788C27.0849 31.1667 27.4953 30.7567 27.4953 30.25C27.4953 29.7438 27.0849 29.3333 26.5788 29.3333H20.1632C19.6571 29.3333 19.2467 29.7438 19.2467 30.25C19.2467 30.7567 19.6571 31.1667 20.1632 31.1667Z" fill="white"/>
<path d="M41.243 42.1667C40.7368 42.1667 40.3265 42.5771 40.3265 43.0833V52.25C40.3265 52.7567 39.9161 53.1667 39.4099 53.1667H2.74953C2.24339 53.1667 1.83302 52.7567 1.83302 52.25V2.75C1.83302 2.24377 2.24339 1.83333 2.74953 1.83333H39.4099C39.9161 1.83333 40.3265 2.24377 40.3265 2.75V19.9653C40.3265 20.4715 40.7368 20.8819 41.243 20.8819C41.7491 20.8819 42.1595 20.4715 42.1595 19.9653V2.75C42.1595 1.23132 40.9284 0 39.4099 0H2.74953C1.23111 0 0 1.23132 0 2.75V52.25C0 53.7691 1.23111 55 2.74953 55H39.4099C40.9284 55 42.1595 53.7691 42.1595 52.25V43.0833C42.1595 42.5771 41.7491 42.1667 41.243 42.1667Z" fill="white"/>
</svg>
