<svg width="107" height="108" viewBox="0 0 107 108" fill="none" xmlns="http://www.w3.org/2000/svg">
<path fill-rule="evenodd" clip-rule="evenodd" d="M93.9531 27.676C94.8873 27.989 95.8962 27.4794 96.2072 26.5377L98.5844 19.3448C98.7857 18.7345 98.6488 18.0623 98.2254 17.5812C97.802 17.1003 97.156 16.8837 96.5311 17.0128C95.9063 17.1422 95.3974 17.5978 95.1959 18.2081L92.8187 25.401C92.6693 25.8543 92.705 26.3488 92.9178 26.7756C93.1308 27.2027 93.5032 27.5266 93.9531 27.676Z" fill="#FDFBFB"/>
<path d="M101.993 30.5228L106.643 16.2629C107.318 14.1745 106.631 11.8837 104.921 10.523L106.071 7.00019C106.701 5.20856 106.32 3.21379 105.077 1.78545C103.833 0.357122 101.921 -0.281391 100.077 0.116257C98.2342 0.513906 96.7483 1.88576 96.1932 3.70226L95.0411 7.23031C92.8572 7.28911 90.9475 8.7305 90.276 10.8269L84.3856 28.8776H10.7C4.79306 28.8835 0.00585156 33.7107 0 39.667V97.2106C0.00585156 103.167 4.79306 107.994 10.7 108H96.3C102.207 107.994 106.994 103.167 107 97.2106V39.6668C106.999 35.9539 105.108 32.5013 101.993 30.5228ZM73.5144 70.8535C73.6256 72.7477 74.7485 74.4317 76.4463 75.2501L75.3318 78.6667C75.0239 79.6102 75.533 80.6267 76.4686 80.9369C77.4043 81.2473 78.4124 80.734 78.72 79.7906L79.8329 76.374C81.6797 76.7562 83.5844 76.0741 84.7781 74.6028L88.7835 69.7888C89.2098 69.2778 89.5354 68.6895 89.7429 68.0554L94.517 53.4303V97.2102H12.4833V39.6668H80.8653L73.3753 62.6034C73.1629 63.2396 73.0768 63.9118 73.122 64.5815L73.5144 70.8535ZM99.5796 4.83662C99.7627 4.27713 100.228 3.85862 100.8 3.73872C101.372 3.61881 101.965 3.81605 102.354 4.25564C102.743 4.69522 102.869 5.31098 102.686 5.87047L101.65 9.07484L99.7616 8.44538L98.5418 8.0372L99.5796 4.83662ZM93.6643 11.9433C93.7995 11.5286 94.0929 11.1849 94.4795 10.9883C94.8662 10.7917 95.3146 10.7582 95.7257 10.8949L98.4452 11.7941L102.21 13.0528H102.23C103.082 13.3461 103.539 14.2776 103.255 15.1388L94.6611 41.4776V41.501L86.3561 66.9299C86.2913 67.1277 86.1889 67.3109 86.0548 67.4693L82.0494 72.285C81.6214 72.8034 80.9215 73.0033 80.2874 72.7884L79.2423 72.4413H79.2333L78.1936 72.0961C77.556 71.8867 77.1113 71.304 77.0736 70.6288L76.6831 64.3512C76.6688 64.1423 76.6962 63.9324 76.7633 63.7344L84.9666 38.5716V38.559L93.6643 11.9433ZM103.433 97.2102C103.433 101.183 100.24 104.403 96.3 104.403H10.7C6.76044 104.403 3.56674 101.183 3.56674 97.2102V39.6668C3.56674 35.6943 6.76044 32.4739 10.7 32.4739H83.2121L82.0333 36.0705H12.4833C10.5134 36.0705 8.91653 37.6807 8.91653 39.667V97.2106C8.91653 99.1969 10.5134 100.807 12.4833 100.807H94.5165C96.4864 100.807 98.0833 99.1969 98.0833 97.2106V42.499L100.822 34.1031C102.474 35.4707 103.432 37.5119 103.433 39.6668V97.2102Z" fill="#FDFBFB"/>
<path d="M67.7667 77.4297H64.2C61.0376 77.6584 57.9892 76.1925 56.175 73.5706C55.52 72.573 54.4206 71.9638 53.2344 71.9415C52.0848 71.9573 51.0066 72.5073 50.3132 73.4322L44.4763 81.6106C41.1593 78.2516 36.7804 76.1698 32.1 75.7268V64.8422H35.6667C39.6063 64.8422 42.8 61.6218 42.8 57.6493C42.8 53.6768 39.6063 50.4564 35.6667 50.4564C31.7272 50.4564 28.5335 53.6768 28.5335 57.6493V61.1666C27.0718 61.1428 25.6443 60.7169 24.405 59.9349C23.6963 59.2529 22.5749 59.2749 21.8932 59.9842C21.2115 60.6933 21.2245 61.8243 21.9225 62.5172C22.2648 62.8624 24.0625 64.434 28.5333 64.7758V75.6318H24.9665C21.027 75.6318 17.8333 78.8522 17.8333 82.8246C17.8333 86.7971 21.027 90.0175 24.9665 90.0175C28.9061 90.0175 32.0998 86.7971 32.0998 82.8246V79.3432C35.7925 79.7678 39.2364 81.4324 41.8778 84.069C42.6142 84.8799 43.6773 85.3077 44.7649 85.2308C45.8161 85.1621 46.7805 84.619 47.3899 83.7527L53.2143 75.5654C55.6686 79.2075 59.8402 81.2813 64.1996 81.0267H67.7663C68.7513 81.0267 69.5496 80.2217 69.5496 79.2285C69.5496 78.2354 68.7517 77.4297 67.7667 77.4297ZM32.1 57.6491C32.1 55.6627 33.6968 54.0525 35.6667 54.0525C37.6366 54.0525 39.2335 55.6627 39.2335 57.6491C39.2335 59.6354 37.6366 61.2456 35.6667 61.2456H32.1V57.6491ZM28.5333 82.8244C28.5333 84.8108 26.9364 86.421 24.9665 86.421C22.9966 86.421 21.3998 84.8108 21.3998 82.8244C21.3998 80.8381 22.9966 79.2279 24.9665 79.2279H28.5333V82.8244Z" fill="#FDFBFB"/>
</svg>
