<svg width="116" height="108" viewBox="0 0 116 108" fill="none" xmlns="http://www.w3.org/2000/svg">
<path d="M93.6462 69.7699C98.078 67.112 101.043 62.3138 101.043 56.8472V45.2643C101.043 37.7167 95.391 31.4435 88.03 30.3188V19.1316C88.03 18.2118 87.2717 17.4663 86.3362 17.4663H68.1901V10.7819C68.1901 4.83674 63.2705 0 57.2236 0H30.8066C24.7597 0 19.8401 4.83674 19.8401 10.7819V17.4663H1.69378C0.758305 17.4663 0 18.2118 0 19.1316V78.2567C0 79.1765 0.758305 79.922 1.69378 79.922H16.6324C17.5679 79.922 18.3262 79.1765 18.3262 78.2567C18.3262 77.3372 17.5679 76.5915 16.6324 76.5915H3.38756V42.9635C6.32698 47.3499 10.9654 50.5675 16.4403 51.6591V53.4868C16.4403 56.4251 18.8717 58.8153 21.8603 58.8153C24.8489 58.8153 27.2804 56.4248 27.2804 53.4868V52.0739H40.3644C41.2999 52.0739 42.0582 51.3284 42.0582 50.4086C42.0582 49.4889 41.2999 48.7434 40.3644 48.7434H27.2804V44.6667C27.2804 43.7469 26.5221 43.0014 25.5866 43.0014H18.1338C17.1984 43.0014 16.4401 43.7469 16.4401 44.6667V48.2524C8.87763 46.4293 3.38734 39.6967 3.38734 31.8767V20.7966H84.6424V30.1714C84.5416 30.1778 84.4426 30.1896 84.3422 30.1981C84.2264 30.2079 84.1104 30.2166 83.9953 30.2288C83.8551 30.2438 83.716 30.2625 83.5769 30.2812C83.4656 30.2961 83.3537 30.3097 83.2431 30.3268C83.1018 30.3489 82.9618 30.3752 82.8217 30.401C82.7155 30.4206 82.6083 30.4384 82.5025 30.4603C82.3582 30.4901 82.2159 30.5242 82.0732 30.5581C81.9737 30.5817 81.8736 30.6028 81.7748 30.6282C81.6232 30.667 81.4739 30.7111 81.3244 30.7543C81.2367 30.7797 81.1479 30.8026 81.0611 30.8294C80.8926 30.8813 80.7265 30.9387 80.5604 30.9964C80.4943 31.0194 80.427 31.0396 80.361 31.0637C79.8973 31.2316 79.4437 31.4205 79.0021 31.6297C78.9561 31.6515 78.9115 31.6756 78.866 31.6979C78.6926 31.7821 78.5204 31.8671 78.351 31.9574C78.2819 31.9941 78.215 32.034 78.1466 32.0716C78.003 32.1511 77.8591 32.2304 77.7182 32.314C77.6414 32.3596 77.5668 32.4084 77.4909 32.4552C77.3613 32.5354 77.2318 32.6151 77.1047 32.6989C77.0251 32.7512 76.9479 32.8065 76.8695 32.8606C76.7494 32.9432 76.6289 33.0254 76.5111 33.1112C76.4313 33.1693 76.3536 33.2301 76.275 33.2896C76.1622 33.3754 76.0489 33.4611 75.9385 33.5496C75.8597 33.6128 75.7829 33.6783 75.7054 33.7431C75.5989 33.8324 75.4922 33.9215 75.388 34.0135C75.311 34.0815 75.236 34.1516 75.1603 34.2211C75.0593 34.314 74.9589 34.4067 74.8606 34.502C74.7858 34.5744 74.7128 34.6486 74.6397 34.7225C74.5443 34.819 74.4496 34.9154 74.3569 35.0141C74.2849 35.0907 74.2146 35.1687 74.1444 35.2469C74.0544 35.3467 73.9654 35.4469 73.8782 35.5492C73.8093 35.6298 73.742 35.7113 73.675 35.7933C73.5902 35.8966 73.5066 36.0004 73.4251 36.1058C73.3596 36.1902 73.2955 36.2751 73.2318 36.3608C73.1525 36.4673 73.0746 36.5749 72.9982 36.6834C72.9366 36.7711 72.8759 36.8596 72.8158 36.9487C72.742 37.0585 72.6697 37.1694 72.5988 37.281C72.541 37.3721 72.4839 37.4634 72.428 37.5559C72.3595 37.6688 72.2931 37.7831 72.2277 37.8978C72.174 37.992 72.121 38.0863 72.0691 38.1818C72.0063 38.2979 71.9456 38.4155 71.8858 38.5333C71.8366 38.6304 71.7875 38.7273 71.7403 38.8255C71.683 38.9447 71.6284 39.0652 71.574 39.1864C71.5294 39.2862 71.4845 39.3855 71.442 39.4862C71.3905 39.6085 71.3416 39.7321 71.2933 39.8562C71.2537 39.9578 71.2134 40.0593 71.1757 40.1623C71.1297 40.2883 71.0869 40.4157 71.0443 40.5432C71.0099 40.6465 70.9743 40.749 70.9422 40.853C70.9021 40.9826 70.8656 41.1136 70.8289 41.2448C70.7994 41.3493 70.7691 41.4531 70.7419 41.5584C70.7074 41.6921 70.6775 41.8273 70.6467 41.9623C70.6229 42.067 70.5976 42.1712 70.5758 42.2766C70.547 42.4165 70.5237 42.5577 70.4988 42.6989C70.4809 42.8016 70.4609 42.9036 70.4451 43.007C70.4222 43.156 70.4052 43.3066 70.3869 43.4567C70.3748 43.5543 70.3603 43.6509 70.3506 43.7489C70.3336 43.9156 70.323 44.0835 70.3116 44.2515C70.306 44.3352 70.2971 44.4178 70.2928 44.5018C70.2799 44.7542 70.2731 45.0084 70.2731 45.2638V48.5184C69.4867 48.6456 68.6935 48.7191 67.9001 48.7383V44.6667C67.9001 43.7469 67.1418 43.0014 66.2063 43.0014H58.7538C57.8183 43.0014 57.06 43.7469 57.06 44.6667V48.7434H46.0083C45.073 48.7434 44.3145 49.4889 44.3145 50.4086C44.3145 51.3281 45.0728 52.0739 46.0083 52.0739H57.06V53.4868C57.06 56.4251 59.4915 58.8153 62.4798 58.8153C65.4684 58.8153 67.8999 56.4248 67.8999 53.4868V52.0677C68.6926 52.0518 69.4849 51.9904 70.2729 51.8841V56.8472C70.2729 57.0997 70.2797 57.3519 70.2924 57.6027C70.2974 57.7005 70.3071 57.797 70.3139 57.8943C70.3245 58.046 70.3341 58.1977 70.3492 58.3483C70.3615 58.469 70.3787 58.5879 70.3936 58.708C70.4095 58.8329 70.4236 58.9584 70.4421 59.0831C70.4625 59.2167 70.4874 59.3488 70.5112 59.4811C70.5307 59.5894 70.5484 59.6983 70.5704 59.8059C70.5996 59.9494 70.6331 60.0913 70.6664 60.2331C70.6886 60.3276 70.709 60.4223 70.733 60.5165C70.7718 60.6691 70.8153 60.8199 70.8586 60.9702C70.8821 61.0511 70.9039 61.1324 70.9288 61.2126C70.9789 61.3758 71.0335 61.5369 71.0892 61.6977C71.1116 61.7625 71.1329 61.8278 71.1563 61.8924C71.2201 62.069 71.2883 62.2437 71.3586 62.4172C71.3772 62.4628 71.3946 62.509 71.4136 62.5544C71.4943 62.7482 71.5797 62.9393 71.6681 63.1291C71.6787 63.1518 71.6889 63.1745 71.6996 63.1972C72.988 65.9241 75.0762 68.2142 77.6702 69.7699C72.9645 71.0845 68.6815 73.4637 65.1517 76.5917H22.2777C21.3422 76.5917 20.5839 77.3372 20.5839 78.257C20.5839 79.1767 21.3422 79.9222 22.2777 79.9222H61.9146C57.8027 84.847 55.3173 90.9845 55.3173 97.5182V106.335C55.3173 107.254 56.0756 108 57.0111 108H69.912C70.8475 108 71.6058 107.254 71.6058 106.335C71.6058 105.415 70.8475 104.669 69.912 104.669H58.7046V97.5179C58.7046 90.8669 61.5912 84.5073 66.8328 79.6111C66.8851 79.5623 66.9386 79.5146 66.9914 79.4663C67.1941 79.2798 67.3999 79.0965 67.6078 78.9161C67.6242 78.9018 67.6405 78.8876 67.6565 78.8738C68.0669 78.5194 68.4876 78.1779 68.9171 77.8478C68.9951 77.7881 69.0737 77.7295 69.1521 77.6707C69.267 77.5843 69.3827 77.499 69.499 77.4143C69.6136 77.331 69.7282 77.2477 69.844 77.1662C69.8929 77.1314 69.9426 77.098 69.9917 77.0637C72.3985 75.3913 75.0547 74.094 77.8306 73.2242L80.5806 78.477L76.9066 94.1569C76.7696 94.7416 76.9633 95.3537 77.4137 95.7591L84.5153 102.149C84.8388 102.441 85.2487 102.586 85.6587 102.586C86.0688 102.586 86.4785 102.44 86.8024 102.149L93.904 95.7591C94.3542 95.354 94.5482 94.7418 94.4111 94.1569L90.7371 78.477L93.4872 73.2242C97.5433 74.4952 101.345 76.6784 104.485 79.6111C109.726 84.507 112.613 90.8667 112.613 97.5177V104.669H75.5575C74.6222 104.669 73.8637 105.415 73.8637 106.334C73.8637 107.254 74.622 108 75.5575 108H114.306C115.241 108 116 107.254 116 106.334V97.5177C116 84.6525 106.364 73.3227 93.6462 69.7699ZM19.8272 46.3317H23.8924V53.4866C23.8924 54.5885 22.9805 55.4848 21.8597 55.4848C20.7389 55.4848 19.8269 54.5883 19.8269 53.4866L19.8272 46.3317ZM29.2886 17.4663V11.9756C29.2886 10.4571 30.5452 9.22152 32.0899 9.22152H55.9401C57.4846 9.22152 58.7413 10.4569 58.7413 11.9756V17.4663H29.2886ZM64.8023 17.4663H62.1284V11.9756C62.1284 8.62077 59.3524 5.89122 55.9399 5.89122H32.0896C28.6774 5.89122 25.9011 8.62055 25.9011 11.9756V17.4665H23.2272V10.7819C23.2272 6.67307 26.6272 3.3303 30.8064 3.3303H57.2231C61.4023 3.3303 64.8023 6.67307 64.8023 10.7819V17.4663ZM64.5137 50.4086V53.487C64.5137 54.5889 63.6018 55.4853 62.481 55.4853C61.3602 55.4853 60.4485 54.5887 60.4485 53.487V46.3319H64.5134V50.4086H64.5137ZM73.6686 45.2572C73.6686 38.9603 78.7162 33.8008 85.0425 33.4845C85.2466 33.4743 85.4519 33.4691 85.6585 33.4691C85.8513 33.4691 86.043 33.4747 86.2338 33.4836C86.2403 33.4838 86.2465 33.4841 86.253 33.4843C86.2557 33.4845 86.2582 33.4841 86.261 33.4843C86.2655 33.4845 86.2702 33.4843 86.2748 33.4845C92.6006 33.8008 97.6484 38.9603 97.6484 45.2572V49.2236C92.1849 48.2271 89.9741 42.7655 89.8758 42.5156C89.6419 41.909 89.0692 41.4952 88.411 41.4488C87.7524 41.4039 87.1253 41.74 86.8056 42.3073C86.652 42.5804 83.1197 48.6601 73.6684 49.3221L73.6686 45.2572ZM90.888 93.9582L85.6585 98.6638L80.429 93.9582L83.718 79.9222H87.599L90.888 93.9582ZM81.2032 72.3889C81.3509 72.362 81.4991 72.3375 81.6472 72.3127C81.7524 72.2954 81.8579 72.2782 81.9631 72.2622C82.1479 72.2337 82.333 72.2067 82.5184 72.182C82.7601 72.1501 83.0018 72.1214 83.2438 72.0962C83.3412 72.086 83.4382 72.0764 83.5356 72.0673C83.5592 72.065 83.5825 72.063 83.6061 72.0608C83.8573 72.0379 84.1091 72.0187 84.3605 72.0029C84.4618 71.9967 84.5626 71.9897 84.6641 71.9846C84.6646 71.9846 84.6651 71.9846 84.6655 71.9846C84.8696 71.9742 85.0738 71.9688 85.2779 71.963C85.4048 71.9661 85.5307 71.9726 85.6587 71.9726C85.7865 71.9726 85.9125 71.9661 86.0394 71.963C86.2437 71.9688 86.4481 71.9742 86.6527 71.9846C86.7182 71.988 86.7836 71.9906 86.8491 71.9947C87.1459 72.0123 87.4422 72.0356 87.739 72.0628C87.8496 72.0731 87.9604 72.0842 88.071 72.0958C88.3168 72.1214 88.5626 72.1506 88.808 72.1829C88.9892 72.2072 89.1705 72.2337 89.3513 72.2615C89.458 72.2778 89.5649 72.2954 89.6716 72.3127C89.8191 72.3372 89.9668 72.3615 90.1141 72.3885L87.9144 76.5915H83.4035L81.2032 72.3889ZM86.36 68.6207C86.3246 68.6203 86.2897 68.6187 86.2544 68.6202C86.212 68.6223 86.1697 68.6249 86.1273 68.6278C86.1144 68.6287 86.1017 68.6294 86.089 68.6301C85.9533 68.6265 85.818 68.6214 85.6819 68.6196C85.6665 68.6196 85.6508 68.6196 85.6356 68.6196C85.4995 68.6214 85.364 68.6265 85.2283 68.6301C79.0472 68.4122 73.9876 63.4527 73.6765 57.4343C73.6668 57.2399 73.6614 57.0441 73.6614 56.8472V52.6593C81.3199 52.1977 85.8248 48.6525 88.0472 46.2119C89.6123 48.6146 92.6453 51.9541 97.6559 52.5985V56.8474C97.6559 63.1195 92.65 68.2623 86.36 68.6207Z" fill="#FDFBFB"/>
</svg>
