<svg width="82" height="82" viewBox="0 0 82 82" fill="none" xmlns="http://www.w3.org/2000/svg">
<path d="M80.998 76.1678L57.6795 52.849C62.1963 47.2696 64.9159 40.18 64.9159 32.4584C64.9159 14.5619 50.3542 0 32.4579 0C14.5616 0 0 14.5617 0 32.4582C0 50.3547 14.5617 64.9166 32.458 64.9166C40.1796 64.9166 47.2691 62.197 52.8484 57.6801L76.1669 80.9989C76.8332 81.6651 77.7078 82 78.5825 82C79.4573 82 80.3319 81.6651 80.9981 80.9989C82.334 79.663 82.334 77.5036 80.998 76.1678ZM32.458 58.0832C18.3268 58.0832 6.83331 46.5896 6.83331 32.4582C6.83331 18.3268 18.3268 6.83323 32.458 6.83323C46.5893 6.83323 58.0827 18.3268 58.0827 32.4582C58.0827 46.5896 46.5891 58.0832 32.458 58.0832Z" fill="url(#paint0_linear_409_52)"/>
<defs>
<linearGradient id="paint0_linear_409_52" x1="-43" y1="-116" x2="41" y2="122" gradientUnits="userSpaceOnUse">
<stop stop-color="#332E80"/>
<stop offset="1" stop-color="#332E80" stop-opacity="0"/>
</linearGradient>
</defs>
</svg>
