<svg width="12" height="12" viewBox="0 0 12 12" fill="none" xmlns="http://www.w3.org/2000/svg">
<path d="M4.68694 5.2416V1.35777C4.68694 0.928646 5.03479 0.580788 5.46358 0.581123L5.98135 0.581123C6.4106 0.581123 6.75846 0.928981 6.75806 1.35784L6.75806 5.24154L10.6422 5.2412C11.0714 5.2412 11.4192 5.58906 11.4189 6.01785L11.4193 6.53601C11.4192 6.9652 11.0714 7.31306 10.6426 7.31273L6.75806 7.31273L6.75806 11.1964C6.75806 11.6257 6.4102 11.9735 5.98135 11.9731L5.46358 11.9731C5.03446 11.9731 4.6866 11.6253 4.68694 11.1965V7.31266L0.803169 7.31273C0.373979 7.31266 0.0261213 6.9648 0.0264562 6.53601V6.01825C0.0265236 5.58906 0.374381 5.2412 0.803169 5.24154L4.68694 5.2416Z" fill="#FEFCFC"/>
</svg>
