<svg width="211" height="50" viewBox="0 0 211 50" fill="none" xmlns="http://www.w3.org/2000/svg">
<path fill-rule="evenodd" clip-rule="evenodd" d="M13.7498 1.36902C12.6963 2.43528 12.3333 2.88033 12.2335 3.22764C12.1376 3.56205 12.1114 7.03108 12.1359 16.1862L12.1652 35.2512C12.1674 36.7135 13.3535 37.8977 14.8158 37.8977H22.4816C29.4012 37.8977 32.794 37.9359 32.794 38.0139C32.794 38.0779 32.2669 38.6525 31.6228 39.2908L31.2311 39.679C30.732 40.1737 30.0568 40.45 29.3541 40.447L20.2249 40.4086C14.6002 40.3849 9.88243 40.3626 9.74109 40.359C9.59804 40.3553 9.48399 40.2383 9.48399 40.0952V18.7645C9.48399 11.9564 9.4528 6.30482 9.41463 6.20549C9.37647 6.10616 9.2862 6.02487 9.2141 6.02487C9.142 6.02487 7.11825 7.99013 4.71697 10.392C1.74985 13.3598 0.294689 14.8951 0.175397 15.1836C0.0213676 15.5562 0 26.3207 0 37.1392C0 49.1039 0.00628458 49.4688 0.218589 49.7304C0.356865 49.901 0.564689 50 0.78423 50H12.6611C19.3844 50 25.1063 49.9565 25.3768 49.9033C25.8009 49.8197 26.0692 49.6095 27.3316 48.371C28.1364 47.5815 28.7948 46.8733 28.7948 46.797C28.7948 46.7208 28.6791 46.6276 28.5377 46.5897C28.3962 46.5519 22.6888 46.5201 15.8543 46.5193L6.07821 46.5181C4.61446 46.5179 3.42795 45.3312 3.42795 43.8675V17.6359C3.42795 16.9406 3.70117 16.2731 4.1887 15.7773L4.66989 15.288C5.35309 14.5934 5.94441 14.0576 5.98394 14.0972C6.02359 14.1368 6.05604 27.9975 6.05604 33.6427V41.247C6.05604 42.7144 7.24834 43.9026 8.71579 43.8975L18.768 43.8629C30.4065 43.8227 31.514 43.8027 31.8828 43.6262C32.2948 43.429 36.0076 39.6633 37.9163 37.5955C38.6357 36.8161 39.1116 35.3833 38.2071 34.8293C37.891 34.6357 37.4723 34.5031 36.9277 34.5031L18.2344 34.4789C16.7757 34.4754 15.5941 33.2939 15.5903 31.8353L15.54 12.6485C15.4894 1.47475 15.463 0.03012 15.309 0.000435079C15.2107 -0.0184034 14.5327 0.576665 13.7498 1.36902Z" fill="#BC2024"/>
<path d="M9.45483 43.895V40.1831L9.48399 37.2677V40.0952C9.48399 40.2383 9.59804 40.3553 9.74108 40.359C9.88243 40.3626 14.6002 40.3849 20.2249 40.4086L29.3541 40.447C30.0568 40.45 30.732 40.1737 31.2311 39.679L31.6228 39.2908C32.2669 38.6525 32.794 38.0779 32.794 38.0139C32.794 37.9359 29.4012 37.8977 22.4816 37.8977H14.8157C13.3534 37.8977 12.1674 36.7135 12.1651 35.2512L12.1358 16.1862C12.1114 7.03108 12.1376 3.56205 12.2335 3.22764C12.3333 2.88033 12.6963 2.43528 13.7498 1.36902C14.5327 0.576665 15.2107 -0.0184033 15.309 0.000435075C15.463 0.0301207 15.4894 1.47475 15.54 12.6485L15.5903 31.8353C15.5941 33.2939 16.7757 34.4754 18.2344 34.4789L36.9277 34.5031C37.4723 34.5031 37.891 34.6357 38.2071 34.8293C39.1116 35.3833 38.6357 36.8161 37.9163 37.5955C36.0076 39.6633 32.2948 43.429 31.8828 43.6262C31.514 43.8027 30.4065 43.8227 18.768 43.8629L9.45483 43.895Z" fill="white"/>
<path d="M68.8746 39.6436C68.5888 39.6436 68.3549 39.5532 68.173 39.3723C67.991 39.1914 67.9001 38.9589 67.9001 38.6747V18.016H60.0648V22.2408C60.0648 25.3673 59.9088 28.0288 59.597 30.2252C59.2851 32.3957 58.7524 34.1657 57.9987 35.5352C57.2451 36.9046 56.2056 37.9253 54.8802 38.5971C53.5808 39.2431 51.9176 39.5919 49.8906 39.6436C49.6307 39.6436 49.3968 39.5532 49.1889 39.3723C49.007 39.1656 48.916 38.9201 48.916 38.6359V35.1863C48.916 34.6437 49.2149 34.3207 49.8126 34.2173C50.5662 34.0881 51.2029 33.7264 51.7227 33.1321C52.2684 32.5378 52.7102 31.7109 53.0481 30.6515C53.4119 29.5662 53.6718 28.2614 53.8277 26.7368C53.9836 25.1865 54.0616 23.4294 54.0616 21.4656V13.4812C54.0616 13.197 54.1526 12.9644 54.3345 12.7835C54.5164 12.6026 54.7373 12.5122 54.9972 12.5122H73.1236C73.4095 12.5122 73.6434 12.6026 73.8253 12.7835C74.0072 12.9644 74.0982 13.197 74.0982 13.4812V38.6747C74.0982 38.9589 74.0072 39.1914 73.8253 39.3723C73.6434 39.5532 73.4095 39.6436 73.1236 39.6436H68.8746Z" fill="white"/>
<path d="M80.8438 39.6436C80.558 39.6436 80.3241 39.5532 80.1421 39.3723C79.9602 39.1914 79.8693 38.9589 79.8693 38.6747V13.4812C79.8693 13.197 79.9602 12.9644 80.1421 12.7835C80.3241 12.6026 80.558 12.5122 80.8438 12.5122H98.5025C98.7884 12.5122 99.0223 12.6026 99.2042 12.7835C99.3861 12.9644 99.477 13.197 99.477 13.4812V16.5819C99.477 16.8403 99.3861 17.06 99.2042 17.2408C99.0223 17.4217 98.7884 17.5121 98.5025 17.5121H85.8724V23.5973H97.6449C97.9308 23.5973 98.1647 23.6878 98.3466 23.8686C98.5285 24.0495 98.6194 24.2821 98.6194 24.5663V27.4345C98.6194 27.6929 98.5285 27.9125 98.3466 28.0934C98.1647 28.2743 97.9308 28.3647 97.6449 28.3647H85.8724V34.6437H98.8144C99.1002 34.6437 99.3341 34.7341 99.516 34.915C99.6979 35.0959 99.7889 35.3284 99.7889 35.6127V38.6747C99.7889 38.9589 99.6979 39.1914 99.516 39.3723C99.3341 39.5532 99.1002 39.6436 98.8144 39.6436H80.8438Z" fill="white"/>
<path d="M105.398 39.6436C105.112 39.6436 104.878 39.5532 104.696 39.3723C104.514 39.1914 104.423 38.9589 104.423 38.6747V13.4812C104.423 13.197 104.514 12.9644 104.696 12.7835C104.878 12.6026 105.112 12.5122 105.398 12.5122H116.04C118.145 12.5122 119.964 12.8352 121.497 13.4812C123.056 14.1272 124.265 15.1091 125.122 16.4269C126.006 17.7189 126.448 19.3338 126.448 21.2718C126.448 23.2356 126.006 24.8635 125.122 26.1554C124.265 27.4216 123.056 28.3647 121.497 28.9849C119.964 29.605 118.145 29.9151 116.04 29.9151H110.816V38.6747C110.816 38.9589 110.725 39.1914 110.543 39.3723C110.361 39.5532 110.127 39.6436 109.842 39.6436H105.398ZM110.699 25.1089H115.845C117.17 25.1089 118.197 24.7859 118.924 24.14C119.678 23.494 120.055 22.525 120.055 21.233C120.055 20.0961 119.717 19.1659 119.041 18.4424C118.392 17.7189 117.326 17.3571 115.845 17.3571H110.699V25.1089Z" fill="white"/>
<path d="M128.825 39.6436C128.591 39.6436 128.397 39.5661 128.241 39.4111C128.085 39.2302 128.007 39.0364 128.007 38.8297C128.007 38.7005 128.02 38.5842 128.046 38.4809L137.323 13.5587C137.401 13.2745 137.557 13.029 137.791 12.8223C138.025 12.6156 138.35 12.5122 138.766 12.5122H143.755C144.171 12.5122 144.496 12.6156 144.73 12.8223C144.964 13.029 145.12 13.2745 145.198 13.5587L154.475 38.4809C154.501 38.5842 154.514 38.7005 154.514 38.8297C154.514 39.0364 154.436 39.2302 154.28 39.4111C154.124 39.5661 153.93 39.6436 153.696 39.6436H149.642C149.252 39.6436 148.966 39.5532 148.784 39.3723C148.602 39.1914 148.485 39.0235 148.433 38.8684L146.757 34.5274H135.764L134.088 38.8684C134.036 39.0235 133.919 39.1914 133.737 39.3723C133.555 39.5532 133.269 39.6436 132.879 39.6436H128.825ZM137.206 29.5275H145.276L141.261 18.3648L137.206 29.5275Z" fill="white"/>
<path d="M158.845 39.6436C158.559 39.6436 158.325 39.5532 158.144 39.3723C157.962 39.1656 157.871 38.933 157.871 38.6747V13.4812C157.871 13.197 157.962 12.9644 158.144 12.7835C158.351 12.6026 158.585 12.5122 158.845 12.5122H163.094C163.38 12.5122 163.614 12.6026 163.796 12.7835C163.978 12.9644 164.069 13.197 164.069 13.4812V30.2252L176.036 13.2099C176.166 13.029 176.322 12.874 176.504 12.7448C176.712 12.5897 176.972 12.5122 177.284 12.5122H181.104C181.39 12.5122 181.623 12.6026 181.805 12.7835C181.987 12.9644 182.078 13.197 182.078 13.4812V38.6747C182.078 38.9589 181.987 39.1914 181.805 39.3723C181.623 39.5532 181.39 39.6436 181.104 39.6436H176.855C176.595 39.6436 176.361 39.5532 176.153 39.3723C175.971 39.1914 175.88 38.9589 175.88 38.6747V22.4346L163.913 38.946C163.835 39.101 163.705 39.256 163.523 39.4111C163.341 39.5661 163.068 39.6436 162.704 39.6436H158.845ZM170.033 10.9231C168.422 10.9231 167.122 10.6776 166.135 10.1867C165.147 9.69571 164.433 9.04972 163.991 8.2487C163.575 7.42184 163.367 6.53037 163.367 5.57431C163.367 5.3676 163.419 5.19964 163.523 5.07045C163.653 4.91541 163.848 4.83789 164.108 4.83789H166.758C166.992 4.83789 167.174 4.91541 167.304 5.07045C167.434 5.19964 167.499 5.3676 167.499 5.57431C167.499 5.93607 167.564 6.2849 167.694 6.62081C167.85 6.93089 168.11 7.18928 168.474 7.396C168.837 7.60271 169.357 7.70607 170.033 7.70607C170.735 7.70607 171.267 7.60271 171.631 7.396C171.995 7.18928 172.242 6.93089 172.372 6.62081C172.528 6.2849 172.606 5.93607 172.606 5.57431C172.606 5.3676 172.671 5.19964 172.801 5.07045C172.931 4.91541 173.112 4.83789 173.346 4.83789H175.997C176.231 4.83789 176.413 4.91541 176.543 5.07045C176.673 5.19964 176.738 5.3676 176.738 5.57431C176.738 6.53037 176.517 7.42184 176.075 8.2487C175.633 9.04972 174.932 9.69571 173.97 10.1867C173.009 10.6776 171.696 10.9231 170.033 10.9231Z" fill="white"/>
<path d="M188.805 39.6436C188.519 39.6436 188.285 39.5532 188.103 39.3723C187.921 39.1914 187.83 38.9589 187.83 38.6747V13.4812C187.83 13.197 187.921 12.9644 188.103 12.7835C188.285 12.6026 188.519 12.5122 188.805 12.5122H193.054C193.34 12.5122 193.573 12.6026 193.755 12.7835C193.937 12.9644 194.028 13.197 194.028 13.4812V23.171H204.592V13.4812C204.592 13.197 204.683 12.9644 204.865 12.7835C205.047 12.6026 205.281 12.5122 205.567 12.5122H209.816C210.102 12.5122 210.336 12.6026 210.517 12.7835C210.699 12.9644 210.79 13.197 210.79 13.4812V38.6747C210.79 38.9589 210.699 39.1914 210.517 39.3723C210.336 39.5532 210.102 39.6436 209.816 39.6436H205.567C205.281 39.6436 205.047 39.5532 204.865 39.3723C204.683 39.1914 204.592 38.9589 204.592 38.6747V28.6748H194.028V38.6747C194.028 38.9589 193.937 39.1914 193.755 39.3723C193.573 39.5532 193.34 39.6436 193.054 39.6436H188.805Z" fill="white"/>
</svg>
