<svg width="211" height="51" viewBox="0 0 211 51" fill="none" xmlns="http://www.w3.org/2000/svg">
<path fill-rule="evenodd" clip-rule="evenodd" d="M13.7498 2.14539C12.6963 3.21165 12.3333 3.6567 12.2335 4.00401C12.1376 4.33842 12.1114 7.80744 12.1359 16.9626L12.1652 36.0275C12.1674 37.4898 13.3535 38.6741 14.8158 38.6741H22.4816C29.4012 38.6741 32.794 38.7123 32.794 38.7903C32.794 38.8542 32.2669 39.4289 31.6228 40.0672L31.2311 40.4554C30.732 40.9501 30.0568 41.2263 29.3541 41.2234L20.2249 41.1849C14.6002 41.1613 9.88243 41.1389 9.74109 41.1354C9.59804 41.1317 9.48399 41.0147 9.48399 40.8716V19.5409C9.48399 12.7327 9.4528 7.08119 9.41463 6.98186C9.37647 6.88253 9.2862 6.80124 9.2141 6.80124C9.142 6.80124 7.11825 8.7665 4.71697 11.1683C1.74985 14.1362 0.294689 15.6714 0.175397 15.9599C0.0213676 16.3326 0 27.0971 0 37.9156C0 49.8802 0.00628458 50.2451 0.218589 50.5068C0.356865 50.6773 0.564689 50.7764 0.78423 50.7764H12.6611C19.3844 50.7764 25.1063 50.7329 25.3768 50.6797C25.8009 50.5961 26.0692 50.3859 27.3316 49.1474C28.1364 48.3578 28.7948 47.6496 28.7948 47.5734C28.7948 47.4972 28.6791 47.4039 28.5377 47.366C28.3962 47.3282 22.6888 47.2965 15.8543 47.2957L6.07821 47.2944C4.61446 47.2943 3.42795 46.1076 3.42795 44.6438V18.4122C3.42795 17.7169 3.70117 17.0495 4.1887 16.5537L4.66989 16.0644C5.35309 15.3698 5.94441 14.834 5.98394 14.8736C6.02359 14.9132 6.05604 28.7739 6.05604 34.4191V42.0233C6.05604 43.4908 7.24834 44.679 8.71579 44.6739L18.768 44.6392C30.4065 44.5991 31.514 44.5791 31.8828 44.4026C32.2948 44.2054 36.0076 40.4397 37.9163 38.3719C38.6357 37.5925 39.1116 36.1597 38.2071 35.6057C37.891 35.4121 37.4723 35.2795 36.9277 35.2795L18.2344 35.2553C16.7757 35.2517 15.5941 34.0703 15.5903 32.6116L15.54 13.4249C15.4894 2.25111 15.463 0.806487 15.309 0.776802C15.2107 0.757964 14.5327 1.35303 13.7498 2.14539Z" fill="#BC2024"/>
<path d="M9.45483 44.6714V40.9594L9.48399 38.0441V40.8716C9.48399 41.0147 9.59804 41.1317 9.74108 41.1354C9.88243 41.1389 14.6002 41.1613 20.2249 41.1849L29.3541 41.2234C30.0568 41.2263 30.732 40.9501 31.2311 40.4554L31.6228 40.0672C32.2669 39.4289 32.794 38.8542 32.794 38.7903C32.794 38.7123 29.4012 38.6741 22.4816 38.6741H14.8157C13.3534 38.6741 12.1674 37.4898 12.1651 36.0275L12.1358 16.9626C12.1114 7.80744 12.1376 4.33842 12.2335 4.00401C12.3333 3.6567 12.6963 3.21165 13.7498 2.14539C14.5327 1.35303 15.2107 0.757964 15.309 0.776802C15.463 0.806488 15.4894 2.25112 15.54 13.4249L15.5903 32.6116C15.5941 34.0703 16.7757 35.2517 18.2344 35.2553L36.9277 35.2795C37.4723 35.2795 37.891 35.4121 38.2071 35.6057C39.1116 36.1597 38.6357 37.5925 37.9163 38.3719C36.0076 40.4397 32.2948 44.2054 31.8828 44.4026C31.514 44.5791 30.4065 44.5991 18.768 44.6392L9.45483 44.6714Z" fill="#1D1868"/>
<path d="M68.8746 40.42C68.5888 40.42 68.3549 40.3296 68.173 40.1487C67.991 39.9678 67.9001 39.7353 67.9001 39.451V18.7924H60.0648V23.0171C60.0648 26.1437 59.9088 28.8052 59.597 31.0015C59.2851 33.172 58.7524 34.942 57.9987 36.3115C57.2451 37.681 56.2056 38.7017 54.8802 39.3735C53.5808 40.0195 51.9176 40.3683 49.8906 40.42C49.6307 40.42 49.3968 40.3296 49.1889 40.1487C49.007 39.942 48.916 39.6965 48.916 39.4123V35.9627C48.916 35.4201 49.2149 35.0971 49.8126 34.9937C50.5662 34.8645 51.2029 34.5028 51.7227 33.9085C52.2684 33.3141 52.7102 32.4873 53.0481 31.4279C53.4119 30.3426 53.6718 29.0377 53.8277 27.5132C53.9836 25.9628 54.0616 24.2057 54.0616 22.2419V14.2576C54.0616 13.9733 54.1526 13.7408 54.3345 13.5599C54.5164 13.379 54.7373 13.2886 54.9972 13.2886H73.1236C73.4095 13.2886 73.6434 13.379 73.8253 13.5599C74.0072 13.7408 74.0982 13.9733 74.0982 14.2576V39.451C74.0982 39.7353 74.0072 39.9678 73.8253 40.1487C73.6434 40.3296 73.4095 40.42 73.1236 40.42H68.8746Z" fill="#1D1868"/>
<path d="M80.8438 40.42C80.558 40.42 80.3241 40.3296 80.1421 40.1487C79.9602 39.9678 79.8693 39.7353 79.8693 39.451V14.2576C79.8693 13.9733 79.9602 13.7408 80.1421 13.5599C80.3241 13.379 80.558 13.2886 80.8438 13.2886H98.5025C98.7884 13.2886 99.0223 13.379 99.2042 13.5599C99.3861 13.7408 99.477 13.9733 99.477 14.2576V17.3583C99.477 17.6167 99.3861 17.8363 99.2042 18.0172C99.0223 18.1981 98.7884 18.2885 98.5025 18.2885H85.8724V24.3737H97.6449C97.9308 24.3737 98.1647 24.4641 98.3466 24.645C98.5285 24.8259 98.6194 25.0584 98.6194 25.3427V28.2109C98.6194 28.4693 98.5285 28.6889 98.3466 28.8698C98.1647 29.0506 97.9308 29.1411 97.6449 29.1411H85.8724V35.4201H98.8144C99.1002 35.4201 99.3341 35.5105 99.516 35.6914C99.6979 35.8723 99.7889 36.1048 99.7889 36.389V39.451C99.7889 39.7353 99.6979 39.9678 99.516 40.1487C99.3341 40.3296 99.1002 40.42 98.8144 40.42H80.8438Z" fill="#1D1868"/>
<path d="M105.398 40.42C105.112 40.42 104.878 40.3296 104.696 40.1487C104.514 39.9678 104.423 39.7353 104.423 39.451V14.2576C104.423 13.9733 104.514 13.7408 104.696 13.5599C104.878 13.379 105.112 13.2886 105.398 13.2886H116.04C118.145 13.2886 119.964 13.6116 121.497 14.2576C123.056 14.9035 124.265 15.8854 125.122 17.2033C126.006 18.4952 126.448 20.1102 126.448 22.0481C126.448 24.0119 126.006 25.6398 125.122 26.9318C124.265 28.1979 123.056 29.1411 121.497 29.7612C119.964 30.3814 118.145 30.6914 116.04 30.6914H110.816V39.451C110.816 39.7353 110.725 39.9678 110.543 40.1487C110.361 40.3296 110.127 40.42 109.842 40.42H105.398ZM110.699 25.8853H115.845C117.17 25.8853 118.197 25.5623 118.924 24.9163C119.678 24.2703 120.055 23.3014 120.055 22.0094C120.055 20.8725 119.717 19.9422 119.041 19.2187C118.392 18.4952 117.326 18.1335 115.845 18.1335H110.699V25.8853Z" fill="#1D1868"/>
<path d="M128.825 40.42C128.591 40.42 128.397 40.3425 128.241 40.1874C128.085 40.0066 128.007 39.8128 128.007 39.6061C128.007 39.4769 128.02 39.3606 128.046 39.2572L137.323 14.3351C137.401 14.0508 137.557 13.8054 137.791 13.5986C138.025 13.3919 138.35 13.2886 138.766 13.2886H143.755C144.171 13.2886 144.496 13.3919 144.73 13.5986C144.964 13.8054 145.12 14.0508 145.198 14.3351L154.475 39.2572C154.501 39.3606 154.514 39.4769 154.514 39.6061C154.514 39.8128 154.436 40.0066 154.28 40.1874C154.124 40.3425 153.93 40.42 153.696 40.42H149.642C149.252 40.42 148.966 40.3296 148.784 40.1487C148.602 39.9678 148.485 39.7999 148.433 39.6448L146.757 35.3038H135.764L134.088 39.6448C134.036 39.7999 133.919 39.9678 133.737 40.1487C133.555 40.3296 133.269 40.42 132.879 40.42H128.825ZM137.206 30.3039H145.276L141.261 19.1412L137.206 30.3039Z" fill="#1D1868"/>
<path d="M158.845 40.42C158.559 40.42 158.325 40.3296 158.144 40.1487C157.962 39.942 157.871 39.7094 157.871 39.451V14.2576C157.871 13.9733 157.962 13.7408 158.144 13.5599C158.351 13.379 158.585 13.2886 158.845 13.2886H163.094C163.38 13.2886 163.614 13.379 163.796 13.5599C163.978 13.7408 164.069 13.9733 164.069 14.2576V31.0015L176.036 13.9862C176.166 13.8054 176.322 13.6503 176.504 13.5211C176.712 13.3661 176.972 13.2886 177.284 13.2886H181.104C181.39 13.2886 181.623 13.379 181.805 13.5599C181.987 13.7408 182.078 13.9733 182.078 14.2576V39.451C182.078 39.7353 181.987 39.9678 181.805 40.1487C181.623 40.3296 181.39 40.42 181.104 40.42H176.855C176.595 40.42 176.361 40.3296 176.153 40.1487C175.971 39.9678 175.88 39.7353 175.88 39.451V23.2109L163.913 39.7223C163.835 39.8774 163.705 40.0324 163.523 40.1874C163.341 40.3425 163.068 40.42 162.704 40.42H158.845ZM170.033 11.6994C168.422 11.6994 167.122 11.454 166.135 10.963C165.147 10.4721 164.433 9.82609 163.991 9.02506C163.575 8.1982 163.367 7.30674 163.367 6.35068C163.367 6.14397 163.419 5.97601 163.523 5.84681C163.653 5.69178 163.848 5.61426 164.108 5.61426H166.758C166.992 5.61426 167.174 5.69178 167.304 5.84681C167.434 5.97601 167.499 6.14397 167.499 6.35068C167.499 6.71243 167.564 7.06127 167.694 7.39718C167.85 7.70725 168.11 7.96565 168.474 8.17236C168.837 8.37908 169.357 8.48244 170.033 8.48244C170.735 8.48244 171.267 8.37908 171.631 8.17236C171.995 7.96565 172.242 7.70725 172.372 7.39718C172.528 7.06127 172.606 6.71243 172.606 6.35068C172.606 6.14397 172.671 5.97601 172.801 5.84681C172.931 5.69178 173.112 5.61426 173.346 5.61426H175.997C176.231 5.61426 176.413 5.69178 176.543 5.84681C176.673 5.97601 176.738 6.14397 176.738 6.35068C176.738 7.30674 176.517 8.1982 176.075 9.02506C175.633 9.82609 174.932 10.4721 173.97 10.963C173.009 11.454 171.696 11.6994 170.033 11.6994Z" fill="#1D1868"/>
<path d="M188.805 40.42C188.519 40.42 188.285 40.3296 188.103 40.1487C187.921 39.9678 187.83 39.7353 187.83 39.451V14.2576C187.83 13.9733 187.921 13.7408 188.103 13.5599C188.285 13.379 188.519 13.2886 188.805 13.2886H193.054C193.34 13.2886 193.573 13.379 193.755 13.5599C193.937 13.7408 194.028 13.9733 194.028 14.2576V23.9473H204.592V14.2576C204.592 13.9733 204.683 13.7408 204.865 13.5599C205.047 13.379 205.281 13.2886 205.567 13.2886H209.816C210.102 13.2886 210.336 13.379 210.517 13.5599C210.699 13.7408 210.79 13.9733 210.79 14.2576V39.451C210.79 39.7353 210.699 39.9678 210.517 40.1487C210.336 40.3296 210.102 40.42 209.816 40.42H205.567C205.281 40.42 205.047 40.3296 204.865 40.1487C204.683 39.9678 204.592 39.7353 204.592 39.451V29.4512H194.028V39.451C194.028 39.7353 193.937 39.9678 193.755 40.1487C193.573 40.3296 193.34 40.42 193.054 40.42H188.805Z" fill="#1D1868"/>
</svg>
