<svg width="36" height="42" viewBox="0 0 36 42" fill="none" xmlns="http://www.w3.org/2000/svg">
<path d="M30.3323 24.3164C26.0121 22.9943 23.8028 21.403 23.1951 20.9173C23.0923 20.8351 22.9438 20.8362 22.8456 20.9238C21.3114 22.2767 19.6146 23.0721 18.0688 23.0721H17.9229C16.3772 23.0721 14.6803 22.2767 13.1461 20.9238C13.0479 20.8362 12.8993 20.8351 12.7965 20.9173C12.1887 21.4031 9.97957 22.9943 5.65941 24.3164C-0.0837941 26.3264 -0.203347 32.9829 0.0868667 36.1837C0.192852 37.3526 -0.273308 39.1848 0.82289 39.6042C8.48149 42.7986 27.5103 42.7986 35.169 39.6042C36.2652 39.1848 35.8011 37.3528 35.9098 36.1841C36.2065 32.9913 36.0954 26.3577 30.3323 24.3164Z" fill="#1D1868"/>
<path d="M26.0052 10.4588L25.9413 10.3937C25.747 10.2271 25.599 9.78211 25.6426 9.52991C25.8232 8.48563 26.153 6.11507 25.694 4.83541C24.875 2.51293 20.5163 0.856137 18.6485 0.32565C18.2808 0.22122 17.6695 0.0905384 17.2911 0.0362563C17.2469 0.0299125 17.2426 0.0290148 17.1983 0.0232781C16.9745 -0.00570913 16.2106 -0.0671829 15.3474 0.285559C14.6772 0.527132 11.1733 2.01576 10.1788 4.83541C9.71984 6.11505 10.0497 8.48553 10.2302 9.52984C10.2738 9.78208 10.1258 10.2271 9.93151 10.3937L9.86762 10.4588C9.57732 10.7676 9.64902 11.7339 9.96635 12.7392C10.2539 13.7464 10.6287 14.0171 10.7185 14.253C11.6288 18.2574 14.7942 21.6765 18.0199 21.6765C21.2457 21.6765 24.2439 18.2574 25.1542 14.253C25.2441 14.0172 25.6189 13.7464 25.9064 12.7392C26.2237 11.7338 26.3038 10.7012 26.0052 10.4588Z" fill="#1D1868"/>
</svg>
