<svg width="15" height="17" viewBox="0 0 15 17" fill="none" xmlns="http://www.w3.org/2000/svg">
<path d="M12.9748 7.24737C12.9933 4.99157 11.1436 2.92361 8.85155 2.63764C8.80597 2.63203 8.75631 2.62348 8.70374 2.61444C8.59027 2.59491 8.47292 2.57484 8.35452 2.57484C7.88476 2.57484 7.75919 2.91759 7.72613 3.12201C7.69398 3.32077 7.72465 3.48768 7.81712 3.61831C7.97269 3.83804 8.24641 3.87704 8.46627 3.9083C8.53071 3.91754 8.59151 3.92614 8.64241 3.93801C10.7017 4.41597 11.3951 5.16742 11.734 7.28826C11.7423 7.34009 11.746 7.40394 11.75 7.47167C11.7648 7.72518 11.7956 8.25263 12.3415 8.25263H12.3415C12.387 8.25263 12.4358 8.24856 12.4867 8.24051C12.995 8.16026 12.9791 7.67813 12.9715 7.44647C12.9693 7.38123 12.9672 7.31952 12.9726 7.27847C12.974 7.26814 12.9747 7.25775 12.9748 7.24737Z" fill="#FDFBFB"/>
<path d="M8.22125 1.80962C8.28224 1.81419 8.33998 1.81857 8.38806 1.82622C11.7696 2.36639 13.3248 4.03058 13.7557 7.57055C13.7631 7.63072 13.7642 7.70411 13.7654 7.78183C13.7697 8.0584 13.7786 8.63375 14.3734 8.64568L14.3919 8.64587C14.5785 8.64587 14.7269 8.58744 14.833 8.47206C15.0182 8.27087 15.0053 7.97199 14.9948 7.73179C14.9923 7.67286 14.9899 7.61736 14.9905 7.56876C15.0335 3.9483 12.0164 0.665277 8.53396 0.543191C8.51951 0.542694 8.50574 0.543489 8.49182 0.545526C8.48498 0.54657 8.4723 0.547861 8.45058 0.547861C8.41585 0.547861 8.37313 0.544731 8.32783 0.541551C8.27306 0.537675 8.21096 0.533203 8.14801 0.533203C7.59343 0.533203 7.488 0.942643 7.47451 1.18672C7.44341 1.75079 7.96876 1.79049 8.22125 1.80962Z" fill="#FDFBFB"/>
<path d="M13.5926 12.1457C13.5207 12.0887 13.4463 12.0297 13.3767 11.9714C13.0075 11.6628 12.6147 11.3783 12.2349 11.1032C12.156 11.0462 12.0772 10.9891 11.9986 10.9318C11.512 10.5768 11.0746 10.4043 10.6612 10.4043C10.1046 10.4043 9.6192 10.7238 9.21861 11.3538C9.04113 11.6331 8.82582 11.7689 8.56046 11.7689C8.40356 11.7689 8.22527 11.7224 8.03062 11.6306C6.45997 10.8908 5.33842 9.75648 4.69707 8.25919C4.38703 7.53552 4.48754 7.06247 5.03317 6.67748C5.34302 6.45905 5.91974 6.05239 5.87889 5.27366C5.83263 4.38934 3.95415 1.72853 3.16268 1.42632C2.82758 1.29832 2.4755 1.29713 2.11432 1.42334C1.20446 1.74105 0.551524 2.29901 0.225943 3.0368C-0.0886842 3.74969 -0.0744765 4.58676 0.267035 5.45751C1.2543 7.97507 2.64235 10.17 4.39277 11.9814C6.10612 13.7545 8.21197 15.2069 10.6518 16.2981C10.8717 16.3964 11.1024 16.45 11.2708 16.4891C11.3282 16.5025 11.3778 16.514 11.4139 16.5243C11.4337 16.5299 11.4542 16.5329 11.4747 16.5331L11.494 16.5332C11.494 16.5332 11.494 16.5332 11.4941 16.5332C12.6416 16.5332 14.0195 15.444 14.4426 14.2023C14.8134 13.115 14.1365 12.5775 13.5926 12.1457Z" fill="#FDFBFB"/>
<path d="M8.7288 4.68544C8.53233 4.69061 8.12347 4.70114 7.98 5.13369C7.91289 5.33582 7.92092 5.51132 8.00392 5.65532C8.12572 5.8666 8.35907 5.93135 8.57132 5.96688C9.34107 6.09517 9.7364 6.53731 9.81548 7.35818C9.85222 7.74093 10.1004 8.00821 10.4189 8.00821C10.4425 8.00821 10.4666 8.00677 10.4906 8.00374C10.8737 7.95638 11.0595 7.66396 11.0427 7.13467C11.0488 6.58228 10.7705 5.95515 10.2972 5.45562C9.82218 4.95456 9.24961 4.67237 8.7288 4.68544Z" fill="#FDFBFB"/>
</svg>
