<svg width="26" height="27" viewBox="0 0 26 27" fill="none" xmlns="http://www.w3.org/2000/svg">
<path d="M22.4896 11.3302C22.5217 7.5235 19.3156 4.0338 15.3427 3.55124C15.2637 3.54177 15.1776 3.52735 15.0865 3.51208C14.8898 3.47913 14.6864 3.44526 14.4812 3.44526C13.6669 3.44526 13.4493 4.02366 13.392 4.36862C13.3362 4.70402 13.3894 4.98568 13.5497 5.20612C13.8193 5.57691 14.2938 5.64273 14.6749 5.69547C14.7866 5.71107 14.8919 5.72558 14.9802 5.74562C18.5496 6.55218 19.7515 7.82025 20.3389 11.3992C20.3533 11.4866 20.3597 11.5944 20.3666 11.7087C20.3922 12.1365 20.4456 13.0265 21.3919 13.0265H21.392C21.4708 13.0265 21.5554 13.0197 21.6436 13.0061C22.5247 12.8707 22.4971 12.0571 22.4839 11.6661C22.4801 11.556 22.4766 11.4519 22.4858 11.3826C22.4882 11.3652 22.4895 11.3477 22.4896 11.3302Z" fill="#AA1E27"/>
<path d="M14.2502 2.15396C14.3559 2.16167 14.456 2.16905 14.5393 2.18196C20.4007 3.0935 23.0963 5.90183 23.8433 11.8755C23.856 11.9771 23.858 12.1009 23.86 12.2321C23.8675 12.6988 23.8829 13.6697 24.9139 13.6898L24.9459 13.6901C25.2693 13.6901 25.5265 13.5915 25.7105 13.3968C26.0315 13.0573 26.0091 12.5529 25.991 12.1476C25.9867 12.0482 25.9824 11.9545 25.9835 11.8725C26.058 5.76297 20.8284 0.222875 14.7922 0.016854C14.7672 0.0160155 14.7433 0.0173571 14.7191 0.020795C14.7073 0.0225558 14.6853 0.0247359 14.6477 0.0247359C14.5875 0.0247359 14.5134 0.0194534 14.4349 0.0140869C14.34 0.00754656 14.2323 0 14.1232 0C13.1619 0 12.9792 0.69093 12.9558 1.1028C12.9019 2.05468 13.8125 2.12167 14.2502 2.15396Z" fill="#AA1E27"/>
<path d="M23.5605 19.5962C23.4358 19.4999 23.307 19.4003 23.1863 19.302C22.5464 18.7812 21.8655 18.3012 21.2071 17.8369C21.0704 17.7406 20.9338 17.6443 20.7976 17.5477C19.9542 16.9486 19.1959 16.6574 18.4795 16.6574C17.5146 16.6574 16.6733 17.1966 15.9789 18.2597C15.6713 18.7311 15.2981 18.9602 14.8381 18.9602C14.5662 18.9602 14.2571 18.8817 13.9197 18.7269C11.1973 17.4784 9.25327 15.5643 8.14158 13.0376C7.60419 11.8164 7.7784 11.0181 8.72416 10.3685C9.26123 9.99986 10.2609 9.31363 10.1901 7.99952C10.1099 6.50723 6.85386 2.01711 5.48198 1.50713C4.90114 1.29113 4.29086 1.28912 3.66483 1.5021C2.08773 2.03824 0.955975 2.9798 0.391634 4.22482C-0.153719 5.42782 -0.129093 6.84037 0.46286 8.30977C2.17413 12.5581 4.58008 16.2622 7.61414 19.3188C10.5839 22.3109 14.2341 24.7619 18.4631 26.6033C18.8442 26.7692 19.2441 26.8596 19.536 26.9256C19.6355 26.9483 19.7214 26.9676 19.784 26.9849C19.8185 26.9944 19.8539 26.9995 19.8895 26.9998L19.9229 27C19.923 27 19.9229 27 19.9231 27C21.9121 27 24.3004 25.162 25.0339 23.0666C25.6765 21.2317 24.5032 20.3248 23.5605 19.5962Z" fill="#AA1E27"/>
<path d="M15.1299 7.0069C14.7894 7.01562 14.0807 7.03339 13.832 7.76331C13.7157 8.10442 13.7296 8.40058 13.8735 8.64358C14.0846 9.00011 14.4891 9.10937 14.857 9.16932C16.1912 9.38582 16.8764 10.1319 17.0135 11.5171C17.0772 12.163 17.5073 12.6141 18.0595 12.6141C18.1003 12.6141 18.1421 12.6116 18.1836 12.6065C18.8478 12.5266 19.1698 12.0332 19.1407 11.14C19.1513 10.2078 18.6689 9.14953 17.8484 8.30658C17.0251 7.46103 16.0327 6.98484 15.1299 7.0069Z" fill="#AA1E27"/>
</svg>
