<svg width="16" height="16" viewBox="0 0 16 16" fill="none" xmlns="http://www.w3.org/2000/svg">
<path d="M10.64 8.00051L15.5898 3.0507C16.1367 2.50379 16.1367 1.61712 15.5898 1.07108L14.9299 0.411203C14.3829 -0.135871 13.4962 -0.135871 12.9502 0.411203L8.00051 5.36085L3.0507 0.410177C2.50379 -0.136726 1.61712 -0.136726 1.07108 0.410177L0.410177 1.07005C-0.136726 1.61712 -0.136726 2.50379 0.410177 3.04984L5.36085 8.00051L0.411203 12.9502C-0.135871 13.4972 -0.135871 14.3839 0.411203 14.9299L1.07108 15.5898C1.61798 16.1367 2.50465 16.1367 3.0507 15.5898L8.00051 10.64L12.9502 15.5898C13.4972 16.1367 14.3839 16.1367 14.9299 15.5898L15.5898 14.9299C16.1367 14.3829 16.1367 13.4962 15.5898 12.9502L10.64 8.00051Z" fill="white"/>
</svg>
