<svg width="63" height="63" viewBox="0 0 63 63" fill="none" xmlns="http://www.w3.org/2000/svg">
<mask id="path-1-inside-1_409_237" fill="white">
<path d="M58.3175 36.9204V56.1162C58.3175 57.6113 57.101 58.8277 55.606 58.8277C54.1107 58.8277 52.8944 57.6113 52.8944 56.1162V36.9204C52.8944 35.4253 54.1107 34.2088 55.606 34.2088C57.1011 34.2088 58.3175 35.4253 58.3175 36.9204ZM54.7437 36.9204V56.1162C54.7437 56.5916 55.1305 56.9783 55.606 56.9783C56.0814 56.9783 56.4682 56.5916 56.4682 56.1162V36.9204C56.4682 36.4449 56.0814 36.0581 55.606 36.0581C55.1305 36.0581 54.7437 36.4449 54.7437 36.9204Z"/>
<path d="M47.5707 34.2088C49.0659 34.2088 50.2822 35.4262 50.2822 36.9226V56.1139C50.2822 57.6103 49.0658 58.8277 47.5707 58.8277C46.0754 58.8277 44.8591 57.6103 44.8591 56.1139V36.9226C44.859 35.4262 46.0754 34.2088 47.5707 34.2088ZM46.7083 56.1139C46.7083 56.5906 47.0952 56.9783 47.5707 56.9783C48.0461 56.9783 48.433 56.5905 48.433 56.1139V36.9226C48.433 36.4459 48.0461 36.0581 47.5707 36.0581C47.0952 36.0581 46.7083 36.4459 46.7083 36.9226V56.1139Z"/>
<path d="M42.2468 36.9204V56.1162C42.2468 57.6113 41.0305 58.8277 39.5353 58.8277C38.0401 58.8277 36.8237 57.6113 36.8237 56.1162V36.9204C36.8237 35.4253 38.0402 34.2088 39.5353 34.2088C41.0305 34.2088 42.2468 35.4253 42.2468 36.9204ZM38.6731 36.9204V56.1162C38.6731 56.5916 39.06 56.9783 39.5355 56.9783C40.0109 56.9783 40.3976 56.5916 40.3976 56.1162V36.9204C40.3976 36.4449 40.0109 36.0581 39.5355 36.0581C39.06 36.0581 38.6731 36.4449 38.6731 36.9204Z"/>
<path d="M34.2116 36.9226V56.1139C34.2116 57.6103 32.9953 58.8277 31.5 58.8277C30.0047 58.8277 28.7884 57.6103 28.7884 56.1139V36.9226C28.7884 35.4262 30.0047 34.2088 31.5 34.2088C32.9953 34.2088 34.2116 35.4262 34.2116 36.9226ZM30.6377 36.9226V56.1139C30.6377 56.5906 31.0245 56.9783 31.5 56.9783C31.9755 56.9783 32.3623 56.5905 32.3623 56.1139V36.9226C32.3623 36.4459 31.9755 36.0581 31.5 36.0581C31.0245 36.0581 30.6377 36.4459 30.6377 36.9226Z"/>
<path d="M26.1763 36.9204V56.1162C26.1763 57.6113 24.9598 58.8277 23.4647 58.8277C21.9695 58.8277 20.7532 57.6113 20.7532 56.1162V36.9204C20.7532 35.4253 21.9695 34.2088 23.4647 34.2088C24.9598 34.2088 26.1763 35.4253 26.1763 36.9204ZM22.6025 36.9204V56.1162C22.6025 56.5916 22.9892 56.9783 23.4647 56.9783C23.9401 56.9783 24.327 56.5916 24.327 56.1162V36.9204C24.327 36.4449 23.9401 36.0581 23.4647 36.0581C22.9892 36.0581 22.6025 36.4449 22.6025 36.9204Z"/>
<path d="M12.7178 56.1139V36.9226C12.7178 35.4262 13.9342 34.2088 15.4293 34.2088C16.9246 34.2088 18.1409 35.4262 18.1409 36.9226V56.1139C18.1409 57.6103 16.9246 58.8277 15.4293 58.8277C13.9342 58.8277 12.7178 57.6103 12.7178 56.1139ZM16.2917 56.1139V36.9226C16.2917 36.4459 15.9048 36.0581 15.4293 36.0581C14.9539 36.0581 14.567 36.4459 14.567 36.9226V56.1139C14.567 56.5906 14.9539 56.9783 15.4293 56.9783C15.9048 56.9785 16.2917 56.5906 16.2917 56.1139Z"/>
<path d="M4.68255 56.1162V36.9204C4.68255 35.4253 5.89887 34.2088 7.39401 34.2088C8.88927 34.2088 10.1056 35.4253 10.1056 36.9204V56.1162C10.1056 57.6113 8.88927 58.8277 7.39401 58.8277C5.89887 58.8277 4.68255 57.6113 4.68255 56.1162ZM8.25632 56.1162V36.9204C8.25632 36.4449 7.86946 36.0581 7.39401 36.0581C6.91856 36.0581 6.53182 36.4449 6.53182 36.9204V56.1162C6.53182 56.5916 6.91856 56.9783 7.39401 56.9783C7.86946 56.9785 8.25632 56.5916 8.25632 56.1162Z"/>
<path d="M0.924698 25.8442H6.23589V24.6348C6.23589 22.9483 7.60688 21.5761 9.29201 21.5761C10.1386 21.5761 10.9055 21.9225 11.4595 22.481L28.3218 13.8133C27.8684 13.2103 27.5817 12.4746 27.5321 11.6747C27.4372 10.1457 28.2027 8.72438 29.5298 7.96542C30.0831 7.64883 30.4558 7.07481 30.5508 6.42094H27.719C25.8486 6.42094 24.3271 4.89935 24.3271 3.02904V0.924695C24.3271 0.414052 24.741 0 25.2518 0H37.7484C38.2592 0 38.6731 0.414052 38.6731 0.924695V3.02904C38.6731 4.89935 37.1515 6.42094 35.2812 6.42094H32.4101C32.3046 7.73988 31.574 8.92666 30.448 9.57069C29.737 9.97736 29.327 10.7396 29.3778 11.5602C29.4109 12.0938 29.6531 12.581 30.0201 12.9406L31.0773 12.3971C31.3426 12.2606 31.6574 12.2606 31.9228 12.3971L32.9863 12.9436C33.3986 12.5397 33.6266 12.0021 33.6266 11.4225C33.6266 10.9119 34.0406 10.4978 34.5513 10.4978C35.0621 10.4978 35.476 10.9118 35.476 11.4225C35.476 12.2871 35.1897 13.1278 34.6768 13.8126L51.5405 22.4811C52.0945 21.9226 52.8616 21.5762 53.708 21.5762C55.3931 21.5762 56.7641 22.9483 56.7641 24.6349V25.8443H62.0753C62.5861 25.8443 63 26.2584 63 26.769V62.0753C63 62.5858 62.5861 62.9999 62.0753 62.9999H19.8285C19.3177 62.9999 18.9038 62.5858 18.9038 62.0752C18.9038 61.5645 19.3177 61.1505 19.8285 61.1505H61.1507V31.8861H48.996C48.4853 31.8861 48.0713 31.472 48.0713 30.9614C48.0713 30.4507 48.4853 30.0367 48.996 30.0367H61.1507V27.6936H23.5272C23.0164 27.6936 22.6025 27.2796 22.6025 26.7689C22.6025 26.2583 23.0164 25.8442 23.5272 25.8442H50.6521V24.6348C50.6521 24.4613 50.6674 24.2915 50.6952 24.1259L33.0857 15.0741C32.0843 15.5108 30.9175 15.5088 29.9163 15.0731L12.3048 24.1259C12.3326 24.2915 12.3479 24.4614 12.3479 24.6348V25.8442H19.8285C20.3393 25.8442 20.7532 26.2583 20.7532 26.7689C20.7532 27.2796 20.3393 27.6936 19.8285 27.6936H1.8494V30.0367H45.2974C45.8081 30.0367 46.2221 30.4507 46.2221 30.9614C46.2221 31.472 45.8081 31.8861 45.2974 31.8861H1.84927V61.1506H16.1298C16.6406 61.1506 17.0545 61.5647 17.0545 62.0753C17.0545 62.586 16.6406 63 16.1298 63H0.924698C0.413933 63 0 62.586 0 62.0753V26.7689C0 26.2583 0.413933 25.8442 0.924698 25.8442ZM36.8237 3.02892V1.84927H26.1763V3.02892C26.1763 3.87954 26.8683 4.57155 27.7189 4.57155H35.2811C36.1317 4.57155 36.8237 3.87954 36.8237 3.02892ZM54.9148 25.8442V24.6348C54.9148 23.968 54.3736 23.4255 53.7081 23.4255C53.0428 23.4255 52.5015 23.968 52.5015 24.6348V25.8442H54.9148ZM10.4986 24.6348C10.4986 23.968 9.95732 23.4255 9.29201 23.4255C8.62657 23.4255 8.08529 23.968 8.08529 24.6348V25.8442H10.4986V24.6348Z"/>
</mask>
<path d="M58.3175 36.9204V56.1162C58.3175 57.6113 57.101 58.8277 55.606 58.8277C54.1107 58.8277 52.8944 57.6113 52.8944 56.1162V36.9204C52.8944 35.4253 54.1107 34.2088 55.606 34.2088C57.1011 34.2088 58.3175 35.4253 58.3175 36.9204ZM54.7437 36.9204V56.1162C54.7437 56.5916 55.1305 56.9783 55.606 56.9783C56.0814 56.9783 56.4682 56.5916 56.4682 56.1162V36.9204C56.4682 36.4449 56.0814 36.0581 55.606 36.0581C55.1305 36.0581 54.7437 36.4449 54.7437 36.9204Z" fill="white"/>
<path d="M47.5707 34.2088C49.0659 34.2088 50.2822 35.4262 50.2822 36.9226V56.1139C50.2822 57.6103 49.0658 58.8277 47.5707 58.8277C46.0754 58.8277 44.8591 57.6103 44.8591 56.1139V36.9226C44.859 35.4262 46.0754 34.2088 47.5707 34.2088ZM46.7083 56.1139C46.7083 56.5906 47.0952 56.9783 47.5707 56.9783C48.0461 56.9783 48.433 56.5905 48.433 56.1139V36.9226C48.433 36.4459 48.0461 36.0581 47.5707 36.0581C47.0952 36.0581 46.7083 36.4459 46.7083 36.9226V56.1139Z" fill="white"/>
<path d="M42.2468 36.9204V56.1162C42.2468 57.6113 41.0305 58.8277 39.5353 58.8277C38.0401 58.8277 36.8237 57.6113 36.8237 56.1162V36.9204C36.8237 35.4253 38.0402 34.2088 39.5353 34.2088C41.0305 34.2088 42.2468 35.4253 42.2468 36.9204ZM38.6731 36.9204V56.1162C38.6731 56.5916 39.06 56.9783 39.5355 56.9783C40.0109 56.9783 40.3976 56.5916 40.3976 56.1162V36.9204C40.3976 36.4449 40.0109 36.0581 39.5355 36.0581C39.06 36.0581 38.6731 36.4449 38.6731 36.9204Z" fill="white"/>
<path d="M34.2116 36.9226V56.1139C34.2116 57.6103 32.9953 58.8277 31.5 58.8277C30.0047 58.8277 28.7884 57.6103 28.7884 56.1139V36.9226C28.7884 35.4262 30.0047 34.2088 31.5 34.2088C32.9953 34.2088 34.2116 35.4262 34.2116 36.9226ZM30.6377 36.9226V56.1139C30.6377 56.5906 31.0245 56.9783 31.5 56.9783C31.9755 56.9783 32.3623 56.5905 32.3623 56.1139V36.9226C32.3623 36.4459 31.9755 36.0581 31.5 36.0581C31.0245 36.0581 30.6377 36.4459 30.6377 36.9226Z" fill="white"/>
<path d="M26.1763 36.9204V56.1162C26.1763 57.6113 24.9598 58.8277 23.4647 58.8277C21.9695 58.8277 20.7532 57.6113 20.7532 56.1162V36.9204C20.7532 35.4253 21.9695 34.2088 23.4647 34.2088C24.9598 34.2088 26.1763 35.4253 26.1763 36.9204ZM22.6025 36.9204V56.1162C22.6025 56.5916 22.9892 56.9783 23.4647 56.9783C23.9401 56.9783 24.327 56.5916 24.327 56.1162V36.9204C24.327 36.4449 23.9401 36.0581 23.4647 36.0581C22.9892 36.0581 22.6025 36.4449 22.6025 36.9204Z" fill="white"/>
<path d="M12.7178 56.1139V36.9226C12.7178 35.4262 13.9342 34.2088 15.4293 34.2088C16.9246 34.2088 18.1409 35.4262 18.1409 36.9226V56.1139C18.1409 57.6103 16.9246 58.8277 15.4293 58.8277C13.9342 58.8277 12.7178 57.6103 12.7178 56.1139ZM16.2917 56.1139V36.9226C16.2917 36.4459 15.9048 36.0581 15.4293 36.0581C14.9539 36.0581 14.567 36.4459 14.567 36.9226V56.1139C14.567 56.5906 14.9539 56.9783 15.4293 56.9783C15.9048 56.9785 16.2917 56.5906 16.2917 56.1139Z" fill="white"/>
<path d="M4.68255 56.1162V36.9204C4.68255 35.4253 5.89887 34.2088 7.39401 34.2088C8.88927 34.2088 10.1056 35.4253 10.1056 36.9204V56.1162C10.1056 57.6113 8.88927 58.8277 7.39401 58.8277C5.89887 58.8277 4.68255 57.6113 4.68255 56.1162ZM8.25632 56.1162V36.9204C8.25632 36.4449 7.86946 36.0581 7.39401 36.0581C6.91856 36.0581 6.53182 36.4449 6.53182 36.9204V56.1162C6.53182 56.5916 6.91856 56.9783 7.39401 56.9783C7.86946 56.9785 8.25632 56.5916 8.25632 56.1162Z" fill="white"/>
<path d="M0.924698 25.8442H6.23589V24.6348C6.23589 22.9483 7.60688 21.5761 9.29201 21.5761C10.1386 21.5761 10.9055 21.9225 11.4595 22.481L28.3218 13.8133C27.8684 13.2103 27.5817 12.4746 27.5321 11.6747C27.4372 10.1457 28.2027 8.72438 29.5298 7.96542C30.0831 7.64883 30.4558 7.07481 30.5508 6.42094H27.719C25.8486 6.42094 24.3271 4.89935 24.3271 3.02904V0.924695C24.3271 0.414052 24.741 0 25.2518 0H37.7484C38.2592 0 38.6731 0.414052 38.6731 0.924695V3.02904C38.6731 4.89935 37.1515 6.42094 35.2812 6.42094H32.4101C32.3046 7.73988 31.574 8.92666 30.448 9.57069C29.737 9.97736 29.327 10.7396 29.3778 11.5602C29.4109 12.0938 29.6531 12.581 30.0201 12.9406L31.0773 12.3971C31.3426 12.2606 31.6574 12.2606 31.9228 12.3971L32.9863 12.9436C33.3986 12.5397 33.6266 12.0021 33.6266 11.4225C33.6266 10.9119 34.0406 10.4978 34.5513 10.4978C35.0621 10.4978 35.476 10.9118 35.476 11.4225C35.476 12.2871 35.1897 13.1278 34.6768 13.8126L51.5405 22.4811C52.0945 21.9226 52.8616 21.5762 53.708 21.5762C55.3931 21.5762 56.7641 22.9483 56.7641 24.6349V25.8443H62.0753C62.5861 25.8443 63 26.2584 63 26.769V62.0753C63 62.5858 62.5861 62.9999 62.0753 62.9999H19.8285C19.3177 62.9999 18.9038 62.5858 18.9038 62.0752C18.9038 61.5645 19.3177 61.1505 19.8285 61.1505H61.1507V31.8861H48.996C48.4853 31.8861 48.0713 31.472 48.0713 30.9614C48.0713 30.4507 48.4853 30.0367 48.996 30.0367H61.1507V27.6936H23.5272C23.0164 27.6936 22.6025 27.2796 22.6025 26.7689C22.6025 26.2583 23.0164 25.8442 23.5272 25.8442H50.6521V24.6348C50.6521 24.4613 50.6674 24.2915 50.6952 24.1259L33.0857 15.0741C32.0843 15.5108 30.9175 15.5088 29.9163 15.0731L12.3048 24.1259C12.3326 24.2915 12.3479 24.4614 12.3479 24.6348V25.8442H19.8285C20.3393 25.8442 20.7532 26.2583 20.7532 26.7689C20.7532 27.2796 20.3393 27.6936 19.8285 27.6936H1.8494V30.0367H45.2974C45.8081 30.0367 46.2221 30.4507 46.2221 30.9614C46.2221 31.472 45.8081 31.8861 45.2974 31.8861H1.84927V61.1506H16.1298C16.6406 61.1506 17.0545 61.5647 17.0545 62.0753C17.0545 62.586 16.6406 63 16.1298 63H0.924698C0.413933 63 0 62.586 0 62.0753V26.7689C0 26.2583 0.413933 25.8442 0.924698 25.8442ZM36.8237 3.02892V1.84927H26.1763V3.02892C26.1763 3.87954 26.8683 4.57155 27.7189 4.57155H35.2811C36.1317 4.57155 36.8237 3.87954 36.8237 3.02892ZM54.9148 25.8442V24.6348C54.9148 23.968 54.3736 23.4255 53.7081 23.4255C53.0428 23.4255 52.5015 23.968 52.5015 24.6348V25.8442H54.9148ZM10.4986 24.6348C10.4986 23.968 9.95732 23.4255 9.29201 23.4255C8.62657 23.4255 8.08529 23.968 8.08529 24.6348V25.8442H10.4986V24.6348Z" fill="white"/>
<path d="M58.3175 36.9204V56.1162C58.3175 57.6113 57.101 58.8277 55.606 58.8277C54.1107 58.8277 52.8944 57.6113 52.8944 56.1162V36.9204C52.8944 35.4253 54.1107 34.2088 55.606 34.2088C57.1011 34.2088 58.3175 35.4253 58.3175 36.9204ZM54.7437 36.9204V56.1162C54.7437 56.5916 55.1305 56.9783 55.606 56.9783C56.0814 56.9783 56.4682 56.5916 56.4682 56.1162V36.9204C56.4682 36.4449 56.0814 36.0581 55.606 36.0581C55.1305 36.0581 54.7437 36.4449 54.7437 36.9204Z" stroke="#751D26" mask="url(#path-1-inside-1_409_237)"/>
<path d="M47.5707 34.2088C49.0659 34.2088 50.2822 35.4262 50.2822 36.9226V56.1139C50.2822 57.6103 49.0658 58.8277 47.5707 58.8277C46.0754 58.8277 44.8591 57.6103 44.8591 56.1139V36.9226C44.859 35.4262 46.0754 34.2088 47.5707 34.2088ZM46.7083 56.1139C46.7083 56.5906 47.0952 56.9783 47.5707 56.9783C48.0461 56.9783 48.433 56.5905 48.433 56.1139V36.9226C48.433 36.4459 48.0461 36.0581 47.5707 36.0581C47.0952 36.0581 46.7083 36.4459 46.7083 36.9226V56.1139Z" stroke="#751D26" mask="url(#path-1-inside-1_409_237)"/>
<path d="M42.2468 36.9204V56.1162C42.2468 57.6113 41.0305 58.8277 39.5353 58.8277C38.0401 58.8277 36.8237 57.6113 36.8237 56.1162V36.9204C36.8237 35.4253 38.0402 34.2088 39.5353 34.2088C41.0305 34.2088 42.2468 35.4253 42.2468 36.9204ZM38.6731 36.9204V56.1162C38.6731 56.5916 39.06 56.9783 39.5355 56.9783C40.0109 56.9783 40.3976 56.5916 40.3976 56.1162V36.9204C40.3976 36.4449 40.0109 36.0581 39.5355 36.0581C39.06 36.0581 38.6731 36.4449 38.6731 36.9204Z" stroke="#751D26" mask="url(#path-1-inside-1_409_237)"/>
<path d="M34.2116 36.9226V56.1139C34.2116 57.6103 32.9953 58.8277 31.5 58.8277C30.0047 58.8277 28.7884 57.6103 28.7884 56.1139V36.9226C28.7884 35.4262 30.0047 34.2088 31.5 34.2088C32.9953 34.2088 34.2116 35.4262 34.2116 36.9226ZM30.6377 36.9226V56.1139C30.6377 56.5906 31.0245 56.9783 31.5 56.9783C31.9755 56.9783 32.3623 56.5905 32.3623 56.1139V36.9226C32.3623 36.4459 31.9755 36.0581 31.5 36.0581C31.0245 36.0581 30.6377 36.4459 30.6377 36.9226Z" stroke="#751D26" mask="url(#path-1-inside-1_409_237)"/>
<path d="M26.1763 36.9204V56.1162C26.1763 57.6113 24.9598 58.8277 23.4647 58.8277C21.9695 58.8277 20.7532 57.6113 20.7532 56.1162V36.9204C20.7532 35.4253 21.9695 34.2088 23.4647 34.2088C24.9598 34.2088 26.1763 35.4253 26.1763 36.9204ZM22.6025 36.9204V56.1162C22.6025 56.5916 22.9892 56.9783 23.4647 56.9783C23.9401 56.9783 24.327 56.5916 24.327 56.1162V36.9204C24.327 36.4449 23.9401 36.0581 23.4647 36.0581C22.9892 36.0581 22.6025 36.4449 22.6025 36.9204Z" stroke="#751D26" mask="url(#path-1-inside-1_409_237)"/>
<path d="M12.7178 56.1139V36.9226C12.7178 35.4262 13.9342 34.2088 15.4293 34.2088C16.9246 34.2088 18.1409 35.4262 18.1409 36.9226V56.1139C18.1409 57.6103 16.9246 58.8277 15.4293 58.8277C13.9342 58.8277 12.7178 57.6103 12.7178 56.1139ZM16.2917 56.1139V36.9226C16.2917 36.4459 15.9048 36.0581 15.4293 36.0581C14.9539 36.0581 14.567 36.4459 14.567 36.9226V56.1139C14.567 56.5906 14.9539 56.9783 15.4293 56.9783C15.9048 56.9785 16.2917 56.5906 16.2917 56.1139Z" stroke="#751D26" mask="url(#path-1-inside-1_409_237)"/>
<path d="M4.68255 56.1162V36.9204C4.68255 35.4253 5.89887 34.2088 7.39401 34.2088C8.88927 34.2088 10.1056 35.4253 10.1056 36.9204V56.1162C10.1056 57.6113 8.88927 58.8277 7.39401 58.8277C5.89887 58.8277 4.68255 57.6113 4.68255 56.1162ZM8.25632 56.1162V36.9204C8.25632 36.4449 7.86946 36.0581 7.39401 36.0581C6.91856 36.0581 6.53182 36.4449 6.53182 36.9204V56.1162C6.53182 56.5916 6.91856 56.9783 7.39401 56.9783C7.86946 56.9785 8.25632 56.5916 8.25632 56.1162Z" stroke="#751D26" mask="url(#path-1-inside-1_409_237)"/>
<path d="M0.924698 25.8442H6.23589V24.6348C6.23589 22.9483 7.60688 21.5761 9.29201 21.5761C10.1386 21.5761 10.9055 21.9225 11.4595 22.481L28.3218 13.8133C27.8684 13.2103 27.5817 12.4746 27.5321 11.6747C27.4372 10.1457 28.2027 8.72438 29.5298 7.96542C30.0831 7.64883 30.4558 7.07481 30.5508 6.42094H27.719C25.8486 6.42094 24.3271 4.89935 24.3271 3.02904V0.924695C24.3271 0.414052 24.741 0 25.2518 0H37.7484C38.2592 0 38.6731 0.414052 38.6731 0.924695V3.02904C38.6731 4.89935 37.1515 6.42094 35.2812 6.42094H32.4101C32.3046 7.73988 31.574 8.92666 30.448 9.57069C29.737 9.97736 29.327 10.7396 29.3778 11.5602C29.4109 12.0938 29.6531 12.581 30.0201 12.9406L31.0773 12.3971C31.3426 12.2606 31.6574 12.2606 31.9228 12.3971L32.9863 12.9436C33.3986 12.5397 33.6266 12.0021 33.6266 11.4225C33.6266 10.9119 34.0406 10.4978 34.5513 10.4978C35.0621 10.4978 35.476 10.9118 35.476 11.4225C35.476 12.2871 35.1897 13.1278 34.6768 13.8126L51.5405 22.4811C52.0945 21.9226 52.8616 21.5762 53.708 21.5762C55.3931 21.5762 56.7641 22.9483 56.7641 24.6349V25.8443H62.0753C62.5861 25.8443 63 26.2584 63 26.769V62.0753C63 62.5858 62.5861 62.9999 62.0753 62.9999H19.8285C19.3177 62.9999 18.9038 62.5858 18.9038 62.0752C18.9038 61.5645 19.3177 61.1505 19.8285 61.1505H61.1507V31.8861H48.996C48.4853 31.8861 48.0713 31.472 48.0713 30.9614C48.0713 30.4507 48.4853 30.0367 48.996 30.0367H61.1507V27.6936H23.5272C23.0164 27.6936 22.6025 27.2796 22.6025 26.7689C22.6025 26.2583 23.0164 25.8442 23.5272 25.8442H50.6521V24.6348C50.6521 24.4613 50.6674 24.2915 50.6952 24.1259L33.0857 15.0741C32.0843 15.5108 30.9175 15.5088 29.9163 15.0731L12.3048 24.1259C12.3326 24.2915 12.3479 24.4614 12.3479 24.6348V25.8442H19.8285C20.3393 25.8442 20.7532 26.2583 20.7532 26.7689C20.7532 27.2796 20.3393 27.6936 19.8285 27.6936H1.8494V30.0367H45.2974C45.8081 30.0367 46.2221 30.4507 46.2221 30.9614C46.2221 31.472 45.8081 31.8861 45.2974 31.8861H1.84927V61.1506H16.1298C16.6406 61.1506 17.0545 61.5647 17.0545 62.0753C17.0545 62.586 16.6406 63 16.1298 63H0.924698C0.413933 63 0 62.586 0 62.0753V26.7689C0 26.2583 0.413933 25.8442 0.924698 25.8442ZM36.8237 3.02892V1.84927H26.1763V3.02892C26.1763 3.87954 26.8683 4.57155 27.7189 4.57155H35.2811C36.1317 4.57155 36.8237 3.87954 36.8237 3.02892ZM54.9148 25.8442V24.6348C54.9148 23.968 54.3736 23.4255 53.7081 23.4255C53.0428 23.4255 52.5015 23.968 52.5015 24.6348V25.8442H54.9148ZM10.4986 24.6348C10.4986 23.968 9.95732 23.4255 9.29201 23.4255C8.62657 23.4255 8.08529 23.968 8.08529 24.6348V25.8442H10.4986V24.6348Z" stroke="#751D26" mask="url(#path-1-inside-1_409_237)"/>
</svg>
