<svg width="92" height="52" viewBox="0 0 92 52" fill="none" xmlns="http://www.w3.org/2000/svg">
<mask id="path-1-inside-1_409_250" fill="white">
<path d="M81.19 21.5223L76.2406 20.6946C75.6093 20.5898 75.0093 20.3446 74.4843 19.977C73.9593 19.6094 73.5226 19.1287 73.2061 18.5698L66.3708 6.55202C65.2373 4.56376 63.602 2.91108 61.6299 1.76072C59.6577 0.610364 57.4185 0.00303033 55.1382 0H31.1118C28.8316 0.00288449 26.5925 0.610001 24.6203 1.7601C22.6482 2.9102 21.0128 4.56259 19.8792 6.55058L12.9073 18.8096C12.6173 19.3166 12.2287 19.7598 11.7647 20.1127C11.3006 20.4656 10.7706 20.7209 10.2062 20.8636L5.44237 22.0596C4.25626 22.358 3.16584 22.9563 2.27487 23.7978C1.3839 24.6392 0.722016 25.6957 0.352187 26.8668C0.336375 26.9043 0.334937 26.9491 0.322 26.9881C0.113882 27.6614 0.00538845 28.3617 0 29.0667V39.0001C0.00228254 40.9149 0.760267 42.7506 2.10769 44.1045C3.45511 45.4584 5.28195 46.2201 7.1875 46.2224H12.4847C13.2977 47.9506 14.5826 49.4112 16.1897 50.4341C17.7968 51.4569 19.6601 52 21.5625 52C23.4649 52 25.3281 51.4569 26.9353 50.4341C28.5424 49.4112 29.8273 47.9506 30.6403 46.2224H61.3597C62.1727 47.9506 63.4576 49.4112 65.0647 50.4341C66.6718 51.4569 68.5351 52 70.4375 52C72.3399 52 74.2031 51.4569 75.8102 50.4341C77.4174 49.4112 78.7023 47.9506 79.5153 46.2224H84.8125C86.718 46.2201 88.5448 45.4584 89.8923 44.1045C91.2397 42.7506 91.9977 40.9149 92 39.0001V34.3447C92.0076 31.2655 90.924 28.2841 88.9432 25.9346C86.9625 23.5851 84.2139 22.0209 81.19 21.5223ZM87.5351 28.889C88.1036 29.7795 88.5291 30.7544 88.7958 31.7779H87.6875C86.547 31.7776 85.4529 31.3249 84.6428 30.5183C84.1875 30.0573 83.839 29.5009 83.6222 28.889H87.5351ZM2.88937 28.889H5.34606L4.62731 31.7779H2.875V29.0667C2.875 29.006 2.88794 28.9482 2.88937 28.889ZM21.5625 49.1113C20.1409 49.1113 18.7513 48.6877 17.5693 47.8941C16.3874 47.1005 15.4661 45.9726 14.9221 44.6529C14.3781 43.3332 14.2358 41.881 14.5131 40.48C14.7904 39.0791 15.475 37.7922 16.4802 36.7821C17.4854 35.7721 18.766 35.0842 20.1603 34.8056C21.5545 34.5269 22.9997 34.6699 24.313 35.2166C25.6264 35.7632 26.7489 36.6889 27.5387 37.8766C28.3284 39.0643 28.75 40.4606 28.75 41.889C28.7477 43.8038 27.9897 45.6395 26.6423 46.9934C25.2949 48.3473 23.468 49.109 21.5625 49.1113ZM70.4375 49.1113C69.0159 49.1113 67.6263 48.6877 66.4443 47.8941C65.2623 47.1005 64.3411 45.9726 63.7971 44.6529C63.2531 43.3332 63.1107 41.881 63.3881 40.48C63.6654 39.0791 64.3499 37.7922 65.3551 36.7821C66.3603 35.7721 67.641 35.0842 69.0353 34.8056C70.4295 34.5269 71.8747 34.6699 73.188 35.2166C74.5013 35.7632 75.6239 36.6889 76.4137 37.8766C77.2034 39.0643 77.625 40.4606 77.625 41.889C77.6227 43.8038 76.8647 45.6395 75.5173 46.9934C74.1698 48.3473 72.343 49.109 70.4375 49.1113ZM84.8125 43.3335H80.385C80.6035 41.8935 80.5098 40.423 80.1103 39.0227C79.7108 37.6224 79.0149 36.3254 78.0702 35.2205C77.1256 34.1155 75.9545 33.2287 74.6371 32.6208C73.3197 32.0128 71.8871 31.6981 70.4375 31.6981C68.9878 31.6981 67.5552 32.0128 66.2378 32.6208C64.9205 33.2287 63.7494 34.1155 62.8047 35.2205C61.86 36.3254 61.1641 37.6224 60.7646 39.0227C60.3651 40.423 60.2714 41.8935 60.49 43.3335H31.51C31.7285 41.8935 31.6348 40.423 31.2353 39.0227C30.8358 37.6224 30.1399 36.3254 29.1953 35.2205C28.2506 34.1155 27.0795 33.2287 25.7621 32.6208C24.4447 32.0128 23.0122 31.6981 21.5625 31.6981C20.1128 31.6981 18.6803 32.0128 17.3629 32.6208C16.0455 33.2287 14.8744 34.1155 13.9297 35.2205C12.9851 36.3254 12.2892 37.6224 11.8897 39.0227C11.4901 40.423 11.3965 41.8935 11.615 43.3335H7.1875C6.04375 43.3335 4.94685 42.8769 4.1381 42.0643C3.32935 41.2516 2.875 40.1494 2.875 39.0001V34.6668H5.75C6.07046 34.6668 6.38173 34.5592 6.63436 34.3611C6.88699 34.163 7.0665 33.8857 7.14437 33.5733L8.58187 27.7955C8.63497 27.5826 8.63905 27.3602 8.5938 27.1454C8.54855 26.9306 8.45516 26.729 8.32073 26.5559C8.1863 26.3828 8.01437 26.2428 7.818 26.1465C7.62164 26.0502 7.406 26.0001 7.1875 26.0001H4.15294C4.70096 25.4473 5.3881 25.0544 6.141 24.8633L10.9063 23.6659C11.846 23.4275 12.7283 23.0015 13.5008 22.4134C14.2733 21.8253 14.9201 21.087 15.4028 20.2425L22.3747 7.98347C23.2566 6.43735 24.5288 5.15225 26.0627 4.2578C27.5967 3.36335 29.3383 2.89118 31.1118 2.8889H55.1382C56.9117 2.89118 58.6533 3.36335 60.1872 4.2578C61.7212 5.15225 62.9933 6.43735 63.8753 7.98347L70.7092 20.0013C71.2363 20.9333 71.9641 21.7352 72.8393 22.3482C73.7145 22.9613 74.7151 23.37 75.7677 23.5445L80.717 24.3736C82.1643 24.6142 83.5418 25.1693 84.7535 26.0001H81.9375C81.5562 26.0001 81.1906 26.1523 80.921 26.4232C80.6514 26.694 80.5 27.0615 80.5 27.4445C80.499 28.3932 80.6843 29.3328 81.0451 30.2095C81.406 31.0862 81.9354 31.8827 82.603 32.5536C83.2706 33.2244 84.0633 33.7564 84.9358 34.119C85.8083 34.4816 86.7433 34.6677 87.6875 34.6668H89.125V39.0001C89.125 40.1494 88.6706 41.2516 87.8619 42.0643C87.0531 42.8769 85.9562 43.3335 84.8125 43.3335Z"/>
<path d="M65.3458 13.7006C65.1495 13.3721 64.8313 13.1354 64.4613 13.0427C64.0913 12.9499 63.6998 13.0086 63.3729 13.2059C63.046 13.4032 62.8104 13.7229 62.7181 14.0947C62.6258 14.4665 62.6842 14.8599 62.8805 15.1884L65.0238 18.7778H47.4375V7.22225H55.6815C56.426 7.2243 57.1574 7.41902 57.8053 7.78764C58.4531 8.15625 58.9955 8.68635 59.3802 9.32681L60.2916 10.855C60.4879 11.1835 60.8061 11.4202 61.1761 11.513C61.5461 11.6058 61.9376 11.5471 62.2646 11.3498C62.5915 11.1525 62.827 10.8328 62.9193 10.461C63.0117 10.0892 62.9533 9.69576 62.7569 9.36726L61.8441 7.83903C61.2031 6.77203 60.2993 5.88895 59.2199 5.27492C58.1405 4.66089 56.9219 4.33662 55.6815 4.33335H46C45.6187 4.33335 45.2531 4.48553 44.9835 4.75642C44.7139 5.0273 44.5625 5.39471 44.5625 5.7778V20.2223C44.5625 20.6054 44.7139 20.9728 44.9835 21.2437C45.2531 21.5146 45.6187 21.6667 46 21.6667H67.5625C67.8169 21.6667 68.0668 21.5988 68.2865 21.47C68.5063 21.3411 68.6881 21.156 68.8134 20.9335C68.9387 20.711 69.0029 20.459 68.9996 20.2034C68.9962 19.9477 68.9254 19.6976 68.7944 19.4784L65.3458 13.7006Z"/>
<path d="M40.25 4.33335H30.5684C29.3281 4.33662 28.1095 4.66089 27.0301 5.27492C25.9507 5.88895 25.0469 6.77203 24.4059 7.83903L17.4556 19.4784C17.3245 19.6976 17.2537 19.9477 17.2504 20.2034C17.2471 20.459 17.3113 20.711 17.4366 20.9335C17.5618 21.156 17.7437 21.3411 17.9634 21.47C18.1832 21.5988 18.4331 21.6667 18.6875 21.6667H40.25C40.6312 21.6667 40.9969 21.5146 41.2664 21.2437C41.536 20.9728 41.6875 20.6054 41.6875 20.2223V5.7778C41.6875 5.39471 41.536 5.0273 41.2664 4.75642C40.9969 4.48553 40.6312 4.33335 40.25 4.33335ZM38.8125 18.7778H21.2261L26.8697 9.32681C27.2544 8.68635 27.7969 8.15625 28.4447 7.78764C29.0925 7.41902 29.8239 7.2243 30.5684 7.22225H38.8125V18.7778Z"/>
<path d="M48.875 23.1112H46C45.6187 23.1112 45.2531 23.2634 44.9835 23.5343C44.7139 23.8051 44.5625 24.1726 44.5625 24.5556C44.5625 24.9387 44.7139 25.3061 44.9835 25.577C45.2531 25.8479 45.6187 26.0001 46 26.0001H48.875C49.2562 26.0001 49.6219 25.8479 49.8914 25.577C50.161 25.3061 50.3125 24.9387 50.3125 24.5556C50.3125 24.1726 50.161 23.8051 49.8914 23.5343C49.6219 23.2634 49.2562 23.1112 48.875 23.1112Z"/>
<path d="M21.5625 23.1112H18.6875C18.3062 23.1112 17.9406 23.2634 17.671 23.5343C17.4014 23.8051 17.25 24.1726 17.25 24.5556C17.25 24.9387 17.4014 25.3061 17.671 25.577C17.9406 25.8479 18.3062 26.0001 18.6875 26.0001H21.5625C21.9437 26.0001 22.3094 25.8479 22.579 25.577C22.8485 25.3061 23 24.9387 23 24.5556C23 24.1726 22.8485 23.8051 22.579 23.5343C22.3094 23.2634 21.9437 23.1112 21.5625 23.1112Z"/>
<path d="M70.4375 37.5557C69.5845 37.5557 68.7508 37.8098 68.0416 38.286C67.3324 38.7621 66.7796 39.4389 66.4532 40.2307C66.1268 41.0226 66.0414 41.8938 66.2078 42.7344C66.3742 43.575 66.785 44.3471 67.3881 44.9532C67.9912 45.5592 68.7596 45.9719 69.5961 46.1391C70.4327 46.3063 71.2998 46.2205 72.0878 45.8925C72.8758 45.5645 73.5493 45.0091 74.0232 44.2965C74.497 43.5839 74.75 42.7461 74.75 41.889C74.75 40.7398 74.2956 39.6376 73.4869 38.8249C72.6781 38.0122 71.5812 37.5557 70.4375 37.5557ZM70.4375 43.3335C70.1532 43.3335 69.8752 43.2488 69.6388 43.0901C69.4024 42.9313 69.2182 42.7057 69.1094 42.4418C69.0006 42.1779 68.9721 41.8874 69.0276 41.6072C69.0831 41.327 69.22 41.0697 69.421 40.8677C69.622 40.6656 69.8782 40.5281 70.157 40.4723C70.4359 40.4166 70.7249 40.4452 70.9876 40.5545C71.2502 40.6639 71.4747 40.849 71.6327 41.0865C71.7907 41.3241 71.875 41.6034 71.875 41.889C71.875 42.2721 71.7235 42.6395 71.4539 42.9104C71.1843 43.1813 70.8187 43.3335 70.4375 43.3335Z"/>
<path d="M21.5625 37.5557C20.7096 37.5557 19.8758 37.8098 19.1666 38.286C18.4574 38.7621 17.9047 39.4389 17.5783 40.2307C17.2519 41.0226 17.1665 41.8938 17.3329 42.7344C17.4993 43.575 17.91 44.3471 18.5131 44.9532C19.1162 45.5592 19.8846 45.9719 20.7212 46.1391C21.5577 46.3063 22.4248 46.2205 23.2128 45.8925C24.0008 45.5645 24.6743 45.0091 25.1482 44.2965C25.6221 43.5839 25.875 42.7461 25.875 41.889C25.875 40.7398 25.4206 39.6376 24.6119 38.8249C23.8031 38.0122 22.7062 37.5557 21.5625 37.5557ZM21.5625 43.3335C21.2782 43.3335 21.0003 43.2488 20.7639 43.0901C20.5275 42.9313 20.3432 42.7057 20.2344 42.4418C20.1256 42.1779 20.0971 41.8874 20.1526 41.6072C20.2081 41.327 20.345 41.0697 20.546 40.8677C20.7471 40.6656 21.0032 40.5281 21.282 40.4723C21.5609 40.4166 21.8499 40.4452 22.1126 40.5545C22.3753 40.6639 22.5998 40.849 22.7577 41.0865C22.9157 41.3241 23 41.6034 23 41.889C23 42.2721 22.8485 42.6395 22.579 42.9104C22.3094 43.1813 21.9437 43.3335 21.5625 43.3335Z"/>
</mask>
<path d="M81.19 21.5223L76.2406 20.6946C75.6093 20.5898 75.0093 20.3446 74.4843 19.977C73.9593 19.6094 73.5226 19.1287 73.2061 18.5698L66.3708 6.55202C65.2373 4.56376 63.602 2.91108 61.6299 1.76072C59.6577 0.610364 57.4185 0.00303033 55.1382 0H31.1118C28.8316 0.00288449 26.5925 0.610001 24.6203 1.7601C22.6482 2.9102 21.0128 4.56259 19.8792 6.55058L12.9073 18.8096C12.6173 19.3166 12.2287 19.7598 11.7647 20.1127C11.3006 20.4656 10.7706 20.7209 10.2062 20.8636L5.44237 22.0596C4.25626 22.358 3.16584 22.9563 2.27487 23.7978C1.3839 24.6392 0.722016 25.6957 0.352187 26.8668C0.336375 26.9043 0.334937 26.9491 0.322 26.9881C0.113882 27.6614 0.00538845 28.3617 0 29.0667V39.0001C0.00228254 40.9149 0.760267 42.7506 2.10769 44.1045C3.45511 45.4584 5.28195 46.2201 7.1875 46.2224H12.4847C13.2977 47.9506 14.5826 49.4112 16.1897 50.4341C17.7968 51.4569 19.6601 52 21.5625 52C23.4649 52 25.3281 51.4569 26.9353 50.4341C28.5424 49.4112 29.8273 47.9506 30.6403 46.2224H61.3597C62.1727 47.9506 63.4576 49.4112 65.0647 50.4341C66.6718 51.4569 68.5351 52 70.4375 52C72.3399 52 74.2031 51.4569 75.8102 50.4341C77.4174 49.4112 78.7023 47.9506 79.5153 46.2224H84.8125C86.718 46.2201 88.5448 45.4584 89.8923 44.1045C91.2397 42.7506 91.9977 40.9149 92 39.0001V34.3447C92.0076 31.2655 90.924 28.2841 88.9432 25.9346C86.9625 23.5851 84.2139 22.0209 81.19 21.5223ZM87.5351 28.889C88.1036 29.7795 88.5291 30.7544 88.7958 31.7779H87.6875C86.547 31.7776 85.4529 31.3249 84.6428 30.5183C84.1875 30.0573 83.839 29.5009 83.6222 28.889H87.5351ZM2.88937 28.889H5.34606L4.62731 31.7779H2.875V29.0667C2.875 29.006 2.88794 28.9482 2.88937 28.889ZM21.5625 49.1113C20.1409 49.1113 18.7513 48.6877 17.5693 47.8941C16.3874 47.1005 15.4661 45.9726 14.9221 44.6529C14.3781 43.3332 14.2358 41.881 14.5131 40.48C14.7904 39.0791 15.475 37.7922 16.4802 36.7821C17.4854 35.7721 18.766 35.0842 20.1603 34.8056C21.5545 34.5269 22.9997 34.6699 24.313 35.2166C25.6264 35.7632 26.7489 36.6889 27.5387 37.8766C28.3284 39.0643 28.75 40.4606 28.75 41.889C28.7477 43.8038 27.9897 45.6395 26.6423 46.9934C25.2949 48.3473 23.468 49.109 21.5625 49.1113ZM70.4375 49.1113C69.0159 49.1113 67.6263 48.6877 66.4443 47.8941C65.2623 47.1005 64.3411 45.9726 63.7971 44.6529C63.2531 43.3332 63.1107 41.881 63.3881 40.48C63.6654 39.0791 64.3499 37.7922 65.3551 36.7821C66.3603 35.7721 67.641 35.0842 69.0353 34.8056C70.4295 34.5269 71.8747 34.6699 73.188 35.2166C74.5013 35.7632 75.6239 36.6889 76.4137 37.8766C77.2034 39.0643 77.625 40.4606 77.625 41.889C77.6227 43.8038 76.8647 45.6395 75.5173 46.9934C74.1698 48.3473 72.343 49.109 70.4375 49.1113ZM84.8125 43.3335H80.385C80.6035 41.8935 80.5098 40.423 80.1103 39.0227C79.7108 37.6224 79.0149 36.3254 78.0702 35.2205C77.1256 34.1155 75.9545 33.2287 74.6371 32.6208C73.3197 32.0128 71.8871 31.6981 70.4375 31.6981C68.9878 31.6981 67.5552 32.0128 66.2378 32.6208C64.9205 33.2287 63.7494 34.1155 62.8047 35.2205C61.86 36.3254 61.1641 37.6224 60.7646 39.0227C60.3651 40.423 60.2714 41.8935 60.49 43.3335H31.51C31.7285 41.8935 31.6348 40.423 31.2353 39.0227C30.8358 37.6224 30.1399 36.3254 29.1953 35.2205C28.2506 34.1155 27.0795 33.2287 25.7621 32.6208C24.4447 32.0128 23.0122 31.6981 21.5625 31.6981C20.1128 31.6981 18.6803 32.0128 17.3629 32.6208C16.0455 33.2287 14.8744 34.1155 13.9297 35.2205C12.9851 36.3254 12.2892 37.6224 11.8897 39.0227C11.4901 40.423 11.3965 41.8935 11.615 43.3335H7.1875C6.04375 43.3335 4.94685 42.8769 4.1381 42.0643C3.32935 41.2516 2.875 40.1494 2.875 39.0001V34.6668H5.75C6.07046 34.6668 6.38173 34.5592 6.63436 34.3611C6.88699 34.163 7.0665 33.8857 7.14437 33.5733L8.58187 27.7955C8.63497 27.5826 8.63905 27.3602 8.5938 27.1454C8.54855 26.9306 8.45516 26.729 8.32073 26.5559C8.1863 26.3828 8.01437 26.2428 7.818 26.1465C7.62164 26.0502 7.406 26.0001 7.1875 26.0001H4.15294C4.70096 25.4473 5.3881 25.0544 6.141 24.8633L10.9063 23.6659C11.846 23.4275 12.7283 23.0015 13.5008 22.4134C14.2733 21.8253 14.9201 21.087 15.4028 20.2425L22.3747 7.98347C23.2566 6.43735 24.5288 5.15225 26.0627 4.2578C27.5967 3.36335 29.3383 2.89118 31.1118 2.8889H55.1382C56.9117 2.89118 58.6533 3.36335 60.1872 4.2578C61.7212 5.15225 62.9933 6.43735 63.8753 7.98347L70.7092 20.0013C71.2363 20.9333 71.9641 21.7352 72.8393 22.3482C73.7145 22.9613 74.7151 23.37 75.7677 23.5445L80.717 24.3736C82.1643 24.6142 83.5418 25.1693 84.7535 26.0001H81.9375C81.5562 26.0001 81.1906 26.1523 80.921 26.4232C80.6514 26.694 80.5 27.0615 80.5 27.4445C80.499 28.3932 80.6843 29.3328 81.0451 30.2095C81.406 31.0862 81.9354 31.8827 82.603 32.5536C83.2706 33.2244 84.0633 33.7564 84.9358 34.119C85.8083 34.4816 86.7433 34.6677 87.6875 34.6668H89.125V39.0001C89.125 40.1494 88.6706 41.2516 87.8619 42.0643C87.0531 42.8769 85.9562 43.3335 84.8125 43.3335Z" fill="white"/>
<path d="M65.3458 13.7006C65.1495 13.3721 64.8313 13.1354 64.4613 13.0427C64.0913 12.9499 63.6998 13.0086 63.3729 13.2059C63.046 13.4032 62.8104 13.7229 62.7181 14.0947C62.6258 14.4665 62.6842 14.8599 62.8805 15.1884L65.0238 18.7778H47.4375V7.22225H55.6815C56.426 7.2243 57.1574 7.41902 57.8053 7.78764C58.4531 8.15625 58.9955 8.68635 59.3802 9.32681L60.2916 10.855C60.4879 11.1835 60.8061 11.4202 61.1761 11.513C61.5461 11.6058 61.9376 11.5471 62.2646 11.3498C62.5915 11.1525 62.827 10.8328 62.9193 10.461C63.0117 10.0892 62.9533 9.69576 62.7569 9.36726L61.8441 7.83903C61.2031 6.77203 60.2993 5.88895 59.2199 5.27492C58.1405 4.66089 56.9219 4.33662 55.6815 4.33335H46C45.6187 4.33335 45.2531 4.48553 44.9835 4.75642C44.7139 5.0273 44.5625 5.39471 44.5625 5.7778V20.2223C44.5625 20.6054 44.7139 20.9728 44.9835 21.2437C45.2531 21.5146 45.6187 21.6667 46 21.6667H67.5625C67.8169 21.6667 68.0668 21.5988 68.2865 21.47C68.5063 21.3411 68.6881 21.156 68.8134 20.9335C68.9387 20.711 69.0029 20.459 68.9996 20.2034C68.9962 19.9477 68.9254 19.6976 68.7944 19.4784L65.3458 13.7006Z" fill="white"/>
<path d="M40.25 4.33335H30.5684C29.3281 4.33662 28.1095 4.66089 27.0301 5.27492C25.9507 5.88895 25.0469 6.77203 24.4059 7.83903L17.4556 19.4784C17.3245 19.6976 17.2537 19.9477 17.2504 20.2034C17.2471 20.459 17.3113 20.711 17.4366 20.9335C17.5618 21.156 17.7437 21.3411 17.9634 21.47C18.1832 21.5988 18.4331 21.6667 18.6875 21.6667H40.25C40.6312 21.6667 40.9969 21.5146 41.2664 21.2437C41.536 20.9728 41.6875 20.6054 41.6875 20.2223V5.7778C41.6875 5.39471 41.536 5.0273 41.2664 4.75642C40.9969 4.48553 40.6312 4.33335 40.25 4.33335ZM38.8125 18.7778H21.2261L26.8697 9.32681C27.2544 8.68635 27.7969 8.15625 28.4447 7.78764C29.0925 7.41902 29.8239 7.2243 30.5684 7.22225H38.8125V18.7778Z" fill="white"/>
<path d="M48.875 23.1112H46C45.6187 23.1112 45.2531 23.2634 44.9835 23.5343C44.7139 23.8051 44.5625 24.1726 44.5625 24.5556C44.5625 24.9387 44.7139 25.3061 44.9835 25.577C45.2531 25.8479 45.6187 26.0001 46 26.0001H48.875C49.2562 26.0001 49.6219 25.8479 49.8914 25.577C50.161 25.3061 50.3125 24.9387 50.3125 24.5556C50.3125 24.1726 50.161 23.8051 49.8914 23.5343C49.6219 23.2634 49.2562 23.1112 48.875 23.1112Z" fill="white"/>
<path d="M21.5625 23.1112H18.6875C18.3062 23.1112 17.9406 23.2634 17.671 23.5343C17.4014 23.8051 17.25 24.1726 17.25 24.5556C17.25 24.9387 17.4014 25.3061 17.671 25.577C17.9406 25.8479 18.3062 26.0001 18.6875 26.0001H21.5625C21.9437 26.0001 22.3094 25.8479 22.579 25.577C22.8485 25.3061 23 24.9387 23 24.5556C23 24.1726 22.8485 23.8051 22.579 23.5343C22.3094 23.2634 21.9437 23.1112 21.5625 23.1112Z" fill="white"/>
<path d="M70.4375 37.5557C69.5845 37.5557 68.7508 37.8098 68.0416 38.286C67.3324 38.7621 66.7796 39.4389 66.4532 40.2307C66.1268 41.0226 66.0414 41.8938 66.2078 42.7344C66.3742 43.575 66.785 44.3471 67.3881 44.9532C67.9912 45.5592 68.7596 45.9719 69.5961 46.1391C70.4327 46.3063 71.2998 46.2205 72.0878 45.8925C72.8758 45.5645 73.5493 45.0091 74.0232 44.2965C74.497 43.5839 74.75 42.7461 74.75 41.889C74.75 40.7398 74.2956 39.6376 73.4869 38.8249C72.6781 38.0122 71.5812 37.5557 70.4375 37.5557ZM70.4375 43.3335C70.1532 43.3335 69.8752 43.2488 69.6388 43.0901C69.4024 42.9313 69.2182 42.7057 69.1094 42.4418C69.0006 42.1779 68.9721 41.8874 69.0276 41.6072C69.0831 41.327 69.22 41.0697 69.421 40.8677C69.622 40.6656 69.8782 40.5281 70.157 40.4723C70.4359 40.4166 70.7249 40.4452 70.9876 40.5545C71.2502 40.6639 71.4747 40.849 71.6327 41.0865C71.7907 41.3241 71.875 41.6034 71.875 41.889C71.875 42.2721 71.7235 42.6395 71.4539 42.9104C71.1843 43.1813 70.8187 43.3335 70.4375 43.3335Z" fill="white"/>
<path d="M21.5625 37.5557C20.7096 37.5557 19.8758 37.8098 19.1666 38.286C18.4574 38.7621 17.9047 39.4389 17.5783 40.2307C17.2519 41.0226 17.1665 41.8938 17.3329 42.7344C17.4993 43.575 17.91 44.3471 18.5131 44.9532C19.1162 45.5592 19.8846 45.9719 20.7212 46.1391C21.5577 46.3063 22.4248 46.2205 23.2128 45.8925C24.0008 45.5645 24.6743 45.0091 25.1482 44.2965C25.6221 43.5839 25.875 42.7461 25.875 41.889C25.875 40.7398 25.4206 39.6376 24.6119 38.8249C23.8031 38.0122 22.7062 37.5557 21.5625 37.5557ZM21.5625 43.3335C21.2782 43.3335 21.0003 43.2488 20.7639 43.0901C20.5275 42.9313 20.3432 42.7057 20.2344 42.4418C20.1256 42.1779 20.0971 41.8874 20.1526 41.6072C20.2081 41.327 20.345 41.0697 20.546 40.8677C20.7471 40.6656 21.0032 40.5281 21.282 40.4723C21.5609 40.4166 21.8499 40.4452 22.1126 40.5545C22.3753 40.6639 22.5998 40.849 22.7577 41.0865C22.9157 41.3241 23 41.6034 23 41.889C23 42.2721 22.8485 42.6395 22.579 42.9104C22.3094 43.1813 21.9437 43.3335 21.5625 43.3335Z" fill="white"/>
<path d="M81.19 21.5223L76.2406 20.6946C75.6093 20.5898 75.0093 20.3446 74.4843 19.977C73.9593 19.6094 73.5226 19.1287 73.2061 18.5698L66.3708 6.55202C65.2373 4.56376 63.602 2.91108 61.6299 1.76072C59.6577 0.610364 57.4185 0.00303033 55.1382 0H31.1118C28.8316 0.00288449 26.5925 0.610001 24.6203 1.7601C22.6482 2.9102 21.0128 4.56259 19.8792 6.55058L12.9073 18.8096C12.6173 19.3166 12.2287 19.7598 11.7647 20.1127C11.3006 20.4656 10.7706 20.7209 10.2062 20.8636L5.44237 22.0596C4.25626 22.358 3.16584 22.9563 2.27487 23.7978C1.3839 24.6392 0.722016 25.6957 0.352187 26.8668C0.336375 26.9043 0.334937 26.9491 0.322 26.9881C0.113882 27.6614 0.00538845 28.3617 0 29.0667V39.0001C0.00228254 40.9149 0.760267 42.7506 2.10769 44.1045C3.45511 45.4584 5.28195 46.2201 7.1875 46.2224H12.4847C13.2977 47.9506 14.5826 49.4112 16.1897 50.4341C17.7968 51.4569 19.6601 52 21.5625 52C23.4649 52 25.3281 51.4569 26.9353 50.4341C28.5424 49.4112 29.8273 47.9506 30.6403 46.2224H61.3597C62.1727 47.9506 63.4576 49.4112 65.0647 50.4341C66.6718 51.4569 68.5351 52 70.4375 52C72.3399 52 74.2031 51.4569 75.8102 50.4341C77.4174 49.4112 78.7023 47.9506 79.5153 46.2224H84.8125C86.718 46.2201 88.5448 45.4584 89.8923 44.1045C91.2397 42.7506 91.9977 40.9149 92 39.0001V34.3447C92.0076 31.2655 90.924 28.2841 88.9432 25.9346C86.9625 23.5851 84.2139 22.0209 81.19 21.5223ZM87.5351 28.889C88.1036 29.7795 88.5291 30.7544 88.7958 31.7779H87.6875C86.547 31.7776 85.4529 31.3249 84.6428 30.5183C84.1875 30.0573 83.839 29.5009 83.6222 28.889H87.5351ZM2.88937 28.889H5.34606L4.62731 31.7779H2.875V29.0667C2.875 29.006 2.88794 28.9482 2.88937 28.889ZM21.5625 49.1113C20.1409 49.1113 18.7513 48.6877 17.5693 47.8941C16.3874 47.1005 15.4661 45.9726 14.9221 44.6529C14.3781 43.3332 14.2358 41.881 14.5131 40.48C14.7904 39.0791 15.475 37.7922 16.4802 36.7821C17.4854 35.7721 18.766 35.0842 20.1603 34.8056C21.5545 34.5269 22.9997 34.6699 24.313 35.2166C25.6264 35.7632 26.7489 36.6889 27.5387 37.8766C28.3284 39.0643 28.75 40.4606 28.75 41.889C28.7477 43.8038 27.9897 45.6395 26.6423 46.9934C25.2949 48.3473 23.468 49.109 21.5625 49.1113ZM70.4375 49.1113C69.0159 49.1113 67.6263 48.6877 66.4443 47.8941C65.2623 47.1005 64.3411 45.9726 63.7971 44.6529C63.2531 43.3332 63.1107 41.881 63.3881 40.48C63.6654 39.0791 64.3499 37.7922 65.3551 36.7821C66.3603 35.7721 67.641 35.0842 69.0353 34.8056C70.4295 34.5269 71.8747 34.6699 73.188 35.2166C74.5013 35.7632 75.6239 36.6889 76.4137 37.8766C77.2034 39.0643 77.625 40.4606 77.625 41.889C77.6227 43.8038 76.8647 45.6395 75.5173 46.9934C74.1698 48.3473 72.343 49.109 70.4375 49.1113ZM84.8125 43.3335H80.385C80.6035 41.8935 80.5098 40.423 80.1103 39.0227C79.7108 37.6224 79.0149 36.3254 78.0702 35.2205C77.1256 34.1155 75.9545 33.2287 74.6371 32.6208C73.3197 32.0128 71.8871 31.6981 70.4375 31.6981C68.9878 31.6981 67.5552 32.0128 66.2378 32.6208C64.9205 33.2287 63.7494 34.1155 62.8047 35.2205C61.86 36.3254 61.1641 37.6224 60.7646 39.0227C60.3651 40.423 60.2714 41.8935 60.49 43.3335H31.51C31.7285 41.8935 31.6348 40.423 31.2353 39.0227C30.8358 37.6224 30.1399 36.3254 29.1953 35.2205C28.2506 34.1155 27.0795 33.2287 25.7621 32.6208C24.4447 32.0128 23.0122 31.6981 21.5625 31.6981C20.1128 31.6981 18.6803 32.0128 17.3629 32.6208C16.0455 33.2287 14.8744 34.1155 13.9297 35.2205C12.9851 36.3254 12.2892 37.6224 11.8897 39.0227C11.4901 40.423 11.3965 41.8935 11.615 43.3335H7.1875C6.04375 43.3335 4.94685 42.8769 4.1381 42.0643C3.32935 41.2516 2.875 40.1494 2.875 39.0001V34.6668H5.75C6.07046 34.6668 6.38173 34.5592 6.63436 34.3611C6.88699 34.163 7.0665 33.8857 7.14437 33.5733L8.58187 27.7955C8.63497 27.5826 8.63905 27.3602 8.5938 27.1454C8.54855 26.9306 8.45516 26.729 8.32073 26.5559C8.1863 26.3828 8.01437 26.2428 7.818 26.1465C7.62164 26.0502 7.406 26.0001 7.1875 26.0001H4.15294C4.70096 25.4473 5.3881 25.0544 6.141 24.8633L10.9063 23.6659C11.846 23.4275 12.7283 23.0015 13.5008 22.4134C14.2733 21.8253 14.9201 21.087 15.4028 20.2425L22.3747 7.98347C23.2566 6.43735 24.5288 5.15225 26.0627 4.2578C27.5967 3.36335 29.3383 2.89118 31.1118 2.8889H55.1382C56.9117 2.89118 58.6533 3.36335 60.1872 4.2578C61.7212 5.15225 62.9933 6.43735 63.8753 7.98347L70.7092 20.0013C71.2363 20.9333 71.9641 21.7352 72.8393 22.3482C73.7145 22.9613 74.7151 23.37 75.7677 23.5445L80.717 24.3736C82.1643 24.6142 83.5418 25.1693 84.7535 26.0001H81.9375C81.5562 26.0001 81.1906 26.1523 80.921 26.4232C80.6514 26.694 80.5 27.0615 80.5 27.4445C80.499 28.3932 80.6843 29.3328 81.0451 30.2095C81.406 31.0862 81.9354 31.8827 82.603 32.5536C83.2706 33.2244 84.0633 33.7564 84.9358 34.119C85.8083 34.4816 86.7433 34.6677 87.6875 34.6668H89.125V39.0001C89.125 40.1494 88.6706 41.2516 87.8619 42.0643C87.0531 42.8769 85.9562 43.3335 84.8125 43.3335Z" stroke="#751D26" stroke-width="1.6" mask="url(#path-1-inside-1_409_250)"/>
<path d="M65.3458 13.7006C65.1495 13.3721 64.8313 13.1354 64.4613 13.0427C64.0913 12.9499 63.6998 13.0086 63.3729 13.2059C63.046 13.4032 62.8104 13.7229 62.7181 14.0947C62.6258 14.4665 62.6842 14.8599 62.8805 15.1884L65.0238 18.7778H47.4375V7.22225H55.6815C56.426 7.2243 57.1574 7.41902 57.8053 7.78764C58.4531 8.15625 58.9955 8.68635 59.3802 9.32681L60.2916 10.855C60.4879 11.1835 60.8061 11.4202 61.1761 11.513C61.5461 11.6058 61.9376 11.5471 62.2646 11.3498C62.5915 11.1525 62.827 10.8328 62.9193 10.461C63.0117 10.0892 62.9533 9.69576 62.7569 9.36726L61.8441 7.83903C61.2031 6.77203 60.2993 5.88895 59.2199 5.27492C58.1405 4.66089 56.9219 4.33662 55.6815 4.33335H46C45.6187 4.33335 45.2531 4.48553 44.9835 4.75642C44.7139 5.0273 44.5625 5.39471 44.5625 5.7778V20.2223C44.5625 20.6054 44.7139 20.9728 44.9835 21.2437C45.2531 21.5146 45.6187 21.6667 46 21.6667H67.5625C67.8169 21.6667 68.0668 21.5988 68.2865 21.47C68.5063 21.3411 68.6881 21.156 68.8134 20.9335C68.9387 20.711 69.0029 20.459 68.9996 20.2034C68.9962 19.9477 68.9254 19.6976 68.7944 19.4784L65.3458 13.7006Z" stroke="#751D26" stroke-width="1.6" mask="url(#path-1-inside-1_409_250)"/>
<path d="M40.25 4.33335H30.5684C29.3281 4.33662 28.1095 4.66089 27.0301 5.27492C25.9507 5.88895 25.0469 6.77203 24.4059 7.83903L17.4556 19.4784C17.3245 19.6976 17.2537 19.9477 17.2504 20.2034C17.2471 20.459 17.3113 20.711 17.4366 20.9335C17.5618 21.156 17.7437 21.3411 17.9634 21.47C18.1832 21.5988 18.4331 21.6667 18.6875 21.6667H40.25C40.6312 21.6667 40.9969 21.5146 41.2664 21.2437C41.536 20.9728 41.6875 20.6054 41.6875 20.2223V5.7778C41.6875 5.39471 41.536 5.0273 41.2664 4.75642C40.9969 4.48553 40.6312 4.33335 40.25 4.33335ZM38.8125 18.7778H21.2261L26.8697 9.32681C27.2544 8.68635 27.7969 8.15625 28.4447 7.78764C29.0925 7.41902 29.8239 7.2243 30.5684 7.22225H38.8125V18.7778Z" stroke="#751D26" stroke-width="1.6" mask="url(#path-1-inside-1_409_250)"/>
<path d="M48.875 23.1112H46C45.6187 23.1112 45.2531 23.2634 44.9835 23.5343C44.7139 23.8051 44.5625 24.1726 44.5625 24.5556C44.5625 24.9387 44.7139 25.3061 44.9835 25.577C45.2531 25.8479 45.6187 26.0001 46 26.0001H48.875C49.2562 26.0001 49.6219 25.8479 49.8914 25.577C50.161 25.3061 50.3125 24.9387 50.3125 24.5556C50.3125 24.1726 50.161 23.8051 49.8914 23.5343C49.6219 23.2634 49.2562 23.1112 48.875 23.1112Z" stroke="#751D26" stroke-width="1.6" mask="url(#path-1-inside-1_409_250)"/>
<path d="M21.5625 23.1112H18.6875C18.3062 23.1112 17.9406 23.2634 17.671 23.5343C17.4014 23.8051 17.25 24.1726 17.25 24.5556C17.25 24.9387 17.4014 25.3061 17.671 25.577C17.9406 25.8479 18.3062 26.0001 18.6875 26.0001H21.5625C21.9437 26.0001 22.3094 25.8479 22.579 25.577C22.8485 25.3061 23 24.9387 23 24.5556C23 24.1726 22.8485 23.8051 22.579 23.5343C22.3094 23.2634 21.9437 23.1112 21.5625 23.1112Z" stroke="#751D26" stroke-width="1.6" mask="url(#path-1-inside-1_409_250)"/>
<path d="M70.4375 37.5557C69.5845 37.5557 68.7508 37.8098 68.0416 38.286C67.3324 38.7621 66.7796 39.4389 66.4532 40.2307C66.1268 41.0226 66.0414 41.8938 66.2078 42.7344C66.3742 43.575 66.785 44.3471 67.3881 44.9532C67.9912 45.5592 68.7596 45.9719 69.5961 46.1391C70.4327 46.3063 71.2998 46.2205 72.0878 45.8925C72.8758 45.5645 73.5493 45.0091 74.0232 44.2965C74.497 43.5839 74.75 42.7461 74.75 41.889C74.75 40.7398 74.2956 39.6376 73.4869 38.8249C72.6781 38.0122 71.5812 37.5557 70.4375 37.5557ZM70.4375 43.3335C70.1532 43.3335 69.8752 43.2488 69.6388 43.0901C69.4024 42.9313 69.2182 42.7057 69.1094 42.4418C69.0006 42.1779 68.9721 41.8874 69.0276 41.6072C69.0831 41.327 69.22 41.0697 69.421 40.8677C69.622 40.6656 69.8782 40.5281 70.157 40.4723C70.4359 40.4166 70.7249 40.4452 70.9876 40.5545C71.2502 40.6639 71.4747 40.849 71.6327 41.0865C71.7907 41.3241 71.875 41.6034 71.875 41.889C71.875 42.2721 71.7235 42.6395 71.4539 42.9104C71.1843 43.1813 70.8187 43.3335 70.4375 43.3335Z" stroke="#751D26" stroke-width="1.6" mask="url(#path-1-inside-1_409_250)"/>
<path d="M21.5625 37.5557C20.7096 37.5557 19.8758 37.8098 19.1666 38.286C18.4574 38.7621 17.9047 39.4389 17.5783 40.2307C17.2519 41.0226 17.1665 41.8938 17.3329 42.7344C17.4993 43.575 17.91 44.3471 18.5131 44.9532C19.1162 45.5592 19.8846 45.9719 20.7212 46.1391C21.5577 46.3063 22.4248 46.2205 23.2128 45.8925C24.0008 45.5645 24.6743 45.0091 25.1482 44.2965C25.6221 43.5839 25.875 42.7461 25.875 41.889C25.875 40.7398 25.4206 39.6376 24.6119 38.8249C23.8031 38.0122 22.7062 37.5557 21.5625 37.5557ZM21.5625 43.3335C21.2782 43.3335 21.0003 43.2488 20.7639 43.0901C20.5275 42.9313 20.3432 42.7057 20.2344 42.4418C20.1256 42.1779 20.0971 41.8874 20.1526 41.6072C20.2081 41.327 20.345 41.0697 20.546 40.8677C20.7471 40.6656 21.0032 40.5281 21.282 40.4723C21.5609 40.4166 21.8499 40.4452 22.1126 40.5545C22.3753 40.6639 22.5998 40.849 22.7577 41.0865C22.9157 41.3241 23 41.6034 23 41.889C23 42.2721 22.8485 42.6395 22.579 42.9104C22.3094 43.1813 21.9437 43.3335 21.5625 43.3335Z" stroke="#751D26" stroke-width="1.6" mask="url(#path-1-inside-1_409_250)"/>
</svg>
