<svg width="65" height="65" viewBox="0 0 65 65" fill="none" xmlns="http://www.w3.org/2000/svg">
<mask id="path-1-inside-1_409_249" fill="white">
<path d="M59.7581 0H9.43548C6.54508 0 4.19355 2.35153 4.19355 5.24194V46.129H3.14516C1.41113 46.129 0 47.5402 0 49.2742V61.8548C0 63.5889 1.41113 65 3.14516 65H19.9194C21.6534 65 23.0645 63.5889 23.0645 61.8548V56.6129H59.7581C62.6485 56.6129 65 54.2614 65 51.371V5.24194C65 2.35153 62.6485 0 59.7581 0ZM48.2258 50.3226V48.0329C48.555 48.1503 48.9052 48.2258 49.2742 48.2258C51.0082 48.2258 52.4194 46.8147 52.4194 45.0806V15.7258C52.4194 13.9918 51.0082 12.5806 49.2742 12.5806C48.9052 12.5806 48.555 12.6561 48.2258 12.7735V10.4839H62.9032V50.3226H48.2258ZM31.4516 50.3226H27.0652C27.1826 49.9934 27.2581 49.6432 27.2581 49.2742V40.8871C27.2581 40.5181 27.1826 40.1679 27.0652 39.8387H30.4032C30.7723 39.8387 31.1224 39.7632 31.4516 39.6458V50.3226ZM19.9194 46.129H10.4839V40.8871C10.4839 40.3084 10.9546 39.8387 11.5323 39.8387H14.6774V44.0323H20.9677V39.8387H24.1129C24.6906 39.8387 25.1613 40.3084 25.1613 40.8871V49.2742C25.1613 49.8529 24.6906 50.3226 24.1129 50.3226H23.0645V49.2742C23.0645 47.5402 21.6534 46.129 19.9194 46.129ZM10.4839 50.3226V52.4194H8.3871V48.2258H14.6774V52.4194H12.5806V50.3226H10.4839ZM17.8226 37.7419C17.2449 37.7419 16.7742 37.2723 16.7742 36.6935V28.3064C16.7742 27.7288 17.2449 27.2581 17.8226 27.2581H20.9677V31.4516H27.2581V27.2581H30.4032C30.9809 27.2581 31.4516 27.7288 31.4516 28.3064V36.6935C31.4516 37.2723 30.9809 37.7419 30.4032 37.7419H17.8226ZM16.7742 24.1129V15.7258C16.7742 15.1481 17.2449 14.6774 17.8226 14.6774H20.9677V18.871H27.2581V14.6774H30.4032C30.9809 14.6774 31.4516 15.1481 31.4516 15.7258V24.1129C31.4516 24.6906 30.9809 25.1613 30.4032 25.1613H17.8226C17.2449 25.1613 16.7742 24.6906 16.7742 24.1129ZM23.0645 14.6774H25.1613V16.7742H23.0645V14.6774ZM23.0645 27.2581H25.1613V29.3548H23.0645V27.2581ZM16.7742 39.8387H18.871V41.9355H16.7742V39.8387ZM31.4516 12.7735C31.1224 12.6561 30.7723 12.5806 30.4032 12.5806H17.8226C16.0885 12.5806 14.6774 13.9918 14.6774 15.7258V24.1129C14.6774 24.9212 14.993 25.6519 15.4952 26.2097C14.9919 26.7674 14.6774 27.4981 14.6774 28.3064V36.6935C14.6774 37.0626 14.7529 37.4127 14.8703 37.7419H11.5323C11.1632 37.7419 10.8131 37.8174 10.4839 37.9348V10.4839H31.4516V12.7735ZM33.5484 10.226L46.129 6.63105V54.1744L33.5484 50.5805V10.226ZM48.2258 15.7258C48.2258 15.1481 48.6965 14.6774 49.2742 14.6774C49.8519 14.6774 50.3226 15.1481 50.3226 15.7258V45.0806C50.3226 45.6594 49.8519 46.129 49.2742 46.129C48.6965 46.129 48.2258 45.6594 48.2258 45.0806V15.7258ZM48.2258 8.3871V6.29032H62.9032V8.3871H48.2258ZM9.43548 2.09677H59.7581C61.1231 2.09677 62.2763 2.97637 62.7103 4.19355H6.48323C6.91726 2.97637 8.07048 2.09677 9.43548 2.09677ZM6.29032 6.29032H39.6919L32.3532 8.3871H8.3871V46.129H6.29032V6.29032ZM20.9677 61.8548C20.9677 62.4335 20.497 62.9032 19.9194 62.9032H3.14516C2.5675 62.9032 2.09677 62.4335 2.09677 61.8548V49.2742C2.09677 48.6955 2.5675 48.2258 3.14516 48.2258H6.29032V54.5161H16.7742V48.2258H19.9194C20.497 48.2258 20.9677 48.6955 20.9677 49.2742V61.8548ZM23.0645 52.4194H32.3543L39.6919 54.5161H23.0645V52.4194ZM59.7581 54.5161H48.2258V52.4194H62.7103C62.2763 53.6365 61.1231 54.5161 59.7581 54.5161Z"/>
<path d="M57.6613 12.5806C55.9273 12.5806 54.5161 13.9918 54.5161 15.7258V45.0806C54.5161 46.8147 55.9273 48.2258 57.6613 48.2258C59.3953 48.2258 60.8064 46.8147 60.8064 45.0806V15.7258C60.8064 13.9918 59.3953 12.5806 57.6613 12.5806ZM58.7097 45.0806C58.7097 45.6594 58.2389 46.129 57.6613 46.129C57.0836 46.129 56.6129 45.6594 56.6129 45.0806V15.7258C56.6129 15.1481 57.0836 14.6774 57.6613 14.6774C58.2389 14.6774 58.7097 15.1481 58.7097 15.7258V45.0806Z"/>
</mask>
<path d="M59.7581 0H9.43548C6.54508 0 4.19355 2.35153 4.19355 5.24194V46.129H3.14516C1.41113 46.129 0 47.5402 0 49.2742V61.8548C0 63.5889 1.41113 65 3.14516 65H19.9194C21.6534 65 23.0645 63.5889 23.0645 61.8548V56.6129H59.7581C62.6485 56.6129 65 54.2614 65 51.371V5.24194C65 2.35153 62.6485 0 59.7581 0ZM48.2258 50.3226V48.0329C48.555 48.1503 48.9052 48.2258 49.2742 48.2258C51.0082 48.2258 52.4194 46.8147 52.4194 45.0806V15.7258C52.4194 13.9918 51.0082 12.5806 49.2742 12.5806C48.9052 12.5806 48.555 12.6561 48.2258 12.7735V10.4839H62.9032V50.3226H48.2258ZM31.4516 50.3226H27.0652C27.1826 49.9934 27.2581 49.6432 27.2581 49.2742V40.8871C27.2581 40.5181 27.1826 40.1679 27.0652 39.8387H30.4032C30.7723 39.8387 31.1224 39.7632 31.4516 39.6458V50.3226ZM19.9194 46.129H10.4839V40.8871C10.4839 40.3084 10.9546 39.8387 11.5323 39.8387H14.6774V44.0323H20.9677V39.8387H24.1129C24.6906 39.8387 25.1613 40.3084 25.1613 40.8871V49.2742C25.1613 49.8529 24.6906 50.3226 24.1129 50.3226H23.0645V49.2742C23.0645 47.5402 21.6534 46.129 19.9194 46.129ZM10.4839 50.3226V52.4194H8.3871V48.2258H14.6774V52.4194H12.5806V50.3226H10.4839ZM17.8226 37.7419C17.2449 37.7419 16.7742 37.2723 16.7742 36.6935V28.3064C16.7742 27.7288 17.2449 27.2581 17.8226 27.2581H20.9677V31.4516H27.2581V27.2581H30.4032C30.9809 27.2581 31.4516 27.7288 31.4516 28.3064V36.6935C31.4516 37.2723 30.9809 37.7419 30.4032 37.7419H17.8226ZM16.7742 24.1129V15.7258C16.7742 15.1481 17.2449 14.6774 17.8226 14.6774H20.9677V18.871H27.2581V14.6774H30.4032C30.9809 14.6774 31.4516 15.1481 31.4516 15.7258V24.1129C31.4516 24.6906 30.9809 25.1613 30.4032 25.1613H17.8226C17.2449 25.1613 16.7742 24.6906 16.7742 24.1129ZM23.0645 14.6774H25.1613V16.7742H23.0645V14.6774ZM23.0645 27.2581H25.1613V29.3548H23.0645V27.2581ZM16.7742 39.8387H18.871V41.9355H16.7742V39.8387ZM31.4516 12.7735C31.1224 12.6561 30.7723 12.5806 30.4032 12.5806H17.8226C16.0885 12.5806 14.6774 13.9918 14.6774 15.7258V24.1129C14.6774 24.9212 14.993 25.6519 15.4952 26.2097C14.9919 26.7674 14.6774 27.4981 14.6774 28.3064V36.6935C14.6774 37.0626 14.7529 37.4127 14.8703 37.7419H11.5323C11.1632 37.7419 10.8131 37.8174 10.4839 37.9348V10.4839H31.4516V12.7735ZM33.5484 10.226L46.129 6.63105V54.1744L33.5484 50.5805V10.226ZM48.2258 15.7258C48.2258 15.1481 48.6965 14.6774 49.2742 14.6774C49.8519 14.6774 50.3226 15.1481 50.3226 15.7258V45.0806C50.3226 45.6594 49.8519 46.129 49.2742 46.129C48.6965 46.129 48.2258 45.6594 48.2258 45.0806V15.7258ZM48.2258 8.3871V6.29032H62.9032V8.3871H48.2258ZM9.43548 2.09677H59.7581C61.1231 2.09677 62.2763 2.97637 62.7103 4.19355H6.48323C6.91726 2.97637 8.07048 2.09677 9.43548 2.09677ZM6.29032 6.29032H39.6919L32.3532 8.3871H8.3871V46.129H6.29032V6.29032ZM20.9677 61.8548C20.9677 62.4335 20.497 62.9032 19.9194 62.9032H3.14516C2.5675 62.9032 2.09677 62.4335 2.09677 61.8548V49.2742C2.09677 48.6955 2.5675 48.2258 3.14516 48.2258H6.29032V54.5161H16.7742V48.2258H19.9194C20.497 48.2258 20.9677 48.6955 20.9677 49.2742V61.8548ZM23.0645 52.4194H32.3543L39.6919 54.5161H23.0645V52.4194ZM59.7581 54.5161H48.2258V52.4194H62.7103C62.2763 53.6365 61.1231 54.5161 59.7581 54.5161Z" fill="white"/>
<path d="M57.6613 12.5806C55.9273 12.5806 54.5161 13.9918 54.5161 15.7258V45.0806C54.5161 46.8147 55.9273 48.2258 57.6613 48.2258C59.3953 48.2258 60.8064 46.8147 60.8064 45.0806V15.7258C60.8064 13.9918 59.3953 12.5806 57.6613 12.5806ZM58.7097 45.0806C58.7097 45.6594 58.2389 46.129 57.6613 46.129C57.0836 46.129 56.6129 45.6594 56.6129 45.0806V15.7258C56.6129 15.1481 57.0836 14.6774 57.6613 14.6774C58.2389 14.6774 58.7097 15.1481 58.7097 15.7258V45.0806Z" fill="white"/>
<path d="M59.7581 0H9.43548C6.54508 0 4.19355 2.35153 4.19355 5.24194V46.129H3.14516C1.41113 46.129 0 47.5402 0 49.2742V61.8548C0 63.5889 1.41113 65 3.14516 65H19.9194C21.6534 65 23.0645 63.5889 23.0645 61.8548V56.6129H59.7581C62.6485 56.6129 65 54.2614 65 51.371V5.24194C65 2.35153 62.6485 0 59.7581 0ZM48.2258 50.3226V48.0329C48.555 48.1503 48.9052 48.2258 49.2742 48.2258C51.0082 48.2258 52.4194 46.8147 52.4194 45.0806V15.7258C52.4194 13.9918 51.0082 12.5806 49.2742 12.5806C48.9052 12.5806 48.555 12.6561 48.2258 12.7735V10.4839H62.9032V50.3226H48.2258ZM31.4516 50.3226H27.0652C27.1826 49.9934 27.2581 49.6432 27.2581 49.2742V40.8871C27.2581 40.5181 27.1826 40.1679 27.0652 39.8387H30.4032C30.7723 39.8387 31.1224 39.7632 31.4516 39.6458V50.3226ZM19.9194 46.129H10.4839V40.8871C10.4839 40.3084 10.9546 39.8387 11.5323 39.8387H14.6774V44.0323H20.9677V39.8387H24.1129C24.6906 39.8387 25.1613 40.3084 25.1613 40.8871V49.2742C25.1613 49.8529 24.6906 50.3226 24.1129 50.3226H23.0645V49.2742C23.0645 47.5402 21.6534 46.129 19.9194 46.129ZM10.4839 50.3226V52.4194H8.3871V48.2258H14.6774V52.4194H12.5806V50.3226H10.4839ZM17.8226 37.7419C17.2449 37.7419 16.7742 37.2723 16.7742 36.6935V28.3064C16.7742 27.7288 17.2449 27.2581 17.8226 27.2581H20.9677V31.4516H27.2581V27.2581H30.4032C30.9809 27.2581 31.4516 27.7288 31.4516 28.3064V36.6935C31.4516 37.2723 30.9809 37.7419 30.4032 37.7419H17.8226ZM16.7742 24.1129V15.7258C16.7742 15.1481 17.2449 14.6774 17.8226 14.6774H20.9677V18.871H27.2581V14.6774H30.4032C30.9809 14.6774 31.4516 15.1481 31.4516 15.7258V24.1129C31.4516 24.6906 30.9809 25.1613 30.4032 25.1613H17.8226C17.2449 25.1613 16.7742 24.6906 16.7742 24.1129ZM23.0645 14.6774H25.1613V16.7742H23.0645V14.6774ZM23.0645 27.2581H25.1613V29.3548H23.0645V27.2581ZM16.7742 39.8387H18.871V41.9355H16.7742V39.8387ZM31.4516 12.7735C31.1224 12.6561 30.7723 12.5806 30.4032 12.5806H17.8226C16.0885 12.5806 14.6774 13.9918 14.6774 15.7258V24.1129C14.6774 24.9212 14.993 25.6519 15.4952 26.2097C14.9919 26.7674 14.6774 27.4981 14.6774 28.3064V36.6935C14.6774 37.0626 14.7529 37.4127 14.8703 37.7419H11.5323C11.1632 37.7419 10.8131 37.8174 10.4839 37.9348V10.4839H31.4516V12.7735ZM33.5484 10.226L46.129 6.63105V54.1744L33.5484 50.5805V10.226ZM48.2258 15.7258C48.2258 15.1481 48.6965 14.6774 49.2742 14.6774C49.8519 14.6774 50.3226 15.1481 50.3226 15.7258V45.0806C50.3226 45.6594 49.8519 46.129 49.2742 46.129C48.6965 46.129 48.2258 45.6594 48.2258 45.0806V15.7258ZM48.2258 8.3871V6.29032H62.9032V8.3871H48.2258ZM9.43548 2.09677H59.7581C61.1231 2.09677 62.2763 2.97637 62.7103 4.19355H6.48323C6.91726 2.97637 8.07048 2.09677 9.43548 2.09677ZM6.29032 6.29032H39.6919L32.3532 8.3871H8.3871V46.129H6.29032V6.29032ZM20.9677 61.8548C20.9677 62.4335 20.497 62.9032 19.9194 62.9032H3.14516C2.5675 62.9032 2.09677 62.4335 2.09677 61.8548V49.2742C2.09677 48.6955 2.5675 48.2258 3.14516 48.2258H6.29032V54.5161H16.7742V48.2258H19.9194C20.497 48.2258 20.9677 48.6955 20.9677 49.2742V61.8548ZM23.0645 52.4194H32.3543L39.6919 54.5161H23.0645V52.4194ZM59.7581 54.5161H48.2258V52.4194H62.7103C62.2763 53.6365 61.1231 54.5161 59.7581 54.5161Z" stroke="#751D26" mask="url(#path-1-inside-1_409_249)"/>
<path d="M57.6613 12.5806C55.9273 12.5806 54.5161 13.9918 54.5161 15.7258V45.0806C54.5161 46.8147 55.9273 48.2258 57.6613 48.2258C59.3953 48.2258 60.8064 46.8147 60.8064 45.0806V15.7258C60.8064 13.9918 59.3953 12.5806 57.6613 12.5806ZM58.7097 45.0806C58.7097 45.6594 58.2389 46.129 57.6613 46.129C57.0836 46.129 56.6129 45.6594 56.6129 45.0806V15.7258C56.6129 15.1481 57.0836 14.6774 57.6613 14.6774C58.2389 14.6774 58.7097 15.1481 58.7097 15.7258V45.0806Z" stroke="#751D26" mask="url(#path-1-inside-1_409_249)"/>
</svg>
