<svg width="48" height="56" viewBox="0 0 48 56" fill="none" xmlns="http://www.w3.org/2000/svg">
<mask id="path-1-inside-1_409_235" fill="white">
<path d="M48 32.8416C47.9991 32.6984 47.958 32.5497 47.8846 32.4271L45.5395 28.4913C45.3036 28.0961 44.8709 27.8505 44.4094 27.8505H25.4127C24.9521 27.8505 24.5194 28.0953 24.2835 28.4896L21.9285 32.4258C21.9263 32.4297 21.9246 32.434 21.922 32.4378C21.9178 32.4455 21.913 32.4532 21.9088 32.4609H17.5693C17.1142 32.4609 16.7458 32.8283 16.7458 33.2812C16.7458 33.7345 17.1142 34.1015 17.5693 34.1015H21.8123V35.7827H17.5693C17.1142 35.7827 16.7458 36.1501 16.7458 36.603C16.7458 37.0563 17.1142 37.4233 17.5693 37.4233H21.8123V44.2319H17.5693C17.1142 44.2319 16.7458 44.5994 16.7458 45.0522C16.7458 45.5056 17.1142 45.8726 17.5693 45.8726H21.8123V47.5538H17.5693C17.1142 47.5538 16.7458 47.9212 16.7458 48.3741C16.7458 48.8274 17.1142 49.1944 17.5693 49.1944H21.8123V54.3171H3.97105C2.68954 54.3171 1.64692 53.2784 1.64692 52.0018V3.95587C1.64692 2.67926 2.68954 1.64062 3.97105 1.64062H35.0798L41.2648 7.80109V24.9542C41.2648 25.4075 41.6336 25.7745 42.0882 25.7745C42.5429 25.7745 42.9117 25.4075 42.9117 24.9542V7.46143C42.9117 7.24353 42.8251 7.03503 42.6707 6.88123L36.0028 0.240112C35.8484 0.0863037 35.6391 0 35.4208 0H3.97105C1.78159 0 0 1.77478 0 3.95587V52.0014C0 54.1829 1.78159 55.9573 3.97105 55.9573H23.0595C23.1765 55.9842 23.2975 56 23.4219 56H46.3904C47.2778 56 48 55.2805 48 54.3965V32.8458C48 32.8445 48 32.8428 48 32.8416ZM45.7303 32.0255H38.6486L38.2043 29.4911H44.2198L45.7303 32.0255ZM33.0306 33.6661H37.1333V39.4775L35.5739 38.3201C35.2818 38.1035 34.8817 38.1035 34.59 38.3201L33.0306 39.4775V33.6661ZM36.5325 29.4911L36.9768 32.0255H33.1704L33.571 29.4911H36.5325ZM23.4592 54.3594V33.0718L25.6015 29.4911H31.9039L31.5029 32.0255H26.7492C26.2945 32.0255 25.9257 32.3925 25.9257 32.8458C25.9257 33.2991 26.2945 33.6661 26.7492 33.6661H31.3837V41.1113C31.3837 41.4215 31.5591 41.7052 31.8375 41.8445C32.1158 41.9833 32.449 41.9547 32.6991 41.7693L35.082 40.0009L37.4649 41.7693C37.6098 41.8765 37.7827 41.9316 37.9568 41.9316C38.0829 41.9316 38.2094 41.903 38.3261 41.8445C38.6044 41.7052 38.7803 41.4215 38.7803 41.1113V33.6661H46.3531V54.3594H23.4592Z"/>
<path d="M15.1654 4.84625C14.8437 4.52582 14.3226 4.52625 14.001 4.84625L12.5157 6.32581C11.6768 5.59906 10.5823 5.15729 9.3853 5.15729C6.75109 5.15729 4.60752 7.29266 4.60752 9.91681C4.60752 12.541 6.75109 14.6763 9.3853 14.6763C12.0199 14.6763 14.1631 12.5414 14.1631 9.91681C14.1631 9.07855 13.9435 8.29071 13.5601 7.60583L15.1658 6.00665C15.4871 5.68622 15.4871 5.16669 15.1654 4.84625ZM12.5162 9.91681C12.5162 11.6365 11.112 13.0357 9.3853 13.0357C7.65904 13.0357 6.25444 11.6365 6.25444 9.91681C6.25444 8.19714 7.65904 6.79791 9.3853 6.79791C10.1281 6.79791 10.8105 7.05725 11.3479 7.4892L9.54485 9.28534L9.30896 9.05078C8.98729 8.73035 8.4662 8.73035 8.14454 9.05078C7.82287 9.37122 7.82287 9.89075 8.14454 10.2108L8.96242 11.0255C9.12325 11.1857 9.33383 11.2661 9.54485 11.2661C9.75543 11.2661 9.96601 11.1857 10.1268 11.0255L12.3232 8.83801C12.448 9.17426 12.5162 9.53742 12.5162 9.91681Z"/>
<path d="M35.929 7.43536H17.5689C17.1142 7.43536 16.7454 7.8028 16.7454 8.25568C16.7454 8.70898 17.1142 9.07599 17.5689 9.07599H35.929C36.3841 9.07599 36.7525 8.70898 36.7525 8.25568C36.7525 7.8028 36.3841 7.43536 35.929 7.43536Z"/>
<path d="M17.5689 12.3978H24.823C25.2781 12.3978 25.6465 12.0308 25.6465 11.5775C25.6465 11.1246 25.2781 10.7572 24.823 10.7572H17.5689C17.1142 10.7572 16.7454 11.1246 16.7454 11.5775C16.7454 12.0308 17.1142 12.3978 17.5689 12.3978Z"/>
<path d="M15.1654 17.1151C14.8437 16.7946 14.3226 16.7946 14.001 17.1151L12.5157 18.5946C11.6768 17.8674 10.5823 17.4261 9.3853 17.4261C6.75109 17.4261 4.60752 19.561 4.60752 22.1856C4.60752 24.8102 6.75109 26.9451 9.3853 26.9451C12.0199 26.9451 14.1631 24.8102 14.1631 22.1856C14.1631 21.3474 13.9435 20.5595 13.5601 19.8746L15.1658 18.2755C15.4871 17.9546 15.4871 17.4355 15.1654 17.1151ZM12.5162 22.1856C12.5162 23.9053 11.112 25.3045 9.3853 25.3045C7.65904 25.3045 6.25444 23.9053 6.25444 22.1856C6.25444 20.4659 7.65904 19.0667 9.3853 19.0667C10.1281 19.0667 10.8105 19.3261 11.3479 19.758L9.54485 21.5541L9.30896 21.3196C8.98729 20.9991 8.4662 20.9991 8.14454 21.3196C7.82287 21.64 7.82287 22.1595 8.14454 22.4796L8.96242 23.2943C9.12325 23.4545 9.33383 23.5349 9.54485 23.5349C9.75543 23.5349 9.96601 23.4545 10.1268 23.2943L12.3232 21.1068C12.448 21.4431 12.5162 21.8066 12.5162 22.1856Z"/>
<path d="M36.7525 20.5245C36.7525 20.0716 36.3841 19.7042 35.929 19.7042H17.5689C17.1142 19.7042 16.7454 20.0716 16.7454 20.5245C16.7454 20.9778 17.1142 21.3448 17.5689 21.3448H35.929C36.3841 21.3448 36.7525 20.9778 36.7525 20.5245Z"/>
<path d="M17.5689 23.026C17.1142 23.026 16.7454 23.3934 16.7454 23.8463C16.7454 24.2996 17.1142 24.6666 17.5689 24.6666H24.823C25.2781 24.6666 25.6465 24.2996 25.6465 23.8463C25.6465 23.3934 25.2781 23.026 24.823 23.026H17.5689Z"/>
<path d="M9.3853 30.1824C6.75109 30.1824 4.60752 32.3177 4.60752 34.9419C4.60752 37.5665 6.75109 39.7014 9.3853 39.7014C12.0199 39.7014 14.1631 37.5665 14.1631 34.9419C14.1631 32.3177 12.0199 30.1824 9.3853 30.1824ZM9.3853 38.0608C7.65904 38.0608 6.25444 36.6616 6.25444 34.9419C6.25444 33.2222 7.65904 31.823 9.3853 31.823C11.112 31.823 12.5162 33.2222 12.5162 34.9419C12.5162 36.6616 11.1116 38.0608 9.3853 38.0608Z"/>
<path d="M9.3853 41.9534C6.75109 41.9534 4.60752 44.0888 4.60752 46.7134C4.60752 49.3375 6.75109 51.4729 9.3853 51.4729C12.0199 51.4729 14.1631 49.3375 14.1631 46.7134C14.1631 44.0888 12.0199 41.9534 9.3853 41.9534ZM9.3853 49.8318C7.65904 49.8318 6.25444 48.433 6.25444 46.713C6.25444 44.9933 7.65904 43.5941 9.3853 43.5941C11.112 43.5941 12.5162 44.9933 12.5162 46.713C12.5162 48.433 11.1116 49.8318 9.3853 49.8318Z"/>
</mask>
<path d="M48 32.8416C47.9991 32.6984 47.958 32.5497 47.8846 32.4271L45.5395 28.4913C45.3036 28.0961 44.8709 27.8505 44.4094 27.8505H25.4127C24.9521 27.8505 24.5194 28.0953 24.2835 28.4896L21.9285 32.4258C21.9263 32.4297 21.9246 32.434 21.922 32.4378C21.9178 32.4455 21.913 32.4532 21.9088 32.4609H17.5693C17.1142 32.4609 16.7458 32.8283 16.7458 33.2812C16.7458 33.7345 17.1142 34.1015 17.5693 34.1015H21.8123V35.7827H17.5693C17.1142 35.7827 16.7458 36.1501 16.7458 36.603C16.7458 37.0563 17.1142 37.4233 17.5693 37.4233H21.8123V44.2319H17.5693C17.1142 44.2319 16.7458 44.5994 16.7458 45.0522C16.7458 45.5056 17.1142 45.8726 17.5693 45.8726H21.8123V47.5538H17.5693C17.1142 47.5538 16.7458 47.9212 16.7458 48.3741C16.7458 48.8274 17.1142 49.1944 17.5693 49.1944H21.8123V54.3171H3.97105C2.68954 54.3171 1.64692 53.2784 1.64692 52.0018V3.95587C1.64692 2.67926 2.68954 1.64062 3.97105 1.64062H35.0798L41.2648 7.80109V24.9542C41.2648 25.4075 41.6336 25.7745 42.0882 25.7745C42.5429 25.7745 42.9117 25.4075 42.9117 24.9542V7.46143C42.9117 7.24353 42.8251 7.03503 42.6707 6.88123L36.0028 0.240112C35.8484 0.0863037 35.6391 0 35.4208 0H3.97105C1.78159 0 0 1.77478 0 3.95587V52.0014C0 54.1829 1.78159 55.9573 3.97105 55.9573H23.0595C23.1765 55.9842 23.2975 56 23.4219 56H46.3904C47.2778 56 48 55.2805 48 54.3965V32.8458C48 32.8445 48 32.8428 48 32.8416ZM45.7303 32.0255H38.6486L38.2043 29.4911H44.2198L45.7303 32.0255ZM33.0306 33.6661H37.1333V39.4775L35.5739 38.3201C35.2818 38.1035 34.8817 38.1035 34.59 38.3201L33.0306 39.4775V33.6661ZM36.5325 29.4911L36.9768 32.0255H33.1704L33.571 29.4911H36.5325ZM23.4592 54.3594V33.0718L25.6015 29.4911H31.9039L31.5029 32.0255H26.7492C26.2945 32.0255 25.9257 32.3925 25.9257 32.8458C25.9257 33.2991 26.2945 33.6661 26.7492 33.6661H31.3837V41.1113C31.3837 41.4215 31.5591 41.7052 31.8375 41.8445C32.1158 41.9833 32.449 41.9547 32.6991 41.7693L35.082 40.0009L37.4649 41.7693C37.6098 41.8765 37.7827 41.9316 37.9568 41.9316C38.0829 41.9316 38.2094 41.903 38.3261 41.8445C38.6044 41.7052 38.7803 41.4215 38.7803 41.1113V33.6661H46.3531V54.3594H23.4592Z" fill="white"/>
<path d="M15.1654 4.84625C14.8437 4.52582 14.3226 4.52625 14.001 4.84625L12.5157 6.32581C11.6768 5.59906 10.5823 5.15729 9.3853 5.15729C6.75109 5.15729 4.60752 7.29266 4.60752 9.91681C4.60752 12.541 6.75109 14.6763 9.3853 14.6763C12.0199 14.6763 14.1631 12.5414 14.1631 9.91681C14.1631 9.07855 13.9435 8.29071 13.5601 7.60583L15.1658 6.00665C15.4871 5.68622 15.4871 5.16669 15.1654 4.84625ZM12.5162 9.91681C12.5162 11.6365 11.112 13.0357 9.3853 13.0357C7.65904 13.0357 6.25444 11.6365 6.25444 9.91681C6.25444 8.19714 7.65904 6.79791 9.3853 6.79791C10.1281 6.79791 10.8105 7.05725 11.3479 7.4892L9.54485 9.28534L9.30896 9.05078C8.98729 8.73035 8.4662 8.73035 8.14454 9.05078C7.82287 9.37122 7.82287 9.89075 8.14454 10.2108L8.96242 11.0255C9.12325 11.1857 9.33383 11.2661 9.54485 11.2661C9.75543 11.2661 9.96601 11.1857 10.1268 11.0255L12.3232 8.83801C12.448 9.17426 12.5162 9.53742 12.5162 9.91681Z" fill="white"/>
<path d="M35.929 7.43536H17.5689C17.1142 7.43536 16.7454 7.8028 16.7454 8.25568C16.7454 8.70898 17.1142 9.07599 17.5689 9.07599H35.929C36.3841 9.07599 36.7525 8.70898 36.7525 8.25568C36.7525 7.8028 36.3841 7.43536 35.929 7.43536Z" fill="white"/>
<path d="M17.5689 12.3978H24.823C25.2781 12.3978 25.6465 12.0308 25.6465 11.5775C25.6465 11.1246 25.2781 10.7572 24.823 10.7572H17.5689C17.1142 10.7572 16.7454 11.1246 16.7454 11.5775C16.7454 12.0308 17.1142 12.3978 17.5689 12.3978Z" fill="white"/>
<path d="M15.1654 17.1151C14.8437 16.7946 14.3226 16.7946 14.001 17.1151L12.5157 18.5946C11.6768 17.8674 10.5823 17.4261 9.3853 17.4261C6.75109 17.4261 4.60752 19.561 4.60752 22.1856C4.60752 24.8102 6.75109 26.9451 9.3853 26.9451C12.0199 26.9451 14.1631 24.8102 14.1631 22.1856C14.1631 21.3474 13.9435 20.5595 13.5601 19.8746L15.1658 18.2755C15.4871 17.9546 15.4871 17.4355 15.1654 17.1151ZM12.5162 22.1856C12.5162 23.9053 11.112 25.3045 9.3853 25.3045C7.65904 25.3045 6.25444 23.9053 6.25444 22.1856C6.25444 20.4659 7.65904 19.0667 9.3853 19.0667C10.1281 19.0667 10.8105 19.3261 11.3479 19.758L9.54485 21.5541L9.30896 21.3196C8.98729 20.9991 8.4662 20.9991 8.14454 21.3196C7.82287 21.64 7.82287 22.1595 8.14454 22.4796L8.96242 23.2943C9.12325 23.4545 9.33383 23.5349 9.54485 23.5349C9.75543 23.5349 9.96601 23.4545 10.1268 23.2943L12.3232 21.1068C12.448 21.4431 12.5162 21.8066 12.5162 22.1856Z" fill="white"/>
<path d="M36.7525 20.5245C36.7525 20.0716 36.3841 19.7042 35.929 19.7042H17.5689C17.1142 19.7042 16.7454 20.0716 16.7454 20.5245C16.7454 20.9778 17.1142 21.3448 17.5689 21.3448H35.929C36.3841 21.3448 36.7525 20.9778 36.7525 20.5245Z" fill="white"/>
<path d="M17.5689 23.026C17.1142 23.026 16.7454 23.3934 16.7454 23.8463C16.7454 24.2996 17.1142 24.6666 17.5689 24.6666H24.823C25.2781 24.6666 25.6465 24.2996 25.6465 23.8463C25.6465 23.3934 25.2781 23.026 24.823 23.026H17.5689Z" fill="white"/>
<path d="M9.3853 30.1824C6.75109 30.1824 4.60752 32.3177 4.60752 34.9419C4.60752 37.5665 6.75109 39.7014 9.3853 39.7014C12.0199 39.7014 14.1631 37.5665 14.1631 34.9419C14.1631 32.3177 12.0199 30.1824 9.3853 30.1824ZM9.3853 38.0608C7.65904 38.0608 6.25444 36.6616 6.25444 34.9419C6.25444 33.2222 7.65904 31.823 9.3853 31.823C11.112 31.823 12.5162 33.2222 12.5162 34.9419C12.5162 36.6616 11.1116 38.0608 9.3853 38.0608Z" fill="white"/>
<path d="M9.3853 41.9534C6.75109 41.9534 4.60752 44.0888 4.60752 46.7134C4.60752 49.3375 6.75109 51.4729 9.3853 51.4729C12.0199 51.4729 14.1631 49.3375 14.1631 46.7134C14.1631 44.0888 12.0199 41.9534 9.3853 41.9534ZM9.3853 49.8318C7.65904 49.8318 6.25444 48.433 6.25444 46.713C6.25444 44.9933 7.65904 43.5941 9.3853 43.5941C11.112 43.5941 12.5162 44.9933 12.5162 46.713C12.5162 48.433 11.1116 49.8318 9.3853 49.8318Z" fill="white"/>
<path d="M48 32.8416C47.9991 32.6984 47.958 32.5497 47.8846 32.4271L45.5395 28.4913C45.3036 28.0961 44.8709 27.8505 44.4094 27.8505H25.4127C24.9521 27.8505 24.5194 28.0953 24.2835 28.4896L21.9285 32.4258C21.9263 32.4297 21.9246 32.434 21.922 32.4378C21.9178 32.4455 21.913 32.4532 21.9088 32.4609H17.5693C17.1142 32.4609 16.7458 32.8283 16.7458 33.2812C16.7458 33.7345 17.1142 34.1015 17.5693 34.1015H21.8123V35.7827H17.5693C17.1142 35.7827 16.7458 36.1501 16.7458 36.603C16.7458 37.0563 17.1142 37.4233 17.5693 37.4233H21.8123V44.2319H17.5693C17.1142 44.2319 16.7458 44.5994 16.7458 45.0522C16.7458 45.5056 17.1142 45.8726 17.5693 45.8726H21.8123V47.5538H17.5693C17.1142 47.5538 16.7458 47.9212 16.7458 48.3741C16.7458 48.8274 17.1142 49.1944 17.5693 49.1944H21.8123V54.3171H3.97105C2.68954 54.3171 1.64692 53.2784 1.64692 52.0018V3.95587C1.64692 2.67926 2.68954 1.64062 3.97105 1.64062H35.0798L41.2648 7.80109V24.9542C41.2648 25.4075 41.6336 25.7745 42.0882 25.7745C42.5429 25.7745 42.9117 25.4075 42.9117 24.9542V7.46143C42.9117 7.24353 42.8251 7.03503 42.6707 6.88123L36.0028 0.240112C35.8484 0.0863037 35.6391 0 35.4208 0H3.97105C1.78159 0 0 1.77478 0 3.95587V52.0014C0 54.1829 1.78159 55.9573 3.97105 55.9573H23.0595C23.1765 55.9842 23.2975 56 23.4219 56H46.3904C47.2778 56 48 55.2805 48 54.3965V32.8458C48 32.8445 48 32.8428 48 32.8416ZM45.7303 32.0255H38.6486L38.2043 29.4911H44.2198L45.7303 32.0255ZM33.0306 33.6661H37.1333V39.4775L35.5739 38.3201C35.2818 38.1035 34.8817 38.1035 34.59 38.3201L33.0306 39.4775V33.6661ZM36.5325 29.4911L36.9768 32.0255H33.1704L33.571 29.4911H36.5325ZM23.4592 54.3594V33.0718L25.6015 29.4911H31.9039L31.5029 32.0255H26.7492C26.2945 32.0255 25.9257 32.3925 25.9257 32.8458C25.9257 33.2991 26.2945 33.6661 26.7492 33.6661H31.3837V41.1113C31.3837 41.4215 31.5591 41.7052 31.8375 41.8445C32.1158 41.9833 32.449 41.9547 32.6991 41.7693L35.082 40.0009L37.4649 41.7693C37.6098 41.8765 37.7827 41.9316 37.9568 41.9316C38.0829 41.9316 38.2094 41.903 38.3261 41.8445C38.6044 41.7052 38.7803 41.4215 38.7803 41.1113V33.6661H46.3531V54.3594H23.4592Z" stroke="#751D26" stroke-width="0.4" mask="url(#path-1-inside-1_409_235)"/>
<path d="M15.1654 4.84625C14.8437 4.52582 14.3226 4.52625 14.001 4.84625L12.5157 6.32581C11.6768 5.59906 10.5823 5.15729 9.3853 5.15729C6.75109 5.15729 4.60752 7.29266 4.60752 9.91681C4.60752 12.541 6.75109 14.6763 9.3853 14.6763C12.0199 14.6763 14.1631 12.5414 14.1631 9.91681C14.1631 9.07855 13.9435 8.29071 13.5601 7.60583L15.1658 6.00665C15.4871 5.68622 15.4871 5.16669 15.1654 4.84625ZM12.5162 9.91681C12.5162 11.6365 11.112 13.0357 9.3853 13.0357C7.65904 13.0357 6.25444 11.6365 6.25444 9.91681C6.25444 8.19714 7.65904 6.79791 9.3853 6.79791C10.1281 6.79791 10.8105 7.05725 11.3479 7.4892L9.54485 9.28534L9.30896 9.05078C8.98729 8.73035 8.4662 8.73035 8.14454 9.05078C7.82287 9.37122 7.82287 9.89075 8.14454 10.2108L8.96242 11.0255C9.12325 11.1857 9.33383 11.2661 9.54485 11.2661C9.75543 11.2661 9.96601 11.1857 10.1268 11.0255L12.3232 8.83801C12.448 9.17426 12.5162 9.53742 12.5162 9.91681Z" stroke="#751D26" stroke-width="0.4" mask="url(#path-1-inside-1_409_235)"/>
<path d="M35.929 7.43536H17.5689C17.1142 7.43536 16.7454 7.8028 16.7454 8.25568C16.7454 8.70898 17.1142 9.07599 17.5689 9.07599H35.929C36.3841 9.07599 36.7525 8.70898 36.7525 8.25568C36.7525 7.8028 36.3841 7.43536 35.929 7.43536Z" stroke="#751D26" stroke-width="0.4" mask="url(#path-1-inside-1_409_235)"/>
<path d="M17.5689 12.3978H24.823C25.2781 12.3978 25.6465 12.0308 25.6465 11.5775C25.6465 11.1246 25.2781 10.7572 24.823 10.7572H17.5689C17.1142 10.7572 16.7454 11.1246 16.7454 11.5775C16.7454 12.0308 17.1142 12.3978 17.5689 12.3978Z" stroke="#751D26" stroke-width="0.4" mask="url(#path-1-inside-1_409_235)"/>
<path d="M15.1654 17.1151C14.8437 16.7946 14.3226 16.7946 14.001 17.1151L12.5157 18.5946C11.6768 17.8674 10.5823 17.4261 9.3853 17.4261C6.75109 17.4261 4.60752 19.561 4.60752 22.1856C4.60752 24.8102 6.75109 26.9451 9.3853 26.9451C12.0199 26.9451 14.1631 24.8102 14.1631 22.1856C14.1631 21.3474 13.9435 20.5595 13.5601 19.8746L15.1658 18.2755C15.4871 17.9546 15.4871 17.4355 15.1654 17.1151ZM12.5162 22.1856C12.5162 23.9053 11.112 25.3045 9.3853 25.3045C7.65904 25.3045 6.25444 23.9053 6.25444 22.1856C6.25444 20.4659 7.65904 19.0667 9.3853 19.0667C10.1281 19.0667 10.8105 19.3261 11.3479 19.758L9.54485 21.5541L9.30896 21.3196C8.98729 20.9991 8.4662 20.9991 8.14454 21.3196C7.82287 21.64 7.82287 22.1595 8.14454 22.4796L8.96242 23.2943C9.12325 23.4545 9.33383 23.5349 9.54485 23.5349C9.75543 23.5349 9.96601 23.4545 10.1268 23.2943L12.3232 21.1068C12.448 21.4431 12.5162 21.8066 12.5162 22.1856Z" stroke="#751D26" stroke-width="0.4" mask="url(#path-1-inside-1_409_235)"/>
<path d="M36.7525 20.5245C36.7525 20.0716 36.3841 19.7042 35.929 19.7042H17.5689C17.1142 19.7042 16.7454 20.0716 16.7454 20.5245C16.7454 20.9778 17.1142 21.3448 17.5689 21.3448H35.929C36.3841 21.3448 36.7525 20.9778 36.7525 20.5245Z" stroke="#751D26" stroke-width="0.4" mask="url(#path-1-inside-1_409_235)"/>
<path d="M17.5689 23.026C17.1142 23.026 16.7454 23.3934 16.7454 23.8463C16.7454 24.2996 17.1142 24.6666 17.5689 24.6666H24.823C25.2781 24.6666 25.6465 24.2996 25.6465 23.8463C25.6465 23.3934 25.2781 23.026 24.823 23.026H17.5689Z" stroke="#751D26" stroke-width="0.4" mask="url(#path-1-inside-1_409_235)"/>
<path d="M9.3853 30.1824C6.75109 30.1824 4.60752 32.3177 4.60752 34.9419C4.60752 37.5665 6.75109 39.7014 9.3853 39.7014C12.0199 39.7014 14.1631 37.5665 14.1631 34.9419C14.1631 32.3177 12.0199 30.1824 9.3853 30.1824ZM9.3853 38.0608C7.65904 38.0608 6.25444 36.6616 6.25444 34.9419C6.25444 33.2222 7.65904 31.823 9.3853 31.823C11.112 31.823 12.5162 33.2222 12.5162 34.9419C12.5162 36.6616 11.1116 38.0608 9.3853 38.0608Z" stroke="#751D26" stroke-width="0.4" mask="url(#path-1-inside-1_409_235)"/>
<path d="M9.3853 41.9534C6.75109 41.9534 4.60752 44.0888 4.60752 46.7134C4.60752 49.3375 6.75109 51.4729 9.3853 51.4729C12.0199 51.4729 14.1631 49.3375 14.1631 46.7134C14.1631 44.0888 12.0199 41.9534 9.3853 41.9534ZM9.3853 49.8318C7.65904 49.8318 6.25444 48.433 6.25444 46.713C6.25444 44.9933 7.65904 43.5941 9.3853 43.5941C11.112 43.5941 12.5162 44.9933 12.5162 46.713C12.5162 48.433 11.1116 49.8318 9.3853 49.8318Z" stroke="#751D26" stroke-width="0.4" mask="url(#path-1-inside-1_409_235)"/>
</svg>
