<svg width="73" height="56" viewBox="0 0 73 56" fill="none" xmlns="http://www.w3.org/2000/svg">
<mask id="path-1-inside-1_409_236" fill="white">
<path d="M71.1118 32.7593C70.5277 32.7593 70.0547 33.238 70.0547 33.828V35.071H68.6963V34.3836C68.6963 33.4879 67.9762 32.7598 67.0902 32.7598H66.4752V1.51742C66.4752 0.68078 65.8024 0 64.9748 0H63.1743C62.1931 0 61.3832 0.753144 61.2791 1.71726H11.1415C11.038 0.753144 10.2275 0 9.24632 0H7.45575C6.62819 0 5.9548 0.68078 5.9548 1.51742V32.7593H5.07879C4.19341 32.7593 3.47267 33.4879 3.47267 34.3836V35.071H2.11433V33.828C2.11433 33.238 1.64136 32.7593 1.05716 32.7593C0.472971 32.7593 0 33.238 0 33.828V38.4515C0 39.0416 0.472971 39.5203 1.05716 39.5203C1.64136 39.5203 2.11433 39.0416 2.11433 38.4515V37.2085H3.47267V37.896C3.47267 38.4927 3.79312 39.0137 4.26885 39.2965L6.56928 45.2744C6.65903 45.5076 6.82091 45.6902 7.01912 45.8076C6.68105 46.6498 6.49329 47.5689 6.49329 48.5324C6.49329 52.5397 9.71819 55.8 13.682 55.8C16.2732 55.8 18.5483 54.4062 19.8136 52.3215C21.0788 54.4062 23.3539 55.8 25.9457 55.8C29.9095 55.8 33.1344 52.5397 33.1344 48.5324C33.1344 47.7258 33.0017 46.9504 32.7605 46.2251H38.8684C38.6278 46.9504 38.4951 47.7258 38.4951 48.5324C38.4951 52.5397 41.72 55.8 45.6838 55.8C48.2755 55.8 50.5506 54.4062 51.8153 52.3215C53.0806 54.4062 55.3557 55.8 57.9474 55.8C61.9112 55.8 65.1361 52.5397 65.1361 48.5324C65.1361 47.6507 64.9798 46.8057 64.694 46.023C64.8294 45.9251 64.9456 45.7954 65.0255 45.6345L68.3407 38.9302C68.3473 38.9174 68.3517 38.9041 68.3572 38.8907C68.5692 38.6157 68.6963 38.2712 68.6963 37.8966V37.2085H70.0547V38.4515C70.0547 39.0421 70.5277 39.5203 71.1118 39.5203C71.696 39.5203 72.169 39.0421 72.169 38.4515V33.8286C72.169 33.238 71.6955 32.7593 71.1118 32.7593ZM5.58645 34.8968H54.5694C55.1531 34.8968 55.6266 34.4186 55.6266 33.828C55.6266 33.238 55.1531 32.7593 54.5694 32.7593H8.06913V2.13753H9.04976C9.15382 3.10164 9.96376 3.85478 10.9449 3.85478H61.4751C62.4563 3.85478 63.2668 3.10164 63.3703 2.13753H64.3609V32.7593H59.1279C58.5437 32.7593 58.0708 33.238 58.0708 33.828C58.0708 34.4186 58.5437 34.8968 59.1279 34.8968H66.582V37.3828H5.58645V34.8968ZM13.682 53.663C10.8838 53.663 8.60762 51.3613 8.60762 48.533C8.60762 45.7041 10.8838 43.4024 13.682 43.4024C16.4802 43.4024 18.7564 45.7041 18.7564 48.533C18.7564 51.3613 16.4802 53.663 13.682 53.663ZM25.9457 53.663C23.1469 53.663 20.8707 51.3613 20.8707 48.533C20.8707 45.7041 23.1469 43.4024 25.9457 43.4024C28.7438 43.4024 31.02 45.7041 31.02 48.533C31.02 51.3613 28.7438 53.663 25.9457 53.663ZM45.6838 53.663C42.8856 53.663 40.6094 51.3613 40.6094 48.533C40.6094 45.7041 42.8856 43.4024 45.6838 43.4024C48.4819 43.4024 50.7582 45.7041 50.7582 48.533C50.7582 51.3613 48.4819 53.663 45.6838 53.663ZM57.9474 53.663C55.1492 53.663 52.8725 51.3613 52.8725 48.533C52.8725 45.7041 55.1492 43.4024 57.9474 43.4024C60.7456 43.4024 63.0218 45.7041 63.0218 48.533C63.0218 51.3613 60.7456 53.663 57.9474 53.663ZM63.5052 43.9284C62.1854 42.3035 60.1845 41.2648 57.9474 41.2648C55.3557 41.2648 53.0806 42.6587 51.8159 44.7433C50.5506 42.6587 48.2755 41.2648 45.6838 41.2648C43.3409 41.2648 41.2563 42.4043 39.9432 44.1638C39.822 44.1154 39.6904 44.0876 39.5522 44.0876H32.0563C31.9241 44.0876 31.7986 44.1132 31.6819 44.1577C30.3681 42.4021 28.2863 41.2648 25.9457 41.2648C23.3539 41.2648 21.0788 42.6587 19.8136 44.7433C18.5488 42.6587 16.2737 41.2648 13.682 41.2648C11.5192 41.2648 9.57779 42.2367 8.25909 43.7697L6.62434 39.5208H65.6851L63.5052 43.9284Z"/>
<path d="M61.4983 30.5427C62.0825 30.5427 62.5554 30.0645 62.5554 29.4739V7.54146C62.5554 6.95141 62.0825 6.4727 61.4983 6.4727H11.1933C10.6091 6.4727 10.1361 6.95141 10.1361 7.54146V29.4739C10.1361 30.0645 10.6091 30.5427 11.1933 30.5427H61.4983ZM25.9699 8.61022H28.4289V28.4052H25.9699V8.61022ZM23.8556 28.4052H21.3965V8.61022H23.8556V28.4052ZM30.5432 8.61022H33.0022V28.4052H30.5432V8.61022ZM35.1165 8.61022H37.575V28.4052H35.1165V8.61022ZM39.6893 8.61022H42.1483V28.4052H39.6893V8.61022ZM44.2627 8.61022H46.7217V28.4052H44.2627V8.61022ZM48.836 8.61022H51.2944V28.4052H48.836V8.61022ZM53.4088 8.61022H55.8678V28.4052H53.4088V8.61022ZM60.4411 28.4052H57.9827V8.61022H60.4411V28.4052ZM12.2504 8.61022H14.7094V11.3378C14.7094 11.9278 15.1824 12.4066 15.7666 12.4066C16.3502 12.4066 16.8238 11.9278 16.8238 11.3378V8.61022H19.2828V28.4052H16.8238V17.0312C16.8238 16.4411 16.3508 15.9624 15.7666 15.9624C15.1824 15.9624 14.7094 16.4411 14.7094 17.0312V28.4052H12.2504V8.61022Z"/>
<path d="M45.6584 45.1469C43.8117 45.1469 42.3091 46.666 42.3091 48.5324C42.3091 50.3994 43.8117 51.9185 45.6584 51.9185C47.5046 51.9185 49.0072 50.3994 49.0072 48.5324C49.0072 46.6654 47.5046 45.1469 45.6584 45.1469ZM45.6584 49.781C44.9773 49.781 44.4234 49.221 44.4234 48.5324C44.4234 47.8444 44.9773 47.2844 45.6584 47.2844C46.339 47.2844 46.8929 47.8444 46.8929 48.5324C46.8929 49.221 46.339 49.781 45.6584 49.781Z"/>
<path d="M57.9215 45.1469C56.0754 45.1469 54.5728 46.666 54.5728 48.5324C54.5728 50.3994 56.0754 51.9185 57.9215 51.9185C59.7683 51.9185 61.2703 50.3994 61.2703 48.5324C61.2703 46.6654 59.7683 45.1469 57.9215 45.1469ZM57.9215 49.781C57.241 49.781 56.6871 49.221 56.6871 48.5324C56.6871 47.8444 57.241 47.2844 57.9215 47.2844C58.6026 47.2844 59.1565 47.8444 59.1565 48.5324C59.1565 49.221 58.6026 49.781 57.9215 49.781Z"/>
<path d="M13.6561 45.1469C11.8099 45.1469 10.3073 46.666 10.3073 48.5324C10.3073 50.3994 11.8099 51.9185 13.6561 51.9185C15.5029 51.9185 17.0055 50.3994 17.0055 48.5324C17.0055 46.6654 15.5029 45.1469 13.6561 45.1469ZM13.6561 49.781C12.9756 49.781 12.4217 49.221 12.4217 48.5324C12.4217 47.8444 12.9756 47.2844 13.6561 47.2844C14.3372 47.2844 14.8911 47.8444 14.8911 48.5324C14.8911 49.221 14.3372 49.781 13.6561 49.781Z"/>
<path d="M25.9198 45.1469C24.073 45.1469 22.571 46.666 22.571 48.5324C22.571 50.3994 24.073 51.9185 25.9198 51.9185C27.7665 51.9185 29.2686 50.3994 29.2686 48.5324C29.2686 46.6654 27.7665 45.1469 25.9198 45.1469ZM25.9198 49.781C25.2392 49.781 24.6853 49.221 24.6853 48.5324C24.6853 47.8444 25.2392 47.2844 25.9198 47.2844C26.6003 47.2844 27.1542 47.8444 27.1542 48.5324C27.1542 49.221 26.6003 49.781 25.9198 49.781Z"/>
</mask>
<path d="M71.1118 32.7593C70.5277 32.7593 70.0547 33.238 70.0547 33.828V35.071H68.6963V34.3836C68.6963 33.4879 67.9762 32.7598 67.0902 32.7598H66.4752V1.51742C66.4752 0.68078 65.8024 0 64.9748 0H63.1743C62.1931 0 61.3832 0.753144 61.2791 1.71726H11.1415C11.038 0.753144 10.2275 0 9.24632 0H7.45575C6.62819 0 5.9548 0.68078 5.9548 1.51742V32.7593H5.07879C4.19341 32.7593 3.47267 33.4879 3.47267 34.3836V35.071H2.11433V33.828C2.11433 33.238 1.64136 32.7593 1.05716 32.7593C0.472971 32.7593 0 33.238 0 33.828V38.4515C0 39.0416 0.472971 39.5203 1.05716 39.5203C1.64136 39.5203 2.11433 39.0416 2.11433 38.4515V37.2085H3.47267V37.896C3.47267 38.4927 3.79312 39.0137 4.26885 39.2965L6.56928 45.2744C6.65903 45.5076 6.82091 45.6902 7.01912 45.8076C6.68105 46.6498 6.49329 47.5689 6.49329 48.5324C6.49329 52.5397 9.71819 55.8 13.682 55.8C16.2732 55.8 18.5483 54.4062 19.8136 52.3215C21.0788 54.4062 23.3539 55.8 25.9457 55.8C29.9095 55.8 33.1344 52.5397 33.1344 48.5324C33.1344 47.7258 33.0017 46.9504 32.7605 46.2251H38.8684C38.6278 46.9504 38.4951 47.7258 38.4951 48.5324C38.4951 52.5397 41.72 55.8 45.6838 55.8C48.2755 55.8 50.5506 54.4062 51.8153 52.3215C53.0806 54.4062 55.3557 55.8 57.9474 55.8C61.9112 55.8 65.1361 52.5397 65.1361 48.5324C65.1361 47.6507 64.9798 46.8057 64.694 46.023C64.8294 45.9251 64.9456 45.7954 65.0255 45.6345L68.3407 38.9302C68.3473 38.9174 68.3517 38.9041 68.3572 38.8907C68.5692 38.6157 68.6963 38.2712 68.6963 37.8966V37.2085H70.0547V38.4515C70.0547 39.0421 70.5277 39.5203 71.1118 39.5203C71.696 39.5203 72.169 39.0421 72.169 38.4515V33.8286C72.169 33.238 71.6955 32.7593 71.1118 32.7593ZM5.58645 34.8968H54.5694C55.1531 34.8968 55.6266 34.4186 55.6266 33.828C55.6266 33.238 55.1531 32.7593 54.5694 32.7593H8.06913V2.13753H9.04976C9.15382 3.10164 9.96376 3.85478 10.9449 3.85478H61.4751C62.4563 3.85478 63.2668 3.10164 63.3703 2.13753H64.3609V32.7593H59.1279C58.5437 32.7593 58.0708 33.238 58.0708 33.828C58.0708 34.4186 58.5437 34.8968 59.1279 34.8968H66.582V37.3828H5.58645V34.8968ZM13.682 53.663C10.8838 53.663 8.60762 51.3613 8.60762 48.533C8.60762 45.7041 10.8838 43.4024 13.682 43.4024C16.4802 43.4024 18.7564 45.7041 18.7564 48.533C18.7564 51.3613 16.4802 53.663 13.682 53.663ZM25.9457 53.663C23.1469 53.663 20.8707 51.3613 20.8707 48.533C20.8707 45.7041 23.1469 43.4024 25.9457 43.4024C28.7438 43.4024 31.02 45.7041 31.02 48.533C31.02 51.3613 28.7438 53.663 25.9457 53.663ZM45.6838 53.663C42.8856 53.663 40.6094 51.3613 40.6094 48.533C40.6094 45.7041 42.8856 43.4024 45.6838 43.4024C48.4819 43.4024 50.7582 45.7041 50.7582 48.533C50.7582 51.3613 48.4819 53.663 45.6838 53.663ZM57.9474 53.663C55.1492 53.663 52.8725 51.3613 52.8725 48.533C52.8725 45.7041 55.1492 43.4024 57.9474 43.4024C60.7456 43.4024 63.0218 45.7041 63.0218 48.533C63.0218 51.3613 60.7456 53.663 57.9474 53.663ZM63.5052 43.9284C62.1854 42.3035 60.1845 41.2648 57.9474 41.2648C55.3557 41.2648 53.0806 42.6587 51.8159 44.7433C50.5506 42.6587 48.2755 41.2648 45.6838 41.2648C43.3409 41.2648 41.2563 42.4043 39.9432 44.1638C39.822 44.1154 39.6904 44.0876 39.5522 44.0876H32.0563C31.9241 44.0876 31.7986 44.1132 31.6819 44.1577C30.3681 42.4021 28.2863 41.2648 25.9457 41.2648C23.3539 41.2648 21.0788 42.6587 19.8136 44.7433C18.5488 42.6587 16.2737 41.2648 13.682 41.2648C11.5192 41.2648 9.57779 42.2367 8.25909 43.7697L6.62434 39.5208H65.6851L63.5052 43.9284Z" fill="white"/>
<path d="M61.4983 30.5427C62.0825 30.5427 62.5554 30.0645 62.5554 29.4739V7.54146C62.5554 6.95141 62.0825 6.4727 61.4983 6.4727H11.1933C10.6091 6.4727 10.1361 6.95141 10.1361 7.54146V29.4739C10.1361 30.0645 10.6091 30.5427 11.1933 30.5427H61.4983ZM25.9699 8.61022H28.4289V28.4052H25.9699V8.61022ZM23.8556 28.4052H21.3965V8.61022H23.8556V28.4052ZM30.5432 8.61022H33.0022V28.4052H30.5432V8.61022ZM35.1165 8.61022H37.575V28.4052H35.1165V8.61022ZM39.6893 8.61022H42.1483V28.4052H39.6893V8.61022ZM44.2627 8.61022H46.7217V28.4052H44.2627V8.61022ZM48.836 8.61022H51.2944V28.4052H48.836V8.61022ZM53.4088 8.61022H55.8678V28.4052H53.4088V8.61022ZM60.4411 28.4052H57.9827V8.61022H60.4411V28.4052ZM12.2504 8.61022H14.7094V11.3378C14.7094 11.9278 15.1824 12.4066 15.7666 12.4066C16.3502 12.4066 16.8238 11.9278 16.8238 11.3378V8.61022H19.2828V28.4052H16.8238V17.0312C16.8238 16.4411 16.3508 15.9624 15.7666 15.9624C15.1824 15.9624 14.7094 16.4411 14.7094 17.0312V28.4052H12.2504V8.61022Z" fill="white"/>
<path d="M45.6584 45.1469C43.8117 45.1469 42.3091 46.666 42.3091 48.5324C42.3091 50.3994 43.8117 51.9185 45.6584 51.9185C47.5046 51.9185 49.0072 50.3994 49.0072 48.5324C49.0072 46.6654 47.5046 45.1469 45.6584 45.1469ZM45.6584 49.781C44.9773 49.781 44.4234 49.221 44.4234 48.5324C44.4234 47.8444 44.9773 47.2844 45.6584 47.2844C46.339 47.2844 46.8929 47.8444 46.8929 48.5324C46.8929 49.221 46.339 49.781 45.6584 49.781Z" fill="white"/>
<path d="M57.9215 45.1469C56.0754 45.1469 54.5728 46.666 54.5728 48.5324C54.5728 50.3994 56.0754 51.9185 57.9215 51.9185C59.7683 51.9185 61.2703 50.3994 61.2703 48.5324C61.2703 46.6654 59.7683 45.1469 57.9215 45.1469ZM57.9215 49.781C57.241 49.781 56.6871 49.221 56.6871 48.5324C56.6871 47.8444 57.241 47.2844 57.9215 47.2844C58.6026 47.2844 59.1565 47.8444 59.1565 48.5324C59.1565 49.221 58.6026 49.781 57.9215 49.781Z" fill="white"/>
<path d="M13.6561 45.1469C11.8099 45.1469 10.3073 46.666 10.3073 48.5324C10.3073 50.3994 11.8099 51.9185 13.6561 51.9185C15.5029 51.9185 17.0055 50.3994 17.0055 48.5324C17.0055 46.6654 15.5029 45.1469 13.6561 45.1469ZM13.6561 49.781C12.9756 49.781 12.4217 49.221 12.4217 48.5324C12.4217 47.8444 12.9756 47.2844 13.6561 47.2844C14.3372 47.2844 14.8911 47.8444 14.8911 48.5324C14.8911 49.221 14.3372 49.781 13.6561 49.781Z" fill="white"/>
<path d="M25.9198 45.1469C24.073 45.1469 22.571 46.666 22.571 48.5324C22.571 50.3994 24.073 51.9185 25.9198 51.9185C27.7665 51.9185 29.2686 50.3994 29.2686 48.5324C29.2686 46.6654 27.7665 45.1469 25.9198 45.1469ZM25.9198 49.781C25.2392 49.781 24.6853 49.221 24.6853 48.5324C24.6853 47.8444 25.2392 47.2844 25.9198 47.2844C26.6003 47.2844 27.1542 47.8444 27.1542 48.5324C27.1542 49.221 26.6003 49.781 25.9198 49.781Z" fill="white"/>
<path d="M71.1118 32.7593C70.5277 32.7593 70.0547 33.238 70.0547 33.828V35.071H68.6963V34.3836C68.6963 33.4879 67.9762 32.7598 67.0902 32.7598H66.4752V1.51742C66.4752 0.68078 65.8024 0 64.9748 0H63.1743C62.1931 0 61.3832 0.753144 61.2791 1.71726H11.1415C11.038 0.753144 10.2275 0 9.24632 0H7.45575C6.62819 0 5.9548 0.68078 5.9548 1.51742V32.7593H5.07879C4.19341 32.7593 3.47267 33.4879 3.47267 34.3836V35.071H2.11433V33.828C2.11433 33.238 1.64136 32.7593 1.05716 32.7593C0.472971 32.7593 0 33.238 0 33.828V38.4515C0 39.0416 0.472971 39.5203 1.05716 39.5203C1.64136 39.5203 2.11433 39.0416 2.11433 38.4515V37.2085H3.47267V37.896C3.47267 38.4927 3.79312 39.0137 4.26885 39.2965L6.56928 45.2744C6.65903 45.5076 6.82091 45.6902 7.01912 45.8076C6.68105 46.6498 6.49329 47.5689 6.49329 48.5324C6.49329 52.5397 9.71819 55.8 13.682 55.8C16.2732 55.8 18.5483 54.4062 19.8136 52.3215C21.0788 54.4062 23.3539 55.8 25.9457 55.8C29.9095 55.8 33.1344 52.5397 33.1344 48.5324C33.1344 47.7258 33.0017 46.9504 32.7605 46.2251H38.8684C38.6278 46.9504 38.4951 47.7258 38.4951 48.5324C38.4951 52.5397 41.72 55.8 45.6838 55.8C48.2755 55.8 50.5506 54.4062 51.8153 52.3215C53.0806 54.4062 55.3557 55.8 57.9474 55.8C61.9112 55.8 65.1361 52.5397 65.1361 48.5324C65.1361 47.6507 64.9798 46.8057 64.694 46.023C64.8294 45.9251 64.9456 45.7954 65.0255 45.6345L68.3407 38.9302C68.3473 38.9174 68.3517 38.9041 68.3572 38.8907C68.5692 38.6157 68.6963 38.2712 68.6963 37.8966V37.2085H70.0547V38.4515C70.0547 39.0421 70.5277 39.5203 71.1118 39.5203C71.696 39.5203 72.169 39.0421 72.169 38.4515V33.8286C72.169 33.238 71.6955 32.7593 71.1118 32.7593ZM5.58645 34.8968H54.5694C55.1531 34.8968 55.6266 34.4186 55.6266 33.828C55.6266 33.238 55.1531 32.7593 54.5694 32.7593H8.06913V2.13753H9.04976C9.15382 3.10164 9.96376 3.85478 10.9449 3.85478H61.4751C62.4563 3.85478 63.2668 3.10164 63.3703 2.13753H64.3609V32.7593H59.1279C58.5437 32.7593 58.0708 33.238 58.0708 33.828C58.0708 34.4186 58.5437 34.8968 59.1279 34.8968H66.582V37.3828H5.58645V34.8968ZM13.682 53.663C10.8838 53.663 8.60762 51.3613 8.60762 48.533C8.60762 45.7041 10.8838 43.4024 13.682 43.4024C16.4802 43.4024 18.7564 45.7041 18.7564 48.533C18.7564 51.3613 16.4802 53.663 13.682 53.663ZM25.9457 53.663C23.1469 53.663 20.8707 51.3613 20.8707 48.533C20.8707 45.7041 23.1469 43.4024 25.9457 43.4024C28.7438 43.4024 31.02 45.7041 31.02 48.533C31.02 51.3613 28.7438 53.663 25.9457 53.663ZM45.6838 53.663C42.8856 53.663 40.6094 51.3613 40.6094 48.533C40.6094 45.7041 42.8856 43.4024 45.6838 43.4024C48.4819 43.4024 50.7582 45.7041 50.7582 48.533C50.7582 51.3613 48.4819 53.663 45.6838 53.663ZM57.9474 53.663C55.1492 53.663 52.8725 51.3613 52.8725 48.533C52.8725 45.7041 55.1492 43.4024 57.9474 43.4024C60.7456 43.4024 63.0218 45.7041 63.0218 48.533C63.0218 51.3613 60.7456 53.663 57.9474 53.663ZM63.5052 43.9284C62.1854 42.3035 60.1845 41.2648 57.9474 41.2648C55.3557 41.2648 53.0806 42.6587 51.8159 44.7433C50.5506 42.6587 48.2755 41.2648 45.6838 41.2648C43.3409 41.2648 41.2563 42.4043 39.9432 44.1638C39.822 44.1154 39.6904 44.0876 39.5522 44.0876H32.0563C31.9241 44.0876 31.7986 44.1132 31.6819 44.1577C30.3681 42.4021 28.2863 41.2648 25.9457 41.2648C23.3539 41.2648 21.0788 42.6587 19.8136 44.7433C18.5488 42.6587 16.2737 41.2648 13.682 41.2648C11.5192 41.2648 9.57779 42.2367 8.25909 43.7697L6.62434 39.5208H65.6851L63.5052 43.9284Z" stroke="#751D26" mask="url(#path-1-inside-1_409_236)"/>
<path d="M61.4983 30.5427C62.0825 30.5427 62.5554 30.0645 62.5554 29.4739V7.54146C62.5554 6.95141 62.0825 6.4727 61.4983 6.4727H11.1933C10.6091 6.4727 10.1361 6.95141 10.1361 7.54146V29.4739C10.1361 30.0645 10.6091 30.5427 11.1933 30.5427H61.4983ZM25.9699 8.61022H28.4289V28.4052H25.9699V8.61022ZM23.8556 28.4052H21.3965V8.61022H23.8556V28.4052ZM30.5432 8.61022H33.0022V28.4052H30.5432V8.61022ZM35.1165 8.61022H37.575V28.4052H35.1165V8.61022ZM39.6893 8.61022H42.1483V28.4052H39.6893V8.61022ZM44.2627 8.61022H46.7217V28.4052H44.2627V8.61022ZM48.836 8.61022H51.2944V28.4052H48.836V8.61022ZM53.4088 8.61022H55.8678V28.4052H53.4088V8.61022ZM60.4411 28.4052H57.9827V8.61022H60.4411V28.4052ZM12.2504 8.61022H14.7094V11.3378C14.7094 11.9278 15.1824 12.4066 15.7666 12.4066C16.3502 12.4066 16.8238 11.9278 16.8238 11.3378V8.61022H19.2828V28.4052H16.8238V17.0312C16.8238 16.4411 16.3508 15.9624 15.7666 15.9624C15.1824 15.9624 14.7094 16.4411 14.7094 17.0312V28.4052H12.2504V8.61022Z" stroke="#751D26" mask="url(#path-1-inside-1_409_236)"/>
<path d="M45.6584 45.1469C43.8117 45.1469 42.3091 46.666 42.3091 48.5324C42.3091 50.3994 43.8117 51.9185 45.6584 51.9185C47.5046 51.9185 49.0072 50.3994 49.0072 48.5324C49.0072 46.6654 47.5046 45.1469 45.6584 45.1469ZM45.6584 49.781C44.9773 49.781 44.4234 49.221 44.4234 48.5324C44.4234 47.8444 44.9773 47.2844 45.6584 47.2844C46.339 47.2844 46.8929 47.8444 46.8929 48.5324C46.8929 49.221 46.339 49.781 45.6584 49.781Z" stroke="#751D26" mask="url(#path-1-inside-1_409_236)"/>
<path d="M57.9215 45.1469C56.0754 45.1469 54.5728 46.666 54.5728 48.5324C54.5728 50.3994 56.0754 51.9185 57.9215 51.9185C59.7683 51.9185 61.2703 50.3994 61.2703 48.5324C61.2703 46.6654 59.7683 45.1469 57.9215 45.1469ZM57.9215 49.781C57.241 49.781 56.6871 49.221 56.6871 48.5324C56.6871 47.8444 57.241 47.2844 57.9215 47.2844C58.6026 47.2844 59.1565 47.8444 59.1565 48.5324C59.1565 49.221 58.6026 49.781 57.9215 49.781Z" stroke="#751D26" mask="url(#path-1-inside-1_409_236)"/>
<path d="M13.6561 45.1469C11.8099 45.1469 10.3073 46.666 10.3073 48.5324C10.3073 50.3994 11.8099 51.9185 13.6561 51.9185C15.5029 51.9185 17.0055 50.3994 17.0055 48.5324C17.0055 46.6654 15.5029 45.1469 13.6561 45.1469ZM13.6561 49.781C12.9756 49.781 12.4217 49.221 12.4217 48.5324C12.4217 47.8444 12.9756 47.2844 13.6561 47.2844C14.3372 47.2844 14.8911 47.8444 14.8911 48.5324C14.8911 49.221 14.3372 49.781 13.6561 49.781Z" stroke="#751D26" mask="url(#path-1-inside-1_409_236)"/>
<path d="M25.9198 45.1469C24.073 45.1469 22.571 46.666 22.571 48.5324C22.571 50.3994 24.073 51.9185 25.9198 51.9185C27.7665 51.9185 29.2686 50.3994 29.2686 48.5324C29.2686 46.6654 27.7665 45.1469 25.9198 45.1469ZM25.9198 49.781C25.2392 49.781 24.6853 49.221 24.6853 48.5324C24.6853 47.8444 25.2392 47.2844 25.9198 47.2844C26.6003 47.2844 27.1542 47.8444 27.1542 48.5324C27.1542 49.221 26.6003 49.781 25.9198 49.781Z" stroke="#751D26" mask="url(#path-1-inside-1_409_236)"/>
</svg>
