<svg width="71" height="71" viewBox="0 0 71 71" fill="none" xmlns="http://www.w3.org/2000/svg">
<path d="M3.5445 63.9002H7.089V67.4501C7.089 69.4106 8.67594 71 10.6335 71H53.1686C55.1267 71 56.7136 69.4106 56.7136 67.4501V35.421L64.2469 28.4164L65.8536 30.1501L59.4536 36.1022C58.9753 36.5472 58.9483 37.2962 59.3926 37.7753C59.8369 38.2539 60.5847 38.2808 61.0626 37.8359L67.4653 31.8859C67.9256 31.4591 68.1972 30.8665 68.2203 30.2387C68.244 29.6115 68.0174 29.0002 67.5907 28.5398L65.9834 26.8061L69.4454 23.5861C70.7074 22.4417 71.2578 20.7064 70.8856 19.0421C70.5133 17.3784 69.2761 16.044 67.6473 15.5484C66.0181 15.0527 64.2491 15.4729 63.0157 16.6482L56.7136 22.5034V10.6498C56.7136 8.6892 55.1267 7.09983 53.1686 7.09983H49.6241V3.54992C49.6241 1.58937 48.0371 0 46.0796 0H12.9969C12.9721 0 12.9496 0.0132172 12.9237 0.0143186C12.8192 0.0209273 12.7164 0.0418544 12.6174 0.0754481C12.5795 0.0886653 12.5443 0.0980274 12.5075 0.114549C12.3793 0.172374 12.2617 0.252228 12.1616 0.351357L0.346422 12.1846C0.247444 12.2854 0.167162 12.4027 0.109975 12.5315C0.0934788 12.5668 0.0841309 12.6048 0.0709339 12.6417C0.0368417 12.7403 0.0164963 12.8438 0.00934788 12.9479C0.013197 12.9694 0 12.9919 0 13.0167V60.3502C0 62.3108 1.58694 63.9002 3.5445 63.9002ZM54.3503 67.4501C54.3503 68.1038 53.8213 68.6336 53.1686 68.6336H10.6335C9.98134 68.6336 9.45236 68.1038 9.45236 67.4501V63.9002H46.0796C48.0371 63.9002 49.6241 62.3108 49.6241 60.3502V42.0086L54.3503 37.6145V67.4501ZM32.3739 53.1673C31.1246 54.1987 29.701 54.9978 28.1701 55.5254C28.7849 54.0209 29.679 52.6457 30.8046 51.4738L30.8722 51.5459L32.3739 53.1673ZM34.2193 51.6798L32.4223 49.7412L37.0171 44.2567L40.0183 47.4965L34.2193 51.6798ZM41.8571 45.9997L39.9039 43.902L38.642 42.5395L59.424 23.2121L62.6402 26.6855L47.6407 40.6274C47.6242 40.6429 47.6071 40.6572 47.5917 40.6737L41.8571 45.9997ZM64.6192 18.3818C65.0756 17.95 65.687 17.7221 66.3145 17.7501C67.2696 17.7859 68.1087 18.3945 68.4414 19.2916C68.7735 20.1887 68.5343 21.1976 67.8338 21.8491L64.3706 25.0703L61.1561 21.6007L64.6192 18.3818ZM53.1686 9.46681C53.8213 9.46681 54.3503 9.9966 54.3503 10.6498V24.7007L49.6241 29.0949V9.46681H53.1686ZM47.2613 3.54992V31.2923L36.1681 41.6061C36.1516 41.6264 36.1367 41.6479 36.123 41.6699C36.1065 41.6865 36.0828 41.6947 36.0674 41.7124L34.3331 43.7836H8.27068C7.61798 43.7836 7.089 44.3134 7.089 44.9665C7.089 45.6202 7.61798 46.15 8.27068 46.15H32.3492L29.993 48.9614L29.8346 49.1096C28.2202 50.5982 26.9395 52.4133 26.0773 54.4345H15.3597C14.7075 54.4345 14.1785 54.9642 14.1785 55.6179C14.1785 56.2716 14.7075 56.8014 15.3597 56.8014H26.1543C26.2214 56.927 26.3006 57.046 26.3907 57.1561C26.8279 57.6242 27.4404 57.8874 28.0805 57.8814C28.3428 57.8819 28.6034 57.8417 28.8542 57.7635C31.0179 57.0548 32.9991 55.8773 34.6565 54.3149L34.8148 54.1696L42.4856 48.6349C42.5043 48.6211 42.5125 48.5985 42.5301 48.5842C42.5483 48.5699 42.5802 48.5594 42.6 48.5401L47.2613 44.2093V60.3502C47.2613 61.0034 46.7323 61.5332 46.0796 61.5332H3.5445C2.8918 61.5332 2.36282 61.0034 2.36282 60.3502V14.2002H10.6335C12.5916 14.2002 14.1785 12.6109 14.1785 10.6498V2.36643H46.0796C46.7323 2.36643 47.2613 2.89622 47.2613 3.54992ZM11.8152 4.04005V10.6498C11.8152 11.3035 11.2862 11.8332 10.6335 11.8332H4.03389L11.8152 4.04005Z" fill="black"/>
<path fill-rule="evenodd" clip-rule="evenodd" d="M8.27068 56.8003H10.6335C11.2862 56.8003 11.8152 56.2705 11.8152 55.6168C11.8152 54.9631 11.2862 54.4333 10.6335 54.4333H8.27068C7.61798 54.4333 7.089 54.9631 7.089 55.6168C7.089 56.2705 7.61798 56.8003 8.27068 56.8003Z" fill="black"/>
<path fill-rule="evenodd" clip-rule="evenodd" d="M7.089 21.3001C7.089 21.9538 7.61798 22.4835 8.27068 22.4835H41.3534C42.0061 22.4835 42.5351 21.9538 42.5351 21.3001C42.5351 20.6464 42.0061 20.1166 41.3534 20.1166H8.27068C7.61798 20.1166 7.089 20.6464 7.089 21.3001Z" fill="black"/>
<path fill-rule="evenodd" clip-rule="evenodd" d="M41.3534 26.0335H35.4461C34.7934 26.0335 34.2644 26.5632 34.2644 27.2169C34.2644 27.8701 34.7934 28.3999 35.4461 28.3999H41.3534C42.0061 28.3999 42.5351 27.8701 42.5351 27.2169C42.5351 26.5632 42.0061 26.0335 41.3534 26.0335Z" fill="black"/>
<path fill-rule="evenodd" clip-rule="evenodd" d="M8.27068 28.3999H29.5382C30.1909 28.3999 30.7199 27.8701 30.7199 27.2169C30.7199 26.5632 30.1909 26.0335 29.5382 26.0335H8.27068C7.61798 26.0335 7.089 26.5632 7.089 27.2169C7.089 27.8701 7.61798 28.3999 8.27068 28.3999Z" fill="black"/>
<path fill-rule="evenodd" clip-rule="evenodd" d="M14.1785 31.9498H8.27068C7.61798 31.9498 7.089 32.4796 7.089 33.1333C7.089 33.787 7.61798 34.3168 8.27068 34.3168H14.1785C14.8307 34.3168 15.3597 33.787 15.3597 33.1333C15.3597 32.4796 14.8307 31.9498 14.1785 31.9498Z" fill="black"/>
<path fill-rule="evenodd" clip-rule="evenodd" d="M40.1723 31.9498H20.0859C19.4337 31.9498 18.9047 32.4796 18.9047 33.1333C18.9047 33.787 19.4337 34.3168 20.0859 34.3168H40.1723C40.8244 34.3168 41.3534 33.787 41.3534 33.1333C41.3534 32.4796 40.8244 31.9498 40.1723 31.9498Z" fill="black"/>
<path fill-rule="evenodd" clip-rule="evenodd" d="M11.8152 37.8667H8.27068C7.61798 37.8667 7.089 38.3965 7.089 39.0502C7.089 39.7033 7.61798 40.2331 8.27068 40.2331H11.8152C12.4679 40.2331 12.9969 39.7033 12.9969 39.0502C12.9969 38.3965 12.4679 37.8667 11.8152 37.8667Z" fill="black"/>
<path fill-rule="evenodd" clip-rule="evenodd" d="M33.0827 37.8667H17.723C17.0703 37.8667 16.5414 38.3965 16.5414 39.0502C16.5414 39.7033 17.0703 40.2331 17.723 40.2331H33.0827C33.7354 40.2331 34.2644 39.7033 34.2644 39.0502C34.2644 38.3965 33.7354 37.8667 33.0827 37.8667Z" fill="black"/>
<path fill-rule="evenodd" clip-rule="evenodd" d="M22.4492 10.6498H31.901C32.5537 10.6498 33.0827 10.12 33.0827 9.46681C33.0827 8.81311 32.5537 8.28332 31.901 8.28332H22.4492C21.7965 8.28332 21.2675 8.81311 21.2675 9.46681C21.2675 10.12 21.7965 10.6498 22.4492 10.6498Z" fill="black"/>
</svg>
