<svg width="71" height="70" viewBox="0 0 71 70" fill="none" xmlns="http://www.w3.org/2000/svg">
<path d="M21.3002 63V65.3333H18.9335V63H21.3002ZM14.2001 63V65.3333H16.5668V63H14.2001ZM0.144517 64.4089C0.0481522 63.9453 -0.000267538 63.4732 1.11177e-06 63V42H2.36669V63C2.3681 64.2372 2.86725 65.4234 3.75462 66.2983C4.642 67.1732 5.84513 67.6653 7.10007 67.6667H24.8502V59.5H10.6501C10.3363 59.5 10.0353 59.3771 9.81336 59.1583C9.59144 58.9395 9.46676 58.6427 9.46676 58.3333V44.3333H11.8335V57.1667H12.2393L18.6494 45.6429L15.9073 42.6697C15.9058 42.6681 15.9046 42.6662 15.903 42.6646L7.7805 33.8559C6.30456 33.9817 4.92998 34.648 3.92782 35.7237C2.92565 36.7993 2.36867 38.2061 2.36669 39.6667H1.11177e-06C0.00263351 37.7037 0.72134 35.8071 2.02487 34.3233C3.32841 32.8395 5.12979 31.8675 7.10007 31.5847V10.7247L5.03099 5.62495C4.74261 4.87765 4.67593 4.06486 4.83875 3.28158C5.00157 2.4983 5.38716 1.77689 5.95045 1.20168C6.33612 0.819748 6.7947 0.516918 7.29973 0.310668C7.80475 0.104418 8.34621 -0.00116688 8.89284 9.72646e-06H28.9742C29.6541 0.000227773 30.3236 0.164724 30.924 0.479105C31.5245 0.793485 32.0377 1.24817 32.4186 1.80336C32.7996 2.35856 33.0367 2.99734 33.1093 3.66382C33.1819 4.33029 33.0876 5.00414 32.8349 5.6264L31.2107 9.63099L34.1644 10.2134C34.9271 10.3638 35.6059 10.7883 36.0688 11.4046C36.5316 12.0209 36.7455 12.7848 36.6689 13.5479C36.5922 14.3111 36.2305 15.0188 35.654 15.5336C35.0775 16.0484 34.3274 16.3334 33.5496 16.3333C33.0414 16.3333 32.534 16.3218 32.0274 16.2986L34.2324 21.7334C34.3042 21.9104 34.3309 22.1021 34.3102 22.2917C34.2895 22.4812 34.222 22.6629 34.1136 22.8208C34.0051 22.9786 33.8591 23.1079 33.6883 23.1973C33.5175 23.2866 33.327 23.3333 33.1337 23.3333H29.5836V29.1667C29.5843 29.9863 29.3646 30.7914 28.9468 31.5H29.0911C30.8913 31.4999 32.6623 31.9497 34.2384 32.8074C35.8145 33.6651 37.1444 34.9028 38.1037 36.4047L41.3644 41.5109L39.361 42.754L36.1008 37.6486C35.5675 36.8184 34.8874 36.0893 34.0929 35.4958L22.0386 57.1667H29.3444L29.0825 56.9454C28.5955 56.5347 28.2387 55.9945 28.0548 55.3893C27.8708 54.784 27.8675 54.1394 28.0451 53.5323C28.2227 52.9253 28.5738 52.3814 29.0565 51.9658C29.5391 51.5502 30.1329 51.2803 30.767 51.1884V44.3333H33.1337V47.5052L38.2266 55.7229L40.3646 57.4092L43.2459 38.002C43.3809 37.1639 43.8151 36.4009 44.4702 35.8505C45.1254 35.3001 45.9583 34.9985 46.819 35H49.8049C50.5419 33.6398 52.057 32.6667 53.6029 32.6667H55.0837L55.1576 32.3798C55.6208 30.578 57.4433 29.1667 59.306 29.1667C59.7541 29.1495 60.2003 29.2331 60.6108 29.4111C61.0213 29.5891 61.3853 29.8568 61.6753 30.1941C61.9653 30.5313 62.1736 30.9292 62.2846 31.3576C62.3955 31.786 62.4061 32.2336 62.3155 32.6667H63.2084C63.6758 32.6563 64.1394 32.7519 64.5634 32.9461C64.9874 33.1403 65.3606 33.4278 65.6541 33.7867C65.9326 34.1426 66.1221 34.5583 66.2071 35H67.3915C67.9127 34.9987 68.428 35.1082 68.9025 35.3208C69.3769 35.5335 69.7993 35.8445 70.1409 36.2326C70.4714 36.6083 70.7159 37.0498 70.8577 37.5271C70.9996 38.0043 71.0356 38.5061 70.9631 38.9983L69.5689 48.384C70.0999 48.7381 70.513 49.2389 70.7564 49.8237C70.9998 50.4084 71.0625 51.051 70.9368 51.6708L69.4459 59.0198C69.2833 59.8124 68.8481 60.5253 68.2138 61.0379C67.5795 61.5506 66.785 61.8316 65.9648 61.8333H62.1478C61.6664 61.8333 61.1909 61.728 60.7557 61.5249C60.3205 61.3219 59.9365 61.0262 59.6312 60.6591C59.326 60.292 59.1071 59.8627 58.9905 59.4022C58.8739 58.9416 58.8624 58.4613 58.9568 57.9959L60.4475 50.6469C60.6102 49.8543 61.0454 49.1414 61.6797 48.6288C62.314 48.1161 63.1084 47.8351 63.9286 47.8333H67.2584L68.621 38.6604C68.6452 38.4997 68.6335 38.3357 68.5867 38.1799C68.5399 38.0241 68.4591 37.8802 68.35 37.7584C68.2306 37.6239 68.0832 37.5162 67.9178 37.4429C67.7524 37.3695 67.5729 37.3322 67.3915 37.3333H65.9301L65.256 39.9535C65.1913 40.2051 65.0434 40.4282 64.8356 40.5875C64.6278 40.7468 64.3721 40.8334 64.1089 40.8333H49.7005C49.5203 40.8333 49.3425 40.7928 49.1806 40.7148C49.0188 40.6367 48.8771 40.5233 48.7665 40.3831C48.6558 40.2429 48.5791 40.0796 48.5422 39.9058C48.5053 39.7319 48.5091 39.552 48.5534 39.3798L49.08 37.3333H46.819C46.5259 37.329 46.2408 37.428 46.0151 37.6125C45.7893 37.797 45.6378 38.0548 45.5876 38.3396L41.4298 66.3396C41.4059 66.4982 41.417 66.66 41.4622 66.8141C41.5074 66.9681 41.5858 67.1107 41.6919 67.2322C41.8077 67.3657 41.951 67.4734 42.1122 67.5482C42.2734 67.6231 42.4489 67.6633 42.6271 67.6662L42.6587 67.6674H63.2321C63.5252 67.6717 63.8103 67.5727 64.036 67.3882C64.2618 67.2038 64.4133 66.9459 64.4635 66.6611L64.8587 63.999L67.2005 64.337L66.8052 66.9998C66.6698 67.8375 66.2355 68.6001 65.5804 69.1502C64.9253 69.7002 64.0925 70.0016 63.2321 70H7.10007C5.46559 69.9979 3.8817 69.4409 2.6149 68.4226C1.34811 67.4043 0.475717 65.9869 0.144517 64.4089ZM68.4323 50.4875C68.3497 50.3867 68.2452 50.3055 68.1265 50.25C68.0078 50.1945 67.8779 50.166 67.7465 50.1667H63.9286C63.6552 50.1673 63.3904 50.261 63.179 50.4319C62.9676 50.6028 62.8225 50.8405 62.7683 51.1047L61.2776 58.4534C61.2519 58.5803 61.255 58.7113 61.2868 58.8369C61.3186 58.9625 61.3783 59.0796 61.4615 59.1797C61.5447 59.2798 61.6495 59.3605 61.7682 59.4159C61.8868 59.4713 62.0165 59.5 62.1478 59.5H65.9648C66.2383 59.4994 66.5031 59.4058 66.7145 59.2349C66.926 59.064 67.0711 58.8264 67.1253 58.5621L68.6161 51.2133C68.6427 51.0865 68.6399 50.9554 68.6081 50.8297C68.5763 50.7041 68.5162 50.5871 68.4323 50.4875ZM51.2214 38.5H63.188L63.8619 35.8798C63.9005 35.7712 63.9136 35.6554 63.9004 35.541C63.8872 35.4267 63.8479 35.3168 63.7856 35.2195C63.7123 35.1423 63.6223 35.0826 63.5222 35.0447C63.4222 35.0068 63.3147 34.9918 63.2079 35.0007H60.8071C60.6269 35.0007 60.4491 34.9602 60.2872 34.8822C60.1254 34.8041 59.9837 34.6907 59.8731 34.5505C59.7624 34.4103 59.6857 34.247 59.6488 34.0732C59.6118 33.8993 59.6157 33.7194 59.66 33.5472L59.9601 32.3805C59.9986 32.2719 60.0117 32.1561 59.9985 32.0417C59.9853 31.9273 59.9461 31.8174 59.8838 31.7201C59.8105 31.643 59.7204 31.5832 59.6203 31.5454C59.5203 31.5075 59.4128 31.4924 59.306 31.5013C58.5172 31.5013 57.6507 32.1805 57.4514 32.9548L57.1513 34.1215C57.0863 34.3728 56.9383 34.5956 56.7305 34.7547C56.5228 34.9138 56.2672 35.0001 56.0042 35H53.6029C52.814 35 51.9472 35.6791 51.7481 36.4535L51.2214 38.5ZM29.4665 11.6667H21.5583C25.3635 13.2057 29.4367 13.9982 33.5496 14C33.74 14 33.9236 13.9302 34.0647 13.8041C34.2058 13.6781 34.2944 13.5048 34.3132 13.318C34.3319 13.1312 34.2796 12.9442 34.1663 12.7933C34.053 12.6424 33.8869 12.5384 33.7002 12.5016L29.4665 11.6667ZM28.7871 9.32167L30.2025 5.83334H28.992C28.5389 5.83328 28.103 6.00401 27.7735 6.31056C27.444 6.61711 27.2458 7.03627 27.2197 7.48218C27.1935 7.9281 27.3412 8.367 27.6326 8.709C27.924 9.05099 28.3371 9.27018 28.7871 9.32167ZM9.08454 9.33334H25.2507C25.0725 8.96445 24.952 8.57111 24.8931 8.16667H11.8335V5.83334H25.2507C25.587 5.13567 26.1169 4.54622 26.7791 4.13327C27.4412 3.72031 28.2085 3.50075 28.992 3.50001H30.658C30.5326 3.1587 30.3039 2.86368 30.0026 2.65497C29.7014 2.44625 29.3424 2.33397 28.9742 2.33334H8.89284C8.5996 2.33317 8.31079 2.40394 8.05174 2.53944C7.7927 2.67494 7.57134 2.87104 7.40707 3.11053C7.24279 3.35002 7.14064 3.62559 7.10955 3.91308C7.07846 4.20056 7.1194 4.49117 7.22876 4.75943L9.08454 9.33334ZM10.101 16.0183C10.6205 13.9751 12.4739 12.8333 14.5304 12.8333L14.9251 11.6667H9.46676V21.6834L11.1906 19.9838C10.6832 19.4679 10.317 18.8334 10.1264 18.1398C9.93585 17.4462 9.92712 16.7162 10.101 16.0183ZM9.46676 31.5H24.8502C25.4777 31.4993 26.0793 31.2532 26.5229 30.8158C26.9666 30.3783 27.2162 29.7853 27.2169 29.1667V26.8333H23.6669V24.5H27.2169V22.1667C27.2169 21.8573 27.3416 21.5605 27.5635 21.3417C27.7855 21.1229 28.0864 21 28.4003 21H31.3859L29.389 16.079C28.2025 15.9342 27.0246 15.728 25.8601 15.4611C26.027 15.8673 26.0746 16.3116 25.9973 16.7431C25.9201 17.1747 25.7211 17.5761 25.4232 17.9013C25.1253 18.2266 24.7405 18.4625 24.3128 18.5822C23.8852 18.7018 23.4321 18.7003 23.0053 18.5779C22.5785 18.4554 22.1953 18.2169 21.8996 17.8897C21.6039 17.5625 21.4077 17.1598 21.3333 16.7277C21.259 16.2957 21.3096 15.8517 21.4793 15.4467C21.649 15.0416 21.9309 14.6919 22.2929 14.4375C20.548 13.8335 18.8561 13.0898 17.2341 12.2138L16.5054 14.3693C16.4269 14.6014 16.2763 14.8033 16.0749 14.9464C15.8736 15.0895 15.6317 15.1666 15.3835 15.1667H14.2401C13.8164 15.1661 13.4048 15.3054 13.0708 15.5624C12.7368 15.8194 12.4996 16.1792 12.3972 16.5845C12.3045 16.9976 12.3515 17.4293 12.5308 17.8137C12.7102 18.1981 13.0121 18.5141 13.3906 18.7136L13.5421 18.7876C13.7104 18.8698 13.8565 18.9903 13.9682 19.1393C14.08 19.2882 14.1541 19.4612 14.1846 19.644C14.215 19.8268 14.2009 20.0141 14.1433 20.1904C14.0858 20.3668 13.9864 20.527 13.8536 20.658L9.46676 24.9833V31.5ZM23.3365 33.8333L22.5158 36.2607L22.831 38.1252L25.2184 33.8333H23.3365ZM16.506 36.4299L14.7503 33.8333H10.9584L16.0172 39.3196L16.506 36.4299ZM19.8528 43.4793L20.9911 41.433L20.1331 36.358C20.1014 36.1703 20.1166 35.9778 20.1775 35.7973L20.8417 33.8333H17.5946L18.7347 35.5195C18.9015 35.7661 18.9669 36.0662 18.9174 36.3586L18.0447 41.5183L19.8528 43.4793ZM19.3393 57.1667L32.0219 34.3655C31.0855 34.0153 30.0926 33.835 29.0911 33.8333H27.9194L14.9385 57.1667H19.3393ZM37.6895 58.4937L33.1337 60.2898V67.6667H39.2587C39.0641 67.1339 39.0055 66.5621 39.088 66.0017L39.9542 60.1692L37.6895 58.4937ZM30.6222 55.1733L33.5222 57.6233L35.7398 56.7483L31.8663 53.6932C31.7774 53.6233 31.677 53.5691 31.5694 53.5328C31.355 53.4615 31.1221 53.466 30.9107 53.5455C30.6992 53.6249 30.5224 53.7744 30.4105 53.9683C30.2986 54.1622 30.2585 54.3885 30.2973 54.6083C30.336 54.8281 30.4511 55.0278 30.6228 55.1731L30.6222 55.1733ZM27.2169 67.6667H30.767V59.5H27.2169V67.6667Z" fill="black"/>
</svg>
