<svg width="92" height="66" viewBox="0 0 92 66" fill="none" xmlns="http://www.w3.org/2000/svg">
<path d="M44.1684 16.586C40.4284 20.314 38.3244 25.3784 38.3208 30.6614V30.7182C38.3182 34.857 39.6133 38.8923 42.0234 42.2554C42.3385 42.7129 42.8761 42.9642 43.4288 42.9124C43.9816 42.8605 44.4632 42.5137 44.6878 42.0055C44.9125 41.4974 44.8452 40.9073 44.5118 40.463C44.3861 40.2865 44.2742 40.1008 44.1546 39.9197L70.5271 39.9765C71.3739 39.9765 72.0603 39.2894 72.0603 38.4419C72.0603 37.5944 71.3739 36.9073 70.5271 36.9073L62.7385 36.8904C64.2821 35.7792 65.358 34.1335 65.7573 32.2728H65.8785C69.2904 32.2702 72.0561 29.5033 72.0603 26.0883V24.5537C72.0603 23.7062 71.3739 23.0191 70.5271 23.0191C69.6804 23.0191 68.9939 23.7062 68.9939 24.5537V26.0883C68.9914 27.8078 67.5994 29.201 65.8815 29.2036H65.7742C65.0597 25.6252 61.9262 23.0455 58.2803 23.0343C54.6345 23.0231 51.4852 25.5836 50.7489 29.1575H41.4638C42.0133 23.1437 45.7305 17.8817 51.212 15.3584C56.6935 12.8352 63.1041 13.4349 68.0234 16.9313C68.711 17.4263 69.6693 17.2696 70.1638 16.5814C70.6583 15.8932 70.5018 14.9341 69.8142 14.4391C61.8883 8.79121 51.046 9.69951 44.1684 16.5876V16.586ZM42.5524 36.8428C41.973 35.3635 41.6065 33.8093 41.4638 32.2267H50.7489C51.1392 34.0959 52.2118 35.7522 53.757 36.872L42.5524 36.8428ZM58.2615 26.0883C60.8018 26.0883 62.8611 28.1495 62.8611 30.6921C62.8611 33.2348 60.8018 35.296 58.2615 35.296C55.7213 35.296 53.6619 33.2348 53.6619 30.6921C53.6619 28.1495 55.7213 26.0883 58.2615 26.0883Z" fill="black"/>
<path d="M75.1375 30.6921C75.1265 40.0105 67.5821 47.5618 58.2723 47.5728C54.7676 47.5902 51.3471 46.4983 48.4997 44.453C48.0549 44.1328 47.4732 44.0744 46.9738 44.2999C46.4744 44.5253 46.1331 45.0003 46.0784 45.546C46.0238 46.0916 46.2641 46.625 46.7089 46.9452C54.636 52.5787 65.4672 51.666 72.3417 44.7852C79.2162 37.9044 80.128 27.0632 74.4996 19.1289C74.1846 18.6713 73.647 18.4201 73.0942 18.4719C72.5415 18.5237 72.0599 18.8706 71.8352 19.3788C71.6106 19.8869 71.6779 20.4769 72.0113 20.9213C74.0513 23.7695 75.1449 27.1876 75.1375 30.6921Z" fill="black"/>
<path d="M58.2615 32.2267C59.1083 32.2267 59.7947 31.5397 59.7947 30.6921C59.7947 29.8446 59.1083 29.1575 58.2615 29.1575C57.4148 29.1575 56.7283 29.8446 56.7283 30.6921C56.7283 31.5397 57.4148 32.2267 58.2615 32.2267Z" fill="black"/>
<path d="M16.8652 32.2267C17.7119 32.2267 18.3984 31.5397 18.3984 30.6921C18.3984 29.8446 17.7119 29.1575 16.8652 29.1575C16.0184 29.1575 15.332 29.8446 15.332 30.6921C15.332 31.5397 16.0184 32.2267 16.8652 32.2267Z" fill="black"/>
<path d="M1.53325 36.7538C0.686484 36.7538 4.7295e-05 37.4409 4.7295e-05 38.2884C4.7295e-05 39.136 0.686484 39.8231 1.53325 39.8231L33.8837 39.8998C36.5347 46.9365 42.0906 52.4859 49.1264 55.1247C56.1622 57.7634 63.9934 57.2348 70.6115 53.6744L81.0372 64.1189C83.5466 66.6285 87.6134 66.6268 90.1207 64.1151C92.6279 61.6034 92.6262 57.5329 90.1169 55.0233L80.0698 44.9809C84.8815 37.6382 85.6752 28.3639 82.1814 20.3091C78.6875 12.2544 71.3759 6.50232 62.7309 5.00743C61.6576 4.37824 60.5231 3.75979 59.3578 3.1659C55.2372 1.08667 50.6873 0.00240867 46.0727 3.00832e-06H35.7236C32.0599 -0.00228062 28.5142 1.29564 25.7164 3.66311L14.8015 12.9168C14.7325 12.9753 14.655 13.0229 14.5716 13.058C9.02905 15.2417 3.64446 16.7533 3.5586 16.7779C1.43967 17.4094 -0.00954111 19.3637 4.7295e-05 21.5766V26.0883C0.00427107 29.5022 2.76814 32.2686 6.17884 32.2728H9.36636C9.75535 34.0728 10.7792 35.6723 12.2503 36.7784L1.53325 36.7538ZM87.9443 57.1856C89.2568 58.4959 89.2595 60.6231 87.9504 61.9367C86.6413 63.2504 84.5161 63.2532 83.2037 61.9429L73.2762 51.9925C74.4931 51.1395 75.6358 50.1852 76.6922 49.1397C77.2288 48.601 77.7286 48.0363 78.2131 47.4608L87.9443 57.1856ZM81.2596 30.6921C81.2604 41.674 73.5108 51.1272 62.7499 53.2705C51.9891 55.4137 41.2142 49.6501 37.0148 39.5045C32.8154 29.3588 36.3611 17.6569 45.4834 11.5551C54.6057 5.45333 66.764 6.65118 74.5227 14.4161C78.8501 18.723 81.276 24.5839 81.2596 30.6921ZM39.831 12.2446C39.3297 12.748 38.8682 13.2774 38.4128 13.8115H27.9641L31.6437 10.6916C32.7876 9.73322 34.2318 9.20793 35.7236 9.20764H43.4923C42.183 10.1076 40.9576 11.124 39.831 12.2446ZM3.06644 26.0883V24.5537H6.13284C6.9796 24.5537 7.66604 23.8666 7.66604 23.0191C7.66604 22.1716 6.9796 21.4845 6.13284 21.4845H3.08178C3.10803 20.6747 3.64214 19.9697 4.41412 19.7258C4.63951 19.6629 9.99803 18.159 15.7046 15.9108C16.0942 15.751 16.4564 15.5309 16.7778 15.2586L27.6942 6.00492C29.9393 4.10615 32.7844 3.06592 35.7236 3.06922H46.0727C49.248 3.07485 52.3963 3.65291 55.3669 4.7757C53.1686 5.02004 51.0106 5.54559 48.9459 6.33946C47.9935 6.2097 47.0338 6.14254 46.0727 6.13843H35.7236C33.5109 6.14061 31.3695 6.92118 29.6736 8.34366L22.7895 14.1752C22.2988 14.5913 22.1197 15.2696 22.341 15.8741C22.5622 16.4785 23.1368 16.8804 23.78 16.8807H36.1697C33.8549 20.5775 32.5141 24.8013 32.2723 29.1575H24.3779C23.6415 25.5836 20.4922 23.0231 16.8464 23.0343C13.2006 23.0455 10.067 25.6252 9.35256 29.2036H6.17884C4.46096 29.201 3.06898 27.8078 3.06644 26.0883ZM21.4648 30.6921C21.4648 33.2348 19.4055 35.296 16.8652 35.296C14.3249 35.296 12.2656 33.2348 12.2656 30.6921C12.2656 28.1495 14.3249 26.0883 16.8652 26.0883C19.4055 26.0883 21.4648 28.1495 21.4648 30.6921ZM24.3779 32.2267H32.2739C32.3617 33.7785 32.588 35.3192 32.95 36.8306L21.451 36.8045C22.9528 35.6879 23.994 34.0594 24.3779 32.2267Z" fill="black"/>
</svg>
