<svg width="1529" height="836" viewBox="0 0 1529 836" fill="none" xmlns="http://www.w3.org/2000/svg">
<path d="M480 431H1313.5C1432.52 431 1529 334.517 1529 215.5C1529 96.4826 1432.52 0 1313.5 0H308V22H1313.5C1420.37 22 1507 108.633 1507 215.5C1507 322.367 1420.37 409 1313.5 409H480V431Z" fill="#BC2024"/>
<path d="M327.5 836H213.912C95.7715 836 0 740.413 0 622.5C0 504.587 95.7715 409 213.912 409L1043 409V430.796H213.912C107.832 430.796 21.8379 516.625 21.8379 622.5C21.8379 728.375 107.832 814.204 213.912 814.204H327.5V836Z" fill="#BC2024"/>
</svg>
