<svg width="1920" height="2512" viewBox="0 0 1920 2512" fill="none" xmlns="http://www.w3.org/2000/svg">
<path d="M-867.264 1080.77C-810.007 1126.71 -749.854 1174.19 -677.812 1187.51C-588.222 1204.09 -490.077 1165.7 -407.392 1203.95C-394.863 1209.75 -382.772 1217.43 -374.857 1228.76C-350.539 1263.37 -373.038 1316.69 -347.912 1350.63C-330.23 1374.42 -296.348 1378.4 -266.743 1376.75C-237.137 1375.09 -205.815 1370.17 -179.173 1383.05C-142.125 1400.88 -127.979 1445.43 -101.203 1476.61C-70.049 1512.9 -22.829 1529.96 20.0461 1551.26C62.9213 1572.56 106.403 1604.31 115.766 1651.22C120.279 1673.93 116.069 1697.46 118.191 1720.51C122.839 1771.07 157.294 1814.34 195.925 1847.44C234.557 1880.53 278.813 1907.19 314.11 1943.83C349.407 1980.46 375.576 2031.45 365.742 2081.23C358.231 2119.52 331.253 2150.59 305.117 2179.41C248.972 2241.08 188.044 2303.8 108.76 2329.59C54.4676 2347.25 -4.27113 2346.07 -59.406 2360.93C-114.541 2375.79 -170.349 2414.85 -176.109 2471.74M-363.708 297.588C-343.214 345.181 -311.434 387.058 -271.121 419.591C-235.554 448.272 -194.161 468.999 -158.325 497.343C-122.489 525.687 -91.2339 564.748 -88.2363 610.483C-87.1249 627.671 -90.0889 645.028 -87.9333 662.149C-79.5469 728.24 -2.35134 762.718 24.8624 823.517C53.0192 886.372 21.7301 961.698 41.7026 1027.79C56.522 1077.1 99.4308 1121.18 89.9666 1171.73C82.961 1209.04 50.6279 1234.66 37.5936 1269.47C28.7693 1293.06 29.1735 1358.55 72.756 1329.53C81.4792 1323.73 87.4406 1314.63 92.4253 1305.4C105.527 1281.1 113.981 1256.97 143.99 1249.82C164.03 1245.04 184.945 1248.24 205.423 1250.43C260.322 1256.22 321.284 1237.42 355.941 1192.43C385.714 1153.8 394.673 1099.24 433.406 1069.82C460.35 1049.59 495.984 1045.62 525.791 1029.95C620.265 980.268 618.311 863.724 636.936 773.806C654.315 689.954 769.772 671.518 814.937 607.315C834.91 578.971 838.177 541.056 828.847 507.656C819.518 474.257 798.771 445.003 774.352 420.434M2194.25 283.702C2124.87 266.211 2052.32 309.35 2010.05 367.116C1967.78 424.883 1948.04 495.523 1922.48 562.356C1896.92 629.188 1861.38 696.964 1800.19 734.037C1783.58 744.147 1765.36 751.764 1750.04 763.729C1736.56 774.176 1725.75 787.691 1711.61 797.128C1674.36 822 1623.23 812.732 1584.13 790.893C1545.02 769.054 1512.93 736.497 1475 712.602C1426.81 682.337 1370.76 666.968 1313.88 668.418C1284.57 669.226 1254.4 674.99 1230.52 692.009C1206.64 709.029 1190.67 739.193 1196.84 767.975C1206.33 811.519 1262.14 844.076 1248.87 886.642C1239.98 915.222 1205.09 925.4 1185.15 947.846C1148.64 989.199 1175.04 1055.69 1213.07 1095.6C1251.1 1135.5 1301.31 1168.67 1317.82 1221.34C1338.02 1286.15 1299.56 1353.32 1262.58 1410.28C1248.47 1432.08 1233.11 1454.94 1209.5 1465.75C1178.14 1480.18 1140.66 1469.12 1111.12 1451.23C1081.58 1433.33 1056.05 1409 1025.03 1393.93C1001.93 1382.58 967.271 1380.45 956.897 1404.04C949.993 1419.65 959.086 1438.59 973.03 1448.43C986.973 1458.27 1004.42 1461.24 1021.26 1463.93C1111.39 1478.49 1208.96 1497.64 1268.84 1566.69C1322.03 1627.96 1389.86 1590.08 1443.75 1542.9C1494.27 1498.85 1520.03 1403.91 1599.96 1404.38C1639.33 1404.62 1678.6 1431.92 1717.37 1441.22C1749.06 1448.83 1781.36 1456.08 1809.62 1472.43C1837.88 1488.77 1861.65 1516.24 1864.95 1548.63C1870.28 1601.04 1813.69 1690.52 1779.98 1728.53C1745.22 1767.76 1695.78 1793.28 1700.76 1853.67C1702.31 1873.22 1714.67 1883.03 1723.26 1899.91C1732.96 1919.02 1737.17 1940.35 1746.37 1959.87C1786.78 2044.93 1877.18 2096.09 1852.32 2203.34C1830.84 2296.08 1738.72 2342.8 1682.2 2411.58M331.96 2393.05C341.526 2328.44 376.115 2257.9 439.973 2244.25C489.113 2233.7 539.667 2260.66 589.548 2254.36C643.167 2247.62 683.853 2205.16 725.011 2170.1C766.168 2135.05 822.145 2104.11 871.958 2125.08C900.957 2137.31 923.22 2165.89 954.509 2168.89C972.157 2170.64 989.435 2163.8 1005.57 2156.42C1030.22 2145.16 1054.61 2132.32 1081.25 2127.3C1107.89 2122.28 1137.93 2126.43 1157.23 2145.47C1190 2177.79 1177.24 2231.98 1183.13 2277.65C1186.01 2298.8 1193.33 2319.11 1204.59 2337.24C1215.86 2355.38 1230.82 2370.92 1248.51 2382.87M589.548 2213.11C570.849 2213.14 552.304 2209.72 534.851 2203C481.569 2182.1 439.738 2132.49 422.931 2070.34C416.464 2046.48 413.501 2021.34 410.671 1997.01C405.047 1949.28 399.759 1904.26 369.682 1874.36C354.358 1859.13 333.88 1849.56 312.19 1839.41C291.342 1829.37 269.449 1819.26 250.925 1803.22C208.858 1766.55 197.811 1716.33 187.135 1667.73C181.577 1642.39 176.323 1618.49 166.926 1596.72C158.102 1576.23 144.057 1559.95 129.204 1542.8C104.281 1513.85 76.0229 1481.02 78.3132 1426.93C80.8729 1365.49 123.074 1307.96 180.904 1287.06C209.263 1276.95 239.036 1275.3 267.833 1273.82C299.795 1272.2 330.007 1270.65 355.907 1257.61C390.766 1240.08 413.669 1203.24 435.831 1167.62C438.862 1162.77 441.859 1157.91 444.891 1153.16C470.05 1113.46 502.855 1091.55 534.582 1070.39C558.663 1054.31 581.397 1039.11 601.134 1016.46C631.278 981.818 664.925 925.771 654.08 855.501C653.575 852.131 652.968 848.76 652.362 845.188C648.994 825.371 644.986 802.891 653.574 781.153C670.415 738.654 696.45 729.756 715.344 729.756C770.782 729.756 825.816 806.767 841.343 830.359C860.002 858.669 873.002 886.17 876.202 903.864C889.236 976.561 872.632 1050 854.647 1112.28C848.786 1132.5 843.801 1155.93 838.514 1180.53C820.73 1263.64 800.556 1357.84 733.027 1405.83C708.272 1423.42 679.845 1432.15 652.396 1440.61C629.392 1447.66 607.634 1454.33 588.672 1465.75C540.105 1494.94 514.575 1558.2 529.429 1612.93C530.641 1617.28 532.056 1621.7 533.571 1626.41C537.983 1640.16 543.035 1655.77 541.924 1672.62C540.139 1699.31 524.073 1719.8 509.86 1738.04C501.698 1747.66 494.627 1758.16 488.776 1769.35C471.936 1805.21 489.82 1848.88 515.956 1873.52C542.092 1898.16 579.141 1913.39 630.47 1921.24C639.294 1922.59 648.455 1923.74 657.414 1924.82C681.698 1927.85 706.823 1930.98 731.174 1938.97C772.466 1952.45 803.015 1979.01 814.904 2011.67C818.763 2022.67 820.353 2034.34 819.577 2045.97C818.801 2057.6 815.676 2068.95 810.39 2079.34C806.289 2087.89 800.455 2095.49 793.259 2101.66C786.063 2107.83 777.663 2112.43 768.593 2115.17C762.41 2116.81 756.101 2117.94 749.732 2118.54C744.099 2118.87 738.542 2120.01 733.229 2121.91C724.607 2125.68 718.14 2135.8 711.303 2146.48C708.575 2150.76 705.745 2155.17 702.647 2159.45C678.094 2193.16 635.859 2213.38 589.683 2213.38L589.548 2213.11ZM827.332 839.593C782.604 771.682 704.196 699.087 669.269 787.32C661.119 807.913 667.383 830.932 670.751 852.838C680.856 918.39 656.505 978.414 613.865 1027.42C565.635 1082.86 500.632 1096.61 459.137 1162.23C432.698 1203.92 407.607 1250.53 363.485 1272.71C309.597 1299.67 243.246 1282.51 186.663 1303.04C135.233 1321.64 97.4437 1373.11 95.1534 1427.74C91.7854 1504.17 156.418 1530.02 182.419 1590.25C210.913 1656.17 203.571 1739.76 262.006 1790.71C297.202 1821.42 348.396 1829.64 381.538 1862.53C432.463 1913.09 420.439 1996.77 439.165 2066.06C453.479 2118.94 490.022 2167.44 541.015 2187.39C592.007 2207.35 656.673 2193.73 688.905 2149.44C700.256 2133.87 708.642 2114.19 726.29 2106.41C738.011 2101.25 751.551 2102.53 763.844 2099.03C795.773 2089.93 810.323 2048.71 798.939 2017.5C787.555 1986.29 757.344 1965.26 725.819 1954.91C694.294 1944.57 660.681 1942.85 627.876 1937.83C583.048 1931.09 537.478 1916.83 504.438 1885.72C471.397 1854.61 454.389 1803.29 473.553 1762.17C488.406 1730.22 522.827 1706.59 525.151 1671.44C526.364 1652.87 518.078 1635.24 513.228 1617.28C496.388 1555.47 525.185 1484.26 580.016 1451.3C624.475 1424.54 681.058 1422.11 723.293 1392.08C804.732 1334.18 812.916 1196.3 838.513 1107.56C857.341 1042.31 871.655 973.628 859.665 906.83C856.903 891.495 844.643 865.915 827.332 839.593ZM589.548 2162.56C577.156 2162.56 564.869 2160.28 553.308 2155.81C515.417 2140.95 484.162 2103.07 471.7 2057C466.21 2036.78 463.583 2014.5 460.821 1990.98C454.759 1939.28 447.888 1880.67 405.249 1838.34C383.693 1816.93 357.086 1804.63 333.577 1793.48C314.918 1784.75 297.269 1776.63 284.134 1765.03C254.664 1739.35 246.244 1701 236.51 1656.81C230.683 1630.26 224.655 1602.89 213.338 1576.6C201.449 1549.03 183.396 1528.1 167.499 1509.63C141.868 1479.84 127.453 1461.44 128.8 1428.75C130.518 1387.9 159.651 1348.2 198.081 1334.38C219.367 1326.7 244.189 1325.42 270.46 1324.07C306.228 1322.25 343.243 1320.36 378.641 1302.53C426.198 1278.6 454.119 1233.71 478.773 1194.08C481.703 1189.36 484.634 1184.64 487.564 1179.99C507.031 1149.32 532.796 1132.13 562.637 1112.18C588.436 1094.99 615.111 1077.2 639.26 1049.39C692.576 988.154 714.974 918.356 704.061 847.547C703.455 843.806 702.815 840.065 702.175 836.29C699.615 821.764 697.258 808.047 700.592 799.588C702.411 795.038 708.81 780.142 715.378 780.142C731.376 780.142 767.111 809.261 799.208 858.028C816.857 884.822 825.21 905.212 826.49 912.627C837.705 975.078 822.515 1041.44 806.281 1097.99C799.916 1120.07 794.763 1144.16 789.441 1169.68C773.578 1243.82 755.592 1327.74 704.061 1364.34C685.941 1377.22 662.601 1384.56 637.879 1392.01C613.158 1399.46 587.359 1407.55 562.94 1422.14C542.03 1435.05 523.9 1452 509.61 1472C495.32 1492 485.158 1514.64 479.716 1538.62C474.193 1562.58 472.475 1589.51 478.133 1613.67C484.869 1642.22 488.002 1674.81 476.213 1703.66C462.236 1737.8 433.54 1755.23 432.193 1795.33C430.745 1838.44 450.549 1880.73 481.636 1909.92C515.081 1941.43 561.357 1961.35 623.094 1970.79C632.625 1972.27 642.123 1973.45 651.351 1974.6C674.254 1977.43 695.91 1980.12 715.614 1986.59C741.716 1995.15 761.149 2010.86 767.616 2028.59C770.572 2037.63 769.833 2047.48 765.562 2055.99C763.48 2060.63 759.657 2064.26 754.919 2066.1C751.382 2066.91 747.791 2067.48 744.175 2067.78C733.342 2068.65 722.714 2071.22 712.683 2075.4C690.151 2085.51 678.195 2104.01 668.629 2119.01C666.204 2122.79 663.881 2126.39 661.658 2129.43C646.603 2150.19 619.625 2162.56 589.548 2162.56ZM574.257 1381.46C556.777 1381.46 540.779 1377.18 524.579 1372.43L485.947 1361.07C478.942 1359.02 462.607 1354.33 452.806 1338.16C441.859 1320.19 444.588 1297.54 460.047 1277.49C476.079 1256.76 495.849 1242.51 514.946 1228.69C530.675 1217.37 545.528 1206.65 555.632 1193.81C563.299 1183.16 569.888 1171.78 575.301 1159.84C581.636 1146.35 588.988 1133.37 597.294 1121.01C610.056 1103.9 627.868 1091.25 648.212 1084.82C668.555 1078.4 690.402 1078.54 710.663 1085.22C733.868 1093.07 750.843 1109.35 757.209 1129.94C761.924 1145.28 763.036 1169.58 741.413 1198.36C733.734 1208.47 725.987 1217.77 718.51 1226.67C702.647 1245.54 688.939 1261.85 679.374 1283.02C677.858 1286.39 676.342 1289.76 674.827 1293.36C661.355 1324.41 644.514 1363.06 603.121 1376.91C593.808 1379.98 584.061 1381.51 574.257 1381.46ZM699.919 1117.17C676.343 1109.18 642.662 1115.08 624.879 1140.42C608.443 1164.01 599.821 1192.26 582.138 1214.77C555.868 1248.07 512.656 1264.65 486.688 1298.22C481.703 1304.66 477.359 1313.62 481.602 1320.6C484.465 1325.28 490.191 1327.17 495.445 1328.72L534.11 1340.08C553.139 1345.67 573.617 1351.27 592.411 1344.96C623.229 1334.65 635.32 1298.76 648.691 1269.13C665.194 1232.57 691.162 1209.14 714.503 1178.14C737.843 1147.13 723.798 1125.22 699.919 1117.17ZM574.257 1330.81C552.904 1332.36 528.923 1321.94 508.58 1317.53C504.808 1316.72 500.43 1315.41 499.15 1311.77C497.533 1307.25 501.743 1302.94 505.482 1300C535.491 1276.58 571.563 1255.35 595.307 1225.18C605.16 1211.86 613.603 1197.55 620.5 1182.48C625.74 1171.27 631.796 1160.45 638.62 1150.13C650.644 1133.01 703.691 1115.68 707.901 1148.51C709.551 1161.42 699.211 1172.37 690.219 1181.78C664.306 1208.84 643.159 1240.1 627.674 1274.22C620.938 1289.12 615.078 1304.86 604.098 1316.79C596.4 1325.23 585.667 1330.28 574.257 1330.81ZM436.168 1524.43C411.412 1471.11 203.267 1305.36 195.521 1439.87C193.5 1475.09 222.465 1504.24 231.054 1538.45C236.746 1560.79 233.546 1584.39 236.443 1607.27C241.124 1644.61 267.193 1694.9 290.331 1724.52C300.974 1738.17 318.05 1748.11 335.126 1745.42C378.507 1738.68 368.403 1690.95 382.009 1662.34C397.368 1630.02 437.077 1611.79 445.194 1575.29C448.798 1558.2 443.442 1540.34 436.168 1524.43ZM329.266 1729.04C320.576 1729.04 310.439 1723.17 303.433 1714.14C282.214 1686.88 257.358 1639.42 252.912 1605.15C251.993 1596.43 251.532 1587.66 251.531 1578.89C251.816 1563.91 250.335 1548.94 247.119 1534.3C243.179 1518.7 235.87 1504.75 228.865 1491.23C219.737 1473.78 211.149 1457.29 212.024 1440.68C214.079 1405.12 231.256 1405.12 239.508 1405.12C295.249 1405.12 404.003 1495.72 420.573 1531.37C428.185 1547.75 430.678 1560.86 428.354 1571.51C425.019 1587.42 412.591 1600.19 399.119 1613.67C386.994 1625.91 374.465 1638.58 366.55 1655.23C361.905 1666.22 358.734 1677.78 357.12 1689.61C352.303 1716.06 348.902 1726.31 332.263 1728.94C331.268 1729.04 330.266 1729.07 329.266 1729.04ZM324.281 1685.16C309.428 1687.69 294.642 1659.88 291.611 1649.23C286.357 1630.73 288.512 1611.08 288.512 1591.94C288.38 1549.17 277.22 1507.16 256.112 1469.97C252.678 1464.83 250.18 1459.12 248.736 1453.12C248.059 1450.09 248.289 1446.94 249.398 1444.05C250.506 1441.16 252.444 1438.66 254.967 1436.87C262.882 1432.25 272.548 1438.35 279.621 1444.15L359.14 1509.2C373.353 1520.82 388.611 1534.3 390.834 1552.57C392.888 1569.42 382.952 1585.57 371.232 1597.9C359.511 1610.24 345.533 1620.68 336.238 1634.97C330.856 1642.96 327.843 1652.31 327.548 1661.94C327.548 1670.26 335.8 1682.46 324.887 1684.99L324.281 1685.16ZM322.058 1599.15C321.641 1599.09 321.245 1598.93 320.909 1598.67C320.573 1598.42 320.308 1598.09 320.138 1597.7C319.667 1596.55 320.374 1595.27 320.879 1594.13C324.248 1587.02 320.677 1576.57 319.061 1569.29C317.276 1561.13 315.086 1553.08 312.965 1544.99C311.034 1538.26 309.538 1531.42 308.485 1524.5C308.115 1521.4 307.172 1515.67 310.27 1513.48C310.435 1513.35 310.616 1513.25 310.809 1513.17C317.882 1510.07 326.167 1520.28 329.973 1524.8C332.432 1527.7 334.385 1531.07 336.709 1533.93C340.493 1538.07 344.58 1541.93 348.935 1545.46C352.101 1548.26 356.783 1552.2 357.322 1556.72C357.591 1558.81 355.705 1565.28 346.746 1574.75C343.378 1578.12 340.01 1581.49 336.002 1585.2C331.994 1588.9 330.344 1593.99 326.1 1597.5C325.241 1598.31 324.184 1598.88 323.035 1599.15C322.711 1599.19 322.382 1599.19 322.058 1599.15ZM1005.37 2118.71C969.564 2118.71 931.741 2095.12 908.973 2058.82C892.604 2032.6 883.949 2003.45 875.562 1975.24C872.497 1964.89 869.331 1954.17 865.862 1943.99C851.211 1901.02 830.733 1873.22 804.968 1861.52C792.127 1856.02 778.247 1853.36 764.282 1853.74C746.379 1854.27 728.544 1856.17 710.932 1859.43C701.367 1860.95 691.465 1862.5 681.698 1863.61C674.521 1864.45 667.301 1864.87 660.075 1864.86C603.593 1864.86 562.637 1841.57 550.512 1802.54C540.408 1770.19 554.386 1737.03 565.736 1714.92C568.565 1709.42 571.495 1703.9 574.459 1698.4C587.931 1673.16 600.831 1649.33 601.404 1624.09C601.428 1616.51 600.955 1608.93 599.989 1601.41C598.176 1588.72 598.017 1575.85 599.517 1563.12C607.702 1508.56 665.565 1477.58 719.285 1471.05C725.864 1470.26 732.297 1469.46 738.584 1468.65C766.673 1465.11 793.214 1461.74 817.531 1461.74C887.047 1461.74 928.676 1491.13 956.26 1560.02C963.232 1577.34 968.857 1595.17 974.279 1612.39C980.724 1634.69 988.691 1656.51 998.125 1677.71C1023.62 1731.63 1071.51 1780.17 1136.62 1818.49C1141.6 1821.42 1146.72 1824.32 1151.81 1827.25C1183.5 1845.28 1216.31 1863.95 1236.38 1896.78C1243.79 1909.56 1248.17 1923.88 1249.18 1938.63C1250.19 1953.38 1247.8 1968.16 1242.21 1981.84C1233.28 2002.54 1217.22 2016.29 1197.04 2020.5C1191.58 2021.6 1186.01 2022.12 1180.44 2022.05C1177.07 2022.05 1173.7 2022.05 1170.33 2021.75C1166.96 2021.44 1164.44 2021.51 1161.51 2021.51C1159.36 2021.5 1157.21 2021.6 1155.08 2021.81C1132.78 2024.21 1115.33 2043.45 1096.88 2063.81C1077.24 2085.44 1056.96 2107.86 1027.09 2115.91C1020.01 2117.81 1012.7 2118.75 1005.37 2118.71ZM1222 1905.51C1201.12 1871.36 1162.55 1853.23 1128.1 1832.94C1067.47 1797.35 1012.98 1748.28 982.935 1684.85C964.95 1646.91 956.328 1605.22 940.633 1566.25C897.185 1458.24 823.863 1475.26 721.306 1487.73C674.76 1493.36 623.127 1519.14 616.156 1565.55C613.225 1585.06 618.917 1604.81 618.345 1624.53C617.334 1659.85 596.789 1691.12 580.69 1722.57C568.767 1745.79 558.831 1772.62 566.578 1797.52C579.848 1840.29 635.286 1852.02 679.711 1846.9C724.135 1841.77 771.22 1827.62 811.94 1846.19C848.045 1862.67 868.961 1900.96 881.759 1938.57C894.558 1976.18 902.169 2016.08 923.22 2049.79C944.27 2083.49 984.282 2109.84 1022.61 2099.5C1075.56 2085.17 1098.66 2010.76 1153.19 2004.86C1166.66 2003.41 1180.37 2006.61 1193.61 2003.85C1232.78 1995.76 1242.88 1939.65 1222 1905.51ZM1005.37 2068.15C987.145 2068.15 964.95 2053.29 951.815 2032.02C939.083 2011.8 931.606 1986.96 923.995 1960.84C920.627 1950.03 917.461 1938.8 913.688 1927.68C894.39 1871.03 864.852 1833.31 826.119 1815.52C806.701 1806.98 785.658 1802.77 764.45 1803.18C743.93 1803.69 723.48 1805.79 703.287 1809.49C693.789 1810.97 684.83 1812.39 676.039 1813.4C670.796 1814 665.522 1814.31 660.243 1814.31C635.791 1814.31 605.075 1807.3 598.911 1787.51C595.543 1776.36 599.248 1760.55 610.834 1737.97C613.528 1732.75 616.324 1727.52 619.153 1722.3C634.141 1694.36 651.149 1662.71 652.227 1625.47C652.303 1615.66 651.741 1605.85 650.543 1596.12C649.28 1587.66 648.986 1579.09 649.668 1570.57C652.733 1550.35 679.778 1526.76 725.583 1521.19L745.118 1518.73C772.736 1515.36 796.615 1512.23 817.733 1512.23C859.934 1512.23 887.081 1522.85 909.613 1578.86C915.844 1594.33 920.93 1610.47 926.453 1627.53C933.601 1652.03 942.424 1676.02 952.859 1699.31C982.699 1762.27 1037.53 1818.55 1111.39 1862C1116.58 1865.06 1121.87 1868.1 1127.19 1871.09C1154.54 1886.67 1180.37 1901.43 1193.64 1923.1C1196.87 1928.96 1198.77 1935.45 1199.21 1942.12C1199.65 1948.8 1198.62 1955.49 1196.2 1961.72C1192.83 1969.78 1188.49 1970.65 1187.07 1970.96C1185 1971.31 1182.91 1971.47 1180.81 1971.43C1178.15 1971.43 1175.45 1971.43 1172.76 1971.19C1169.39 1971.02 1165.69 1970.89 1161.78 1970.89C1157.82 1970.86 1153.86 1971.05 1149.92 1971.46C1108.53 1975.94 1082.56 2004.52 1059.73 2029.77C1044.3 2046.62 1029.75 2062.83 1014.19 2067.04C1011.31 2067.82 1008.34 2068.19 1005.37 2068.15ZM823.829 1584.02C799.04 1553.85 761.15 1537.57 722.788 1562.51C704.297 1574.58 703.321 1600.87 692.846 1620.31C681.226 1641.82 656.976 1656 650.745 1679.63C644.245 1704.27 660.21 1729.48 679.407 1746.19C692.172 1757.31 700.559 1756.98 715.311 1752.39C729.048 1747.85 743.584 1746.23 757.984 1747.64C793.584 1750.47 828.51 1761.12 864.481 1758.97C877.515 1758.22 892.2 1754.62 898.465 1743.16C905.369 1730.45 898.633 1714.95 891.931 1702.14C871.082 1662.11 852.659 1619.07 823.829 1584.02ZM855.185 1742.32C822.886 1741.17 791.664 1733.39 759.432 1730.82C755.222 1730.49 751.382 1730.32 747.61 1730.32C722.754 1730.32 697.089 1746.5 677.218 1722.5C672.877 1717.06 669.84 1710.69 668.34 1703.89C666.839 1697.09 666.915 1690.04 668.562 1683.27C674.052 1660.29 696.786 1648.49 707.665 1628.3C711.652 1620.45 714.921 1612.25 717.432 1603.8C721.407 1591.7 724.842 1581.29 731.982 1576.64C740.604 1570.66 750.796 1567.35 761.284 1567.13C784.558 1567.13 802.24 1584.42 810.694 1594.7C832.047 1620.68 847.978 1652.47 863.403 1683.2C868.624 1693.65 873.507 1703.42 879.469 1713.54C883.915 1720.95 886.205 1731.4 880.277 1737.6C875.966 1742.05 869.095 1742.52 862.932 1742.52C860.541 1742.45 857.812 1742.38 855.185 1742.32ZM832.687 1703.02C830.359 1705.4 827.221 1706.82 823.896 1707C819.383 1706.99 814.905 1706.2 810.66 1704.67C791.586 1699.22 771.824 1696.57 751.989 1696.79C741.83 1696.81 731.692 1697.68 721.676 1699.38C715.445 1700.56 705.173 1705.68 701.468 1697.19C697.763 1688.7 709.922 1678.82 714.772 1673.6C723.687 1664.9 731.36 1655.01 737.573 1644.21C743.164 1633.86 744.31 1623.28 748.957 1612.9C749.858 1610.57 751.216 1608.45 752.952 1606.65C754.687 1604.86 756.765 1603.43 759.061 1602.45C762.294 1601.53 765.71 1601.47 768.971 1602.28C772.233 1603.09 775.226 1604.74 777.653 1607.07C787.926 1616 796.851 1631.4 804.294 1642.79C813.556 1656.91 821.977 1671.51 830.868 1685.87C833.495 1690.11 836.223 1695.1 834.607 1699.85C834.213 1701.04 833.557 1702.12 832.687 1703.02ZM789.61 1674.91C789.314 1675.49 788.9 1676 788.396 1676.4C787.891 1676.81 787.306 1677.11 786.679 1677.27C785.206 1677.65 783.674 1677.74 782.166 1677.54C774.746 1677.3 767.345 1676.63 760.004 1675.52C758.147 1675.45 756.343 1674.88 754.784 1673.87C754.037 1673.25 753.482 1672.43 753.184 1671.5C752.886 1670.58 752.857 1669.58 753.1 1668.64C753.942 1665.78 757.344 1664.9 758.826 1662.34C760.354 1659.07 761.419 1655.6 761.992 1652.03C762.867 1648.66 766.976 1637.74 771.624 1643.57C772.559 1644.94 773.232 1646.47 773.611 1648.08C776.098 1655.82 780.542 1662.79 786.511 1668.31C788.262 1669.92 790.317 1671.91 789.879 1674.27C789.821 1674.5 789.731 1674.71 789.61 1674.91ZM1051.58 1849.36C1029.01 1841.98 1006.65 1830.35 985.697 1819.4C944.91 1798.13 933.425 1833.92 929.787 1868.3C927.28 1891.91 930.242 1915.78 938.443 1938.06C946.291 1959.19 968.991 1977.19 970.743 1999.7C971.585 2010.46 969.901 2025.49 980.375 2027.95C989.2 2030 995.195 2019.72 1001.12 2012.88C1013.45 1998.69 1034.13 1996.47 1051.95 1990.44C1083.88 1979.62 1111.09 1950.7 1112.57 1917C1113.92 1885.62 1084.72 1860.14 1051.58 1849.36ZM999.573 1970.52L998.596 1970.15C989.503 1966.07 986.236 1951.48 980.847 1943.83C976.625 1938.4 973 1932.54 970.036 1926.33C962.458 1905.91 957.372 1879.15 965.017 1857.88C971.214 1840.7 990.951 1860.14 1001.56 1865.2C1014.41 1871.44 1027.64 1876.85 1041.17 1881.41C1062.86 1888.45 1079.43 1903.45 1078.92 1915.52C1078.15 1933.01 1061.92 1951.48 1041.13 1958.52C1037.77 1959.67 1033.79 1960.78 1029.62 1961.89C1020.76 1964.35 1009.37 1973.96 999.573 1970.52ZM1006.38 1950.7C998.765 1948.88 998.529 1939.58 994.588 1934.02C991.318 1929.7 988.39 1925.14 985.832 1920.37C982.395 1911.29 980.044 1901.83 978.826 1892.19C978.388 1888.45 976.469 1876.79 980.611 1874.23C984.754 1871.67 1003.41 1884.34 1007.82 1886.09L1045.78 1901.8C1051.68 1904.22 1058.18 1907.26 1060.37 1913.29C1061.07 1915.74 1061.17 1918.32 1060.63 1920.81C1060.1 1923.29 1058.95 1925.61 1057.3 1927.55C1053.95 1931.38 1049.87 1934.52 1045.31 1936.78C1037.05 1941.43 1028.45 1945.44 1019.58 1948.78C1015.63 1950.63 1011.25 1951.36 1006.92 1950.87L1006.38 1950.7ZM1687.29 1960.44C1647.99 1916.09 1620.34 1848.62 1652.5 1798.84C1668.37 1774.23 1695.44 1759.71 1718.28 1741.54C1780.05 1692.1 1812.05 1601.54 1778.9 1529.75C1745.76 1457.97 1639.37 1426.66 1581.23 1480.35C1545.26 1513.54 1536.57 1540.57 1490.3 1554.49C1455.37 1564.91 1408.76 1563.42 1390.97 1602.72C1379.19 1628.74 1384.24 1668.88 1356.75 1676.87C1348.77 1678.6 1340.47 1678.06 1332.77 1675.32C1260.39 1654.66 1213.88 1584.86 1148.95 1546.81C1125.07 1532.82 1096.84 1523.05 1069.93 1529.28C1043.02 1535.52 1019.71 1562.45 1025.41 1589.51C1030.8 1615.06 1056.9 1629.45 1076.53 1646.6C1116.51 1681.32 1134.06 1735.51 1169.05 1775.45C1201.82 1812.92 1247.8 1835.81 1286.09 1867.62C1405.76 1967.15 1312.06 2113.15 1169.46 2078.4C1161.24 2076.38 1152.92 2073.72 1144.5 2074.39C1083.37 2079.34 1189.19 2130.81 1192.36 2138.66C1200.58 2158.88 1198.76 2181.63 1204.22 2202.69C1214.32 2241.82 1248.74 2270.88 1286.33 2285.6C1323.92 2300.33 1364.97 2303.13 1405.22 2306.63C1477.26 2312.87 1542.2 2343.71 1615.29 2340.54C1680.76 2337.71 1748.52 2312.16 1787.06 2259.05C1803.79 2235.32 1814.05 2207.64 1816.84 2178.73C1819.63 2149.83 1814.84 2120.7 1802.95 2094.21C1777.89 2040.52 1726.56 2004.79 1687.29 1960.44ZM1632.29 2305.49C1626.2 2306.2 1620 2306.7 1613.84 2306.97C1576.35 2308.59 1540.11 2299.86 1501.71 2290.62C1471.91 2283.45 1441.09 2276 1408.12 2273.17L1400.94 2272.53C1364.2 2269.39 1329.47 2266.43 1298.62 2254.33C1266.36 2241.69 1243.28 2219.31 1236.82 2194.4C1231.73 2174.79 1219.98 2147.89 1230.79 2127C1246.82 2095.45 1285.05 2105.56 1310.54 2088C1338.36 2069.21 1358.92 2041.47 1368.81 2009.38C1386.16 1950.84 1363.29 1888.28 1307.61 1841.98C1292.09 1829.07 1275.75 1817.78 1259.96 1806.86C1235.34 1790.01 1212.1 1773.76 1194.41 1753.51C1181.28 1738.51 1170.5 1720.41 1159.12 1701.27C1142.51 1673.36 1125.44 1644.48 1098.49 1621.12C1093.44 1616.71 1088.39 1612.7 1083.37 1608.79C1071.78 1599.72 1059.79 1590.32 1058.18 1582.47C1056.8 1575.93 1066.02 1564.64 1077.31 1562.04C1078.74 1561.7 1080.19 1561.44 1081.65 1561.27C1095.43 1559.65 1112.74 1564.64 1131.7 1575.79C1154.87 1589.27 1176.02 1608.01 1198.39 1627.73C1234.86 1659.88 1272.49 1693.15 1323.31 1707.6C1333.89 1710.91 1345.02 1712.05 1356.05 1710.97C1359.39 1710.59 1362.69 1709.93 1365.91 1708.99C1403.77 1698 1411.25 1660.66 1415.73 1638.21C1416.92 1630.74 1418.83 1623.41 1421.42 1616.3C1427.31 1603.26 1440.99 1599.28 1470.8 1593.22C1480.26 1591.33 1490.06 1589.34 1499.73 1586.48C1541.02 1574.14 1560.35 1552.23 1578.98 1531.07C1586.81 1521.91 1595.12 1513.17 1603.87 1504.88C1614.86 1494.95 1628.76 1488.81 1643.51 1487.39C1685.31 1482.47 1731.08 1507.21 1748.15 1543.71C1760.35 1570 1761.63 1602.05 1751.89 1633.96C1742.12 1665.84 1723.07 1694.08 1697.16 1715.05C1691.6 1719.5 1685.58 1723.85 1679.21 1728.53C1660.42 1742.01 1639.13 1757.35 1624.14 1780.57C1596.66 1823.14 1590.09 1901.63 1662 1982.79C1675.47 1997.85 1689.75 2011.74 1703.66 2025.18C1731.52 2052.15 1757.82 2077.49 1772.2 2108.46C1781.59 2129.51 1785.38 2152.62 1783.21 2175.56C1781.03 2198.5 1772.97 2220.49 1759.81 2239.4C1733.97 2274.89 1687.56 2298.98 1632.29 2305.49ZM1622.02 2274.25C1595.08 2275.36 1567.53 2270.88 1540.62 2266.66L1358 2237.17C1335.1 2233.5 1291.78 2220.32 1274.51 2204.92C1261.81 2193.66 1257.36 2171.39 1270.06 2160.09C1276.8 2154.03 1286.63 2152.68 1295.59 2150.73C1350.09 2138.83 1391.71 2093.43 1405.35 2040.18C1421.45 1977.22 1401.04 1908.74 1362.48 1856.47C1331.86 1814.91 1272.82 1784.11 1231.7 1753.1C1226.07 1749.54 1221.44 1744.61 1218.23 1738.78C1215.5 1732.71 1216.81 1724.29 1222.74 1721.29C1230.65 1717.28 1239.21 1724.83 1245.64 1730.96C1286.43 1769.82 1355.2 1767.63 1402.02 1740.6C1430.04 1724.39 1440.05 1698.34 1460.69 1675.55C1471.27 1663.89 1484.47 1655.03 1497.54 1646.23L1602.45 1575.83C1625.29 1560.49 1652.6 1544.48 1678.6 1553.41C1702.99 1561.77 1715.65 1590.76 1712.28 1616.3C1708.92 1641.85 1692.51 1663.93 1673.85 1681.75C1655.2 1699.58 1633.78 1714.28 1615.62 1732.58C1580.28 1768.29 1559.35 1815.8 1556.84 1866C1554.33 1916.2 1570.42 1965.56 1602.01 2004.62C1628.96 2037.69 1665.23 2061.62 1693.86 2093.13C1722.49 2124.64 1743.34 2169.33 1729.02 2209.4C1717 2243.1 1682.44 2264.74 1647.28 2271.38C1638.94 2272.96 1630.5 2273.91 1622.02 2274.25ZM1660.58 2222.34C1648.81 2222.74 1637.03 2222.15 1625.36 2220.59L1413.54 2197.84C1405.86 2197 1397.34 2195.75 1392.49 2189.72C1386.76 2182.61 1388.92 2171.55 1394.64 2164.41C1400.37 2157.26 1408.72 2152.88 1416.5 2148C1494.3 2099.26 1505.18 1999.7 1478.98 1918.82C1472.06 1897.86 1463.03 1877.66 1452.04 1858.52C1442.13 1841 1381.1 1811.34 1429.1 1789.47C1438.33 1785.25 1448.77 1784.82 1458.6 1782.26C1488.21 1774.5 1502.05 1741.1 1520.34 1720.01C1539.34 1698.1 1562.64 1680.57 1586.69 1664.63C1607.5 1650.81 1642.87 1638.31 1658.46 1619.54C1663.18 1613.88 1667.22 1607.37 1673.38 1603.4C1679.55 1599.42 1688.98 1598.98 1693.39 1604.88C1694.81 1607.09 1695.6 1609.65 1695.66 1612.27C1695.73 1614.9 1695.07 1617.5 1693.76 1619.77C1691.07 1624.29 1687.58 1628.28 1683.45 1631.54C1646.88 1664.06 1605.99 1694.36 1578.67 1735.71C1548.81 1780.82 1534.11 1834.29 1536.71 1888.34C1539.3 1942.39 1559.07 1994.2 1593.12 2036.24C1610.6 2057.81 1630.17 2074.96 1649.17 2091.54C1662.38 2102.63 1674.95 2114.45 1686.82 2126.97C1710.2 2152.68 1728.92 2196.86 1687.06 2216.18C1678.7 2219.87 1669.72 2221.96 1660.58 2222.34ZM1653.18 2168.86C1645.13 2169.73 1635.39 2168.45 1629.6 2168.86L1546.11 2173.14C1525.22 2174.25 1500.91 2177.42 1480.46 2172.7C1473.29 2171.05 1466.48 2165.22 1466.22 2157.84C1465.91 2149.95 1475.04 2142.4 1478.98 2135.96C1485.43 2125.24 1491.06 2114.04 1495.82 2102.46C1503.7 2082.92 1509.43 2062.58 1512.9 2041.8C1515.15 2029.43 1518.99 1997.08 1535.36 1995.15C1557.19 1992.59 1560.08 2040.18 1569.92 2053.06C1592.15 2082.24 1620.84 2108.19 1649.23 2131.25C1655.97 2136.6 1662.71 2142.27 1665.54 2150.29C1670.12 2163.73 1662.84 2167.85 1653.18 2168.86ZM1640.88 2148C1639.47 2151.37 1634.75 2152.24 1630.78 2152.44L1559.68 2155.61C1541.15 2156.42 1521.79 2162.76 1502.76 2160.5C1490.03 2159.02 1490.63 2155.81 1494.98 2144.76C1498.35 2136.44 1502.79 2128.68 1506.29 2120.49C1512.37 2106.27 1517.4 2091.63 1521.35 2076.68C1523.98 2066.81 1523.84 2044.49 1534.42 2039.61C1546.91 2033.68 1555.3 2054 1560.02 2062.15C1577.87 2093 1603.23 2118.82 1633.74 2137.21C1637.68 2139.57 1642.36 2143.41 1640.88 2147.76C1640.89 2147.84 1640.89 2147.92 1640.88 2148ZM1570.36 2128.01C1561.06 2128.58 1537.31 2139.06 1529.4 2131.65C1520.44 2123.19 1530.71 2107.01 1535.63 2099.16C1546.11 2082.48 1557.49 2104.62 1565.94 2113.21C1568.54 2116.01 1580.86 2127.37 1570.36 2128.01ZM1499.39 1887.04C1484.13 1894.25 1486.12 1857.11 1477.73 1842.28C1472.28 1832.61 1449.14 1837.53 1454.66 1817.2C1460.19 1796.88 1460.42 1816.02 1463.52 1815.22C1488.04 1808.81 1497.61 1771.4 1517.07 1776.73C1536.54 1782.05 1500.97 1832.84 1499.49 1861.93C1499.09 1870.29 1514.61 1879.92 1499.39 1887.04ZM1849.7 2037.25L1849.33 2037.62C1847 2040.18 1845.27 2043.23 1844.26 2046.55C1843.26 2049.87 1843.01 2053.37 1843.54 2056.8C1846.33 2081.6 1863.54 2107.35 1872.67 2130.17C1883.43 2157.13 1892.88 2184.6 1901.03 2212.57C1917.87 2269.86 1940.2 2342.39 1931.81 2402.48C1929.96 2415.66 1928.45 2431.13 1937.94 2440.33C1948.55 2450.44 1966 2446.26 1979.2 2439.79C2010.26 2424.59 2027.8 2401.94 2049.93 2377C2073.24 2350.85 2106.18 2331.71 2133.9 2310.61C2145.68 2301.68 2158.85 2288.91 2154.88 2274.65C2150.9 2260.39 2134.23 2256.45 2120.36 2253.08C2010.12 2226.12 1954.14 2121.07 1879.51 2045.91C1871.96 2038.33 1860.24 2027.48 1849.7 2037.25ZM1949.19 2404.71C1947.98 2395.98 1950.37 2386 1950.44 2377.75C1950.47 2358.97 1948.89 2340.23 1945.72 2321.73C1939.9 2285.81 1929.69 2250.75 1919.52 2215.87L1917.2 2207.92C1906.96 2173.05 1894.39 2138.91 1879.57 2105.73C1878.13 2102.36 1876.68 2098.39 1878.73 2095.35C1885.94 2084.8 1919.39 2116.05 1924 2121.54C1949.7 2152.24 1975.53 2183.15 2005.78 2209.54C2039.46 2238.99 2074.11 2253.72 2115.27 2268.35C2117.85 2269.15 2120.25 2270.45 2122.33 2272.19C2124.41 2273.92 2126.12 2276.06 2127.36 2278.46C2130.73 2286.01 2127.36 2295.31 2121.33 2301.07C2110.59 2311.39 2093.55 2318.83 2081.19 2328.03C2065.29 2339.14 2050.62 2351.89 2037.4 2366.09C2034.77 2369.02 2032.21 2371.95 2029.69 2374.81C2016.89 2389.41 2001.06 2410.27 1983.75 2419.64C1975.23 2424.22 1963.84 2425 1956.37 2418.83C1954.3 2417.07 1952.59 2414.91 1951.36 2412.49C1950.13 2410.07 1949.39 2407.42 1949.19 2404.71ZM1965.56 2345.02C1960.74 2342.39 1958.08 2334.51 1957.31 2329.92C1954.68 2314.82 1963.37 2300.03 1960.91 2284.86C1955.89 2254.02 1937.07 2227.57 1927.91 2198.04C1926.39 2193.82 1925.56 2189.38 1925.45 2184.9C1925.44 2182.69 1925.89 2180.51 1926.77 2178.48C1927.65 2176.46 1928.95 2174.64 1930.57 2173.14C1943.67 2162.25 1956.16 2184.53 1961.69 2192.89C1972.32 2208.13 1986.58 2220.48 2003.18 2228.81C2017.93 2236.73 2033.93 2240.85 2049.12 2247.62C2059.6 2252.3 2063.3 2263.36 2051.04 2269.16C2036.36 2275.9 2023.39 2282.47 2011.37 2293.59C2005.88 2298.7 2000.8 2304.24 1996.18 2310.14C1991.8 2315.7 1988.67 2324.02 1983.82 2328.88C1981.09 2333.93 1976.17 2345.73 1969.3 2346.1C1967.98 2346.09 1966.68 2345.72 1965.56 2345.02ZM-275.398 2434.91C-329.062 2472.35 -390.61 2496.94 -455.285 2506.79C-586.437 2526.21 -681.416 2475.52 -791.146 2414.55C-914.551 2346 -868.611 2255.44 -807.987 2150.22C-745.24 2041.26 -729.781 1908.03 -758.544 1786.23C-788.082 1660.86 -907.681 1558.03 -844.867 1421.57C-801.992 1328.15 -681.854 1285.11 -587.144 1270.21C-565.42 1266.84 -541.373 1265.36 -523.152 1277.86C-502 1292.49 -496.207 1320.63 -490.01 1345.57C-475.831 1401.35 -404.933 1448.19 -346.734 1438.52C-309.685 1432.35 -273.647 1408.56 -237.811 1419.28C-190.423 1433.43 -178.837 1495.82 -141.99 1528.84C-91.2677 1574.38 1.05022 1558.84 38.7049 1615.66C65.9524 1656.78 47.7313 1712.09 56.9597 1760.58C81.8495 1891.35 286.189 1923.23 311.382 2053.8C323.473 2116.55 280.295 2184.93 218.424 2200.94C125.196 2225.04 9.23468 2110.28 -70.3858 2176.81C-105.75 2206.4 -122.692 2251.83 -145.089 2292.18C-177.06 2349.09 -221.637 2397.91 -275.398 2434.91ZM-511.161 2477.34C-608.834 2477.34 -689.432 2432.55 -774.778 2385.13C-807.717 2366.83 -826.713 2347.18 -832.843 2325.07C-843.924 2285.13 -814.857 2229.89 -778.685 2167.07C-713.412 2053.8 -694.08 1912.18 -725.638 1778.55C-736.584 1732.24 -757.971 1690.21 -778.651 1649.57C-816.407 1575.42 -849.009 1511.39 -814.251 1435.49C-770.467 1339.91 -625.338 1310.18 -581.856 1303.37C-574.913 1302.17 -567.886 1301.51 -560.84 1301.39C-554.412 1300.93 -547.988 1302.34 -542.349 1305.46C-533.188 1311.8 -528.574 1330.27 -524.128 1348.13L-522.714 1353.73C-506.244 1418.57 -432.922 1473.37 -362.597 1473.37C-355.454 1473.37 -348.324 1472.78 -341.277 1471.62C-326.752 1468.87 -312.47 1464.96 -298.57 1459.92C-283.347 1454.87 -268.965 1450.08 -257.211 1450.08C-253.929 1450.05 -250.659 1450.5 -247.511 1451.43C-231.547 1456.22 -220.095 1475.33 -206.825 1497.5C-195.677 1516.14 -183.013 1537.24 -164.556 1553.82C-135.389 1579.97 -97.8354 1589.58 -64.6938 1598.07C-31.5523 1606.56 -2.85653 1613.91 10.5483 1634.17C21.6965 1651.02 21.1913 1675.15 20.6524 1703.12C20.1808 1723.71 19.7093 1744.98 24.0204 1766.72C39.0082 1845.48 105.864 1892.87 164.872 1934.69C218.121 1972.47 268.439 2008.13 278.476 2060.13C287.165 2105.26 254.63 2156.79 210.172 2168.25C203.789 2169.87 197.222 2170.65 190.637 2170.58C163.491 2170.58 132.404 2159.56 99.4982 2147.89C63.6959 2135.19 26.6811 2122.04 -10.0979 2122.04C-39.9174 2121.54 -68.9229 2131.79 -91.8065 2150.93C-124.241 2178.06 -142.327 2213.72 -159.908 2248.16C-164.826 2257.83 -169.474 2266.93 -174.357 2275.76C-203.985 2328.13 -245.061 2373.12 -294.514 2407.36C-343.967 2441.6 -400.516 2464.21 -459.933 2473.5C-476.891 2476.04 -494.014 2477.32 -511.161 2477.34ZM-511.229 2425C-577.415 2426.89 -642.833 2410.42 -700.243 2377.41C-726.547 2362.14 -751.74 2342.43 -765.01 2315.06C-786.195 2271.25 -767.065 2234.81 -742.31 2199.43C-718.228 2165.05 -701.59 2127.81 -688.421 2087.09C-655.502 1983.43 -651.369 1872.76 -676.465 1766.92C-688.758 1714.78 -711.593 1669.96 -733.62 1626.65C-772.589 1550.04 -791.82 1507.71 -768.345 1456.62C-751.707 1420.32 -710.044 1396.36 -678.014 1382.47C-652.417 1371.52 -608.599 1350.73 -579.532 1362.25C-559.324 1370.14 -558.987 1379.98 -552.016 1398.42C-540.968 1427.74 -532.38 1445.03 -506.042 1467.78C-466.669 1501.85 -415.105 1523.89 -362.664 1523.89C-328.176 1523.89 -299.076 1497.8 -264.587 1514.22C-234.073 1528.74 -222.487 1563.39 -201.942 1587.89C-177.119 1617.48 -148.794 1628.54 -111.206 1634.44C-80.8941 1639.15 -46.7758 1647.34 -32.7311 1674.47C-23.7048 1691.9 -25.6919 1712.66 -25.5572 1732.27C-24.8162 1843.73 50.7289 1915.92 135.368 1975.91C163.188 1995.63 204.109 2019.32 221.253 2049.68C231.93 2068.56 231.525 2095.59 214.517 2108.97C197.508 2122.35 173.292 2116.99 152.612 2111.16C58.9807 2084.7 -38.8946 2040.62 -124.409 2112.1C-181.666 2159.86 -197.428 2230.77 -241.381 2287.36C-288.02 2347.32 -352.428 2390.97 -425.377 2412.06C-453.348 2419.91 -482.186 2424.26 -511.229 2425ZM-520.996 2408.25C-580.93 2408.43 -639.849 2392.77 -691.789 2362.85C-721.159 2345.8 -740.154 2327.76 -749.888 2307.68C-766.189 2273.98 -754.401 2246.07 -728.501 2209.1C-705.228 2175.87 -687.411 2138.73 -672.423 2092.25C-638.376 1985.7 -634.113 1871.85 -660.096 1763.04C-672.895 1708.88 -696.1 1663.22 -718.565 1619.03C-766.593 1524.67 -782.928 1446.24 -671.008 1390.87C-642.919 1376.95 -606.51 1375.19 -582.126 1394.88C-574.22 1401.82 -567.236 1409.75 -561.345 1418.47C-509.006 1489.24 -458.35 1540.74 -362.631 1540.74C-346.767 1540.74 -332.318 1536.23 -319.486 1532.25C-308.54 1528.88 -298.166 1525.51 -288.534 1525.51C-282.703 1525.44 -276.937 1526.73 -271.694 1529.28C-255.527 1536.97 -245.187 1553.28 -234.275 1570.57C-228.372 1580.32 -221.835 1589.68 -214.706 1598.58C-183.72 1635.65 -147.817 1645.59 -113.665 1650.95C-86.7208 1655.16 -57.8566 1662.17 -47.5504 1682.09C-41.9258 1692.98 -42.0605 1707.3 -42.2289 1722.53C-42.2289 1725.9 -42.2289 1729.11 -42.2289 1732.37C-41.3869 1854.68 43.1846 1931.22 125.803 1989.63C130.821 1993.2 136.277 1996.91 141.902 2000.72C166.623 2017.57 194.578 2036.41 206.77 2058.01C213.506 2069.97 214.113 2087.97 204.244 2095.72C199.334 2099.17 193.391 2100.84 187.404 2100.44C177.106 2099.94 166.917 2098.11 157.092 2094.98C145.337 2091.61 133.212 2087.94 121.492 2084.36C76.4271 2070.65 29.8472 2056.46 -16.2613 2056.46C-59.8273 2055.7 -102.168 2070.9 -135.322 2099.19C-172.134 2130 -192.747 2169.19 -212.786 2207.04C-225.888 2231.95 -238.215 2255.47 -254.887 2276.87C-299.303 2334.05 -360.692 2375.65 -430.227 2395.71C-456.813 2403.2 -484.225 2407.35 -511.835 2408.08L-520.996 2408.25ZM-510.892 2346.54C-559.303 2347 -607.123 2335.87 -650.362 2314.08C-666.697 2305.86 -683.403 2294.87 -689.533 2277.62C-694.652 2263.22 -691.217 2246.91 -683.874 2233.53C-672.389 2212.67 -622.913 2124.61 -614.257 2097.68C-583.204 2000.57 -574.952 1897.6 -590.142 1796.78C-597.12 1753.08 -607.457 1709.98 -621.06 1667.87C-632.647 1630.8 -663.195 1606.19 -680.271 1571.75C-695.326 1541.42 -701.085 1504.65 -687.613 1473.54C-674.141 1442.43 -637.901 1420.49 -605.433 1430.16C-574.514 1439.4 -557.337 1471.15 -537.398 1496.52C-506.513 1535.75 -463.638 1559.08 -417.126 1574.65C-373.341 1589.34 -326.189 1561.7 -283.819 1579.53C-246.77 1595.1 -234.578 1644.07 -199.853 1664.46C-172.404 1680.57 -135.861 1675.65 -109.388 1693.15C-80.2542 1712.25 -72.7771 1750.64 -62.2352 1783.84C-41.7139 1848.46 -1.71366 1905.15 52.2781 1946.12C64.3693 1955.22 77.5385 1963.95 84.9819 1977.16C92.4253 1990.37 91.7179 2009.71 78.953 2017.9C57.2965 2031.86 24.4582 2005.33 2.16177 2001.59C-29.6172 1996.38 -62.2021 1999.46 -92.4465 2010.52C-162.704 2036.27 -213.696 2109.74 -247.376 2173.47C-259.906 2197.34 -270.717 2217.93 -284.627 2235.79C-340.469 2307.75 -424.636 2345.66 -510.892 2346.54ZM-513.62 2298.24C-521.646 2298.58 -529.684 2298.5 -537.701 2298.01C-561.008 2296.52 -586.1 2290.32 -600.381 2271.79C-612.573 2255.94 -614.156 2234 -609.811 2214.49C-605.466 2194.98 -595.834 2177.08 -587.212 2159.05C-498.228 1972.88 -512.306 1741.14 -623.182 1567.16C-630.356 1555.91 -638.002 1544.65 -641.673 1531.84C-645.344 1519.04 -644.401 1504.04 -635.678 1493.96C-597.181 1449.54 -567.037 1540.03 -548.951 1558.98C-511.296 1598.58 -452.995 1627.16 -397.759 1625.17C-361.957 1623.85 -322.955 1620.48 -293.552 1640.91C-269.067 1657.93 -256.504 1688.46 -231.378 1704.64C-208.24 1719.64 -178.264 1719.97 -154.183 1733.42C-123.466 1750.57 -113.766 1781.55 -101.069 1811.85C-86.5861 1846.42 -62.9762 1877.94 -42.9701 1909.79C-37.3454 1918.75 -31.485 1929.4 -35.1225 1939.34C-43.913 1963.37 -87.7313 1956.94 -106.963 1962.13C-138.791 1970.69 -167.588 1989.09 -191.332 2011.8C-227.067 2045.94 -252.563 2089.32 -278.531 2131.18C-331.577 2216.95 -409.716 2293.76 -513.62 2298.24ZM-499.946 2269.63C-524.97 2266.26 -538.375 2246.04 -524.701 2212.33C-504.223 2161.78 -482.466 2114.33 -470.812 2060.37C-456.945 1994.24 -453.017 1926.42 -459.159 1859.13C-464.042 1802.44 -478.121 1751.75 -495.197 1697.76C-498.228 1688.26 -500.821 1676.73 -494.22 1669.28C-486.676 1660.82 -473.035 1663.86 -462.358 1667.53C-434.707 1677.07 -414.162 1690.92 -384.893 1690.28C-350.203 1689.51 -319.486 1692.13 -290.588 1713.87C-270.01 1729.31 -254.382 1750.95 -232.624 1764.59C-212.046 1777.54 -187.324 1782.63 -166.644 1795.4C-131.246 1817.31 -69.2407 1889.36 -99.0815 1932.4C-111.846 1950.8 -133.301 1960.84 -153.947 1969.47C-184.259 1982.38 -217.94 2000.21 -237.643 2027.68C-268.898 2071.15 -290.454 2120.06 -325.043 2161.81C-362.092 2206.54 -408.402 2245.19 -463.133 2264.64C-474.845 2269.16 -487.454 2270.87 -499.946 2269.63ZM-492.064 2253.28C-493.945 2253.29 -495.824 2253.18 -497.689 2252.95C-502.337 2252.31 -508.501 2250.52 -511.363 2245.6C-514.731 2240 -513.788 2230.13 -509.107 2218.64C-505.739 2209.97 -502.068 2201.41 -498.531 2192.89C-480.95 2150.29 -464.312 2110.08 -454.376 2063.87C-440.159 1996.11 -436.129 1926.6 -442.42 1857.65C-444.643 1831.97 -453.13 1807.67 -460.977 1783.3C-467.141 1764.29 -487.282 1719.57 -478.02 1699.82C-468.286 1678.99 -410.221 1707.1 -386.847 1707.1H-384.456C-381.391 1707.1 -378.326 1707.1 -375.261 1707.1C-346.734 1707.1 -323.124 1710.47 -300.591 1727.32C-292.262 1733.9 -284.386 1741.04 -277.015 1748.69C-266.302 1759.99 -254.387 1770.1 -241.482 1778.82C-229.998 1785.55 -217.911 1791.19 -205.377 1795.67C-194.997 1799.41 -184.966 1804.05 -175.401 1809.55C-152.701 1823.57 -116.023 1862.5 -109.017 1896.14C-106.761 1906.99 -108.007 1915.65 -112.823 1922.59C-122.927 1937.12 -141.047 1945.68 -160.414 1953.87C-188.099 1965.63 -227.774 1985.04 -251.351 2017.9C-265.16 2037.11 -277.15 2057.4 -288.736 2076.98C-304.364 2103.34 -319.048 2128.28 -338.044 2151.13C-377.989 2199.32 -421.976 2232.02 -468.791 2248.87C-476.253 2251.61 -484.117 2253.1 -492.064 2253.28ZM-435.549 2173.54C-454.78 2163.43 -412.242 2108.13 -405.001 2074.46C-389.727 2001.87 -385.356 1927.41 -392.034 1853.54C-394.021 1830.45 -400.622 1803.52 -412.074 1783.57C-416.654 1775.58 -419.483 1764.43 -412.916 1757.99C-407.224 1752.43 -397.928 1753.84 -390.282 1756.14C-370.074 1762.2 -349.428 1753.81 -330.904 1767.7C-324.414 1772.93 -318.251 1778.56 -312.447 1784.55C-299.197 1798.52 -284.419 1810.95 -268.393 1821.62C-254.299 1830.11 -239.423 1837.22 -223.969 1842.85C-216.392 1845.55 -209.038 1848.84 -201.975 1852.69C-188.671 1860.92 -161.559 1877.84 -168.834 1896.71C-175.57 1914.17 -214.201 1923.67 -229.795 1933.21C-253.742 1947.77 -275.735 1965.53 -292.205 1988.41C-307.327 2009.44 -319.89 2030.71 -332.049 2051.24C-347.272 2076.92 -360.408 2099.09 -376.81 2118.88C-393.213 2138.66 -416.317 2183.69 -435.549 2173.54ZM-352.56 1991.85C-360.374 1991.01 -364.146 1985.11 -366.234 1977.6C-371.017 1960.44 -365.527 1940.86 -363.203 1923.67C-359.835 1899.88 -351.078 1876.49 -352.695 1852.15C-353.621 1840.76 -357.472 1829.8 -363.877 1820.34C-369.569 1810.97 -371.286 1805.98 -359.7 1800.12C-334.238 1787.31 -322.046 1836.55 -293.687 1854.45C-282.337 1861.59 -226.932 1858.19 -233.062 1883.5C-233.882 1886.11 -235.539 1888.39 -237.777 1889.97C-246.198 1896.71 -257.11 1899.47 -266.035 1905.47C-275.944 1912.1 -285.489 1919.25 -294.63 1926.91C-305.505 1936.01 -315.756 1945.84 -325.313 1956.33C-330.306 1961.32 -334.816 1966.77 -338.785 1972.61C-344.14 1981.54 -335.855 1991.75 -350.506 1991.85C-351.189 1991.9 -351.876 1991.9 -352.56 1991.85ZM530.473 883.44C508.715 843.873 460.518 815.462 461.091 770.334C461.428 744.653 478.268 722.645 489.719 699.559C535.862 606.809 481.906 496.366 392.855 450.16C344.422 425.051 291.813 437.926 244.661 415.379C192.591 390.54 159.853 336.683 118.326 298.768C87.2894 270.475 50.5313 249.199 10.5483 236.384C-70.4868 210.467 -231.311 232.812 -240.876 343.221C-243.806 377.295 -227.404 411.334 -202.312 434.488C-142.597 489.625 -1.6778 508.229 -17.9118 621.605C-21.5492 647.286 -36.8064 671.754 -32.5964 697.335C-25.8603 738.856 24.6603 754.899 52.9518 785.972C79.6941 815.26 85.8239 857.995 83.7357 897.595C81.6475 937.196 72.6549 976.459 74.2042 1016.06C76.225 1068.06 98.6225 1120.88 140.757 1151.34C182.891 1181.81 245.57 1185.04 285.582 1151.92C325.595 1118.79 341.593 1055.59 391.474 1041C411.076 1035.27 432.092 1038.71 452.334 1036.21C519.291 1027.92 562.941 942.487 530.473 883.44ZM216.235 1141.84C196.275 1141.8 176.81 1135.61 160.493 1124.11C129.339 1101.56 109.636 1060.72 107.851 1014.81C107.009 993.614 109.703 971.808 112.499 948.756C114.452 932.781 116.473 916.3 117.382 899.449C120.447 841.211 107.278 795.409 77.8416 763.324C65.529 750.687 51.9136 739.389 37.223 729.622C15.8023 714.321 2.63328 704.142 0.612458 691.976C-0.701078 684.022 2.76802 673.136 6.77599 660.565C10.6145 649.46 13.51 638.05 15.4318 626.458C29.9144 524.272 -54.1856 480.795 -115.585 449.081C-140.711 436.072 -164.489 423.804 -179.578 409.919C-198.607 392.393 -209.25 368.06 -207.398 346.389C-205.074 319.427 -190.086 298.97 -161.626 283.467C-134.884 268.907 -97.6333 260.549 -59.6755 260.549C-39.4093 260.28 -19.2159 263.029 0.242008 268.705C35.5941 280.073 68.0974 298.898 95.5576 323.91C108.769 336.395 121.337 349.544 133.212 363.308C160.898 394.348 189.492 426.467 230.144 445.846C258.2 459.327 286.896 462.36 312.224 465.124C335.8 467.685 357.995 470.078 377.395 480.155C448.124 516.756 497.904 607.618 459.609 684.561C457.184 689.414 454.389 694.436 451.391 699.761C440.344 719.443 427.815 741.788 427.444 769.829C426.905 811.553 453.412 841.548 474.597 865.645C485.004 877.407 494.805 888.529 500.901 899.617C510.77 917.547 509.928 941.409 498.645 963.45C487.362 985.492 468.568 1000.19 448.292 1002.68C441.578 1003.35 434.831 1003.64 428.084 1003.56C412.652 1003.07 397.229 1004.78 382.279 1008.65C340.684 1020.81 318.286 1054.31 298.078 1083.9C287.031 1100.28 276.59 1115.75 264.397 1125.9C250.665 1136.62 233.647 1142.25 216.235 1141.84ZM182.386 1090.34C178.542 1091.01 174.61 1091.01 170.766 1090.34C139.544 1084.41 125.702 1040.09 124.657 1012.82C123.984 995.704 126.308 976.796 128.968 954.89C131.023 938.038 133.145 920.715 134.155 902.111C136.277 861.668 131.899 819.911 115.665 782.366C97.7804 741.08 63.7631 720.151 35.0338 688.606C27.9921 681.465 23.8411 671.968 23.3804 661.947C23.3804 647.522 32.9457 635.49 34.6297 621.504C36.3811 606.708 33.9897 588.745 31.6657 574.118C25.2728 536.969 7.52843 502.717 -19.1242 476.077C-60.9216 433.14 -116.797 412.042 -166.846 381.238C-177.591 374.497 -189.345 365.802 -189.985 353.164C-190.49 343.895 -184.394 335.301 -176.681 330.145C-154.082 315.113 -119.694 311.103 -93.3222 311.103C-78.2957 310.821 -63.308 312.728 -48.8304 316.765C-20.395 325.893 5.74758 341.03 27.8262 361.151C38.6039 370.992 49.8532 383.631 61.776 397.011C91.3474 430.208 124.859 467.786 174.706 491.58C210.475 508.634 245.166 512.408 273.053 515.442C292.554 517.565 309.428 519.385 320.442 525.114C368.706 550.122 405.316 612.539 380.662 662.082C378.81 665.789 376.317 670.271 373.657 674.99C361.026 697.57 343.748 728.341 343.344 769.357C342.94 799.251 352.236 826.651 366.921 852.366C371.905 860.961 376.654 871.071 383.559 878.317C393.057 888.428 405.788 893.248 413.602 905.279C421.921 918.188 422.729 937.364 411.177 947.475C401.241 956.204 386.489 955.395 373.252 955.665C346.408 956.518 320.168 963.853 296.769 977.045C273.37 990.237 253.505 1008.89 238.868 1031.43C230.245 1044.91 223.577 1059.91 213.001 1071.87C205.204 1081.35 194.4 1087.86 182.386 1090.34ZM177.805 1032.41C175.094 1032.42 172.405 1031.9 169.89 1030.89C147.392 1021.89 149.379 991.289 150.019 981.245C151.462 966.699 154.709 952.389 159.685 938.645C163.525 926.479 167.196 915.053 167.768 903.797C170.463 853.007 163.323 807.609 146.55 768.986C137.386 748.358 124.993 729.324 109.838 712.602C105.446 708.107 100.741 703.929 95.7595 700.098C84.4766 690.965 71.6781 680.584 65.9861 666.564C60.2941 652.544 63.0559 638.591 65.4136 627.772C66.2992 624.188 66.9629 620.553 67.4007 616.886C68.6069 600.803 67.7693 584.632 64.9083 568.759C59.6541 535.967 35.5053 512.375 7.65164 485.042C1.55549 479.11 -4.70906 472.976 -10.8726 466.64C-11.2767 466.236 -47.6179 423.804 -38.1538 396.606C-36.4789 391.867 -33.4764 387.711 -29.5049 384.633C-25.5333 381.555 -20.7605 379.686 -15.7562 379.249C-14.5054 379.087 -13.2453 379.008 -11.984 379.013C-4.04747 379.409 3.61904 382.024 10.144 386.563L18.9683 391.753C33.3498 400.179 48.2703 408.874 60.3278 423.029C66.5587 430.343 72.1496 438.027 77.5722 445.441C81.3107 450.564 84.8472 455.552 88.552 460.102C112.869 490.974 135.705 510.656 160.156 521.98C201.314 541.595 240.754 545.875 269.584 548.942C302.254 552.312 342.873 566.265 350.619 611.73C356.008 643.377 340.313 672.024 327.683 695.009C314.783 718.601 310.102 737.778 309.698 768.784C309.748 794.194 315.503 819.269 326.538 842.155C327.481 844.244 330.344 848.895 333.274 853.277C344.86 871.813 359.241 894.933 353.886 913.941C352.804 917.787 350.925 921.362 348.372 924.433C345.819 927.505 342.649 930.005 339.067 931.77C331.448 935.237 323.108 936.821 314.75 936.387H308.957C289.793 936.657 268.271 947.947 243.246 970.932C241.36 972.685 235.399 980.369 231.054 985.997C214.214 1007.84 201.314 1023.74 189.155 1029.61C185.636 1031.4 181.753 1032.36 177.805 1032.41ZM181.51 1014.54C180.715 1015.02 179.828 1015.34 178.906 1015.46C177.985 1015.58 177.048 1015.51 176.155 1015.25C165.478 1010.97 166.253 991.019 166.825 982.324C168.543 955.665 183.194 931.062 184.609 904.808C187.404 851.389 179.826 803.43 162.009 762.313C152.127 740.052 138.769 719.506 122.435 701.446C110.815 688.37 88.0469 676.102 81.5802 660.228C75.9219 646.343 82.8263 632.524 84.1736 618.538C85.4892 601.016 84.6067 583.399 81.5465 566.097C74.1032 519.789 35.8085 490.569 1.08404 454.878C-5.18052 448.441 -39.0967 399.235 -13.7017 395.966C-8.34651 395.292 -3.29439 398.19 1.31983 400.954C18.16 411.065 35.0002 419.355 47.4282 433.949C57.3303 445.576 65.7503 458.552 75.2145 470.55C96.5342 497.512 121.289 522.62 153.016 537.281C196.531 558.008 237.621 562.49 267.53 565.76C297.438 569.029 327.919 580.218 333.779 614.628C338.09 639.905 325.022 664.508 312.695 686.988C297.404 714.826 293.026 737.542 292.487 768.616C292.535 796.501 298.782 824.027 310.775 849.198C317.006 862.949 352.068 906.257 330.984 916.907C324.248 920.277 315.962 919.637 308.216 919.738C278.981 920.142 252.003 939.757 231.357 958.732C222.937 966.585 195.993 1007.57 181.51 1014.54ZM209.835 925.333C208.349 923.808 207.302 921.91 206.804 919.839C205.389 915.222 207.848 910.436 209.936 906.088C224.419 876.059 219.872 845.424 215.729 813.676C212.165 785.311 204.684 757.579 193.5 731.273C184.88 711.762 173.799 693.436 160.527 676.742C148.234 661.104 126.847 650.151 117.888 632.659C110.613 618.403 117.079 605.461 118.528 591.104C120.38 572.5 118.225 552.279 109.4 535.596C106.874 530.877 103.809 525.788 104.887 520.531C105.3 518.596 106.254 516.818 107.637 515.403C109.02 513.989 110.776 512.998 112.701 512.543C126.779 509.375 146.381 538.124 157.967 545.1C192.422 565.659 232.502 568.152 271.47 572.365C310.439 576.578 312.864 591.711 314.11 598.99C316.939 615.572 305.791 635.895 295.956 653.791C277.095 688.134 272.952 716.343 272.548 748.158C272.568 768.81 275.494 789.357 281.238 809.193C285.582 824.933 312.729 854.995 309.765 869.858C308.829 873.471 307.013 876.797 304.48 879.537C301.947 882.277 298.776 884.348 295.249 885.564C285.515 889.338 275.04 887.754 265.206 891.461C252.753 896.002 241.311 902.94 231.525 911.885C227.349 916.031 216.268 931.062 209.835 925.333ZM253.822 867.735C252.314 866.693 251.035 865.355 250.062 863.802C249.09 862.249 248.443 860.514 248.163 858.702C240.046 812.462 240.181 768.144 220.983 723.69C212.645 704.333 201.87 686.121 188.92 669.496C182.453 661.177 175.444 653.296 167.937 645.904C153.387 631.648 142.441 622.548 143.081 599.833C143.316 591.643 147.728 582.982 155.475 580.285C161.048 578.962 166.88 579.218 172.315 581.027L246.412 598.519C256.819 600.945 267.227 601.72 277.331 603.405C286.424 604.922 293.598 607.012 287.603 618.909C268.001 657.633 251.464 693.863 249.106 738.047C247.667 764.425 250.615 790.859 257.83 816.271C261.198 828.202 271.672 843.233 272.75 855.063C273.794 865.207 263.892 874.543 253.822 867.735ZM1887.79 225.127C1864.22 184.684 1826.36 154.352 1786.92 129.412C1581.47 -1.25296 1321.96 -18.2054 1080.98 16.9127C1030.46 24.2936 978.792 34.3707 936.49 62.8157C910.933 80.3387 889.994 103.791 875.46 131.169C860.927 158.547 853.231 189.038 853.03 220.038C853.333 331.594 985.36 391.012 981.386 495.49C978.86 561.21 943.428 623.02 962.356 689.751C972.46 725.982 1004.29 756.213 1003.08 793.859C1001.66 838.009 956.597 867.162 939.083 907.74C901.226 995.67 1001.46 1104.53 952.555 1186.8C937.567 1211.97 911.364 1228.02 891.459 1249.52C871.554 1271.02 858.351 1305.06 875.124 1329.06C905.133 1371.93 975.054 1328.35 1024.26 1345.91C1060.77 1359.05 1076.97 1403.2 1110.75 1422.14C1149.69 1444.05 1202.36 1424.4 1228.09 1387.87C1253.83 1351.33 1257.4 1303.31 1251.27 1259.02C1246.15 1221.95 1234.43 1184.88 1211.56 1155.39C1175.12 1108.37 1108.97 1074.5 1109.71 1014.91C1110.38 957.788 1176.33 916.637 1175.12 859.545C1173.94 803.97 1109.3 763.931 1111.53 708.389C1112.4 686.752 1123.92 666.631 1139.18 651.095C1204.79 585.105 1316.71 608.899 1399.49 651.33C1482.28 693.762 1566.18 752.135 1658.6 741.687C1742.19 732.25 1814.1 658.914 1821.95 575.095C1826.29 528.754 1813.63 478.975 1834.21 437.252C1848.89 407.458 1878.26 387.304 1894.66 358.455C1917.8 318.113 1911.17 265.571 1887.79 225.127ZM1156.93 1397.74C1150.08 1397.86 1143.33 1396.19 1137.33 1392.89C1127.22 1387.19 1117.72 1376.04 1107.72 1364.24C1091.96 1345.64 1074.04 1324.54 1045.72 1314.33C1032.63 1309.83 1018.86 1307.65 1005.03 1307.89C990.361 1308.18 975.73 1309.5 961.245 1311.83C950.79 1313.53 940.238 1314.57 929.653 1314.93C916.181 1314.93 914.126 1311.8 912.813 1309.74C908.064 1303 914.463 1285.18 926.285 1272.4C932.415 1265.66 939.757 1259.43 947.402 1252.65C962.39 1239.47 979.399 1224.54 991.591 1204.05C1024.46 1148.85 1006.68 1088.28 990.985 1034.87C978.489 992.434 966.735 952.328 980.173 921.052C985.36 909.02 994.959 896.854 1005.13 883.979C1024.13 859.916 1045.55 832.617 1046.86 794.937C1047.87 763.055 1033.62 737.441 1021.03 714.86C1014.29 702.761 1007.89 691.268 1004.86 680.551C995.464 647.488 1003.14 614.662 1012 576.645C1017.93 551.2 1024.06 524.878 1025.14 496.77C1027.6 432.432 989.469 383.428 955.856 340.154C925.544 301.194 896.949 264.425 896.814 219.937C897.077 194.489 903.442 169.476 915.375 147.002C927.308 124.528 944.46 105.25 965.388 90.7888C1003.01 65.4782 1052.52 56.6144 1095.93 50.2783C1164.23 40.1283 1233.18 34.9245 1302.23 34.7077C1490.06 34.7077 1650.48 76.1282 1778.97 157.857C1806.86 175.585 1846.33 203.591 1868.7 241.878C1888.26 275.58 1890.93 314.978 1875.43 342.075C1868.36 353.214 1860.13 363.573 1850.88 372.981C1838.25 386.866 1823.93 402.639 1814.07 422.625C1796.86 457.675 1797.9 495.388 1798.91 528.451C1799.64 543.05 1799.52 557.679 1798.54 572.264C1792.21 639.669 1732.26 700.907 1664.93 708.49C1658.9 709.166 1652.84 709.504 1646.78 709.501C1587.2 709.501 1529.64 678.158 1468.67 644.994C1454.39 637.209 1439.61 629.154 1424.89 621.638C1368.34 592.62 1309.1 576.679 1258.1 576.679C1204.42 576.679 1158.51 594.306 1125.37 627.637C1102.4 650.757 1089.1 679 1087.95 707.176C1086.37 746.574 1107.01 777.344 1125.23 804.509C1138.71 824.36 1151.14 843.098 1151.51 860.388C1151.91 878.688 1139.25 897.461 1124.56 919.536C1106.71 946.194 1086.54 976.426 1086.06 1014.64C1085.39 1070.15 1124.02 1106.28 1158.11 1138.16C1171.4 1149.88 1183.78 1162.59 1195.16 1176.18C1212 1197.92 1223.08 1227.41 1228.13 1263.81C1232.34 1294.38 1232.78 1337.38 1210.78 1368.59C1198.59 1385.74 1176.5 1397.74 1156.93 1397.74ZM1151.27 1383.62C1143.42 1381.26 1137.8 1372.84 1131.33 1365.32C1117.86 1349.21 1103.54 1333.44 1086.54 1320.83C1062.29 1302.84 1041.44 1299.2 1012.1 1295.15C1005.03 1294.21 997.317 1292.89 992.568 1287.57C986.674 1280.83 987.752 1270.28 992.568 1262.9C1002.1 1248.51 1013.05 1243.59 1019.98 1226.6C1028.4 1206.04 1032.42 1183.94 1031.77 1161.72C1030.53 1115.79 1013.11 1072.11 1000.31 1028.56C989.705 992.502 993.174 955.227 1001.43 936.084C1004.79 928.433 1013.65 917.075 1022.31 906.122C1036.52 888.125 1041.67 862.646 1053.93 843.199C1064.04 827.325 1083.71 815.631 1096.2 835.515C1109.34 856.411 1091.35 876.767 1080.34 893.248C1059.02 925.13 1050.5 964.832 1050.03 1018.59C1049.42 1067.93 1065.08 1124.51 1100.55 1160.48C1131.43 1191.62 1163.19 1223.47 1178.01 1265.76C1187.81 1293.84 1198.76 1360.57 1167.91 1380.15C1161.21 1384.5 1155.88 1385.04 1151.27 1383.62ZM1030.16 661.576C1008.09 663.733 1028.4 591.609 1031.43 578.634C1037.36 553.155 1044.1 524.272 1045.31 492.928C1047.6 432.264 1018.37 372.408 979.736 327.078C942.687 283.467 907.39 241.271 929.821 179.022C954.307 111.044 1019.14 102.349 1080.78 93.3502C1145.78 83.6984 1211.39 78.7425 1277.1 78.5211C1438.77 78.5211 1596.39 112.965 1734.24 200.356C1760.99 217.207 1787.83 237.429 1800.59 266.278C1826.29 324.55 1765.5 355.556 1742.93 401.291C1721.58 444.531 1722.73 488.479 1723.97 523.766C1724.61 536.388 1724.53 549.035 1723.74 561.648C1719.29 609.303 1675.37 654.06 1627.88 659.385C1623.41 659.893 1618.91 660.141 1614.41 660.127C1566.15 660.127 1514.04 631.783 1458.91 601.754C1444.59 593.969 1429.94 585.981 1415.12 578.432C1354.26 547.223 1289.83 530.035 1233.75 530.035C1192.36 530.035 1148 540.146 1112.23 563.468C1093.48 575.632 1077.36 591.449 1064.85 609.977C1056.09 623.02 1048.78 657.161 1031.54 661.306C1031.08 661.42 1030.62 661.51 1030.16 661.576ZM1152.72 1332.59C1135.54 1330.13 1120.82 1304.28 1106.58 1293.74C1090.11 1281.5 1044.81 1281.3 1042.89 1255.05C1042.35 1247.33 1055.11 1217.53 1057.87 1207.86C1062.39 1192.02 1067.14 1177.97 1086.54 1187.64C1114.66 1201.66 1136.48 1248.94 1146.28 1277.02C1152.28 1294.07 1158.81 1314.83 1152.72 1332.59ZM1613.3 607.922C1599.56 608.78 1585.78 607.217 1572.58 603.304C1537.69 592.958 1507.95 570.411 1476.76 551.638C1416.36 515.607 1348.9 493.062 1278.99 485.547C1247.63 482.177 1206.07 476.515 1175.92 487.704C1150.8 497.04 1126.72 524.339 1098.16 523.16C1072.59 522.081 1080.04 498.86 1080.88 476.65C1084.25 387.844 1034.63 323.977 998.395 277.366C976.704 249.461 956.193 223.139 956.159 204.535C955.991 130.76 1037.36 122.031 1092.94 111.55C1295.77 73.4594 1505.49 102.553 1690.32 194.424C1714.95 206.861 1740.21 221.117 1756.44 244.169C1776.31 272.446 1766.91 287.275 1747.88 312.282C1712.08 359.466 1690.02 415.075 1689.05 474.695C1688.44 510.723 1694.1 550.627 1672.2 579.173C1658.53 597.575 1636.47 606.439 1613.3 607.922ZM1368.64 1523.32C1319.07 1523.32 1288.82 1490.02 1285.52 1458.68C1284.56 1445.29 1286.42 1431.86 1290.98 1419.24C1299.77 1392.45 1314.32 1367.34 1328.39 1343.04C1352.38 1301.69 1375.01 1262.66 1365.21 1222.29C1357.56 1190.84 1331.8 1167.11 1304.58 1141.97C1298.42 1136.28 1291.99 1130.38 1285.89 1124.45C1237.76 1077.8 1220.92 1024.99 1240.86 983.638C1247.19 971.686 1255.12 960.653 1264.44 950.845C1275.05 938.712 1284.21 928.197 1285.55 916.233C1286.66 906.56 1282.46 895.641 1278.01 884.081C1276.16 879.261 1274.24 874.273 1272.59 869.083C1258.85 826.112 1269.76 778.524 1299.53 750.652C1312.24 738.575 1329.16 731.957 1346.68 732.217C1382.28 732.217 1420.34 755.809 1457.16 778.962C1482.08 794.533 1505.65 809.295 1524.35 813.979C1535.19 816.675 1546.41 819.271 1557.29 821.765C1598.14 831.168 1640.41 840.874 1678.7 861.635C1714.54 881.081 1753.04 922.636 1779.17 970.123C1827.81 1058.42 1821.71 1140.32 1763.24 1183.87C1728.11 1209.98 1682.98 1210.19 1643.17 1210.36H1630.41C1579.28 1210.96 1546.21 1223.57 1531.89 1247.8C1525.16 1259.39 1522.46 1273.95 1519.7 1289.35L1519.26 1291.81C1510.2 1342.37 1499.36 1382.81 1485.11 1418.23C1464.26 1470.24 1436.88 1502.49 1401.38 1516.98C1390.91 1521.18 1379.72 1523.3 1368.44 1523.22L1368.64 1523.32ZM1761.26 984.986C1736.47 939.96 1700.4 901.033 1667.49 883.171C1621.25 858.096 1568.1 849.873 1517.07 837.032C1455.17 821.495 1362.14 719.073 1307.82 769.627C1281.21 794.432 1274.14 835.92 1285.32 870.734C1291.01 888.664 1301.11 906.223 1298.99 924.895C1295.62 953.879 1265.31 971.471 1252.65 997.726C1232.78 1038.98 1261.4 1087.21 1294.21 1119.06C1327.01 1150.9 1367.36 1180.53 1378.17 1225.02C1395.82 1297.65 1326.88 1360.2 1303.61 1431.21C1299.79 1441.56 1298.19 1452.59 1298.89 1463.6C1303.07 1503.26 1354.97 1523.22 1391.88 1508.19C1428.8 1493.15 1451.46 1455.78 1466.32 1418.77C1482.15 1379.24 1492.05 1337.58 1499.53 1295.66C1502.59 1278.57 1505.39 1260.98 1514.21 1246.05C1535.77 1209.41 1584.53 1200.82 1627.04 1200.31C1669.54 1199.81 1715.92 1202.4 1750.01 1177.02C1810.13 1132.33 1798.14 1051.92 1761.26 984.986ZM1368.64 1472.76C1354.06 1472.76 1336.95 1464.81 1335.77 1453.35C1335.66 1447.07 1336.8 1440.82 1339.14 1434.98C1346.25 1413.25 1358.88 1391.47 1372.25 1368.42C1398.85 1322.48 1429.03 1270.45 1414.41 1210.36C1403.03 1164.01 1368.88 1132.54 1338.8 1104.77C1332.61 1099.04 1326.74 1093.61 1321.12 1088.15C1297.54 1065.4 1274.61 1030.11 1286.43 1005.58C1290.94 997.784 1296.38 990.564 1302.63 984.076C1316.1 968.674 1332.74 949.565 1335.91 921.895C1338.4 899.921 1331.12 881.047 1325.3 865.881C1323.61 861.534 1321.93 857.422 1320.82 853.681C1313.07 829.348 1318.59 802.183 1334.29 787.59C1335.96 785.938 1337.95 784.653 1340.14 783.818C1342.33 782.982 1344.68 782.614 1347.02 782.737C1368.17 782.737 1401.41 803.498 1430.75 821.832C1459.14 839.559 1485.99 856.343 1512.39 862.949C1523.74 865.814 1535.23 868.443 1546.31 871.004C1585.61 880.036 1622.73 888.563 1654.96 906.055C1682.34 920.884 1713.87 955.598 1735.25 994.49C1752.33 1025.46 1761.76 1056.77 1761.83 1082.66C1761.83 1109.15 1752.6 1128.96 1733.44 1143.32C1711.64 1159.53 1678.44 1159.7 1643.27 1159.84H1630.14C1560.12 1160.68 1512.53 1181.64 1488.68 1222.15C1477.23 1241.63 1473.56 1262.29 1470.29 1280.56L1469.89 1282.95C1461.43 1330.13 1451.5 1367.21 1438.53 1399.46C1423.27 1437.51 1404.51 1461.31 1382.69 1470.24C1378.26 1471.96 1373.53 1472.82 1368.78 1472.76H1368.64ZM1459.41 1149.76C1427.15 1142.01 1420.48 1100.79 1398.79 1078.68C1380.26 1059.74 1345.44 1044.13 1341.29 1016.06C1336.34 982.357 1377.53 949.7 1377.43 910.267C1377.43 890.551 1381.98 866.757 1400.44 859.714C1427.38 849.603 1472.58 891.63 1499.9 898.472C1511.68 901.437 1523.47 904.134 1534.62 906.729C1572.21 915.357 1604.51 922.771 1630.68 937.061C1664.69 955.53 1729.43 1034.09 1704.98 1074.84C1695.48 1090.71 1676.58 1099 1658.16 1100.38C1616.63 1103.52 1590.29 1096.31 1548.8 1111.4C1521.62 1121.28 1495.21 1154.64 1464.13 1150.63C1462.54 1150.43 1460.97 1150.14 1459.41 1149.76ZM1469.75 1097.18C1453.35 1096 1449.54 1078.28 1442.81 1065.47C1433.9 1047.96 1420.41 1033.2 1403.77 1022.77C1392.25 1016.03 1379.93 1006.52 1379.05 993.142C1379.09 986.959 1380.42 980.852 1382.96 975.212C1391.94 950.497 1401.02 925.872 1410.2 901.336C1420.51 873.296 1440.52 884.485 1459.11 896.416C1487.2 914.48 1518.66 921.288 1550.79 928.568C1599.25 939.589 1643.85 960.552 1669.21 1005.88C1675.47 1017 1676.65 1032 1668.67 1041.98C1656.88 1056.71 1634.21 1053 1615.45 1051.21C1577.91 1047.74 1540.34 1057.56 1509.29 1078.95C1498.45 1086.43 1487.77 1095.8 1474.67 1097.05C1473.04 1097.24 1471.39 1097.29 1469.75 1097.18ZM1485.18 1025.13C1469.35 1021.12 1456.85 1008.27 1445.57 995.973C1435.84 985.357 1425.8 974.336 1421.12 960.687C1403.17 908.279 1456.52 920.884 1485.11 928.366C1514.78 936.084 1545.73 942.251 1573.62 955.328C1581.2 958.9 1603.93 967.933 1601.14 978.92C1598.68 989.03 1545.2 1008.14 1535.13 1013.3C1520.88 1020.54 1505.45 1028.02 1489.62 1025.87C1488.13 1025.7 1486.64 1025.46 1485.18 1025.13ZM16.9139 1062.33L14.8931 1058.96C-9.39049 1020.27 -21.0439 985.593 -23.1321 939.151C-25.4561 886.945 -23.7384 830.258 -54.6907 788.163C-80.692 752.843 -126.059 733.868 -146.739 695.178C-164.287 662.351 -160.211 622.818 -160.211 585.577C-160.683 510.69 -214.302 444.767 -290.454 434.117C-333.531 428.084 -415.307 443.318 -455.487 464.854C-518.504 498.557 -524.532 574.185 -536.118 636.4C-558.381 754.966 -693.339 808.182 -693.339 931.938C-693.388 963.507 -686.729 994.725 -673.803 1023.52C-660.878 1052.32 -641.981 1078.04 -618.366 1098.97C-598.158 1116.63 -574.312 1130.68 -548.041 1136.04C-475.696 1150.47 -399.073 1096.98 -329.86 1122.56C-293.552 1136.04 -267.551 1169.44 -253.843 1205.67C-239.63 1243.28 -245.187 1285.61 -220.432 1316.55C-204.568 1336.37 -169.911 1354.43 -149.164 1370.04C-127.205 1386.69 -41.1848 1465.72 -9.55887 1443.54C20.0125 1422.78 10.1778 1347.66 15.0615 1314.63C28.1631 1226.09 66.963 1140.12 16.9139 1062.33ZM-51.1879 1365.99C-93.6926 1372.53 -161.862 1306.37 -177.927 1272.57C-193.993 1238.77 -201.2 1202.2 -218.007 1169.34C-230.907 1144.56 -248.809 1122.73 -270.579 1105.23C-292.349 1087.73 -317.513 1074.95 -344.477 1067.69C-429.991 1045.18 -511.835 1125.19 -585.123 1060.95C-603.311 1044.85 -617.863 1025.07 -627.811 1002.9C-637.759 980.737 -642.875 956.707 -642.818 932.41V931.972C-642.818 883.946 -612.034 847.446 -576.4 805.217C-533.323 754.123 -497.756 701.716 -485.463 634.816C-480.041 604.787 -476.066 573.848 -462.156 546.684C-435.212 493.872 -366.234 483.525 -312.11 483.525C-307.201 483.46 -302.294 483.741 -297.425 484.368C-176.176 501.219 -233.197 636.636 -197.024 712.13C-174.829 758.471 -120.435 781.389 -94.1641 825.539C-47.0115 905.01 -79.8836 1002.92 -27.7464 1086.03L-25.355 1089.77C3.64382 1134.9 2.49869 1201.76 -2.82281 1252.89C-5.71933 1280.93 -9.79473 1312.95 -22.2565 1338.66C-31.0807 1356.49 -40.7807 1364.28 -51.1879 1365.99ZM-73.6193 1296.87C-91.874 1303.44 -114.81 1287.64 -132.324 1250.83C-138.627 1236.68 -144.125 1222.19 -148.794 1207.42C-155.324 1186.46 -163.431 1166.02 -173.044 1146.29C-189.218 1115.17 -211.676 1087.75 -238.995 1065.78C-266.315 1043.8 -297.899 1027.74 -331.746 1018.62C-346.782 1014.73 -362.256 1012.79 -377.787 1012.86C-408.537 1012.86 -437.199 1019.9 -462.493 1026.14C-482.701 1031.13 -501.697 1035.81 -517.392 1035.81C-523.726 1036.05 -530.044 1035.02 -535.981 1032.8C-541.918 1030.58 -547.356 1027.2 -551.982 1022.87C-564.722 1011.58 -574.916 997.712 -581.884 982.179C-588.853 966.647 -592.437 949.807 -592.398 932.781V931.938C-592.398 903.763 -572.695 879.059 -537.904 837.807C-504.56 798.274 -473.911 755.707 -454.545 707.445C-434.808 658.307 -444.845 594.946 -402.811 557.435C-378.427 535.697 -319.351 517.733 -288.534 538.022C-261.59 555.851 -264.385 593.025 -263.071 622.717C-261.522 658.341 -259.703 698.75 -242.863 733.936C-226.562 767.975 -200.19 790.792 -176.917 810.912C-161.02 824.663 -145.998 837.638 -137.848 851.355C-120.671 880.205 -117.404 915.053 -113.665 955.429C-109.118 1004.43 -103.965 1059.91 -70.79 1112.85L-68.1293 1117.03C-45.5634 1152.05 -38.8611 1206.21 -45.1593 1246.72C-49.5714 1275.6 -60.3492 1292.12 -73.6193 1296.87ZM-81.9719 1281.47C-90.493 1281.47 -104.672 1269.77 -117.101 1243.62C-123.114 1230.06 -128.366 1216.18 -132.829 1202.03C-139.621 1180.24 -148.054 1158.99 -158.056 1138.47C-175.307 1105.27 -199.261 1076.01 -228.4 1052.56C-257.539 1029.1 -291.228 1011.96 -327.334 1002.21C-343.765 997.943 -360.677 995.814 -377.652 995.872C-410.423 995.872 -440.129 1003.19 -466.333 1009.66C-485.53 1014.37 -503.617 1018.82 -517.257 1018.82C-521.581 1019.06 -525.907 1018.4 -529.964 1016.89C-534.021 1015.38 -537.722 1013.04 -540.834 1010.03C-551.748 1000.37 -560.48 988.488 -566.45 975.187C-572.42 961.885 -575.49 947.463 -575.457 932.882V932.039C-575.457 909.593 -557.202 886.878 -524.937 848.625C-482.836 798.678 -456.262 757.089 -438.849 713.815C-430.968 694.268 -427.533 673.372 -424.198 653.15C-418.843 620.728 -413.825 590.16 -391.495 570.208C-378.258 558.412 -349.057 546.212 -323.09 546.212C-314.205 545.772 -305.381 547.889 -297.661 552.312C-282.539 562.254 -280.821 582.274 -280.181 611.696C-280.181 615.774 -279.979 619.751 -279.811 623.661C-278.16 660.902 -276.274 703.131 -257.952 741.417C-240.135 778.659 -212.349 802.655 -187.829 823.854C-173.01 836.695 -158.965 848.828 -152.196 860.185C-136.972 885.766 -133.907 918.895 -130.337 957.215C-125.622 1008.07 -120.233 1065.74 -84.9357 1122.05C-84.1274 1123.37 -83.1844 1124.85 -82.1739 1126.4C-63.7508 1154.98 -55.2296 1203.48 -61.6963 1244.36C-65.4348 1268.26 -73.5181 1279.14 -79.3111 1281.23C-80.1777 1281.46 -81.078 1281.54 -81.9719 1281.47ZM-318.779 969.753C-338.002 964.747 -357.789 962.244 -377.652 962.304C-398.336 962.087 -418.981 964.133 -439.22 968.405C-456.464 972.28 -472.9 981.515 -490.717 983.402C-507.221 985.121 -525.475 980.032 -535.041 966.349C-543.225 954.755 -543.596 938.948 -538.948 925.535C-531.673 904.437 -513.317 887.147 -499.205 870.397C-454.646 817.585 -426.421 773.132 -407.594 726.285C-398.332 703.266 -394.425 679.438 -390.956 658.408C-386.443 630.94 -382.536 607.214 -369.131 595.216C-357.175 584.532 -332.992 572.096 -319.318 586.116C-305.037 600.743 -311.74 627.907 -311.807 645.972C-311.891 670.892 -308.224 695.683 -300.928 719.511C-290.766 752.946 -273.819 783.924 -251.149 810.508C-231.109 833.864 -196.822 850.951 -181.127 877.239C-169.81 896.281 -167.049 925.872 -163.883 960.114C-159.066 1012.05 -237.441 991.12 -318.779 969.753ZM-205.377 954.62C-206.095 955.095 -206.849 955.512 -207.633 955.867C-213.965 958.698 -221.341 957.182 -228.111 955.597C-255.055 949.396 -282.236 944.408 -308.944 937.499L-310.325 937.162C-362.585 923.018 -417.968 925.695 -468.623 944.813C-474.652 947.647 -481.123 949.425 -487.753 950.07C-494.489 950.07 -501.596 947.206 -504.189 941.072C-507.557 932.848 -501.663 923.917 -496.005 917.042C-470.846 886.406 -443.43 856.647 -420.089 824.629C-403.552 801.947 -383.411 766.256 -376.574 738.856C-367.784 717.017 -371.287 694.504 -368.963 671.754C-367.677 658.48 -363.516 645.645 -356.77 634.142C-355.086 631.345 -348.788 619.819 -345.083 619.751C-334.002 619.751 -335.922 656.318 -336.293 663.194C-337.438 685.303 -339.964 707.749 -333.362 729.352C-321.815 767.239 -302.6 802.344 -276.914 832.482C-266.236 844.209 -254.449 854.875 -241.718 864.331C-219.859 881.688 -200.257 903.628 -196.856 932.815C-195.677 941.004 -198.641 950.205 -205.377 954.62ZM-81.3992 1183.26C-85.7103 1173.15 -92.7833 1164.62 -98.0374 1155.02C-108.613 1135.81 -111.51 1113.46 -118.717 1092.73C-123.298 1079.25 -131.92 1075.04 -141.721 1066.58C-143.228 1065.03 -145.041 1063.82 -147.042 1063.01C-148.052 1062.63 -149.161 1062.6 -150.188 1062.93C-151.216 1063.26 -152.101 1063.93 -152.701 1064.83C-153.04 1065.79 -153.156 1066.82 -153.04 1067.84C-152.923 1068.85 -152.577 1069.83 -152.027 1070.69C-148.594 1078.39 -145.57 1086.27 -142.967 1094.28C-129.495 1138.1 -128.754 1187.07 -104.773 1226.36C-100.867 1232.8 -93.3894 1239.64 -86.8554 1235.9C-84.4405 1234.27 -82.6111 1231.91 -81.635 1229.16C-78.4843 1221.93 -76.8385 1214.13 -76.7979 1206.23C-76.7574 1198.34 -78.323 1190.53 -81.3992 1183.26ZM712.515 602.158C708.642 577.286 690.758 557.098 672.099 540.078C649.769 519.553 624.441 500.848 594.971 493.737C578.535 489.76 548.66 490.03 548.727 513.959C549.091 519.581 550.519 525.082 552.937 530.17C563.042 555.143 585.91 583.79 570.047 610.82C563.311 622.245 553.207 631.041 545.023 641.658C529.166 662.482 522.181 688.734 525.589 714.691C530.338 749.472 563.479 814.957 603.054 776.805C628.718 751.966 614.943 705.659 649.263 683.955C656.774 679.203 665.565 676.911 673.614 673.17C699.784 660.835 716.927 630.738 712.515 602.158ZM582.206 774.851C570.081 774.851 549.839 745.63 545.763 715.736C543.025 694.251 548.804 672.547 561.863 655.274C564.557 651.903 567.656 648.331 570.956 644.691C577.398 638.01 583.132 630.68 588.066 622.818C608.746 587.599 582.677 559.895 570.99 528.451C569.966 526.069 569.58 523.461 569.87 520.885C570.159 518.308 571.114 515.852 572.64 513.756C577.659 507.859 588.167 511.97 594.533 513.487C623.195 520.396 648.017 540.988 664.217 555.885C678.835 569.366 696.012 587.397 699.245 608.09C702.479 628.783 689.478 651.903 669.809 661.239C667.316 662.385 664.554 663.463 661.624 664.609C655.36 666.842 649.325 669.675 643.605 673.069C618.917 688.707 613.293 713.748 608.679 733.733C605.311 747.956 602.683 760.224 594.701 767.942C591.468 771.11 586.685 774.851 582.206 774.851ZM577.12 733.396C575.905 733.487 574.69 733.216 573.629 732.616C572.567 732.016 571.708 731.115 571.159 730.026C567.218 722.342 568.801 707.344 569.34 698.952C569.686 687.947 573.349 677.303 579.848 668.418C581.903 665.755 584.53 662.857 587.527 659.487C595.256 651.386 602.098 642.483 607.938 632.929C628.146 598.653 589.481 557.873 606.725 545.302C609.076 543.355 612.064 542.35 615.113 542.481C618.161 542.611 621.053 543.869 623.229 546.01C625.963 548.751 628.319 551.845 630.234 555.211C636.643 565.104 644.084 574.289 652.43 582.611C659.637 589.79 667.619 598.417 669.27 608.933C670.617 617.662 663.847 629.39 655.057 633.502C653.44 634.277 651.116 635.153 648.657 636.097C640.727 638.949 633.1 642.584 625.889 646.949C612.543 655.395 601.547 667.081 593.927 680.921C586.786 693.863 579.41 708.153 580.892 723.353C581.229 726.892 581.566 731.34 578.434 733.026C578.023 733.232 577.578 733.358 577.12 733.396ZM2280.2 773.907C2264.37 719.983 2245.17 666.564 2218.3 617.122C2199.3 582.375 2175.66 548.672 2142.24 527.103C2111.7 507.522 2075.32 499.669 2039.79 492.153C1931.71 469.303 1968.08 634.311 1943.19 689.381C1932.89 711.9 1918.11 732.083 1899.75 748.696C1881.4 765.309 1859.85 778.004 1836.43 786.006C1819.25 791.736 1800.62 795.207 1786.65 806.699C1772.67 818.192 1766.44 841.717 1779.47 854.153C1784.66 859.04 1791.8 861.23 1798.2 864.264C1833.77 881.755 1844.71 926.95 1846.73 966.551C1848.75 1006.15 1846.73 1049.12 1869.94 1081.31C1884.52 1101.53 1907.56 1115.01 1919.79 1136.82C1941.04 1174.53 1922.85 1222.72 1933.76 1264.65C1943.33 1301.49 1981.35 1331.52 2018.64 1323.9C2067.37 1313.79 2086 1253.8 2086.37 1204.05C2086.74 1154.31 2080.17 1098.97 2111.16 1060.04C2147.23 1014.71 2217.86 1013.5 2259.82 973.561C2285.39 949.228 2296.87 912.896 2297.92 877.711C2298.96 842.525 2290.14 807.778 2280.2 773.907ZM2006.82 1308.33C1982.36 1308.33 1956.9 1286.86 1950.03 1260.5C1946.02 1245.04 1946.66 1227.91 1947.17 1209.75C1948.08 1182.55 1948.99 1154.44 1934.47 1128.63C1926.42 1114.3 1915.14 1103.72 1904.16 1093.47C1896.61 1086.84 1889.7 1079.52 1883.51 1071.6C1866.67 1048.01 1865.36 1016.09 1864.11 982.425C1863.91 976.83 1863.71 971.303 1863.44 965.809C1860.44 906.729 1840.43 866.421 1805.54 849.266C1803.62 848.289 1801.63 847.446 1799.65 846.57C1796.52 845.418 1793.57 843.829 1790.89 841.851C1790.14 841.071 1789.57 840.126 1789.25 839.091C1788.92 838.056 1788.84 836.959 1789 835.886C1789.24 832.786 1790.09 829.764 1791.5 826.993C1792.91 824.223 1794.86 821.759 1797.22 819.742C1805.47 813.002 1817.13 809.463 1829.46 805.79C1833.56 804.543 1837.64 803.329 1841.68 801.981C1867.28 793.194 1890.83 779.295 1910.91 761.127C1930.98 742.959 1947.15 720.901 1958.45 696.29C1967.24 676.81 1969.26 648.297 1971.38 618.133C1976.13 550.728 1982.13 506.915 2020.66 506.915C2025.89 506.979 2031.11 507.577 2036.22 508.701C2069.9 515.812 2104.66 523.16 2133.05 541.359C2158.95 557.941 2181.28 584.599 2203.41 625.245C2226.41 667.575 2245.64 716.242 2264.03 778.726C2272.76 808.452 2281.98 843.065 2281.08 877.441C2280.17 911.818 2268.21 942.487 2248.24 961.698C2231.09 977.976 2207.82 987.278 2182.96 997.119C2152.05 1009.39 2120.08 1022.09 2097.96 1049.9C2068.11 1087.41 2068.79 1137.05 2069.36 1180.83C2069.36 1188.95 2069.56 1196.6 2069.36 1204.26C2068.96 1250.29 2052.01 1300.14 2015.1 1307.72C2012.32 1308.27 2009.49 1308.55 2006.65 1308.56L2006.82 1308.33ZM1985.73 1252.08C1981.63 1249.19 1978.64 1244.98 1977.28 1240.15C1974.62 1231.05 1977.28 1220.7 1977.48 1211.43C1978.49 1180.46 1979.74 1141.97 1958.28 1103.86C1938.28 1068.23 1904.16 1055.69 1897.66 1011.27C1893.58 983.975 1895.43 955.294 1884.83 929.815C1875.29 906.83 1855.93 887.249 1854.21 862.41C1852.02 830.493 1879.71 804.846 1906.79 787.826C1936.02 769.492 1963.03 753.584 1979.94 722.342C1999.47 686.314 2003.95 644.826 1999.57 604.619C1998.33 592.958 1996.21 580.656 2001.06 569.939C2015.24 538.056 2057.34 559.828 2076.8 572.669C2099.94 587.835 2117.93 620.358 2132.48 643.276C2167.07 697.67 2191.6 757.842 2204.92 820.922C2210.95 849.637 2214.22 881.081 2200.44 906.998C2183.27 939.286 2145.28 953.238 2111.12 966.382C2068.25 982.897 2043.43 1004.9 2021.3 1044.44C1998.33 1085.45 1998.09 1135.67 1998.7 1181.3C1998.93 1202.5 1996.71 1233.71 1985.73 1252.08ZM1977.18 1083.43C1966.87 1085.82 1957.58 1068.4 1950.5 1059.84C1942.19 1050.43 1936.55 1038.95 1934.2 1026.61C1933.06 1018.99 1932.45 1010.9 1931.78 1002.31C1930.19 982.088 1928.41 959.44 1919.18 937.196C1914.82 927.317 1909.73 917.775 1903.96 908.65C1897.59 898.101 1891.56 888.125 1891.06 880.441C1890.21 868.072 1903.99 851.726 1928.1 836.627L1932.15 834.066C1961.89 815.462 1992.6 796.218 2012.98 758.64C2034.06 719.713 2032.24 672.9 2034.33 629.997C2034.64 624.234 2035.31 617.729 2039.92 614.291C2041.84 613.068 2044.03 612.36 2046.3 612.236C2048.56 612.112 2050.82 612.576 2052.86 613.584C2056.9 615.68 2060.51 618.515 2063.5 621.942C2121.06 681.427 2158.65 767.908 2175.45 848.086C2179.73 868.308 2183.47 894.057 2174.24 911.346C2163.36 931.77 2133.83 943.161 2105.16 954.148L2102.54 955.159C2075.59 965.607 2050.06 980.268 2029.65 1001.2C2017.58 1014.07 2007.37 1028.58 1999.34 1044.3C1993.55 1055.05 1992.27 1069.75 1983.81 1079.15C1982.11 1081.25 1979.79 1082.74 1977.18 1083.43ZM1965.26 1047.47C1961.89 1048.45 1958.52 1044.91 1956.8 1032.68C1955.83 1025.93 1955.22 1018.35 1954.58 1010.26C1951.99 976.83 1947.24 942.049 1927.64 913.941C1922.85 907.201 1918.17 899.618 1918.07 891.293C1918.07 877.475 1932.52 873.127 1942.22 867.061C1973.37 847.547 2008.67 825.438 2032.42 781.625C2045.81 756.362 2052.27 727.999 2051.14 699.424C2050.91 693.088 2050.94 685.438 2056.33 682.101C2060.88 679.236 2067.21 681.427 2070.74 685.471C2083.31 700.031 2092.6 723.353 2101.5 740.575C2116.66 770.002 2129.29 800.67 2139.25 832.246C2145.58 852.468 2150.87 874.172 2145.38 894.63C2136.72 926.984 2111.23 933.017 2083.64 941.375C2056.06 949.733 2026.39 971.707 2006.18 992.468C1997.89 1001.2 1990.57 1010.79 1984.32 1021.08C1979.94 1028.13 1971.99 1045.58 1965.26 1047.47ZM1973.81 963.383C1972.62 963.197 1971.47 962.773 1970.44 962.136C1961.35 956.575 1962.09 936.387 1959.13 927.456C1954.85 914.683 1945.66 903.864 1941.92 890.922C1938.18 877.98 1951.42 876.43 1960.41 870.296C1967.14 865.645 1974.05 860.86 1980.62 855.905C2015.58 829.651 2047.98 795.915 2057.88 752C2058.18 748.855 2059.55 745.907 2061.75 743.642C2067.48 739.126 2071.42 748.664 2073.44 752.27C2078.66 761.504 2081.59 771.784 2085.7 781.524C2092.44 797.454 2098.41 813.698 2103.62 830.258C2109.51 848.996 2117.56 869.892 2102.94 887.013C2091.73 900.123 2073.41 903.864 2057.17 909.56C2036.64 916.909 2017.92 928.6 2002.31 943.835C1996.51 949.43 1983.82 964.731 1973.81 963.383ZM1968.63 909.054L1967.28 909.964C1966.69 910.5 1965.98 910.884 1965.21 911.084C1964.45 911.284 1963.64 911.293 1962.87 911.11C1961.25 910.369 1960.95 908.245 1960.91 906.459C1960.52 901.344 1961.41 896.212 1963.51 891.529C1967.58 883.845 1974.96 886.069 1980.95 881.418C1994.86 870.97 2004.53 856.006 2014.87 842.155C2021.2 833.56 2035.08 811.418 2048.89 818.125C2050.3 818.833 2051.51 819.888 2052.4 821.19C2053.3 822.492 2053.85 824 2054.01 825.573C2054.61 832.752 2050.37 838.211 2053.23 845.794C2055.08 849.319 2056.49 853.053 2057.44 856.916C2057.65 858.783 2057.42 860.673 2056.76 862.43C2056.09 864.188 2055.02 865.764 2053.64 867.027C2049.69 870.397 2041.51 871.375 2036.42 872.992C2033.06 874.138 2029.42 875.284 2026.02 876.363C2004.83 884.047 1987.02 896.786 1968.63 909.054ZM2109.24 1414.26C2090.78 1379.27 2054.04 1348.47 2016.22 1349.82C1988.6 1350.76 1961.92 1364.88 1934.54 1361.34C1895.44 1356.32 1870.55 1318.57 1838.62 1295.18C1786.82 1257.03 1716.66 1257.71 1652.74 1264.85C1640.28 1266.27 1625.79 1269.23 1620.37 1280.56C1615.99 1289.66 1619.43 1300.54 1623.74 1309.64C1639.96 1342.79 1667.76 1368.83 1701.88 1382.85C1731.72 1394.98 1764.99 1397.27 1794.36 1410.55C1853.67 1437.51 1886.14 1507.65 1879.78 1572.52C1873.41 1637.4 1833.9 1695.74 1783.08 1736.55C1753.14 1760.65 1715.72 1785.83 1714.54 1824.18C1714 1844.4 1724.91 1864.05 1739.97 1877.84C1755.02 1891.62 1773.92 1900.42 1792.92 1907.83C1809.22 1914.2 1827.34 1920.87 1835.59 1936.31C1843.37 1950.9 1839.93 1969.17 1846.16 1984.5C1853.47 2002.47 1872.27 2012.61 1889.95 2020.4C1907.63 2028.18 1927.47 2035.06 1945.82 2029.13C1957.92 2025.18 1967.58 2016.18 1976.47 2007.08C2014.13 1968.5 2046.02 1921.68 2055.05 1868.5C2060.3 1837.49 2057.64 1805.78 2057.31 1774.37C2056.6 1702.37 2068.36 1630.8 2092.06 1562.82C2104.86 1526.25 2126.35 1488.06 2120.69 1448.23C2118.84 1436.33 2114.96 1424.85 2109.24 1414.26ZM1930.7 1995.56C1923.72 1997.19 1916.42 1996.91 1909.58 1994.75C1901.95 1992.28 1894.99 1988.08 1889.23 1982.5C1883.46 1976.91 1879.06 1970.08 1876.34 1962.53C1873.18 1953.6 1872.54 1943.99 1870.68 1934.69C1864.42 1903.38 1833.63 1887.51 1806.69 1877.06L1805.31 1876.52C1790.86 1870.89 1774.53 1863.68 1762.87 1852.93C1753.71 1844.54 1748.15 1833.82 1748.39 1825.02C1748.86 1806.42 1771.97 1788.15 1794.5 1770.49C1797.87 1767.9 1801.23 1765.27 1804.37 1762.71C1867.05 1712.15 1906.86 1644.18 1913.56 1575.83C1921.78 1492.14 1878.56 1411.56 1808.51 1379.85C1790.83 1372.45 1772.46 1366.8 1753.68 1362.99C1740.46 1360.22 1727.47 1356.47 1714.81 1351.77C1702.92 1346.41 1692.17 1338.81 1683.15 1329.39C1671.83 1318.44 1644.05 1297.75 1669.91 1289.19C1678.37 1286.39 1689.65 1289.56 1697.84 1291.95C1739.53 1304.18 1780.66 1294.24 1818.82 1322.28C1827.61 1329.13 1836.03 1336.47 1844.01 1344.26C1866.81 1365.66 1892.64 1389.89 1930.43 1394.81C1934.9 1395.39 1939.4 1395.67 1943.9 1395.65C1959.27 1395.17 1974.51 1392.82 1989.31 1388.64C1998.57 1386.03 2008.07 1384.32 2017.66 1383.52H2018.84C2039.56 1383.52 2065.73 1403.54 2079.7 1430.03C2083.66 1437.23 2086.37 1445.04 2087.72 1453.15C2091.09 1477.38 2080.55 1502.96 2070.88 1524.53C2058.95 1550.93 2049.72 1578.47 2043.33 1606.73C2030.43 1662.78 2026.89 1720.51 2024.97 1777.81C2023.53 1820.68 2022.72 1864.35 2008.98 1904.97C1998.94 1933.18 1967.14 1987.37 1930.7 1995.56ZM1921.47 1978.5C1917.84 1978.49 1914.25 1977.8 1910.86 1976.48C1906.05 1974.23 1901.77 1970.98 1898.29 1966.97C1894.81 1962.95 1892.21 1958.25 1890.66 1953.16C1885.1 1937.46 1887.29 1922.66 1878.03 1908.07C1869.88 1895.67 1859.06 1885.24 1846.37 1877.57C1826.16 1864.93 1800.32 1861.25 1781.36 1847.81C1772.84 1841.77 1766.51 1831.49 1768.16 1821.18C1769.81 1810.87 1777.83 1803.99 1786.08 1798.47C1860.17 1748.92 1921.3 1668.31 1930.23 1577.61C1939.16 1486.92 1891.9 1399.29 1815.35 1364.61C1796.72 1356.72 1777.36 1350.68 1757.55 1346.58C1745.15 1344.01 1732.96 1340.53 1721.07 1336.17C1714.61 1333.54 1692.51 1324.37 1692.68 1315.31C1693.02 1299.03 1733.44 1315.31 1741.49 1316.18C1766.58 1318.68 1788.27 1320.83 1808.85 1335.9C1817.08 1342.35 1824.96 1349.26 1832.42 1356.59C1856 1378.57 1885.03 1405.93 1928.21 1411.49C1933.36 1412.15 1938.54 1412.47 1943.74 1412.47C1960.41 1411.98 1976.97 1409.48 1993.04 1405.02C2001.23 1402.71 2009.6 1401.15 2018.07 1400.34H2018.67C2031.3 1400.34 2052.83 1415.44 2064.65 1437.88C2067.69 1443.37 2069.8 1449.33 2070.88 1455.51C2073.64 1474.92 2064.14 1497.67 2055.25 1517.49C2042.89 1544.94 2033.3 1573.56 2026.62 1602.92C2013.35 1660.62 2009.78 1720.88 2007.83 1777.2L2007.63 1783.67C2006.31 1822.8 2005 1863.28 1992.71 1899.51C1984.66 1923.27 1967.68 1953.06 1947.74 1968.87C1940.33 1974.95 1931.07 1978.35 1921.47 1978.5ZM1925.08 1938.1C1917.13 1936.01 1917.23 1916.73 1913.26 1907.53C1908.04 1895.28 1900.96 1883.91 1892.27 1873.82C1874.84 1853.35 1850.66 1839.8 1824.1 1835.64C1818.82 1834.86 1812.69 1833.99 1809.89 1829.44C1806.52 1824.18 1809.89 1817.41 1813.26 1812.15C1833.3 1780.6 1859.1 1753.2 1883.75 1725.1C1908.41 1696.99 1932.18 1667.6 1947.41 1633.39C1962.63 1599.18 1968.59 1559.55 1956.4 1524.23C1951.58 1510.31 1944.17 1497.27 1939.56 1483.38C1925.89 1440.24 1961.92 1443.78 1993.45 1438.18C2005.03 1436.13 2018.27 1434.41 2027.5 1441.72C2034.88 1447.55 2037.6 1457.8 2036.63 1467.14C2035.18 1476.42 2032.33 1485.43 2028.17 1493.86C1995.25 1571.84 1977.14 1655.27 1974.76 1739.89C1973.78 1776.22 1975.7 1812.82 1970.14 1848.78C1967.57 1867.5 1962.53 1885.79 1955.15 1903.18C1950.57 1913.49 1943.37 1927.95 1934.24 1934.86C1930.4 1937.86 1927.4 1938.7 1925.08 1938.1ZM1927.81 1879.55C1927.26 1879.52 1926.73 1879.39 1926.22 1879.18C1922.25 1877.57 1920.7 1869.07 1918.88 1865.7C1914.99 1858.1 1910.21 1851 1904.63 1844.54C1896.1 1835.35 1885.78 1827.98 1874.32 1822.9C1867.05 1819.36 1845.39 1815.05 1844.38 1805.27C1843.37 1795.5 1857.85 1786.64 1862.97 1780.2C1870.92 1770.32 1879.17 1760.72 1887.59 1751.21L1897.69 1739.96C1912.43 1723.22 1925.78 1705.31 1937.61 1686.4C1943.2 1677.41 1951.08 1666.96 1954.11 1656.78C1955.52 1652.13 1953.81 1635.58 1961.55 1635.58C1966.84 1635.58 1950.81 1713.1 1949.97 1719.57C1946.97 1742.22 1949.09 1766.55 1947.71 1789.43C1946.33 1812.32 1944.34 1835.94 1941.61 1859.1C1941.39 1863.93 1940.15 1868.66 1937.98 1872.98C1936.09 1875.88 1931.75 1879.93 1927.81 1879.55ZM1920.97 1834.39C1917.6 1835.98 1915.01 1831.02 1914.23 1828.12C1909.45 1812.76 1895.94 1808.95 1883.01 1802.61C1880.89 1801.65 1879.18 1799.97 1878.19 1797.86C1876.27 1793.11 1880.59 1788.76 1883.38 1785.46C1887.35 1780.77 1891.09 1775.82 1894.93 1771.03L1906.62 1756.4C1908.78 1753.68 1911.27 1751.18 1913.36 1748.45C1915.44 1745.72 1916.72 1742.89 1918.64 1740.46C1919.14 1739.81 1919.77 1739.26 1920.49 1738.87C1921.21 1738.47 1922 1738.24 1922.82 1738.17C1924.25 1738.29 1925.59 1738.91 1926.59 1739.93C1927.6 1740.95 1928.21 1742.3 1928.31 1743.73C1928.2 1746.62 1927.71 1749.47 1926.86 1752.23C1926.42 1755.43 1926.53 1758.97 1926.39 1762.34C1926.09 1769.41 1926.09 1776.49 1925.82 1783.6C1925.26 1797.6 1924.85 1811.6 1924.61 1825.6C1924.85 1828.28 1924.15 1830.96 1922.62 1833.18C1922.15 1833.68 1921.59 1834.09 1920.97 1834.39ZM1171.01 2355.5C1163.43 2331.64 1134.73 2314.22 1138.91 2289.55C1140.56 2279.71 1147.36 2271.65 1151.77 2262.58C1156.04 2253.94 1158.08 2244.37 1157.71 2234.74C1157.34 2225.1 1154.58 2215.72 1149.67 2207.42C1144.76 2199.13 1137.86 2192.19 1129.59 2187.24C1121.33 2182.29 1111.96 2179.48 1102.33 2179.07C1068.65 2177.62 1040.66 2204.65 1007.76 2211.53C936.49 2226.39 870.409 2144.73 799.646 2161.91C752.191 2173.47 726.93 2223.56 692.341 2258.07C650.543 2299.76 553.005 2297.77 531.55 2359.38C526.094 2375.05 527.778 2395.47 541.857 2404.3C549.974 2409.39 560.213 2409.39 569.778 2408.72C655.326 2402.62 739.56 2356.21 822.852 2376.57C852.188 2383.75 878.896 2398.84 906.885 2410.27C963.899 2433.1 1025.74 2441.21 1086.7 2433.86C1108.56 2431.3 1131.03 2426.48 1148.64 2413.27C1166.26 2400.06 1177.71 2376.5 1171.01 2355.5ZM1042.89 2419.6C998.47 2419.66 954.455 2411.21 913.217 2394.7C904.561 2391.33 895.737 2387.15 887.215 2383.27C868.085 2374.54 848.315 2365.55 826.86 2360.29C810.968 2356.47 794.671 2354.59 778.327 2354.69C739.19 2354.69 700.154 2364.5 662.432 2373.97C631.514 2381.76 599.551 2389.78 568.599 2392C565.938 2392.2 563.85 2392.27 561.863 2392.27C558.01 2392.56 554.15 2391.82 550.681 2390.11C544.551 2386.27 544.181 2374.11 547.313 2365.01C557.417 2336.36 591.097 2323.92 627.135 2310.78C655.225 2300.67 684.224 2289.88 704.095 2270.1C714.584 2259.26 724.522 2247.9 733.869 2236.06C755.188 2209.94 775.329 2185.27 803.486 2178.4C808.824 2177.11 814.296 2176.46 819.787 2176.47C844.61 2176.47 870.14 2188.71 897.252 2201.65C926.655 2215.74 957.035 2230.3 989.806 2230.3C996.969 2230.3 1004.11 2229.57 1011.13 2228.11C1027.06 2224.74 1041.17 2217.79 1054.91 2211.02C1070.47 2203.27 1085.22 2195.95 1099.74 2195.95H1101.59C1108.43 2196.24 1115.08 2198.23 1120.95 2201.74C1126.83 2205.25 1131.73 2210.18 1135.22 2216.06C1138.71 2221.95 1140.67 2228.62 1140.94 2235.46C1141.2 2242.3 1139.75 2249.1 1136.72 2255.24C1135.61 2257.5 1134.16 2259.92 1132.61 2262.45C1127.72 2269.83 1124.29 2278.08 1122.51 2286.75C1118.8 2308.66 1131.57 2325.51 1141.84 2339.02C1147.57 2346.6 1152.99 2353.75 1155.31 2360.63C1159.86 2374.81 1150.46 2390.96 1138.88 2399.79C1123.42 2411.38 1102 2415.16 1084.99 2417.14C1071.1 2418.77 1057.14 2419.59 1043.16 2419.6H1042.89ZM1042.79 2386.64C1011.46 2383.27 979.971 2383.27 950.029 2369.79C915.777 2354.26 880.783 2339.8 844.037 2331.27C796.885 2320.35 746.061 2319.68 701.468 2338.48C693.486 2341.85 685.571 2345.86 676.982 2347.11C646.401 2351.49 658.02 2327.33 675.231 2318.67C692.442 2310 713.862 2308.15 728.008 2294.03C739.294 2282.42 749.974 2270.24 760.005 2257.53C770.446 2244.76 782.133 2224.5 797.053 2217.09C816.184 2207.38 844.004 2214.12 862.629 2221.5C887.047 2231.14 909.04 2246.2 933.694 2255.2C956.605 2263.31 981.077 2266.01 1005.2 2263.08C1029.32 2260.16 1052.45 2251.7 1072.76 2238.35C1077.19 2234.83 1082.25 2232.21 1087.68 2230.63C1093.2 2229.56 1099.87 2231.61 1101.96 2236.84C1102.98 2240.53 1102.82 2244.46 1101.49 2248.06C1095.6 2270.71 1082.76 2296.83 1091.96 2319.37C1099.33 2337.51 1122.27 2358.6 1110.38 2379.53C1102 2394.67 1084.99 2394.46 1070.27 2391.09C1061.2 2389.09 1052.02 2387.6 1042.79 2386.64ZM1074.24 2361.87C1073.3 2363.78 1071.97 2365.48 1070.34 2366.86C1068.72 2368.23 1066.82 2369.25 1064.78 2369.86C1051.85 2374.17 1032.78 2362.78 1020.46 2359.55L801.533 2302.05C791.732 2299.45 780.617 2295.82 776.643 2286.48C772.197 2276.17 779.101 2264.27 787.959 2257.39C815.072 2236.26 854.579 2245.26 885.632 2259.65C916.686 2274.04 948.548 2293.35 982.733 2289.98C1001.36 2288.13 1020.15 2279.47 1038.07 2284.9C1053.13 2289.41 1063.87 2303.3 1068.85 2318.23C1072.93 2329.48 1080.1 2349.87 1074.24 2361.87Z" stroke="#424249" stroke-opacity="0.03" stroke-width="2" stroke-miterlimit="10"/>
</svg>
