<svg width="124" height="167" viewBox="0 0 124 167" fill="none" xmlns="http://www.w3.org/2000/svg">
<path d="M35.8092 150.26L97.7683 114.507L88.1724 108.969L26.2134 144.722L35.8092 150.26Z" fill="#DD9A3A"/>
<path d="M88.1544 103.031L78.5586 108.569L88.1635 114.07L97.7866 108.569L88.1544 103.031Z" fill="#CC8425"/>
<path d="M88.1724 114.061L88.1633 119.09L78.5493 113.543V108.551L88.1724 114.061Z" fill="#BF7113"/>
<path d="M61.9865 118.089L52.3906 123.627L61.9865 129.137L71.6187 123.627L61.9865 118.089Z" fill="#CC8425"/>
<path d="M61.9863 129.146V134.175L52.3723 128.628V123.636L61.9863 129.146Z" fill="#BF7113"/>
<path d="M35.7911 133.202L26.1953 138.739L35.8093 144.25L45.4234 138.739L35.7911 133.202Z" fill="#CC8425"/>
<path d="M35.8093 144.259V149.278L26.1953 143.74L26.2044 138.721L35.8093 144.259Z" fill="#FAC952"/>
<path d="M35.8093 144.259V149.278L45.4324 143.74L45.4234 138.721L35.8093 144.259Z" fill="#EDB659"/>
<path d="M88.1724 114.061L88.1633 119.09L97.7955 113.552L97.7774 108.551L88.1724 114.061Z" fill="#EDB659"/>
<path d="M35.8093 150.26V151.879L97.7775 116.116V114.507L35.8093 150.26Z" fill="#EDB659"/>
<path d="M61.9863 129.155V134.175L71.6094 128.637L71.6004 123.618L61.9863 129.155Z" fill="#EDB659"/>
<path d="M9.66852 135.166L71.6276 99.4126L62.0318 93.875L0.0817871 129.628L9.66852 135.166Z" fill="#DD9A3A"/>
<path d="M62.0136 87.9373L52.4177 93.4749L62.0227 98.9852L71.6458 93.4749L62.0136 87.9373Z" fill="#CC8425"/>
<path d="M62.0318 98.967L62.0227 103.995L52.4087 98.4578V93.4567L62.0318 98.967Z" fill="#BF7113"/>
<path d="M35.8456 103.004L26.2498 108.542L35.8547 114.043L45.4778 108.542L35.8456 103.004Z" fill="#CC8425"/>
<path d="M35.8548 114.052L35.8457 119.08L26.2317 113.543V108.542L35.8548 114.052Z" fill="#BF7113"/>
<path d="M9.65962 118.108L0.0546875 123.645L9.66871 129.155L19.2918 123.645L9.65962 118.108Z" fill="#CC8425"/>
<path d="M9.66871 129.174V134.193L0.0546875 128.655L0.0637831 123.636L9.66871 129.174Z" fill="#FAC952"/>
<path d="M9.6687 129.174V134.193L19.2918 128.655L19.2827 123.636L9.6687 129.174Z" fill="#EDB659"/>
<path d="M62.0318 98.967L62.0227 103.995L71.6549 98.4578L71.6458 93.4567L62.0318 98.967Z" fill="#EDB659"/>
<path d="M9.6687 135.166V136.784L71.6369 101.031V99.4125L9.6687 135.166Z" fill="#EDB659"/>
<path d="M35.8638 114.061L35.8729 119.08L45.4687 113.543L45.4596 108.524L35.8638 114.061Z" fill="#EDB659"/>
<path d="M61.9865 165.381L123.982 129.628L114.377 124.091L52.427 159.844L61.9865 165.381Z" fill="#DD9A3A"/>
<path d="M114.368 118.153L104.763 123.691L114.377 129.192L123.991 123.691L114.368 118.153Z" fill="#CC8425"/>
<path d="M114.377 129.183V134.211L104.754 128.664V123.672L114.377 129.183Z" fill="#BF7113"/>
<path d="M88.1908 133.211L78.595 138.748L88.1999 144.259L97.823 138.748L88.1908 133.211Z" fill="#CC8425"/>
<path d="M88.1998 144.268V149.296L78.5767 143.749V138.758L88.1998 144.268Z" fill="#BF7113"/>
<path d="M35.8002 139.203L26.1953 144.741L35.8093 150.242L45.4234 144.741L35.8002 139.203Z" fill="#CC8425"/>
<path d="M35.8093 144.25V149.278L45.4324 143.74L45.4234 138.748L35.8093 144.25Z" fill="#DD9A3A"/>
<path d="M35.7911 133.211L26.1953 138.748L35.8093 144.25L45.4234 138.748L35.7911 133.211Z" fill="#CC8425"/>
<path d="M35.8093 144.25V149.278L26.1953 143.74V138.748L35.8093 144.25Z" fill="#FAC952"/>
<path d="M35.8093 150.26V151.879L45.4234 146.341L45.4143 144.722L35.8093 150.26Z" fill="#DD9A3A"/>
<path d="M35.8093 150.26V151.879L26.1953 146.332V144.722L35.8093 150.26Z" fill="#FAC952"/>
<path d="M9.65962 124.109L0.0546875 129.646L9.66871 135.148L19.2918 129.646L9.65962 124.109Z" fill="#CC8425"/>
<path d="M9.6687 129.155V134.193L19.2918 128.655L19.2827 123.654L9.6687 129.155Z" fill="#DD9A3A"/>
<path d="M9.65052 118.117L0.0546875 123.654L9.66871 129.155L19.2827 123.654L9.65052 118.117Z" fill="#CC8425"/>
<path d="M9.66871 129.155V134.193L0.0546875 128.646V123.654L9.66871 129.155Z" fill="#FAC952"/>
<path d="M9.6687 135.166V136.784L19.2827 131.247L19.2736 129.628L9.6687 135.166Z" fill="#DD9A3A"/>
<path d="M9.66871 135.166V136.784L0.0546875 131.247V129.628L9.66871 135.166Z" fill="#FAC952"/>
<path d="M61.9863 148.323L52.4087 153.861L61.9863 159.371L71.6367 153.861L61.9863 148.323Z" fill="#CC8425"/>
<path d="M61.9865 157.061L0.0546875 121.308L9.65052 115.771L71.6005 151.533L61.9865 157.061Z" fill="#CC8425"/>
<path d="M88.2088 141.94L26.2498 106.187L35.8547 100.649L97.8046 136.412L88.2088 141.94Z" fill="#CC8425"/>
<path d="M114.386 126.828L52.427 91.0744L62.0319 85.5368L123.982 121.29L114.386 126.828Z" fill="#CC8425"/>
<path d="M35.8457 139.53V141.14L26.2407 135.602L26.2498 133.984L35.8457 139.53Z" fill="#FAC952"/>
<path d="M48.9343 147.077L48.9252 148.696L39.3293 143.158L39.3384 141.54L48.9343 147.077Z" fill="#FAC952"/>
<path d="M61.9864 159.38V164.399L52.3997 158.862L52.4088 153.843L61.9864 159.38Z" fill="#FAC952"/>
<path d="M61.9865 157.052V158.671L0.0546875 122.909V121.299L61.9865 157.052Z" fill="#FAC952"/>
<path d="M88.2 141.94V143.559L26.241 107.805V106.187L88.2 141.94Z" fill="#BF7113"/>
<path d="M114.377 126.837V128.455L52.4089 92.702V91.0835L114.377 126.837Z" fill="#BF7113"/>
<path d="M61.9865 154.634L123.982 118.88L114.377 113.343L52.427 149.096L61.9865 154.634Z" fill="#FFD578"/>
<path d="M61.9865 154.634V156.243L52.418 150.706L52.4271 149.096L61.9865 154.634Z" fill="#FAC952"/>
<path d="M22.757 131.974V133.584L13.1521 128.046L13.1612 126.437L22.757 131.974Z" fill="#FAC952"/>
<path d="M9.66871 124.418V126.037L0.0546875 120.49V118.88L9.66871 124.418Z" fill="#FAC952"/>
<path d="M61.9865 165.381V167L52.3906 161.462V159.844L61.9865 165.381Z" fill="#FAC952"/>
<path d="M61.9863 159.38V164.399L71.6458 158.862L71.6276 153.843L61.9863 159.38Z" fill="#EDB659"/>
<path d="M61.9863 157.052V158.671L71.6276 153.133L71.6185 151.515L61.9863 157.052Z" fill="#EDB659"/>
<path d="M114.377 129.183V134.211L124 128.673L123.991 123.672L114.377 129.183Z" fill="#EDB659"/>
<path d="M114.377 126.837V128.455L123.982 122.909V121.299L114.377 126.837Z" fill="#EDB659"/>
<path d="M88.2 141.94L88.209 143.559L97.8049 138.021L97.7958 136.402L88.2 141.94Z" fill="#EDB659"/>
<path d="M61.9866 165.381V167L123.982 131.247V129.628L61.9866 165.381Z" fill="#EDB659"/>
<path d="M61.9866 154.634V156.243L123.982 120.49V118.88L61.9866 154.634Z" fill="#EDB659"/>
<path d="M48.9252 147.068L110.884 111.315L101.288 105.778L39.3293 141.531L48.9252 147.068Z" fill="#FFD578"/>
<path d="M48.9253 147.068V148.687L110.893 112.925V111.315L48.9253 147.068Z" fill="#EDB659"/>
<path d="M35.8458 139.539L97.8049 103.786L88.2 98.2487L26.25 134.002L35.8458 139.539Z" fill="#FFD578"/>
<path d="M35.8457 139.54V141.149L97.8048 105.396V103.786L35.8457 139.54Z" fill="#EDB659"/>
<path d="M22.7572 131.974L84.7072 96.221L75.1113 90.6834L13.1614 126.437L22.7572 131.974Z" fill="#FFD578"/>
<path d="M22.7573 131.974V133.584L84.7164 97.8304V96.2209L22.7573 131.974Z" fill="#EDB659"/>
<path d="M9.65052 124.427L71.6096 88.6739L62.0138 83.1272L0.0546875 118.89L9.65052 124.427Z" fill="#FFD578"/>
<path d="M9.64136 124.418V126.037L71.6004 90.2742V88.6648L9.64136 124.418Z" fill="#EDB659"/>
<path d="M88.209 144.277L88.2272 149.296L97.823 143.759L97.8048 138.739L88.209 144.277Z" fill="#EDB659"/>
<g style="mix-blend-mode:multiply" opacity="0.3">
<path d="M123.973 118.88L93.4206 136.521L62.8049 118.835L93.2478 101.149L123.973 118.88Z" fill="#CC8425"/>
<path d="M61.0223 118.826L30.5521 136.521L0.0273438 118.88L30.3884 101.149L61.0223 118.826Z" fill="#CC8425"/>
<path d="M92.7021 137.021L61.9863 154.661L31.6162 137.021L61.9772 119.29L92.7021 137.021Z" fill="#CC8425"/>
</g>
<path d="M62.1409 82.5544V55.2666L92.702 72.9068V100.185L62.1409 82.5544Z" fill="#A1663B"/>
<path d="M62.141 82.5544V55.2666L31.6162 72.9159V100.185L62.141 82.5544Z" fill="#D48A53"/>
<path d="M62.141 90.547V117.835L31.6162 100.185V72.9159L62.141 90.547Z" fill="#DEAE80"/>
<path d="M31.6162 72.9159L62.141 90.547C62.141 90.547 50.626 85.0549 31.6162 72.9159Z" fill="#7F492A"/>
<path d="M62.1409 90.547V117.835L92.702 100.185V72.9068L62.1409 90.547Z" fill="#D8A57A"/>
<path d="M92.7021 72.9523L62.141 90.547L31.6162 72.9159L62.0682 55.2666L92.7021 72.9523Z" fill="#E3B786"/>
<path d="M47.1788 81.936L77.6307 64.2503L76.4847 63.5865L46.0327 81.2813L47.1788 81.936Z" fill="#7F492A"/>
<path d="M70.7546 97.7031L71.1912 98.3305L70.9729 98.4487L70.982 101.786L70.5545 102.04L70.5454 98.7033L70.3362 98.8215L70.7546 97.7031Z" fill="#281407"/>
<path d="M68.8445 104.568V98.1214L74.4565 94.8843V101.331L68.8445 104.568ZM69.2265 98.3487V103.877L74.029 101.095V95.5753L69.2265 98.3487Z" fill="#281407"/>
<path d="M73.0193 100.922V101.395L70.2815 102.977V102.504L73.0193 100.922Z" fill="#281407"/>
<path d="M72.51 96.6847L72.9375 97.3212L72.7283 97.4394L72.7374 100.776L72.3099 101.022L72.3008 97.6849L72.0825 97.8122L72.51 96.6847Z" fill="#281407"/>
<path d="M77.5034 97.3939L77.6308 97.3303L77.7581 97.2484V98.4305L77.5125 98.576V97.3939H77.5034Z" fill="#281407"/>
<path d="M78.9042 92.993V95.1116C78.8884 95.5379 78.7772 95.9551 78.5789 96.3328C78.3806 96.7104 78.1001 97.0388 77.7582 97.2939L77.6309 97.3758L77.5035 97.4394C76.8577 97.7486 76.3484 97.4394 76.3484 96.6392V94.5297L78.9042 92.993Z" fill="#281407"/>
<path d="M78.9224 97.694V97.9849L76.3484 99.4671V99.1761L77.5126 98.5123V98.576L77.7582 98.4305V98.3668L78.9224 97.694Z" fill="#281407"/>
<path d="M74.8384 101.077V94.6297L80.4413 91.3926V97.8395L74.8384 101.077ZM75.2204 94.857V100.376L80.0229 97.6485V92.1292L75.2204 94.857Z" fill="#281407"/>
<path d="M83.6066 90.2833C84.5162 89.7377 85.3439 90.1651 85.3621 91.2472C85.2767 91.1877 85.1751 91.1558 85.071 91.1558C84.967 91.1558 84.8654 91.1877 84.78 91.2472C84.5304 91.4049 84.329 91.6283 84.1979 91.8928C84.1284 91.8537 84.0501 91.8332 83.9705 91.8332C83.8908 91.8332 83.8125 91.8537 83.7431 91.8928V91.6018L83.4884 91.7473V92.0382C83.3005 92.1938 83.1459 92.3855 83.0336 92.602C82.9482 92.5425 82.8466 92.5107 82.7426 92.5107C82.6385 92.5107 82.5369 92.5425 82.4515 92.602C82.1997 92.7571 81.9977 92.9812 81.8694 93.2476C81.9127 92.6535 82.0919 92.0774 82.3931 91.5634C82.6943 91.0495 83.1095 90.6116 83.6066 90.2833Z" fill="#281407"/>
<path d="M83.743 91.5927V94.3751C83.743 94.666 83.9522 94.7843 84.1977 94.6388C84.332 94.5529 84.4441 94.4364 84.5247 94.2989C84.6054 94.1614 84.6523 94.0068 84.6616 93.8477L84.9163 93.6931C84.9031 93.9404 84.832 94.181 84.7088 94.3958C84.5856 94.6106 84.4136 94.7935 84.2068 94.9297C83.8066 95.1571 83.4883 94.9297 83.4883 94.5206V91.7381L83.743 91.5927Z" fill="#281407"/>
<path d="M80.8232 97.6212V91.1744L86.4079 87.9373V94.3842L80.8232 97.6212ZM81.2053 91.4017V96.9211L86.0077 94.1932V88.6284L81.2053 91.4017Z" fill="#281407"/>
<path d="M51.0898 88.1283L59.2759 92.8566V96.6847L51.0898 91.9564V88.1283Z" fill="#131111"/>
<path d="M51.2444 88.3829L59.1393 92.9293V96.421L51.2444 91.8745V88.3829Z" fill="white"/>
<path d="M54.8917 90.8925V91.0653L51.5264 89.1285V88.9467L54.8917 90.8925Z" fill="#131111"/>
<path d="M58.8575 93.1839V93.3567L55.4648 91.4017V91.2198L58.8575 93.1839Z" fill="#131111"/>
<path d="M53.1 92.3746V92.5474L51.5173 91.6381V91.4653L53.1 92.3746Z" fill="#131111"/>
<path d="M58.8485 95.6936V95.8664L53.6731 92.8748V92.702L58.8485 95.6936Z" fill="#131111"/>
<path d="M56.6745 93.1749V93.3567L51.5264 90.3833V90.2015L56.6745 93.1749Z" fill="#131111"/>
<path d="M58.8575 94.4387V94.6115L57.2476 93.684V93.5112L58.8575 94.4387Z" fill="#131111"/>
<path d="M43.3132 79.7173L48.4613 82.6907L78.9133 65.005L73.7561 62.0317L43.3132 79.7173Z" fill="#FFDA9F"/>
<path d="M43.4679 85.1458L43.8681 84.9094L44.2774 85.6095L44.6776 85.3731L45.0778 86.0733L45.4871 85.846L45.8873 86.537L46.2875 86.3097L46.6968 87.0098L47.097 86.7734L47.5063 87.4736L47.9065 87.2372L48.3067 87.9373L48.4613 87.8464V82.6907L43.3132 79.7173V84.873L43.4679 85.1458Z" fill="#F7CE92"/>
<path d="M93.4116 100.886V73.6069L123.973 91.2562V118.526L93.4116 100.886Z" fill="#A1663B"/>
<path d="M93.4115 100.886V73.6069L62.8867 91.2562V118.526L93.4115 100.886Z" fill="#D48A53"/>
<path d="M93.4115 108.887V136.175L62.8867 118.526V91.2562L93.4115 108.887Z" fill="#DEAE80"/>
<path d="M62.8867 91.2562L93.4115 108.887C93.4115 108.887 81.8601 103.386 62.8867 91.2562Z" fill="#7F492A"/>
<path d="M93.4116 108.887V136.175L123.973 118.526V91.2562L93.4116 108.887Z" fill="#D8A57A"/>
<path d="M123.973 91.2562L93.4115 108.887L62.8867 91.2562L93.3387 73.6069L123.973 91.2562Z" fill="#E3B786"/>
<path d="M78.4493 100.276L108.901 82.5907L107.755 81.9269L77.3032 99.6217L78.4493 100.276Z" fill="#7F492A"/>
<path d="M102.025 116.043L102.453 116.671L102.243 116.789L102.253 120.126L101.816 120.381L101.807 117.044L101.598 117.162L102.025 116.043Z" fill="#281407"/>
<path d="M100.115 122.872V116.425L105.718 113.188V119.635L100.115 122.872ZM100.497 116.653V122.181L105.299 119.408V113.879L100.497 116.653Z" fill="#281407"/>
<path d="M104.281 119.262V119.735L101.543 121.317V120.844L104.281 119.262Z" fill="#281407"/>
<path d="M103.781 115.025L104.208 115.652L103.999 115.78L104.008 119.117L103.571 119.362L103.562 116.025L103.353 116.153L103.781 115.025Z" fill="#281407"/>
<path d="M108.774 115.734L108.901 115.671L109.029 115.589V116.771L108.774 116.916V115.734Z" fill="#281407"/>
<path d="M110.175 111.333V113.452C110.151 113.871 110.035 114.28 109.836 114.649C109.636 115.019 109.357 115.339 109.019 115.589L108.892 115.671L108.765 115.734C108.119 116.034 107.61 115.734 107.601 114.934V112.815L110.175 111.333Z" fill="#281407"/>
<path d="M110.184 116.034V116.325L107.619 117.807V117.517L108.774 116.853V116.916L109.029 116.771V116.707L110.184 116.034Z" fill="#281407"/>
<path d="M106.1 119.417V112.97L111.712 109.733V116.18L106.1 119.417ZM106.491 113.197V118.717L111.303 115.989V110.469L106.491 113.197Z" fill="#281407"/>
<path d="M114.877 108.624C115.787 108.078 116.614 108.505 116.633 109.587C116.547 109.528 116.446 109.496 116.342 109.496C116.237 109.496 116.136 109.528 116.05 109.587C115.799 109.743 115.597 109.967 115.468 110.233C115.399 110.194 115.321 110.174 115.241 110.174C115.161 110.174 115.083 110.194 115.014 110.233V109.942L114.759 110.088V110.379C114.569 110.532 114.414 110.724 114.304 110.942C114.219 110.883 114.117 110.851 114.013 110.851C113.909 110.851 113.807 110.883 113.722 110.942C113.47 111.097 113.268 111.322 113.14 111.588C113.181 110.993 113.36 110.416 113.661 109.902C113.962 109.388 114.379 108.95 114.877 108.624Z" fill="#281407"/>
<path d="M115.014 109.933V112.752C115.014 113.043 115.223 113.161 115.478 113.016C115.612 112.93 115.724 112.813 115.805 112.676C115.885 112.538 115.932 112.384 115.941 112.224L116.187 112.07C116.176 112.318 116.106 112.559 115.982 112.774C115.859 112.989 115.686 113.172 115.478 113.307C115.086 113.534 114.768 113.352 114.768 112.897V110.115L115.014 109.933Z" fill="#281407"/>
<path d="M112.094 115.962V109.515L117.697 106.278V112.725L112.094 115.962ZM112.476 109.742V115.261L117.278 112.488V106.969L112.476 109.742Z" fill="#281407"/>
<path d="M82.3604 106.469L90.5464 111.197V115.025L82.3604 110.297V106.469Z" fill="#131111"/>
<path d="M82.5151 106.723L90.401 111.27V114.761L82.5151 110.215V106.723Z" fill="white"/>
<path d="M86.1625 109.233V109.406L82.7971 107.469V107.296L86.1625 109.233Z" fill="#131111"/>
<path d="M90.128 111.524V111.697L86.7354 109.742V109.56L90.128 111.524Z" fill="#131111"/>
<path d="M84.3614 110.715V110.888L82.7878 109.978V109.806L84.3614 110.715Z" fill="#131111"/>
<path d="M90.119 114.034V114.207L84.9436 111.215V111.042L90.119 114.034Z" fill="#131111"/>
<path d="M87.9452 111.515V111.697L82.7971 108.724V108.542L87.9452 111.515Z" fill="#131111"/>
<path d="M90.1189 112.779V112.952L88.5181 112.024V111.852L90.1189 112.779Z" fill="#131111"/>
<path d="M74.5837 98.0577L79.7318 101.031L110.184 83.3454L105.027 80.3721L74.5837 98.0577Z" fill="#FFDA9F"/>
<path d="M74.7384 103.486L75.1386 103.25L75.5479 103.95L75.9481 103.714L76.3483 104.414L76.7576 104.186L77.1578 104.877L77.558 104.65L77.9673 105.35L78.3675 105.114L78.7677 105.814L79.177 105.578L79.5772 106.278L79.7318 106.187V101.031L74.5837 98.0577V103.213L74.7384 103.486Z" fill="#F7CE92"/>
<path d="M30.5519 100.886L30.5247 73.6069L61.1131 91.2562V118.526L30.5519 100.886Z" fill="#A1663B"/>
<path d="M30.5521 100.886L30.5248 73.6069L0.0273438 91.2562V118.526L30.5521 100.886Z" fill="#D48A53"/>
<path d="M30.5521 108.887V136.175L0.0273438 118.526V91.2562L30.5521 108.887Z" fill="#DEAE80"/>
<path d="M0 91.2562L30.5248 108.887C30.5248 108.887 19.0279 103.386 0 91.2562Z" fill="#7F492A"/>
<path d="M30.552 108.887V136.175L61.1131 118.526V91.2562L30.552 108.887Z" fill="#D8A57A"/>
<path d="M61.1132 91.2562L30.5521 108.887L0.0273438 91.2562L30.5248 73.6069L61.1132 91.2562Z" fill="#E3B786"/>
<path d="M15.5899 100.276L46.0328 82.5907L44.8867 81.9269L14.4438 99.6217L15.5899 100.276Z" fill="#7F492A"/>
<path d="M39.1564 116.043L39.593 116.671L39.3838 116.789L39.3929 120.126L38.9563 120.381L38.9472 117.044L38.738 117.162L39.1564 116.043Z" fill="#281407"/>
<path d="M37.2917 122.872V116.425L42.9037 113.188V119.635L37.2917 122.872ZM37.6738 116.653V122.181L42.4853 119.408V113.879L37.6738 116.653Z" fill="#281407"/>
<path d="M41.4214 119.262V119.735L38.6836 121.317V120.844L41.4214 119.262Z" fill="#281407"/>
<path d="M40.9121 115.025L41.3487 115.652L41.1304 115.78L41.1395 119.117L40.712 119.362L40.7029 116.025L40.4846 116.153L40.9121 115.025Z" fill="#281407"/>
<path d="M45.9144 115.734L46.0417 115.671L46.1599 115.589V116.771L45.9053 116.916V115.734H45.9144Z" fill="#281407"/>
<path d="M47.2969 111.333V113.452C47.2752 113.872 47.1603 114.281 46.9605 114.651C46.7607 115.02 46.481 115.341 46.1417 115.589L46.0235 115.671L45.8962 115.734C45.2413 116.034 44.7319 115.734 44.7319 114.934V112.815L47.2969 111.333Z" fill="#281407"/>
<path d="M47.3242 116.034V116.325L44.7593 117.807V117.517L45.9144 116.853V116.916L46.1691 116.771V116.707L47.3242 116.034Z" fill="#281407"/>
<path d="M43.2405 119.417V112.97L48.8434 109.733V116.18L43.2405 119.417ZM43.6225 113.197V118.717L48.425 115.989V110.469L43.6225 113.197Z" fill="#281407"/>
<path d="M52.0176 108.624C52.9726 108.078 53.7458 108.505 53.7639 109.587C53.6785 109.528 53.577 109.496 53.4729 109.496C53.3688 109.496 53.2672 109.528 53.1818 109.587C52.9346 109.748 52.7338 109.971 52.5997 110.233C52.5303 110.194 52.452 110.174 52.3723 110.174C52.2927 110.174 52.2144 110.194 52.1449 110.233V109.942L51.8903 110.088V110.379C51.7056 110.537 51.5515 110.728 51.4355 110.942C51.3501 110.883 51.2485 110.851 51.1444 110.851C51.0403 110.851 50.9388 110.883 50.8534 110.942C50.6061 111.103 50.4054 111.325 50.2712 111.588C50.3143 110.993 50.4943 110.416 50.7972 109.901C51.1001 109.387 51.5178 108.95 52.0176 108.624Z" fill="#281407"/>
<path d="M52.1451 109.933V112.752C52.1451 113.043 52.3543 113.161 52.6089 113.016C52.7421 112.929 52.8527 112.812 52.9318 112.675C53.0109 112.537 53.0561 112.383 53.0637 112.224L53.3184 112.07C53.3052 112.317 53.2341 112.558 53.1109 112.773C52.9877 112.987 52.8157 113.17 52.6089 113.307C52.2178 113.534 51.8904 113.352 51.8904 112.897V110.115L52.1451 109.933Z" fill="#281407"/>
<path d="M49.2253 115.962V109.515L54.8373 106.278V112.725L49.2253 115.962ZM49.6074 109.742V115.261L54.4189 112.488V106.969L49.6074 109.742Z" fill="#281407"/>
<path d="M19.501 106.469L27.687 111.197V115.025L19.501 110.297V106.469Z" fill="#131111"/>
<path d="M19.6465 106.723L27.5414 111.27V114.761L19.6465 110.215V106.723Z" fill="white"/>
<path d="M23.2938 109.233V109.406L19.9285 107.469L19.9376 107.296L23.2938 109.233Z" fill="#131111"/>
<path d="M27.2593 111.524V111.697L23.8667 109.742V109.56L27.2593 111.524Z" fill="#131111"/>
<path d="M21.502 110.715V110.888L19.9285 109.978V109.806L21.502 110.715Z" fill="#131111"/>
<path d="M27.2503 114.034V114.207L22.075 111.215V111.042L27.2503 114.034Z" fill="#131111"/>
<path d="M25.0857 111.515V111.697L19.9285 108.724V108.542L25.0857 111.515Z" fill="#131111"/>
<path d="M27.2595 112.779V112.952L25.6587 112.024V111.852L27.2595 112.779Z" fill="#131111"/>
<path d="M11.7151 98.0577L16.8723 101.031L47.3152 83.3454L42.1671 80.3721L11.7151 98.0577Z" fill="#FFDA9F"/>
<path d="M11.8697 103.486L12.279 103.25L12.6792 103.95L13.0794 103.714L13.4887 104.414L13.8889 104.186L14.2891 104.877L14.6984 104.65L15.0986 105.35L15.4988 105.114L15.9081 105.814L16.3084 105.578L16.7086 106.278L16.8723 106.187V101.031L11.7151 98.0577V103.213L11.8697 103.486Z" fill="#F7CE92"/>
<path d="M62.141 119.035L62.1228 91.7473L92.7021 109.387V136.675L62.141 119.035Z" fill="#A1663B"/>
<path d="M62.141 119.035L62.1228 91.7473L31.6162 109.397V136.675L62.141 119.035Z" fill="#D48A53"/>
<path d="M61.9863 127.028V154.315L31.6162 136.675V109.397L61.9863 127.028Z" fill="#DEAE80"/>
<path d="M31.6162 109.397L61.9863 127.028C61.9863 127.028 50.626 121.526 31.6162 109.397Z" fill="#7F492A"/>
<path d="M61.9863 127.028V154.315L92.7021 136.675V109.387L61.9863 127.028Z" fill="#D8A57A"/>
<path d="M92.7021 109.433L61.9863 127.028L31.6162 109.397L62.1228 91.7473L92.7021 109.433Z" fill="#E3B786"/>
<path d="M47.1788 118.417L77.6307 100.731L76.4847 100.067L46.0327 117.762L47.1788 118.417Z" fill="#7F492A"/>
<path d="M70.7546 134.184L71.1912 134.811L70.9729 134.929L70.982 138.266L70.5545 138.521L70.5454 135.184L70.3362 135.302L70.7546 134.184Z" fill="#281407"/>
<path d="M68.8445 141.013V134.566L74.4565 131.329V137.775L68.8445 141.013ZM69.2265 134.802V140.321L74.029 137.594V132.029L69.2265 134.802Z" fill="#281407"/>
<path d="M73.0193 137.403V137.875L70.2815 139.458V138.985L73.0193 137.403Z" fill="#281407"/>
<path d="M72.51 133.165L72.9375 133.802L72.7283 133.92L72.7374 137.257L72.3099 137.503L72.3008 134.175L72.0825 134.293L72.51 133.165Z" fill="#281407"/>
<path d="M77.5034 133.875L77.6308 133.811L77.7581 133.729V134.911L77.5125 135.057V133.875H77.5034Z" fill="#281407"/>
<path d="M78.9041 129.474V131.592C78.8805 132.011 78.7648 132.42 78.5651 132.79C78.3655 133.159 78.0868 133.48 77.7489 133.729L77.6216 133.811L77.4942 133.875C76.8485 134.184 76.3391 133.875 76.3391 133.074V130.938L78.9041 129.474Z" fill="#281407"/>
<path d="M78.9224 134.175V134.466L76.3484 135.948V135.657L77.5126 134.993V135.057L77.7582 134.911V134.848L78.9224 134.175Z" fill="#281407"/>
<path d="M74.8384 137.557V131.11L80.4413 127.873V134.32L74.8384 137.557ZM75.2204 131.338V136.857L80.0229 134.129V128.61L75.2204 131.338Z" fill="#281407"/>
<path d="M83.6066 126.764C84.5162 126.218 85.3439 126.646 85.3621 127.728C85.2767 127.668 85.1751 127.636 85.071 127.636C84.967 127.636 84.8654 127.668 84.78 127.728C84.5304 127.886 84.329 128.109 84.1979 128.373C84.1277 128.337 84.0496 128.318 83.9705 128.318C83.8913 128.318 83.8133 128.337 83.7431 128.373V128.082L83.4884 128.228V128.519C83.3005 128.674 83.1459 128.866 83.0336 129.083C82.9482 129.023 82.8466 128.991 82.7426 128.991C82.6385 128.991 82.5369 129.023 82.4515 129.083C82.1997 129.238 81.9977 129.462 81.8694 129.728C81.9127 129.134 82.0919 128.558 82.3931 128.044C82.6943 127.53 83.1095 127.092 83.6066 126.764Z" fill="#281407"/>
<path d="M83.743 128.073V130.856C83.743 131.147 83.9522 131.265 84.1977 131.119C84.332 131.034 84.4441 130.917 84.5247 130.78C84.6054 130.642 84.6523 130.488 84.6616 130.328L84.9163 130.183C84.9017 130.429 84.8299 130.667 84.7068 130.881C84.5836 131.094 84.4124 131.275 84.2068 131.41C83.8066 131.638 83.4883 131.41 83.4883 131.001V128.21L83.743 128.073Z" fill="#281407"/>
<path d="M80.8232 134.102V127.655L86.4079 124.418V130.865L80.8232 134.102ZM81.2053 127.882V133.402L86.0077 130.628V125.109L81.2053 127.882Z" fill="#281407"/>
<path d="M51.0898 124.573L59.2759 129.301V133.129L51.0898 128.401V124.573Z" fill="#131111"/>
<path d="M51.2444 124.873L59.1393 129.419V132.911L51.2444 128.364V124.873Z" fill="white"/>
<path d="M54.8917 127.373V127.546L51.5264 125.609V125.427L54.8917 127.373Z" fill="#131111"/>
<path d="M58.8575 129.665V129.837L55.4648 127.882V127.701L58.8575 129.665Z" fill="#131111"/>
<path d="M53.1 128.855V129.028L51.5173 128.119V127.946L53.1 128.855Z" fill="#131111"/>
<path d="M58.8485 132.174V132.347L53.6731 129.365V129.183L58.8485 132.174Z" fill="#131111"/>
<path d="M56.6745 129.655V129.837L51.5264 126.864V126.682L56.6745 129.655Z" fill="#131111"/>
<path d="M58.8575 130.919V131.092L57.2476 130.165V129.992L58.8575 130.919Z" fill="#131111"/>
<path d="M43.3132 116.198L48.4613 119.171L78.9133 101.486L73.7561 98.5123L43.3132 116.198Z" fill="#FFDA9F"/>
<path d="M43.4679 121.626L43.8681 121.39L44.2774 122.09L44.6776 121.854L45.0778 122.554L45.4871 122.327L45.8873 123.018L46.2875 122.79L46.6968 123.49L47.097 123.254L47.5063 123.954L47.9065 123.718L48.3067 124.418L48.4613 124.327V119.171L43.3132 116.198V121.354L43.4679 121.626Z" fill="#F7CE92"/>
<g style="mix-blend-mode:multiply" opacity="0.3">
<path d="M123.963 91.2471L93.4023 108.887L62.7866 91.2017L93.2386 73.516L123.963 91.2471Z" fill="#CC8425"/>
<path d="M61.0131 91.1926L30.5338 108.887L0.0090332 91.2471L30.3792 73.516L61.0131 91.1926Z" fill="#CC8425"/>
<path d="M92.6931 109.387L61.9773 127.028L31.6072 109.387L61.9682 91.6563L92.6931 109.387Z" fill="#CC8425"/>
</g>
<path d="M62.1318 54.9211V27.6333L92.693 45.2735V72.5613L62.1318 54.9211Z" fill="#A1663B"/>
<path d="M62.1319 54.9211V27.6333L31.6072 45.2826V72.5613L62.1319 54.9211Z" fill="#D48A53"/>
<path d="M62.1319 62.9137V90.1924L31.6072 72.5613V45.2826L62.1319 62.9137Z" fill="#DEAE80"/>
<path d="M31.6072 45.2826L62.1319 62.9137C62.1319 62.9137 50.6169 57.4216 31.6072 45.2826Z" fill="#7F492A"/>
<path d="M62.1318 62.9137V90.1924L92.693 72.5613V45.2735L62.1318 62.9137Z" fill="#D8A57A"/>
<path d="M92.6931 45.319L62.1319 62.9137L31.6072 45.2826L62.0592 27.6333L92.6931 45.319Z" fill="#E3B786"/>
<path d="M47.1697 54.3028L77.6217 36.6171L76.4757 35.9533L46.0237 53.6481L47.1697 54.3028Z" fill="#7F492A"/>
<path d="M70.7454 70.0698L71.1729 70.6972L70.9637 70.8154L70.9728 74.1525L70.5453 74.4071L70.5271 71.07L70.3179 71.1883L70.7454 70.0698Z" fill="#281407"/>
<path d="M68.8354 76.8985V70.4517L74.4383 67.2146V73.6615L68.8354 76.8985ZM69.2175 70.679V76.2075L74.0199 73.425V67.9057L69.2175 70.679Z" fill="#281407"/>
<path d="M73.0012 73.2887L73.0103 73.7615L70.2634 75.3437V74.8709L73.0012 73.2887Z" fill="#281407"/>
<path d="M72.501 69.0514L72.9285 69.6879L72.7193 69.8061L72.7284 73.1432L72.2918 73.3887L72.2827 70.0516L72.0735 70.1789L72.501 69.0514Z" fill="#281407"/>
<path d="M77.4944 69.7607L77.6217 69.697L77.7491 69.6152V70.7973L77.4944 70.9246V69.7425V69.7607Z" fill="#281407"/>
<path d="M78.8951 65.3597V67.4783C78.8715 67.8975 78.7558 68.3063 78.5561 68.6757C78.3565 69.045 78.0778 69.3658 77.74 69.6152L77.6126 69.697L77.4853 69.7606C76.8395 70.0698 76.3301 69.7606 76.321 68.9605V66.8509L78.8951 65.3597Z" fill="#281407"/>
<path d="M78.9041 70.0607V70.3517L76.3391 71.8338V71.5429L77.4942 70.8791V70.9427L77.7489 70.7973V70.7336L78.9041 70.0607Z" fill="#281407"/>
<path d="M74.8203 73.4433V66.9964L80.4323 63.7593V70.2062L74.8203 73.4433ZM75.2114 67.2237V72.7431L80.0412 70.0152V64.4959L75.2114 67.2237Z" fill="#281407"/>
<path d="M83.5974 62.65C84.5069 62.1044 85.3346 62.5318 85.3528 63.6139C85.2674 63.5544 85.1658 63.5225 85.0617 63.5225C84.9577 63.5225 84.8561 63.5544 84.7707 63.6139C84.5189 63.769 84.3169 63.993 84.1886 64.2595C84.1175 64.2205 84.0377 64.2 83.9566 64.2C83.8756 64.2 83.7958 64.2205 83.7247 64.2595V63.9685L83.4791 64.114V64.4049C83.2894 64.5586 83.1344 64.7508 83.0243 64.9687C82.9389 64.9092 82.8374 64.8774 82.7333 64.8774C82.6292 64.8774 82.5276 64.9092 82.4422 64.9687C82.1904 65.1238 81.9884 65.3479 81.8601 65.6143C81.9014 65.0197 82.0797 64.4428 82.3811 63.9285C82.6825 63.4143 83.0988 62.9767 83.5974 62.65Z" fill="#281407"/>
<path d="M83.7248 63.9594V66.7418C83.7248 67.0328 83.934 67.151 84.1886 67.0055C84.3229 66.9196 84.435 66.8031 84.5156 66.6656C84.5963 66.5281 84.6432 66.3735 84.6525 66.2144L84.8981 66.0689C84.8831 66.3122 84.8121 66.5488 84.6907 66.7601C84.5692 66.9715 84.4005 67.1519 84.1977 67.2874C83.8066 67.5147 83.4883 67.2874 83.4883 66.8782V64.1048L83.7248 63.9594Z" fill="#281407"/>
<path d="M80.8142 70.0152V63.5684L86.408 60.304V66.7509L80.8142 70.0152ZM81.1962 63.7957V69.3151L85.9987 66.5872V61.0678L81.1962 63.7957Z" fill="#281407"/>
<path d="M51.0808 60.495L59.2668 65.2233V69.0514L51.0808 64.3231V60.495Z" fill="#131111"/>
<path d="M51.2354 60.7496L59.1212 65.296V68.7877L51.2354 64.2412V60.7496Z" fill="white"/>
<path d="M54.8827 63.2592V63.432L51.5173 61.4952V61.3134L54.8827 63.2592Z" fill="#131111"/>
<path d="M58.8485 65.5506V65.7234L55.4558 63.7684V63.5865L58.8485 65.5506Z" fill="#131111"/>
<path d="M53.0818 64.7414V64.9141L51.5083 64.0049V63.8321L53.0818 64.7414Z" fill="#131111"/>
<path d="M58.8393 68.0603V68.2331L53.6548 65.2415L53.6639 65.0687L58.8393 68.0603Z" fill="#131111"/>
<path d="M56.6655 65.5416V65.7234L51.5083 62.75L51.5174 62.5682L56.6655 65.5416Z" fill="#131111"/>
<path d="M58.8393 66.8055V66.9782L57.2385 66.0508V65.878L58.8393 66.8055Z" fill="#131111"/>
<path d="M43.2949 52.084L48.4521 55.0574L78.9041 37.3717L73.7469 34.3984L43.2949 52.084Z" fill="#FFDA9F"/>
<path d="M43.4495 57.5125L43.8589 57.2761L44.2591 57.9762L44.6684 57.7398L45.0686 58.44L45.4779 58.2127L45.8781 58.9037L46.2783 58.6764L46.6876 59.3765L47.0878 59.1401L47.488 59.8403L47.8973 59.6039L48.2975 60.304L48.4521 60.2131V55.0574L43.2949 52.084V57.2397L43.4495 57.5125Z" fill="#F7CE92"/>
<path d="M93.4026 73.2523V45.9736L123.964 63.632V90.9016L93.4026 73.2523Z" fill="#A1663B"/>
<path d="M93.4024 73.2523V45.9736L62.8777 63.6229V90.9016L93.4024 73.2523Z" fill="#D48A53"/>
<path d="M93.4024 81.254V108.542L62.8777 90.9016V63.6229L93.4024 81.254Z" fill="#DEAE80"/>
<path d="M62.8777 63.6502L93.4024 81.2813C93.4024 81.2813 81.8602 75.7528 62.8777 63.6502Z" fill="#7F492A"/>
<path d="M93.4026 81.254V108.542L123.964 90.9016V63.632L93.4026 81.254Z" fill="#D8A57A"/>
<path d="M123.964 63.632L93.4024 81.254L62.8777 63.6229L93.3206 45.9736L123.964 63.632Z" fill="#E3B786"/>
<path d="M78.4402 72.6431L108.883 54.9574L107.737 54.2936L77.2942 71.9884L78.4402 72.6431Z" fill="#7F492A"/>
<path d="M102.016 88.4102L102.443 89.0376L102.234 89.1558L102.243 92.4929L101.807 92.7475L101.798 89.4104L101.588 89.5286L102.016 88.4102Z" fill="#281407"/>
<path d="M100.106 95.2389V88.7921L105.709 85.555V92.0019L100.106 95.2389ZM100.488 89.0194V94.5479L105.29 91.82V86.2915L100.488 89.0194Z" fill="#281407"/>
<path d="M104.272 91.629V92.1019L101.534 93.684V93.2112L104.272 91.629Z" fill="#281407"/>
<path d="M103.762 87.3917L104.199 88.0282L103.99 88.1464L103.999 91.4835L103.562 91.729L103.553 88.3919L103.335 88.5192L103.762 87.3917Z" fill="#281407"/>
<path d="M108.765 88.101L108.892 88.0373L109.011 87.9555V89.1103L108.756 89.2558V88.0737L108.765 88.101Z" fill="#281407"/>
<path d="M110.166 83.7001V85.8187C110.146 86.2387 110.032 86.6489 109.832 87.0188C109.632 87.3888 109.351 87.7089 109.01 87.9555L108.892 88.0374L108.765 88.101C108.11 88.4011 107.601 88.101 107.601 87.3009V85.1822L110.166 83.7001Z" fill="#281407"/>
<path d="M110.175 88.4011V88.692L107.61 90.1742V89.8832L108.765 89.2194V89.2831L109.02 89.1376V89.0739L110.175 88.4011Z" fill="#281407"/>
<path d="M106.091 91.7836V85.3367L111.703 82.0997V88.5465L106.091 91.7836ZM106.473 85.5641V91.0834L111.275 88.3556V82.8362L106.473 85.5641Z" fill="#281407"/>
<path d="M114.868 80.9995C115.777 80.4448 116.596 80.8722 116.623 81.9088C116.538 81.8493 116.436 81.8175 116.332 81.8175C116.228 81.8175 116.127 81.8493 116.041 81.9088C115.789 82.0639 115.587 82.2879 115.459 82.5544C115.388 82.5154 115.308 82.4949 115.227 82.4949C115.146 82.4949 115.066 82.5154 114.995 82.5544V82.2634L114.75 82.4089V82.7453C114.56 82.899 114.405 83.0912 114.295 83.3091C114.208 83.2489 114.105 83.2166 113.999 83.2166C113.894 83.2166 113.791 83.2489 113.704 83.3091C113.456 83.4696 113.256 83.6922 113.122 83.9547C113.164 83.3606 113.344 82.7844 113.647 82.2715C113.95 81.7587 114.368 81.3233 114.868 80.9995Z" fill="#281407"/>
<path d="M114.995 82.2997V85.0822C114.995 85.3731 115.205 85.4913 115.459 85.3459C115.592 85.2595 115.703 85.1427 115.782 85.0052C115.861 84.8676 115.906 84.7132 115.914 84.5548L116.169 84.4002C116.156 84.6474 116.084 84.8881 115.961 85.1029C115.838 85.3177 115.666 85.5006 115.459 85.6368C115.068 85.8642 114.741 85.6368 114.741 85.2277V82.4452L114.995 82.2997Z" fill="#281407"/>
<path d="M112.085 88.3283V81.8815L117.697 78.6444V85.0913L112.085 88.3283ZM112.467 82.1088V87.6282L117.333 84.8549V79.3355L112.467 82.1088Z" fill="#281407"/>
<path d="M82.3513 78.8353L90.5373 83.5636V87.3917L82.3513 82.6634V78.8353Z" fill="#131111"/>
<path d="M82.4968 79.1082L90.3918 83.6546V87.1463L82.4968 82.5998V79.1082Z" fill="white"/>
<path d="M86.1441 81.5996V81.7723L82.7878 79.8355V79.6628L86.1441 81.5996Z" fill="#131111"/>
<path d="M90.119 83.891L90.1099 84.0638L86.7173 82.1088L86.7264 81.9269L90.119 83.891Z" fill="#131111"/>
<path d="M84.3523 83.0817V83.2545L82.7788 82.3452V82.1724L84.3523 83.0817Z" fill="#131111"/>
<path d="M90.1098 86.4006L90.1007 86.5734L84.9253 83.5818V83.4091L90.1098 86.4006Z" fill="#131111"/>
<path d="M87.936 83.8819V84.0637L82.7788 81.0904V80.9085L87.936 83.8819Z" fill="#131111"/>
<path d="M90.1099 85.1458V85.3186L88.509 84.3911V84.2183L90.1099 85.1458Z" fill="#131111"/>
<path d="M74.5654 70.4244L79.7226 73.3978L110.166 55.7121L105.017 52.7388L74.5654 70.4244Z" fill="#FFDA9F"/>
<path d="M74.7201 75.8529L75.1294 75.6165L75.5296 76.3166L75.9298 76.0802L76.3391 76.7804L76.7393 76.5531L77.1395 77.2441L77.5488 77.0168L77.949 77.7169L78.3492 77.4805L78.7585 78.1807L79.1587 77.9443L79.5589 78.6444L79.7226 78.5535V73.3978L74.5654 70.4244V75.5801L74.7201 75.8529Z" fill="#F7CE92"/>
<path d="M30.5338 73.2523L30.5156 45.9736L61.1041 63.632V90.9016L30.5338 73.2523Z" fill="#A1663B"/>
<path d="M30.5338 73.2523L30.5156 45.9736L0.0090332 63.6229V90.9016L30.5338 73.2523Z" fill="#D48A53"/>
<path d="M30.5338 81.254V108.542L0.0090332 90.9016V63.6229L30.5338 81.254Z" fill="#DEAE80"/>
<path d="M0 63.6502L30.5339 81.254C30.5339 81.254 19.0189 75.7528 0 63.6502Z" fill="#7F492A"/>
<path d="M30.5339 81.254V108.542L61.1042 90.9016V63.632L30.5339 81.254Z" fill="#D8A57A"/>
<path d="M61.104 63.632L30.5338 81.254L0.0090332 63.6229L30.5156 45.9736L61.104 63.632Z" fill="#E3B786"/>
<path d="M15.5716 72.6431L46.0236 54.9574L44.8775 54.2936L14.4255 71.9884L15.5716 72.6431Z" fill="#7F492A"/>
<path d="M39.1474 88.4102L39.584 89.0376L39.3657 89.1558L39.3839 92.4929L38.9473 92.7475L38.9382 89.4104L38.729 89.5286L39.1474 88.4102Z" fill="#281407"/>
<path d="M37.2373 95.2389V88.7921L42.8493 85.555V92.0019L37.2373 95.2389ZM37.6193 89.0194V94.5479L42.4218 91.82V86.2461L37.6193 89.0194Z" fill="#281407"/>
<path d="M41.403 91.629L41.4121 92.1019L38.6743 93.684V93.2112L41.403 91.629Z" fill="#281407"/>
<path d="M40.9028 87.3917L41.3303 88.0282L41.1211 88.1464L41.1302 91.4835L40.6936 91.729V88.3919L40.4753 88.5192L40.9028 87.3917Z" fill="#281407"/>
<path d="M45.8962 88.101C45.9412 88.0853 45.984 88.0639 46.0236 88.0373L46.1509 87.9555V89.1103L45.9053 89.2558V88.0737L45.8962 88.101Z" fill="#281407"/>
<path d="M47.2969 83.7001V85.8187C47.2733 86.2379 47.1576 86.6467 46.9579 87.0161C46.7583 87.3854 46.4796 87.7062 46.1417 87.9555L46.0144 88.0374C45.9749 88.064 45.9321 88.0854 45.8871 88.101C45.2413 88.4011 44.7319 88.101 44.7319 87.3009V85.1822L47.2969 83.7001Z" fill="#281407"/>
<path d="M47.3153 88.4011V88.692L44.7503 90.1742L44.7412 89.8832L45.9054 89.2194V89.2831L46.151 89.1376V89.0739L47.3153 88.4011Z" fill="#281407"/>
<path d="M43.2312 91.7836V85.3367L48.8341 82.0997V88.5465L43.2312 91.7836ZM43.6587 85.5641V91.0834L48.4612 88.3556V82.8362L43.6587 85.5641Z" fill="#281407"/>
<path d="M51.9995 80.9995C52.909 80.4448 53.7367 80.8722 53.7549 81.9088C53.6695 81.8493 53.5679 81.8175 53.4639 81.8175C53.3598 81.8175 53.2582 81.8493 53.1728 81.9088C52.9232 82.0665 52.7218 82.2899 52.5907 82.5544C52.5212 82.5153 52.4429 82.4948 52.3633 82.4948C52.2836 82.4948 52.2053 82.5153 52.1359 82.5544V82.2634L51.8812 82.4089V82.7453C51.6934 82.9009 51.5387 83.0926 51.4264 83.3091C51.341 83.2496 51.2395 83.2178 51.1354 83.2178C51.0313 83.2178 50.9297 83.2496 50.8443 83.3091C50.5925 83.4642 50.3905 83.6883 50.2622 83.9547C50.3049 83.3617 50.4838 82.7865 50.7852 82.274C51.0865 81.7614 51.502 81.3253 51.9995 80.9995Z" fill="#281407"/>
<path d="M52.1358 82.2997V85.0822C52.1358 85.3731 52.345 85.4913 52.5997 85.3459C52.7313 85.2579 52.8408 85.1408 52.9197 85.0036C52.9986 84.8663 53.0447 84.7127 53.0544 84.5548L53.3091 84.4002C53.2959 84.6474 53.2248 84.8881 53.1016 85.1029C52.9784 85.3177 52.8065 85.5006 52.5997 85.6368C52.1994 85.8642 51.8811 85.6368 51.8811 85.2277V82.4452L52.1358 82.2997Z" fill="#281407"/>
<path d="M49.2161 88.3283V81.8815L54.8189 78.6444V85.0913L49.2161 88.3283ZM49.5981 82.1088V87.6282L54.4005 84.8549V79.3355L49.5981 82.1088Z" fill="#281407"/>
<path d="M19.4827 78.8353L27.6687 83.5636V87.3917L19.4827 82.6634V78.8353Z" fill="#131111"/>
<path d="M19.6375 79.1082L27.5324 83.6546V87.1463L19.6375 82.5998V79.1082Z" fill="white"/>
<path d="M23.2848 81.5996V81.7723L19.9194 79.8355V79.6628L23.2848 81.5996Z" fill="#131111"/>
<path d="M27.2503 83.891V84.0638L23.8577 82.1088V81.9269L27.2503 83.891Z" fill="#131111"/>
<path d="M21.4928 83.0817V83.2545L19.9102 82.3452V82.1724L21.4928 83.0817Z" fill="#131111"/>
<path d="M27.2413 86.4006V86.5734L22.0659 83.5818V83.4091L27.2413 86.4006Z" fill="#131111"/>
<path d="M25.0675 83.8819V84.0637L19.9194 81.0904V80.9085L25.0675 83.8819Z" fill="#131111"/>
<path d="M27.2503 85.1458V85.3186L25.6404 84.3911L25.6495 84.2183L27.2503 85.1458Z" fill="#131111"/>
<path d="M11.7061 70.4244L16.8542 73.3978L47.3061 55.7121L42.158 52.7388L11.7061 70.4244Z" fill="#FFDA9F"/>
<path d="M11.8607 75.8529L12.2609 75.6165L12.6702 76.3166L13.0704 76.0802L13.4706 76.7804L13.8799 76.5531L14.2801 77.2441L14.6894 77.0168L15.0896 77.7169L15.4898 77.4805L15.8991 78.1807L16.2993 77.9443L16.6995 78.6444L16.8542 78.5535V73.3978L11.7061 70.4244V75.5801L11.8607 75.8529Z" fill="#F7CE92"/>
<path d="M62.1318 91.4017L62.1045 64.114L92.6929 81.7542V109.042L62.1318 91.4017Z" fill="#A1663B"/>
<path d="M62.1319 91.4017L62.1046 64.114L31.6072 81.7632V109.042L62.1319 91.4017Z" fill="#D48A53"/>
<path d="M61.9773 99.3944V126.682L31.6072 109.042V81.7632L61.9773 99.3944Z" fill="#DEAE80"/>
<path d="M31.6072 81.7632L61.9773 99.3944C61.9773 99.3944 50.6169 93.8932 31.6072 81.7632Z" fill="#7F492A"/>
<path d="M61.9773 99.3944V126.682L92.6931 109.042V81.7542L61.9773 99.3944Z" fill="#D8A57A"/>
<path d="M92.6931 81.7996L61.9773 99.3944L31.6072 81.7632L62.1046 64.114L92.6931 81.7996Z" fill="#E3B786"/>
<path d="M47.1697 90.7834L77.6217 73.0977L76.4757 72.434L46.0237 90.1287L47.1697 90.7834Z" fill="#7F492A"/>
<path d="M70.7454 106.55L71.1729 107.178L70.9637 107.296L70.9728 110.633L70.5453 110.888L70.5271 107.551L70.3179 107.669L70.7454 106.55Z" fill="#281407"/>
<path d="M68.8354 113.379V106.932L74.4201 103.659V110.106L68.8354 113.379ZM69.2175 107.16V112.688L74.0199 109.915V104.395L69.2175 107.16Z" fill="#281407"/>
<path d="M73.0012 109.769L73.0103 110.242L70.2634 111.824V111.352L73.0012 109.769Z" fill="#281407"/>
<path d="M72.501 105.532L72.9285 106.159L72.7193 106.287L72.7284 109.624L72.2918 109.869L72.2827 106.541L72.0735 106.66L72.501 105.532Z" fill="#281407"/>
<path d="M77.4944 106.241L77.6217 106.178L77.7491 106.096V107.296L77.4944 107.442V106.259V106.241Z" fill="#281407"/>
<path d="M78.8951 101.84V103.959C78.8715 104.378 78.7558 104.787 78.5561 105.156C78.3565 105.526 78.0778 105.846 77.74 106.096L77.6126 106.178L77.4853 106.241C76.8395 106.55 76.3301 106.241 76.321 105.441V103.322L78.8951 101.84Z" fill="#281407"/>
<path d="M78.9041 106.541V106.832L76.3391 108.314V108.024L77.4942 107.36V107.423L77.7489 107.278V107.214L78.9041 106.541Z" fill="#281407"/>
<path d="M74.8203 109.924V103.477L80.4323 100.24V106.687L74.8203 109.924ZM75.2114 103.704V109.224L80.0412 106.45V100.931L75.2114 103.704Z" fill="#281407"/>
<path d="M83.5974 99.1125C84.5069 98.5669 85.3346 98.9943 85.3528 100.076C85.2674 100.017 85.1658 99.985 85.0617 99.985C84.9577 99.985 84.8561 100.017 84.7707 100.076C84.5189 100.231 84.3169 100.455 84.1886 100.722C84.1175 100.683 84.0377 100.662 83.9566 100.662C83.8756 100.662 83.7958 100.683 83.7247 100.722V100.431L83.4791 100.576V100.867C83.2894 101.021 83.1344 101.213 83.0243 101.431C82.9389 101.372 82.8374 101.34 82.7333 101.34C82.6292 101.34 82.5276 101.372 82.4422 101.431C82.1904 101.586 81.9884 101.81 81.8601 102.077C81.9014 101.482 82.0797 100.905 82.3811 100.391C82.6825 99.8768 83.0988 99.4392 83.5974 99.1125Z" fill="#281407"/>
<path d="M83.7248 100.44V103.222C83.7248 103.513 83.934 103.632 84.1887 103.486C84.323 103.4 84.4351 103.284 84.5157 103.146C84.5963 103.009 84.6432 102.854 84.6526 102.695L84.8982 102.55C84.8836 102.795 84.8118 103.034 84.6887 103.247C84.5655 103.46 84.3943 103.642 84.1887 103.777C83.7976 104.004 83.4792 103.823 83.4792 103.368V100.586L83.7248 100.44Z" fill="#281407"/>
<path d="M80.8142 106.469V100.022L86.408 96.7847V103.232L80.8142 106.469ZM81.1962 100.249V105.769L85.9987 103.041V97.5213L81.1962 100.249Z" fill="#281407"/>
<path d="M51.0808 96.9756L59.2668 101.704V105.532L51.0808 100.804V96.9756Z" fill="#131111"/>
<path d="M51.2354 97.2394L59.1212 101.84V105.323L51.2354 100.777V97.2394Z" fill="white"/>
<path d="M54.8827 99.7399V99.9127L51.5173 97.9759V97.8031L54.8827 99.7399Z" fill="#131111"/>
<path d="M58.8485 102.031V102.204L55.4558 100.249V100.067L58.8485 102.031Z" fill="#131111"/>
<path d="M53.0818 101.222V101.395L51.5083 100.486V100.313L53.0818 101.222Z" fill="#131111"/>
<path d="M58.8393 104.541V104.714L53.6548 101.731L53.6639 101.549L58.8393 104.541Z" fill="#131111"/>
<path d="M56.6655 102.022V102.204L51.5083 99.2307L51.5174 99.0488L56.6655 102.022Z" fill="#131111"/>
<path d="M58.8393 103.286V103.459L57.2385 102.531V102.359L58.8393 103.286Z" fill="#131111"/>
<path d="M43.2949 88.5648L48.4521 91.5381L78.9041 73.8525L73.7469 70.8791L43.2949 88.5648Z" fill="#FFDA9F"/>
<path d="M43.4495 93.9932L43.8589 93.7568L44.2591 94.4569L44.6684 94.2205L45.0686 94.9207L45.4779 94.6934L45.8781 95.3844L46.2783 95.1571L46.6876 95.8573L47.0878 95.6208L47.488 96.321L47.8973 96.0846L48.2975 96.7847L48.4521 96.6938V91.5381L43.2949 88.5648V93.7204L43.4495 93.9932Z" fill="#F7CE92"/>
<g style="mix-blend-mode:multiply" opacity="0.3">
<path d="M123.954 63.6138L93.3933 81.254L62.7776 63.5684L93.2296 45.8827L123.954 63.6138Z" fill="#CC8425"/>
<path d="M61.004 63.5593L30.5248 81.254L0 63.6138L30.361 45.8827L61.004 63.5593Z" fill="#CC8425"/>
<path d="M92.684 81.7541L61.9683 99.3943L31.5981 81.7541L61.9592 64.023L92.684 81.7541Z" fill="#CC8425"/>
</g>
<path d="M62.1228 27.2878V0L92.6839 17.6402V44.928L62.1228 27.2878Z" fill="#A1663B"/>
<path d="M62.1229 27.2878V0L31.5981 17.6493V44.928L62.1229 27.2878Z" fill="#D48A53"/>
<path d="M62.1229 35.2804V62.5682L31.5981 44.928V17.6493L62.1229 35.2804Z" fill="#DEAE80"/>
<path d="M31.5981 17.6493L62.1229 35.2804C62.1229 35.2804 50.6079 29.7883 31.5981 17.6493Z" fill="#7F492A"/>
<path d="M62.1228 35.2805V62.5682L92.6839 44.928V17.6403L62.1228 35.2805Z" fill="#D8A57A"/>
<path d="M92.684 17.6857L62.1229 35.2804L31.5981 17.6493L62.0501 0L92.684 17.6857Z" fill="#E3B786"/>
<path d="M47.1604 26.6694L77.6033 8.98373L76.4573 8.31995L46.0144 26.0147L47.1604 26.6694Z" fill="#7F492A"/>
<path d="M70.7363 42.4365L71.1638 43.0639L70.9546 43.1821L70.9637 46.5192L70.5271 46.7738L70.518 43.4367L70.3088 43.555L70.7363 42.4365Z" fill="#281407"/>
<path d="M68.8262 49.2653V42.8184L74.4291 39.5814V46.0282L68.8262 49.2653ZM69.2082 43.0458V48.5742L74.0107 45.8009V40.2724L69.2082 43.0458Z" fill="#281407"/>
<path d="M72.9919 45.6554V46.1282L70.2542 47.7104V47.2376L72.9919 45.6554Z" fill="#281407"/>
<path d="M72.4827 41.4181L72.9193 42.0546L72.701 42.1728L72.7191 45.5099L72.2826 45.7554L72.2735 42.4183L72.0552 42.5456L72.4827 41.4181Z" fill="#281407"/>
<path d="M77.4851 42.1274L77.6124 42.0637L77.7398 41.9819V43.164L77.4851 43.3094V42.1274Z" fill="#281407"/>
<path d="M78.886 37.7355V39.845C78.866 40.264 78.7528 40.6732 78.5545 41.0429C78.3563 41.4126 78.078 41.7334 77.74 41.9819L77.6126 42.0637L77.4853 42.1273C76.8304 42.4365 76.321 42.1273 76.321 41.3272V39.2085L78.886 37.7355Z" fill="#281407"/>
<path d="M78.895 42.4274V42.7184L76.3301 44.2005V43.9096L77.4852 43.2458V43.3094L77.7399 43.164V43.1003L78.895 42.4274Z" fill="#281407"/>
<path d="M74.811 45.81V39.3631L80.4139 36.126V42.5729L74.811 45.81ZM75.193 39.5904V45.1098L79.9955 42.3819V36.8717L75.193 39.5904Z" fill="#281407"/>
<path d="M83.5885 35.0167C84.498 34.4711 85.3166 34.8985 85.3439 35.9806C85.2571 35.9203 85.154 35.8881 85.0483 35.8881C84.9426 35.8881 84.8395 35.9203 84.7527 35.9806C84.5058 36.1389 84.3075 36.3623 84.1797 36.6262C84.1086 36.5872 84.0288 36.5667 83.9477 36.5667C83.8666 36.5667 83.7869 36.5872 83.7158 36.6262V36.3716L83.4611 36.517V36.808C83.2714 36.9617 83.1164 37.1538 83.0063 37.3718C82.9195 37.3115 82.8164 37.2793 82.7107 37.2793C82.6051 37.2793 82.5019 37.3115 82.4151 37.3718C82.1679 37.5323 81.9671 37.7549 81.833 38.0174C81.8716 37.4151 82.0503 36.8301 82.3551 36.3091C82.6599 35.7882 83.0822 35.3456 83.5885 35.0167Z" fill="#281407"/>
<path d="M83.6792 36.3716V39.0994C83.6792 39.3904 83.8884 39.5086 84.1431 39.3631C84.2762 39.2768 84.3869 39.16 84.466 39.0225C84.5451 38.8849 84.5903 38.7305 84.5979 38.5721L84.8526 38.4266C84.838 38.6722 84.7662 38.9111 84.6431 39.1242C84.5199 39.3373 84.3487 39.5188 84.1431 39.6541C83.752 39.8814 83.4337 39.6996 83.4246 39.2449V36.4716L83.6792 36.3716Z" fill="#281407"/>
<path d="M80.8052 42.3547V35.9078L86.4081 32.6708V39.0994L80.8052 42.3547ZM81.1872 36.1352V41.6546L85.9988 38.8812V33.3618L81.1872 36.1352Z" fill="#281407"/>
<path d="M51.0718 32.8617L59.2578 37.59V41.4181L51.0718 36.6898V32.8617Z" fill="#131111"/>
<path d="M51.2173 33.1163L59.1122 37.6627V41.1544L51.2173 36.6079V33.1163Z" fill="white"/>
<path d="M54.8646 35.6259V35.7987L51.5083 33.8619V33.6801L54.8646 35.6259Z" fill="#131111"/>
<path d="M58.8301 37.9174V38.0901L55.4375 36.1352V35.9533L58.8301 37.9174Z" fill="#131111"/>
<path d="M53.0728 37.1081V37.2808L51.4993 36.3716V36.1988L53.0728 37.1081Z" fill="#131111"/>
<path d="M58.8302 40.427V40.5998L53.6458 37.6082V37.4354L58.8302 40.427Z" fill="#131111"/>
<path d="M56.6565 37.9173V38.0901L51.4993 35.1167V34.9349L56.6565 37.9173Z" fill="#131111"/>
<path d="M58.8301 39.1722V39.3449L57.2292 38.4175V38.2447L58.8301 39.1722Z" fill="#131111"/>
<path d="M43.2859 24.4508L48.4431 27.4242L78.886 9.73851L73.7379 6.76514L43.2859 24.4508Z" fill="#FFDA9F"/>
<path d="M43.4405 29.8793L43.8498 29.6428L44.25 30.343L44.6502 30.1066L45.0595 30.8067L45.4597 30.5794L45.8599 31.2705L46.2692 31.0432L46.6694 31.7433L47.0787 31.5069L47.479 32.207L47.8883 31.9706L48.2794 32.6708L48.4431 32.5799V27.4242L43.2859 24.4508V29.6065L43.4405 29.8793Z" fill="#F7CE92"/>
<path d="M93.3843 45.6281V18.3403L123.955 35.9987V63.2683L93.3843 45.6281Z" fill="#A1663B"/>
<path d="M93.3844 45.6281V18.3403L62.8596 35.9896V63.2683L93.3844 45.6281Z" fill="#D48A53"/>
<path d="M93.3844 53.6208V80.9086L62.8596 63.2684V35.9897L93.3844 53.6208Z" fill="#DEAE80"/>
<path d="M62.8596 35.9897L93.3844 53.6481C93.3844 53.6481 81.8603 48.1196 62.8596 35.9897Z" fill="#7F492A"/>
<path d="M93.3843 53.6208V80.9086L123.955 63.2684V35.9988L93.3843 53.6208Z" fill="#D8A57A"/>
<path d="M123.955 35.9987L93.3844 53.6207L62.8596 35.9896L93.3116 18.3403L123.955 35.9987Z" fill="#E3B786"/>
<path d="M78.4221 45.0098L108.874 27.3241L107.728 26.6603L77.2852 44.3551L78.4221 45.0098Z" fill="#7F492A"/>
<path d="M101.998 60.7769L102.434 61.4043L102.225 61.5225L102.234 64.8596L101.798 65.1142L101.789 61.7771L101.579 61.8953L101.998 60.7769Z" fill="#281407"/>
<path d="M100.051 67.6056V61.1588L105.663 57.9217V64.3686L100.051 67.6056ZM100.442 61.3952V66.9146L105.254 64.1867V58.6582L100.442 61.3952Z" fill="#281407"/>
<path d="M104.263 63.9958V64.4686L101.525 66.0508V65.578L104.263 63.9958Z" fill="#281407"/>
<path d="M103.753 59.7585L104.19 60.395L103.972 60.5132L103.981 63.8503L103.553 64.0958L103.544 60.7587L103.326 60.886L103.753 59.7585Z" fill="#281407"/>
<path d="M108.756 60.4677L108.883 60.404L109.002 60.3222V61.5043L108.747 61.6498V60.4677H108.756Z" fill="#281407"/>
<path d="M110.147 56.0668V58.1945C110.126 58.6141 110.011 59.0236 109.811 59.3932C109.611 59.7628 109.332 60.0833 108.992 60.3313L108.874 60.4132L108.747 60.4768C108.092 60.7769 107.583 60.4768 107.583 59.6766V57.5489L110.147 56.0668Z" fill="#281407"/>
<path d="M110.166 60.7678V61.0587L107.601 62.5409V62.2499L108.756 61.5861V61.6498L109.01 61.5043V61.4406L110.166 60.7678Z" fill="#281407"/>
<path d="M106.082 64.1504V57.7035L111.685 54.4664V60.9133L106.082 64.1504ZM106.464 57.9308V63.4502L111.266 60.7223V55.203L106.464 57.9308Z" fill="#281407"/>
<path d="M114.859 53.357C115.768 52.8115 116.587 53.2388 116.605 54.3209C116.52 54.2614 116.418 54.2296 116.314 54.2296C116.21 54.2296 116.109 54.2614 116.023 54.3209C115.776 54.4814 115.575 54.704 115.441 54.9665C115.372 54.9275 115.293 54.907 115.214 54.907C115.134 54.907 115.056 54.9275 114.986 54.9665V54.6755L114.732 54.821V55.112C114.544 55.2675 114.389 55.4592 114.277 55.6757C114.191 55.6163 114.09 55.5844 113.986 55.5844C113.882 55.5844 113.78 55.6163 113.695 55.6757C113.447 55.8362 113.247 56.0589 113.113 56.3213C113.156 55.7261 113.336 55.1489 113.638 54.6347C113.941 54.1206 114.359 53.6833 114.859 53.357Z" fill="#281407"/>
<path d="M114.986 54.6664V57.4489C114.986 57.7398 115.196 57.858 115.45 57.7126C115.582 57.6246 115.691 57.5075 115.77 57.3703C115.849 57.233 115.895 57.0794 115.905 56.9215L116.16 56.7669C116.146 57.0141 116.075 57.2548 115.952 57.4696C115.829 57.6844 115.657 57.8673 115.45 58.0035C115.05 58.2309 114.732 58.049 114.732 57.5944V54.8119L114.986 54.6664Z" fill="#281407"/>
<path d="M112.067 60.695V54.2482L117.679 51.0111V57.458L112.067 60.695ZM112.449 54.4755V59.9949L117.251 57.2216V51.7022L112.449 54.4755Z" fill="#281407"/>
<path d="M82.3333 51.202L90.5193 55.9303V59.7584L82.3333 55.0301V51.202Z" fill="#131111"/>
<path d="M82.4878 51.4567L90.3828 56.0031V59.4948L82.4878 54.9483V51.4567Z" fill="white"/>
<path d="M86.1351 53.9663V54.1391L82.7698 52.2023V52.0295L86.1351 53.9663Z" fill="#131111"/>
<path d="M90.1009 56.2577V56.4305L86.7083 54.4755V54.2936L90.1009 56.2577Z" fill="#131111"/>
<path d="M84.3433 55.4484V55.6212L82.7698 54.7119V54.5391L84.3433 55.4484Z" fill="#131111"/>
<path d="M90.1007 58.7673L90.0916 58.9401L84.9163 55.9485V55.7758L90.1007 58.7673Z" fill="#131111"/>
<path d="M87.927 56.2486V56.4304L82.7698 53.4571V53.2752L87.927 56.2486Z" fill="#131111"/>
<path d="M90.1008 57.5125V57.6853L88.5 56.7578V56.585L90.1008 57.5125Z" fill="#131111"/>
<path d="M74.5564 42.7911L79.7136 45.7645L110.156 28.0788L105.008 25.1055L74.5564 42.7911Z" fill="#FFDA9F"/>
<path d="M74.711 48.2196L75.1203 47.9832L75.5205 48.6833L75.9207 48.4469L76.3209 49.1471L76.7302 48.9197L77.1304 49.6108L77.5397 49.3835L77.94 50.0836L78.3402 49.8472L78.7495 50.5474L79.1497 50.311L79.5499 51.0111L79.7136 50.9202V45.7645L74.5564 42.7911V47.9468L74.711 48.2196Z" fill="#F7CE92"/>
<path d="M30.5248 45.6281L30.4976 18.3403L61.086 35.9987V63.2683L30.5248 45.6281Z" fill="#A1663B"/>
<path d="M30.5248 45.6281L30.4975 18.3403L0 35.9896V63.2683L30.5248 45.6281Z" fill="#D48A53"/>
<path d="M30.5248 53.6208V80.9086L0 63.2684V35.9897L30.5248 53.6208Z" fill="#DEAE80"/>
<path d="M0 35.9897L30.5248 53.6481C30.5248 53.6481 19.0098 48.1196 0 35.9897Z" fill="#7F492A"/>
<path d="M30.5247 53.6208V80.9086L61.0858 63.2684V35.9988L30.5247 53.6208Z" fill="#D8A57A"/>
<path d="M61.0859 35.9987L30.5248 53.6207L0 35.9896L30.4975 18.3403L61.0859 35.9987Z" fill="#E3B786"/>
<path d="M15.5625 45.0098L46.0145 27.3241L44.8685 26.6603L14.4165 44.3551L15.5625 45.0098Z" fill="#7F492A"/>
<path d="M39.1382 60.7769L39.5657 61.4043L39.3565 61.5225L39.3656 64.8596L38.9381 65.1142L38.9199 61.7771L38.7107 61.8953L39.1382 60.7769Z" fill="#281407"/>
<path d="M37.2283 67.6056V61.1588L42.8402 57.9217V64.3686L37.2283 67.6056ZM37.6103 61.3952V66.9146L42.4128 64.1867V58.6582L37.6103 61.3952Z" fill="#281407"/>
<path d="M41.394 63.9958L41.4031 64.4686L38.6653 66.0508L38.6562 65.578L41.394 63.9958Z" fill="#281407"/>
<path d="M40.8938 59.7585L41.3213 60.395L41.1121 60.5132L41.1212 63.8503L40.6846 64.0958L40.6755 60.7587L40.4663 60.886L40.8938 59.7585Z" fill="#281407"/>
<path d="M45.8872 60.4677L46.0145 60.404L46.1419 60.3222V61.5043L45.8872 61.6498V60.4677Z" fill="#281407"/>
<path d="M47.297 56.0668V58.1945C47.2734 58.6137 47.1577 59.0225 46.958 59.3918C46.7583 59.7612 46.4797 60.082 46.1418 60.3313L46.0145 60.4132L45.8871 60.4768C45.2414 60.7769 44.732 60.4768 44.7229 59.6766V57.5489L47.297 56.0668Z" fill="#281407"/>
<path d="M47.306 60.7678V61.0587L44.7319 62.5409V62.2499L45.8871 61.5861V61.6498L46.1417 61.5043V61.4406L47.306 60.7678Z" fill="#281407"/>
<path d="M43.2131 64.1504V57.7035L48.8251 54.4664V60.9133L43.2131 64.1504ZM43.6042 57.9308V63.4502L48.4158 60.7223V55.203L43.6042 57.9308Z" fill="#281407"/>
<path d="M51.9904 53.357C52.9455 52.8115 53.7277 53.2388 53.7459 54.3209C53.6605 54.2614 53.5589 54.2296 53.4548 54.2296C53.3507 54.2296 53.2492 54.2614 53.1638 54.3209C52.9119 54.476 52.7099 54.7001 52.5816 54.9665C52.5106 54.9275 52.4308 54.907 52.3497 54.907C52.2686 54.907 52.1888 54.9275 52.1178 54.9665V54.6755L51.8722 54.821V55.112C51.6843 55.2675 51.5297 55.4592 51.4174 55.6757C51.332 55.6163 51.2304 55.5844 51.1263 55.5844C51.0223 55.5844 50.9207 55.6163 50.8353 55.6757C50.5835 55.8308 50.3815 56.0549 50.2532 56.3213C50.2945 55.7268 50.4728 55.1498 50.7742 54.6356C51.0755 54.1213 51.4918 53.6838 51.9904 53.357Z" fill="#281407"/>
<path d="M52.1177 54.6664V57.4489C52.1177 57.7398 52.3269 57.858 52.5815 57.7126C52.7158 57.6267 52.8279 57.5102 52.9085 57.3727C52.9891 57.2352 53.0361 57.0806 53.0454 56.9215L53.291 56.7669C53.2799 57.0146 53.2098 57.2562 53.0864 57.4713C52.963 57.6864 52.7899 57.8689 52.5815 58.0035C52.1904 58.2309 51.8721 58.049 51.8721 57.5944V54.8119L52.1177 54.6664Z" fill="#281407"/>
<path d="M49.207 60.695V54.2482L54.8099 51.0111V57.458L49.207 60.695ZM49.589 54.4755V59.9949L54.3915 57.2216V51.7022L49.589 54.4755Z" fill="#281407"/>
<path d="M19.4736 51.202L27.6597 55.9303V59.7584L19.4736 55.0301V51.202Z" fill="#131111"/>
<path d="M19.6282 51.4567L27.514 56.0031V59.4948L19.6282 54.9483V51.4567Z" fill="white"/>
<path d="M23.2755 53.9663V54.1391L19.9102 52.2023V52.0295L23.2755 53.9663Z" fill="#131111"/>
<path d="M27.2413 56.2577V56.4305L23.8486 54.4755V54.2936L27.2413 56.2577Z" fill="#131111"/>
<path d="M21.4747 55.4484V55.6212L19.9011 54.7119V54.5391L21.4747 55.4484Z" fill="#131111"/>
<path d="M27.2323 58.7673V58.9401L22.0569 55.9485V55.7758L27.2323 58.7673Z" fill="#131111"/>
<path d="M25.0583 56.2486V56.4304L19.9102 53.4571V53.2752L25.0583 56.2486Z" fill="#131111"/>
<path d="M27.2322 57.5125V57.6853L25.6313 56.7578V56.585L27.2322 57.5125Z" fill="#131111"/>
<path d="M11.697 42.7911L16.8451 45.7645L47.2971 28.0788L42.1399 25.1055L11.697 42.7911Z" fill="#FFDA9F"/>
<path d="M11.8516 48.2196L12.2519 47.9832L12.6521 48.6833L13.0614 48.4469L13.4616 49.1471L13.8709 48.9197L14.2711 49.6108L14.6713 49.3835L15.0806 50.0836L15.4808 49.8472L15.881 50.5474L16.2903 50.311L16.6905 51.0111L16.8451 50.9202V45.7645L11.697 42.7911V47.9468L11.8516 48.2196Z" fill="#F7CE92"/>
<path d="M62.1228 63.7684L62.0955 36.4807L92.6839 54.1209V81.4086L62.1228 63.7684Z" fill="#A1663B"/>
<path d="M62.1229 63.7684L62.0956 36.4807L31.5981 54.1299V81.4086L62.1229 63.7684Z" fill="#D48A53"/>
<path d="M61.9683 71.7611V99.0488L31.5981 81.4086V54.1299L61.9683 71.7611Z" fill="#DEAE80"/>
<path d="M31.5981 54.139L61.9683 71.7611C61.9683 71.7611 50.6079 66.269 31.5981 54.139Z" fill="#7F492A"/>
<path d="M61.9683 71.7611V99.0488L92.684 81.4086V54.1208L61.9683 71.7611Z" fill="#D8A57A"/>
<path d="M92.684 54.1663L61.9683 71.7611L31.5981 54.1299L62.0956 36.4807L92.684 54.1663Z" fill="#E3B786"/>
<path d="M47.1604 63.1501L77.6033 45.4644L76.4573 44.8007L46.0144 62.4954L47.1604 63.1501Z" fill="#7F492A"/>
<path d="M70.7363 78.9172L71.1638 79.5446L70.9546 79.6628L70.9637 82.9999L70.5271 83.2545L70.518 79.9174L70.3088 80.0356L70.7363 78.9172Z" fill="#281407"/>
<path d="M68.8262 85.7459V79.2991L74.4291 76.062V82.5089L68.8262 85.7459ZM69.2082 79.5264V85.0549L74.0107 82.2815V76.7622L69.2082 79.5264Z" fill="#281407"/>
<path d="M72.9919 82.1361V82.6089L70.2542 84.1911V83.7183L72.9919 82.1361Z" fill="#281407"/>
<path d="M72.4827 77.8988L72.9193 78.5262L72.701 78.6535L72.7191 81.9906L72.2826 82.2361L72.2735 78.9081L72.0552 79.0263L72.4827 77.8988Z" fill="#281407"/>
<path d="M77.4851 78.608L77.6124 78.5444L77.7398 78.4625V79.6446L77.4851 79.7901V78.608Z" fill="#281407"/>
<path d="M78.886 74.2162V76.3257C78.866 76.7447 78.7528 77.154 78.5545 77.5236C78.3563 77.8933 78.078 78.2141 77.74 78.4626L77.6126 78.5444L77.4853 78.608C76.8304 78.9172 76.321 78.608 76.321 77.8079V75.6983L78.886 74.2162Z" fill="#281407"/>
<path d="M78.895 78.9081V79.1991L76.3301 80.6812V80.3902L77.4852 79.7264V79.7901L77.7399 79.6446V79.581L78.895 78.9081Z" fill="#281407"/>
<path d="M74.811 82.2906V75.8438L80.4139 72.6067V79.0536L74.811 82.2906ZM75.193 76.0711V81.5905L79.9955 78.8626V73.3523L75.193 76.0711Z" fill="#281407"/>
<path d="M83.5885 71.4974C84.498 70.9518 85.3166 71.3792 85.3439 72.4612C85.2571 72.401 85.154 72.3687 85.0483 72.3687C84.9426 72.3687 84.8395 72.401 84.7527 72.4612C84.5058 72.6195 84.3075 72.8429 84.1797 73.1068C84.1086 73.0678 84.0288 73.0474 83.9477 73.0474C83.8666 73.0474 83.7869 73.0678 83.7158 73.1068V72.8158L83.4611 72.9613V73.2523C83.2714 73.406 83.1164 73.5981 83.0063 73.8161C82.9195 73.7558 82.8164 73.7236 82.7107 73.7236C82.6051 73.7236 82.5019 73.7558 82.4151 73.8161C82.1679 73.9766 81.9671 74.1992 81.833 74.4617C81.8771 73.8657 82.0584 73.2879 82.363 72.7737C82.6675 72.2594 83.0869 71.8226 83.5885 71.4974Z" fill="#281407"/>
<path d="M83.6792 72.8068V75.5892C83.6792 75.8802 83.8884 75.9984 84.1431 75.8529C84.2762 75.7665 84.3869 75.6498 84.466 75.5122C84.5451 75.3746 84.5903 75.2203 84.5979 75.0618L84.8526 74.9163C84.838 75.162 84.7662 75.4009 84.6431 75.614C84.5199 75.8271 84.3487 76.0085 84.1431 76.1439C83.752 76.3712 83.4337 76.1893 83.4246 75.7347V72.9523L83.6792 72.8068Z" fill="#281407"/>
<path d="M80.8052 78.8354V72.3885L86.4081 69.1514V75.5983L80.8052 78.8354ZM81.1872 72.6158V78.1352L85.9988 75.3619V69.8425L81.1872 72.6158Z" fill="#281407"/>
<path d="M51.0718 69.3423L59.2578 74.0706V77.8988L51.0718 73.1705V69.3423Z" fill="#131111"/>
<path d="M51.2173 69.6061L59.1122 74.1525V77.6351L51.2173 73.0887V69.6061Z" fill="white"/>
<path d="M54.8646 72.1066V72.2793L51.5083 70.3426V70.1698L54.8646 72.1066Z" fill="#131111"/>
<path d="M58.8301 74.398V74.5708L55.4375 72.6158V72.434L58.8301 74.398Z" fill="#131111"/>
<path d="M53.0728 73.5887V73.7615L51.4993 72.8522V72.6794L53.0728 73.5887Z" fill="#131111"/>
<path d="M58.8302 76.9076V77.0804L53.6458 74.0979V73.9161L58.8302 76.9076Z" fill="#131111"/>
<path d="M56.6565 74.3889V74.5708L51.4993 71.5974V71.4155L56.6565 74.3889Z" fill="#131111"/>
<path d="M58.8301 75.6528V75.8256L57.2292 74.8981V74.7253L58.8301 75.6528Z" fill="#131111"/>
<path d="M43.2859 60.9405L48.4431 63.9048L78.886 46.2192L73.7379 43.2458L43.2859 60.9405Z" fill="#FFDA9F"/>
<path d="M43.4405 66.3599L43.8498 66.1235L44.25 66.8237L44.6502 66.5872L45.0595 67.2874L45.4597 67.0601L45.8599 67.7602L46.2692 67.5238L46.6694 68.224L47.0787 67.9875L47.479 68.6877L47.8883 68.4513L48.2794 69.1514L48.4431 69.0605V63.9048L43.2859 60.9406V66.0871L43.4405 66.3599Z" fill="#F7CE92"/>
</svg>
