<svg width="11" height="15" viewBox="0 0 11 15" fill="none" xmlns="http://www.w3.org/2000/svg">
<path d="M2.1305 4.5001e-05C1.70892 -0.00261197 1.29609 0.110914 0.944948 0.326064C0.593809 0.541214 0.320372 0.848178 0.1597 1.20759C-0.000972527 1.56701 -0.0415533 1.96249 0.0431615 2.34331C0.127876 2.72414 0.334024 3.07295 0.635168 3.34501L5.18967 7.5225L0.635167 11.7186C0.261392 12.0885 0.0579045 12.5777 0.0675766 13.0832C0.0772497 13.5887 0.299325 14.071 0.687018 14.4285C1.07471 14.786 1.59775 14.9908 2.14595 14.9997C2.69414 15.0086 3.22469 14.821 3.62582 14.4763L10.8808 7.78638C10.9186 7.75183 10.9485 7.71072 10.969 7.66543C10.9895 7.62014 11 7.57156 11 7.5225C11 7.47344 10.9895 7.42486 10.969 7.37957C10.9485 7.33428 10.9186 7.29317 10.8808 7.25862L3.62582 0.56869C3.22846 0.204366 2.69085 -7.89277e-05 2.1305 4.5001e-05Z" fill="#FDFBFB"/>
</svg>
