<svg width="174" height="151" viewBox="0 0 174 151" fill="none" xmlns="http://www.w3.org/2000/svg">
<path opacity="0.2" d="M31.4676 150.003L1.72984 132.793C-0.814016 131.31 -0.508752 128.727 2.44212 127.014L131.568 51.7057C133.083 50.859 134.774 50.381 136.506 50.3099C138.238 50.2389 139.962 50.5768 141.54 51.2965L171.278 68.4806C173.822 69.9638 173.491 72.5465 170.54 74.2598L41.4141 149.568C39.9058 150.418 38.22 150.901 36.4923 150.976C34.7647 151.052 33.0435 150.718 31.4676 150.003Z" fill="#92B4D1"/>
<path d="M7.479 103.411C7.41316 103.435 7.34133 103.435 7.27549 103.411L5.72374 101.289C5.26847 100.612 5.04521 99.8037 5.08777 98.9874V94.6147C5.08596 93.7924 5.35799 92.9932 5.86051 92.3444C6.36303 91.6956 7.06711 91.2345 7.86058 91.0347L10.1755 90.4721C10.2072 90.4604 10.2411 90.4558 10.2747 90.4588C10.3084 90.4617 10.3409 90.4721 10.3701 90.4892C10.3993 90.5063 10.4244 90.5297 10.4435 90.5577C10.4626 90.5857 10.4753 90.6176 10.4808 90.6511C10.4974 90.7189 10.4884 90.7904 10.4554 90.8518C10.4225 90.9133 10.3681 90.9602 10.3027 90.9836L7.96233 91.5717C7.27811 91.7325 6.66764 92.1201 6.22925 92.6721C5.79086 93.2241 5.55007 93.9084 5.54567 94.6147V98.9619C5.53627 99.6352 5.75118 100.292 6.15619 100.829L7.70795 102.977C7.75456 103.024 7.78066 103.089 7.78066 103.156C7.78066 103.223 7.75456 103.287 7.70795 103.335L7.479 103.411Z" fill="#A8CFF0"/>
<path d="M6.23247 100.215L5.08773 99.4733C4.7787 99.258 4.5252 98.9716 4.34824 98.6381C4.17128 98.3046 4.07596 97.9334 4.07019 97.5555V93.7197C4.07019 92.9782 4.52809 92.6202 5.08773 92.9526L6.35966 93.6942C6.65432 93.9216 6.89583 94.2112 7.06723 94.5425C7.23863 94.8739 7.33575 95.2389 7.35177 95.612V99.4478C7.22458 100.189 6.76668 100.547 6.23247 100.215Z" fill="#A8CFF0"/>
<path d="M6.23253 93.6942L5.08779 92.9526C4.97757 92.8589 4.83786 92.8074 4.69349 92.8074C4.54912 92.8074 4.40942 92.8589 4.29919 92.9526C4.45287 92.9505 4.60359 92.995 4.73165 93.0805L6.00358 93.7965C6.30615 94.0241 6.55446 94.3166 6.73047 94.6528C6.90648 94.9889 7.00577 95.3603 7.02112 95.7399V99.729C7.02927 99.9793 6.94806 100.224 6.79218 100.419C7.12288 100.419 7.35183 100.087 7.35183 99.55V95.7143C7.33624 95.3129 7.22677 94.9208 7.03231 94.5698C6.83784 94.2188 6.56385 93.9188 6.23253 93.6942Z" fill="#1B1389"/>
<path d="M103.968 94.6403V101.698L127.6 87.8894V80.8828L103.968 94.6403Z" fill="#1D1868"/>
<path d="M103.968 94.6403V101.698L97.3026 97.8879V90.8301L103.968 94.6403Z" fill="#1D1868"/>
<path d="M97.3026 90.8301L103.968 94.6403L127.6 80.8828L120.961 77.0726L97.3026 90.8301Z" fill="#0F0878"/>
<path d="M171.329 54.7998V63.7754L172.194 63.0594V54.1094L171.329 54.7998Z" fill="#1D1868"/>
<path d="M171.329 54.7998V63.7754L150.062 51.7568V42.7556L171.329 54.7998Z" fill="#1D1868"/>
<path d="M150.062 42.7556L171.329 54.7998L172.194 54.1094L150.927 42.0908L150.062 42.7556Z" fill="#0F0878"/>
<path d="M166.648 57.0757V70.4496L164.359 69.171V55.7204L166.648 57.0757Z" fill="#A8CFF0"/>
<path d="M147.544 74.3365C147.444 75.2338 147.581 76.1418 147.943 76.9683C148.305 77.7947 148.878 78.5101 149.604 79.0417L153.649 81.3942C154.997 82.1358 154.133 80.4481 156.193 79.2718C158.337 77.8765 160.121 75.9902 161.399 73.7677C162.676 71.5451 163.412 69.0497 163.545 66.486C163.545 64.1846 165.682 64.159 164.359 63.3919L160.06 60.9882C159.234 60.6417 158.333 60.5115 157.444 60.6099C156.554 60.7083 155.703 61.032 154.972 61.5507C152.817 62.9405 151.02 64.8238 149.729 67.0462C148.438 69.2686 147.689 71.767 147.544 74.3365Z" fill="#1D1868"/>
<path d="M151.818 76.7147C151.818 81.3943 155.099 83.2866 159.144 80.934C161.288 79.5387 163.071 77.6524 164.349 75.4298C165.627 73.2073 166.363 70.7118 166.496 68.1482C166.496 63.4686 163.214 61.5763 159.144 63.9289C157.008 65.3301 155.231 67.2184 153.958 69.4401C152.685 71.6618 151.952 74.1543 151.818 76.7147Z" fill="#1D1868"/>
<path d="M158.813 63.9288C159.539 63.3995 160.387 63.0653 161.278 62.9579C162.168 62.8505 163.071 62.9735 163.901 63.3151C162.377 63.0115 160.796 63.3239 159.5 64.1846C157.364 65.5858 155.587 67.474 154.314 69.6958C153.041 71.9175 152.308 74.4099 152.174 76.9703C152.077 77.9124 152.242 78.8631 152.65 79.7164C153.059 80.5697 153.695 81.2922 154.489 81.8034C153.492 81.4145 152.657 80.6962 152.121 79.7667C151.584 78.8371 151.379 77.7517 151.538 76.689C151.666 74.1367 152.392 71.6507 153.656 69.4335C154.92 67.2162 156.687 65.3302 158.813 63.9288Z" fill="#0F0878"/>
<path d="M159.22 67.4066C157.84 68.3073 156.69 69.5221 155.863 70.9526C155.037 72.3831 154.557 73.9891 154.463 75.6407C154.463 78.6581 156.6 79.86 159.22 78.3512C160.597 77.4492 161.743 76.2336 162.565 74.8029C163.387 73.3723 163.862 71.7669 163.952 70.1172C163.952 67.0998 161.84 65.8723 159.22 67.4066Z" fill="#A8CFF0"/>
<path d="M162.273 66.9463C162.678 67.2978 162.995 67.7403 163.198 68.2379C163.401 68.7354 163.485 69.2741 163.443 69.8103C163.349 71.4618 162.869 73.0679 162.043 74.4984C161.216 75.9289 160.066 77.1436 158.686 78.0443C158.249 78.3559 157.746 78.5618 157.216 78.646C156.687 78.7303 156.145 78.6907 155.633 78.5302C156.183 78.8572 156.816 79.0145 157.453 78.9827C158.091 78.9509 158.706 78.7313 159.22 78.3512C160.597 77.4492 161.743 76.2335 162.565 74.8029C163.387 73.3722 163.862 71.7669 163.952 70.1172C164.031 69.4791 163.912 68.8321 163.612 68.2645C163.311 67.6969 162.844 67.2365 162.273 66.9463Z" fill="#1B1389"/>
<path d="M156.168 74.1575C156.168 75.7429 157.261 76.3822 158.711 75.5895C159.444 75.128 160.058 74.4977 160.5 73.7506C160.942 73.0035 161.201 72.1612 161.255 71.2935C161.255 69.708 160.136 69.0687 158.711 69.8615C157.98 70.3245 157.368 70.9552 156.926 71.702C156.483 72.4488 156.224 73.2903 156.168 74.1575Z" fill="#342C9F"/>
<path d="M156.575 74.3876C156.575 75.973 157.694 76.6123 159.118 75.794C159.851 75.3326 160.465 74.7022 160.907 73.9551C161.349 73.208 161.608 72.3657 161.662 71.498C161.662 69.9382 160.543 69.2989 159.118 70.0916C158.388 70.5561 157.777 71.1873 157.335 71.9337C156.893 72.6802 156.633 73.5209 156.575 74.3876Z" fill="#0F0878"/>
<path d="M131.645 83.7469C131.549 84.6401 131.689 85.5429 132.051 86.3644C132.413 87.1859 132.983 87.8971 133.705 88.4265L137.775 90.779C139.098 91.5462 138.259 89.8329 140.319 88.6822C142.463 87.2869 144.247 85.4006 145.525 83.178C146.803 80.9555 147.538 78.46 147.671 75.8964C147.671 73.5694 149.808 73.5694 148.485 72.7767L144.186 70.3729C143.359 70.0252 142.457 69.8967 141.566 69.9997C140.675 70.1027 139.825 70.4337 139.098 70.9611C136.94 72.3495 135.139 74.2319 133.844 76.4542C132.548 78.6765 131.795 81.1755 131.645 83.7469Z" fill="#1D1868"/>
<path d="M135.918 86.1505C135.918 90.8301 139.2 92.7224 143.245 90.3699C145.388 88.9746 147.172 87.0883 148.45 84.8657C149.728 82.6432 150.464 80.1477 150.597 77.5841C150.597 72.9045 147.315 71.0378 143.245 73.3903C141.111 74.7875 139.335 76.6714 138.062 78.8887C136.789 81.106 136.054 83.5941 135.918 86.1505Z" fill="#1D1868"/>
<path d="M142.889 73.2625C143.618 72.742 144.465 72.4112 145.352 72.2996C146.24 72.1881 147.142 72.2992 147.976 72.6232C146.453 72.3196 144.871 72.632 143.575 73.4926C141.439 74.8938 139.663 76.7821 138.39 79.0038C137.116 81.2256 136.383 83.718 136.249 86.2784C136.152 87.2205 136.317 88.1711 136.726 89.0245C137.134 89.8778 137.771 90.6003 138.564 91.1114C136.758 90.6 135.613 88.81 135.613 85.9971C135.749 83.4501 136.479 80.9708 137.742 78.7589C139.006 76.547 140.769 74.6643 142.889 73.2625Z" fill="#0F0878"/>
<path d="M143.296 76.7147C141.924 77.6227 140.782 78.8397 139.961 80.2691C139.14 81.6985 138.661 83.3009 138.564 84.9487C138.564 87.9662 140.701 89.1936 143.296 87.6593C144.679 86.7616 145.831 85.5476 146.658 84.1164C147.485 82.6853 147.963 81.0777 148.053 79.4253C148.053 76.4845 145.916 75.2827 143.296 76.7147Z" fill="#A8CFF0"/>
<path d="M146.374 76.3311C146.786 76.6931 147.108 77.1485 147.311 77.6597C147.515 78.171 147.594 78.7235 147.544 79.2718C147.448 80.9228 146.967 82.5281 146.141 83.9583C145.315 85.3885 144.166 86.6036 142.787 87.5058C142.345 87.8078 141.841 88.006 141.313 88.0857C140.784 88.1654 140.245 88.1245 139.734 87.9661C140.274 88.3079 140.906 88.4741 141.543 88.4421C142.18 88.4101 142.792 88.1814 143.296 87.7871C144.679 86.8895 145.831 85.6754 146.658 84.2443C147.485 82.8131 147.963 81.2056 148.053 79.5531C148.143 78.907 148.03 78.2486 147.729 77.6707C147.427 77.0927 146.954 76.6242 146.374 76.3311Z" fill="#1B1389"/>
<path d="M140.243 83.5422C140.243 85.1021 141.362 85.7414 142.787 84.9487C143.521 84.4888 144.136 83.8588 144.578 83.1114C145.021 82.364 145.279 81.5209 145.331 80.6527C145.331 79.0672 144.237 78.4279 142.787 79.2207C142.056 79.6908 141.445 80.3267 141.003 81.0772C140.562 81.8278 140.301 82.6721 140.243 83.5422Z" fill="#342C9F"/>
<path d="M140.675 83.7724C140.675 85.3578 141.769 85.9971 143.219 85.2044C143.949 84.7399 144.56 84.1087 145.002 83.3623C145.444 82.6158 145.705 81.7751 145.763 80.9084C145.763 79.323 144.644 78.6837 143.219 79.4764C142.485 79.9363 141.871 80.5663 141.428 81.3137C140.985 82.0611 140.727 82.9042 140.675 83.7724Z" fill="#0F0878"/>
<path d="M132.052 77.1749V90.5233L134.418 89.168V78.5302L166.648 59.8118V70.4496L169.014 69.0687V55.7204L132.052 77.1749Z" fill="#1B1389"/>
<path d="M132.026 77.2005V90.5489L129.711 89.2703V75.8196L132.026 77.2005Z" fill="#A8CFF0"/>
<path d="M107.86 100.522L109.055 101.238L128.694 89.8584L127.473 89.168L107.86 100.522Z" fill="#D1EBFF"/>
<path d="M128.694 82.6472V89.884L127.473 89.168V81.9056L128.694 82.6472Z" fill="#A8CFF0"/>
<path d="M107.275 94.1033V104.332L130.5 90.8045V80.5759L107.275 94.1033ZM128.694 89.8073L109.081 101.238V95.1517L128.694 83.7979V89.8073Z" fill="#1B1389"/>
<path d="M107.275 94.1033V104.383L105.748 103.616V93.2595L107.275 94.1033Z" fill="#A8CFF0"/>
<path d="M105.748 93.2594L107.275 94.1033L130.5 80.6526L128.948 79.8344L105.748 93.2594Z" fill="#D1EBFF"/>
<path d="M85.1428 110.904C85.0425 111.801 85.1803 112.709 85.5422 113.536C85.9041 114.362 86.4772 115.077 87.2033 115.609L91.248 117.962C92.5963 118.703 91.7314 117.015 93.7919 115.865C95.9341 114.468 97.7169 112.581 98.9947 110.359C100.272 108.137 101.009 105.642 101.144 103.079C101.144 100.752 103.281 100.726 101.983 99.9592L97.6586 97.5554C96.8313 97.2077 95.9292 97.0792 95.0384 97.1822C94.1476 97.2852 93.298 97.6162 92.5709 98.1436C90.4179 99.5293 88.6222 101.408 87.331 103.626C86.0399 105.844 85.29 108.338 85.1428 110.904Z" fill="#1D1868"/>
<path d="M89.3912 113.333C89.3912 118.013 92.6728 119.905 96.7176 117.552C98.8611 116.157 100.645 114.271 101.923 112.048C103.201 109.826 103.937 107.33 104.069 104.767C104.069 100.087 100.788 98.1948 96.7176 100.547C94.5815 101.949 92.8047 103.837 91.5316 106.059C90.2586 108.28 89.5252 110.773 89.3912 113.333Z" fill="#1D1868"/>
<path d="M96.3868 100.445C97.1083 99.907 97.9558 99.5655 98.8471 99.4534C99.7385 99.3414 100.644 99.4628 101.475 99.8058C100.724 99.6547 99.9515 99.6537 99.2008 99.8029C98.45 99.9521 97.7359 100.248 97.0991 100.675C94.9555 102.07 93.1716 103.957 91.8936 106.179C90.6157 108.402 89.8801 110.897 89.7474 113.461C89.6502 114.403 89.8152 115.354 90.2239 116.207C90.6326 117.06 91.2691 117.783 92.0623 118.294C91.0657 117.905 90.2305 117.187 89.6942 116.257C89.1578 115.328 88.9523 114.242 89.1114 113.18C89.2395 110.631 89.9654 108.148 91.2298 105.935C92.4942 103.722 94.2613 101.841 96.3868 100.445Z" fill="#0F0878"/>
<path d="M96.7939 103.974C95.4136 104.875 94.2636 106.089 93.4372 107.52C92.6107 108.95 92.131 110.556 92.0369 112.208C92.0369 115.225 94.1737 116.453 96.7939 114.919C98.1709 114.017 99.3169 112.801 100.139 111.37C100.961 109.94 101.436 108.334 101.525 106.685C101.525 103.667 99.4141 102.465 96.7939 103.974Z" fill="#A8CFF0"/>
<path d="M99.8465 103.514C100.254 103.869 100.572 104.316 100.775 104.818C100.978 105.32 101.061 105.863 101.017 106.403C100.923 108.051 100.443 109.654 99.6161 111.08C98.7895 112.507 97.6395 113.717 96.2597 114.612C95.8223 114.923 95.3193 115.129 94.7899 115.213C94.2604 115.298 93.7188 115.258 93.207 115.098C93.7521 115.438 94.3874 115.603 95.0283 115.571C95.6691 115.539 96.2851 115.312 96.7939 114.919C98.1709 114.017 99.3169 112.801 100.139 111.37C100.961 109.94 101.436 108.334 101.525 106.685C101.605 106.047 101.486 105.399 101.186 104.832C100.885 104.264 100.417 103.804 99.8465 103.514Z" fill="#1B1389"/>
<path d="M93.7412 110.699C93.7412 112.285 94.8351 112.924 96.2851 112.131C97.0181 111.67 97.6312 111.039 98.0736 110.292C98.516 109.545 98.7749 108.703 98.8289 107.835C98.8289 106.25 97.7096 105.61 96.2851 106.403C95.5535 106.866 94.9415 107.497 94.4993 108.244C94.0571 108.991 93.7973 109.832 93.7412 110.699Z" fill="#342C9F"/>
<path d="M94.1228 110.955C94.1228 112.54 95.2421 113.18 96.6667 112.387C97.4002 111.92 98.0132 111.285 98.4554 110.534C98.8976 109.782 99.1563 108.936 99.2105 108.065C99.2105 106.505 98.0912 105.866 96.6667 106.659C95.9364 107.123 95.3255 107.755 94.8835 108.501C94.4415 109.247 94.1809 110.088 94.1228 110.955Z" fill="#0F0878"/>
<path d="M58.4325 122.641V132.921L89.0606 115.149V104.946L58.4325 122.641Z" fill="#1B1389"/>
<g style="mix-blend-mode:multiply">
<path d="M80.3351 110.06V119.982L80.8184 119.726V109.779L80.3351 110.06Z" fill="#A8CFF0"/>
</g>
<path d="M80.8185 109.779V119.7L81.1237 119.547V109.625L80.8185 109.779Z" fill="#A8CFF0"/>
<g style="mix-blend-mode:multiply">
<path d="M58.5088 125.301V132.179L78.8597 120.186C78.8625 119.494 78.6835 118.813 78.3409 118.212C77.9982 117.611 77.5039 117.111 76.9079 116.764C76.3119 116.416 75.6352 116.233 74.9462 116.232C74.2571 116.231 73.5801 116.413 72.9834 116.76L58.5088 125.301Z" fill="#A8CFF0"/>
</g>
<g style="mix-blend-mode:multiply">
<path d="M72.9834 116.862L58.5088 125.301V126.221L73.0597 117.808C73.5922 117.501 74.1892 117.323 74.8025 117.291C75.4157 117.258 76.0281 117.37 76.5901 117.619C77.1521 117.868 77.648 118.246 78.0378 118.723C78.4277 119.2 78.7005 119.763 78.8342 120.365C78.8481 119.67 78.6784 118.983 78.3426 118.375C78.0067 117.767 77.5167 117.259 76.9223 116.903C76.3278 116.547 75.6502 116.356 74.9583 116.349C74.2665 116.342 73.585 116.519 72.9834 116.862Z" fill="#A8CFF0"/>
</g>
<path d="M58.4325 122.641V132.921L34.2404 119.087V108.73L58.4325 122.641Z" fill="#A8CFF0"/>
<path d="M34.2404 108.73L58.4325 122.641L89.0605 104.946L64.843 91.0603L34.2404 108.73Z" fill="#D1EBFF"/>
<path d="M172.906 17.3631V54.5697L62.6299 119.036V81.7011L172.906 17.3631Z" fill="#1D1868"/>
<path opacity="0.3" d="M171.151 20.3806L64.3596 82.6984V115.993L171.151 53.5724V20.3806Z" fill="#0F0878"/>
<path d="M170.057 53.1121V21.0454L171.151 20.3806V53.5724L64.3596 115.993V114.893L170.057 53.1121Z" fill="#1D1868"/>
<path d="M62.6552 81.7011V119.036L32.3833 101.724V64.3124L62.6552 81.7011Z" fill="#0F0878"/>
<path d="M32.3833 64.3124L62.6552 81.7011L172.906 17.3631L142.634 0L32.3833 64.3124Z" fill="#342C9F"/>
<g opacity="0.3">
<path d="M67.2851 81.8033L66.8018 82.1102V113.461L67.2851 113.154V81.8033Z" fill="#1D1868"/>
<path d="M71.5842 79.2974L71.1008 79.6042V110.955L71.5842 110.648V79.2974Z" fill="#1D1868"/>
<path d="M75.9087 76.7657L75.4254 77.0726V108.423L75.9087 108.116V76.7657Z" fill="#1D1868"/>
<path d="M80.2334 74.2598L79.7246 74.5666V105.917L80.2334 105.61V74.2598Z" fill="#1D1868"/>
<path d="M84.5324 71.7537L84.0491 72.0606V103.411L84.5324 103.104V71.7537Z" fill="#1D1868"/>
<path d="M88.857 69.2222L88.3737 69.529V100.88L88.857 100.598V69.2222Z" fill="#1D1868"/>
<path d="M93.1816 66.7161L92.6729 67.023V98.3737L93.1816 98.0668V66.7161Z" fill="#1D1868"/>
<path d="M97.4806 64.2101L96.9973 64.517V95.8677L97.4806 95.5609V64.2101Z" fill="#1D1868"/>
<path d="M101.805 61.7041L101.322 61.9854V93.3361L101.805 93.0293V61.7041Z" fill="#1D1868"/>
<path d="M106.104 59.1725L105.621 59.4794V90.8301L106.104 90.5233V59.1725Z" fill="#1D1868"/>
<path d="M110.429 56.6665L109.946 56.9734V88.3241L110.429 88.0172V56.6665Z" fill="#1D1868"/>
<path d="M114.754 54.1605L114.245 54.4418V85.7925L114.754 85.5112V54.1605Z" fill="#1D1868"/>
<path d="M119.053 51.6289L118.569 51.9358V83.2865L119.053 82.9796V51.6289Z" fill="#1D1868"/>
<path d="M123.377 49.1229L122.894 49.4298V80.7805L123.377 80.4736V49.1229Z" fill="#1D1868"/>
<path d="M127.702 46.6169L127.193 46.8982V78.2489L127.702 77.9676V46.6169Z" fill="#1D1868"/>
<path d="M132.001 44.0853L131.518 44.3922V75.7429L132.001 75.4361V44.0853Z" fill="#1D1868"/>
<path d="M136.325 41.5793L135.842 41.8861V73.2369L136.325 72.93V41.5793Z" fill="#1D1868"/>
<path d="M140.625 39.0733L140.141 39.3546V70.7053L140.625 70.424V39.0733Z" fill="#1D1868"/>
<path d="M144.949 36.5417L144.466 36.8485V68.1993L144.949 67.8924V36.5417Z" fill="#1D1868"/>
<path d="M149.274 34.0357L148.765 34.3426V65.6933L149.274 65.3864V34.0357Z" fill="#1D1868"/>
<path d="M153.573 31.5297L153.089 31.8365V63.1617L153.573 62.8804V31.5297Z" fill="#1D1868"/>
<path d="M157.897 28.9981L157.414 29.305V60.6557L157.897 60.3488V28.9981Z" fill="#1D1868"/>
<path d="M162.196 26.4921L161.713 26.7989V58.1496L162.196 57.8428V26.4921Z" fill="#1D1868"/>
<path d="M166.521 23.9861L166.038 24.2929V55.6181L166.521 55.3368V23.9861Z" fill="#1D1868"/>
</g>
<g opacity="0.3">
<path d="M67.7939 81.1385L67.2852 81.4453V112.796L67.7939 112.489V81.1385Z" fill="#9993F0"/>
<path d="M72.0931 78.6325L71.6097 78.9394V110.29L72.0931 109.983V78.6325Z" fill="#9993F0"/>
<path d="M76.4177 76.1265L75.9343 76.4333V107.758L76.4177 107.477V76.1265Z" fill="#9993F0"/>
<path d="M80.7167 73.5949L80.2334 73.9018V105.252L80.7167 104.946V73.5949Z" fill="#9993F0"/>
<path d="M85.0413 71.0889L84.558 71.3957V102.746L85.0413 102.44V71.0889Z" fill="#9993F0"/>
<path d="M89.3659 68.5829L88.8826 68.8642V100.24L89.3659 99.9336V68.5829Z" fill="#9993F0"/>
<path d="M93.665 66.0513L93.1816 66.3581V97.7088L93.665 97.402V66.0513Z" fill="#9993F0"/>
<path d="M97.9896 63.5453L97.5062 63.8521V95.2029L97.9896 94.896V63.5453Z" fill="#9993F0"/>
<path d="M102.314 61.0392L101.805 61.3461V92.6713L102.314 92.39V61.0392Z" fill="#9993F0"/>
<path d="M106.613 58.5333L106.13 58.8146V90.1653L106.613 89.8584V58.5333Z" fill="#9993F0"/>
<path d="M110.938 56.0016L110.454 56.3085V87.6592L110.938 87.3524V56.0016Z" fill="#9993F0"/>
<path d="M115.237 53.4957L114.754 53.8025V85.1532L115.237 84.8464V53.4957Z" fill="#9993F0"/>
<path d="M119.561 50.9641L119.078 51.2709V82.6216L119.561 82.3148V50.9641Z" fill="#9993F0"/>
<path d="M123.886 48.4581L123.403 48.7649V80.1156L123.886 79.8088V48.4581Z" fill="#9993F0"/>
<path d="M128.185 45.952L127.702 46.2589V77.6096L128.185 77.3028V45.952Z" fill="#9993F0"/>
<path d="M132.51 43.4205L132.026 43.7273V75.0781L132.51 74.7968V43.4205Z" fill="#9993F0"/>
<path d="M136.809 40.9144L136.325 41.2213V72.572L136.809 72.2652V40.9144Z" fill="#9993F0"/>
<path d="M141.133 38.4084L140.65 38.7153V70.066L141.133 69.7592V38.4084Z" fill="#9993F0"/>
<path d="M145.458 35.9024L144.975 36.1837V67.5344L145.458 67.2531V35.9024Z" fill="#9993F0"/>
<path d="M149.757 33.3708L149.274 33.6777V65.0284L149.757 64.7216V33.3708Z" fill="#9993F0"/>
<path d="M154.082 30.8648L153.598 31.1717V62.5224L154.082 62.2155V30.8648Z" fill="#9993F0"/>
<path d="M158.406 28.3588L157.897 28.6401V59.9908L158.406 59.7095V28.3588Z" fill="#9993F0"/>
<path d="M162.705 25.8273L162.222 26.1341V57.4848L162.705 57.178V25.8273Z" fill="#9993F0"/>
<path d="M167.03 23.3212L166.547 23.6281V54.9788L167.03 54.6719V23.3212Z" fill="#9993F0"/>
</g>
<path d="M32.4343 75.6918L12.5667 87.3268C11.3495 88.0047 10.2835 88.9262 9.43469 90.0346C8.58586 91.143 7.97219 92.4146 7.63163 93.7709L4.85882 104.843C4.01613 108.186 3.59731 111.623 3.61233 115.072V128.062L31.9764 144.198V132.563C31.9767 128.363 32.6202 124.189 33.8843 120.186L37.4965 108.679C38.2682 106.183 39.9613 104.078 42.2281 102.798L60.8237 91.8786L32.4343 75.6918Z" fill="#A8CFF0"/>
<path d="M31.9509 132.512V144.121L47.2141 135.35L48.3334 128.625L60.8492 121.132V91.853L42.1518 102.798C39.8799 104.084 38.1862 106.199 37.4202 108.705L33.8334 120.186C32.5874 124.175 31.9526 128.331 31.9509 132.512Z" fill="#E8F5FF"/>
<path d="M32.3579 132.461C32.3665 128.299 32.9924 124.162 34.2149 120.186L37.8017 108.705C38.5677 106.199 40.2614 104.084 42.5333 102.798L60.6202 92.0576V91.5973L41.9482 102.516C39.693 103.823 38.0053 105.93 37.2166 108.423L33.6298 119.931C32.3907 123.911 31.7645 128.059 31.7728 132.23V143.84L32.3579 143.508V132.461Z" fill="#D1EBFF"/>
<path d="M39.1246 109.242L35.6141 120.749C35.5526 120.925 35.5474 121.116 35.5992 121.295C35.651 121.474 35.7572 121.633 35.9029 121.748C36.0487 121.864 36.2267 121.93 36.4121 121.939C36.5974 121.948 36.7809 121.898 36.9369 121.797L48.1553 115.225C48.5194 115.003 48.822 114.692 49.0354 114.321C49.2487 113.95 49.366 113.531 49.3764 113.103V103.667C49.3712 103.508 49.3252 103.353 49.2427 103.217C49.1602 103.081 49.0442 102.969 48.9058 102.892C48.7674 102.815 48.6115 102.775 48.4532 102.776C48.2949 102.778 48.1397 102.82 48.0027 102.9L41.0325 106.991C40.1519 107.471 39.494 108.279 39.2009 109.242H39.1246Z" fill="#1D1868"/>
<path d="M48.3333 102.772C48.4588 102.856 48.5616 102.97 48.6326 103.104C48.7036 103.238 48.7406 103.387 48.7404 103.539V112.975C48.7285 113.397 48.6132 113.809 48.4045 114.174C48.1959 114.54 47.9006 114.849 47.5448 115.072L36.3772 121.669C36.2267 121.705 36.0699 121.705 35.9193 121.669C36.0633 121.763 36.2312 121.813 36.4026 121.813C36.5741 121.813 36.742 121.763 36.886 121.669L48.1044 115.098C48.4685 114.875 48.7711 114.564 48.9845 114.193C49.1978 113.822 49.3151 113.403 49.3254 112.975V103.667C49.3224 103.542 49.2939 103.418 49.2417 103.304C49.1894 103.19 49.1145 103.088 49.0216 103.004C48.9287 102.92 48.8197 102.857 48.7013 102.817C48.583 102.777 48.4578 102.762 48.3333 102.772Z" fill="#001A46"/>
<path d="M27.143 123.485V127.858C27.139 128.889 26.8665 129.901 26.3526 130.794C25.8387 131.686 25.1014 132.428 24.2139 132.945C23.3264 133.462 22.3197 133.737 21.2939 133.741C20.2681 133.746 19.2589 133.481 18.3667 132.972L14.2965 130.645C12.1106 129.385 10.294 127.568 9.02998 125.377C7.76598 123.186 7.09936 120.699 7.09741 118.166V111.901L27.143 123.485Z" fill="#342C9F"/>
<path d="M21.2667 132.077C20.518 132.079 19.7817 131.885 19.1299 131.514L15.0851 129.162C13.1337 128.047 11.5103 126.434 10.38 124.484C9.24959 122.535 8.65245 120.32 8.64917 118.064V113.256L25.5658 123.025V127.858C25.5329 128.984 25.0662 130.053 24.2642 130.84C23.4622 131.628 22.3875 132.071 21.2667 132.077Z" fill="#1D1868"/>
<path d="M21.6483 131.975C20.9073 131.979 20.1785 131.785 19.5369 131.412L15.4667 129.06C13.52 127.942 11.9017 126.327 10.776 124.378C9.65021 122.429 9.05691 120.215 9.05619 117.962V113.487L8.64917 113.256V118.064C8.65245 120.32 9.24959 122.535 10.38 124.484C11.5103 126.434 13.1337 128.047 15.0851 129.162L19.1299 131.514C19.7817 131.885 20.518 132.079 21.2667 132.077C21.6719 132.078 22.075 132.018 22.4623 131.898C22.1939 131.949 21.9214 131.975 21.6483 131.975Z" fill="#001A46"/>
<path d="M10.7606 125.096L22.5132 131.872C22.7993 131.79 23.0731 131.67 23.3272 131.514L10.1755 123.843C10.3467 124.271 10.5421 124.69 10.7606 125.096ZM9.1325 121.516L24.5992 130.415C24.7571 130.229 24.9016 130.033 25.0316 129.827L8.90356 120.57L9.1325 121.516ZM8.64917 118.064C8.64917 118.243 8.64917 118.447 8.64917 118.626L25.4386 128.369C25.4512 128.165 25.4512 127.96 25.4386 127.755V127.551L8.64917 117.783V118.064ZM8.64917 115.072V115.916L25.5658 125.684V124.866L8.64917 115.072Z" fill="#342C9F"/>
<path d="M10.1755 124.227L23.022 131.642H23.251L10.1755 123.843C10.1668 123.971 10.1668 124.099 10.1755 124.227Z" fill="#1B1389"/>
<path d="M8.97988 120.877L24.9044 130.057L25.0316 129.878L8.90356 120.57L8.97988 120.877Z" fill="#1B1389"/>
<path d="M8.64917 118.038L25.5658 127.858V127.602L8.64917 117.783V118.038Z" fill="#1B1389"/>
<path d="M8.64917 115.149V115.43L25.5658 125.198V124.943L8.64917 115.149Z" fill="#1B1389"/>
<path d="M30.9842 121.951C30.6886 121.953 30.3981 121.874 30.1447 121.721L7.24997 108.602C6.71011 108.296 6.28559 107.819 6.04193 107.246C5.79826 106.673 5.74899 106.035 5.90172 105.431L8.77629 94.0266C8.92625 93.4458 9.13067 92.8807 9.38681 92.3388C9.46012 92.1833 9.57041 92.0482 9.70795 91.9456C9.84548 91.8431 10.006 91.7761 10.1754 91.7507C10.3414 91.7009 10.5182 91.7009 10.6842 91.7507L35.7412 106.199C36.0712 106.391 36.325 106.692 36.4594 107.051C36.5939 107.41 36.6008 107.804 36.4789 108.168L32.5614 120.621C32.4577 120.968 32.246 121.271 31.9574 121.488C31.6689 121.704 31.3188 121.822 30.9587 121.823L30.9842 121.951Z" fill="#1D1868"/>
<path opacity="0.5" d="M5.79997 105.431L8.67453 94.0266C8.8245 93.4458 9.02892 92.8807 9.28506 92.3388C9.36718 92.1694 9.49321 92.0254 9.64989 91.9219C9.80658 91.8184 9.98812 91.7592 10.1754 91.7507C10.3414 91.7009 10.5182 91.7009 10.6842 91.7507L35.7412 106.199C36.4535 106.71 5.49471 106.684 5.79997 105.431Z" fill="#0F0878"/>
<path d="M31.5185 120.621C31.2265 120.62 30.9389 120.55 30.679 120.416L7.32636 107.094C6.94484 106.874 6.61968 106.567 6.37677 106.199C6.13386 105.83 5.97993 105.41 5.92723 104.971L5.80004 105.431C5.64731 106.035 5.69657 106.673 5.94024 107.246C6.18391 107.819 6.60843 108.296 7.14829 108.602L30.043 121.721C30.2964 121.874 30.5869 121.953 30.8825 121.951C31.2425 121.95 31.5926 121.832 31.8812 121.616C32.1698 121.399 32.3815 121.095 32.4851 120.749L32.7141 120.007C32.5675 120.187 32.3857 120.334 32.1799 120.439C31.9742 120.545 31.749 120.607 31.5185 120.621Z" fill="#001A46"/>
<path d="M19.7403 108.27L13.228 106.838C13.1881 106.82 13.1447 106.81 13.1008 106.81C13.0569 106.81 13.0136 106.82 12.9736 106.838L9.13242 105.994C9.06556 105.986 8.99786 106.001 8.94178 106.039C8.8857 106.077 8.845 106.133 8.82716 106.199C8.81976 106.232 8.81921 106.267 8.82552 106.301C8.83183 106.335 8.84489 106.367 8.86389 106.396C8.8829 106.424 8.90747 106.449 8.93612 106.468C8.96478 106.487 8.99694 106.499 9.03066 106.506L12.8465 107.349L14.1184 111.671C14.1247 111.727 14.1515 111.78 14.1938 111.817C14.2361 111.855 14.2908 111.876 14.3473 111.876C14.384 111.871 14.419 111.858 14.4496 111.837C14.4801 111.817 14.5052 111.789 14.5226 111.756C14.5401 111.723 14.5495 111.687 14.55 111.65C14.5505 111.613 14.542 111.576 14.5254 111.543L13.4315 107.401L19.6131 108.756C19.6726 108.757 19.7307 108.737 19.7772 108.7C19.8236 108.662 19.8556 108.61 19.8675 108.551C19.8848 108.497 19.8814 108.438 19.8578 108.386C19.8343 108.334 19.7925 108.293 19.7403 108.27Z" fill="#001A46"/>
<path d="M30.0175 114.049L23.5053 112.515C23.4653 112.496 23.422 112.487 23.3781 112.487C23.3342 112.487 23.2908 112.496 23.2509 112.515L19.4351 111.671C19.3649 111.661 19.2935 111.676 19.2332 111.714C19.1729 111.751 19.1273 111.808 19.1044 111.876C19.097 111.909 19.0964 111.944 19.1027 111.978C19.1091 112.012 19.1221 112.044 19.1411 112.073C19.1601 112.101 19.1847 112.126 19.2133 112.145C19.242 112.163 19.2742 112.176 19.3079 112.182L23.1491 113.026L24.3956 117.348C24.4075 117.407 24.4395 117.459 24.4859 117.496C24.5324 117.534 24.5905 117.554 24.65 117.552C24.6866 117.548 24.7217 117.535 24.7522 117.514C24.7828 117.494 24.8078 117.466 24.8253 117.433C24.8428 117.4 24.8522 117.364 24.8527 117.327C24.8531 117.29 24.8447 117.253 24.8281 117.22L23.6579 113.18L29.8395 114.535C29.8978 114.532 29.9537 114.51 29.9993 114.474C30.0449 114.437 30.078 114.387 30.0939 114.33C30.1079 114.281 30.1082 114.229 30.0948 114.179C30.0813 114.129 30.0546 114.085 30.0175 114.049Z" fill="#001A46"/>
<g style="mix-blend-mode:multiply">
<path d="M51.4623 114.586L49.8343 115.558C49.6472 115.66 49.4915 115.812 49.3839 115.997C49.2763 116.181 49.221 116.392 49.2237 116.606C49.2283 116.703 49.2574 116.796 49.3084 116.878C49.3594 116.96 49.4304 117.027 49.5148 117.074C49.5991 117.12 49.6938 117.143 49.7899 117.142C49.886 117.141 49.9801 117.115 50.0632 117.067L51.5386 116.197C51.7151 116.098 51.8623 115.953 51.965 115.778C52.0678 115.603 52.1226 115.403 52.1237 115.2V115.072C52.1379 114.988 52.1285 114.901 52.0965 114.822C52.0644 114.743 52.0111 114.674 51.9424 114.624C51.8738 114.573 51.7925 114.543 51.7077 114.536C51.6229 114.53 51.5379 114.547 51.4623 114.586Z" fill="#A8CFF0"/>
</g>
<g style="mix-blend-mode:multiply">
<g style="mix-blend-mode:multiply">
<path d="M51.5386 116.274L50.0632 117.143C49.9839 117.192 49.8931 117.22 49.8 117.223C49.7068 117.226 49.6146 117.204 49.5323 117.16C49.45 117.116 49.3805 117.052 49.3309 116.972C49.2812 116.893 49.253 116.802 49.2491 116.709V117.041C49.2494 117.14 49.2754 117.236 49.3246 117.322C49.3738 117.407 49.4445 117.478 49.5295 117.527C49.6146 117.576 49.711 117.602 49.8091 117.602C49.9073 117.602 50.0036 117.576 50.0886 117.527L51.5641 116.657C51.7406 116.558 51.8877 116.413 51.9905 116.238C52.0932 116.063 52.148 115.863 52.1491 115.66V115.277C52.1455 115.482 52.0869 115.684 51.9795 115.859C51.8721 116.035 51.7199 116.178 51.5386 116.274Z" fill="#A8CFF0"/>
</g>
</g>
<g style="mix-blend-mode:multiply">
<path d="M48.486 120.314L60.8237 121.132L48.3334 128.548L48.486 120.314Z" fill="#A8CFF0"/>
</g>
<path d="M57.0588 126.656V132.282L52.7852 129.878L53.065 124.252L57.0588 126.656Z" fill="#342C9F"/>
<path d="M38.0053 138.342C37.8792 139.266 38.0069 140.207 38.3746 141.064C38.7423 141.92 39.3359 142.659 40.0913 143.201L43.9834 145.477C45.3317 146.218 44.4667 144.505 46.5273 143.329C48.6713 141.932 50.457 140.045 51.7389 137.824C53.0208 135.602 53.7628 133.107 53.9045 130.543C53.9045 128.216 56.0413 128.19 54.7439 127.423L50.572 125.096C49.7449 124.754 48.8457 124.627 47.9567 124.725C47.0678 124.823 46.2177 125.144 45.4843 125.659C43.3388 127.039 41.5448 128.905 40.246 131.107C38.9473 133.31 38.1799 135.788 38.0053 138.342Z" fill="#1D1868"/>
<path d="M42.1008 140.644C42.1008 145.349 45.4078 147.241 49.5035 144.863C51.6447 143.463 53.4282 141.576 54.7098 139.355C55.9913 137.134 56.735 134.641 56.8807 132.077C56.8807 127.372 53.5736 125.48 49.5035 127.858C47.3547 129.252 45.5641 131.137 44.2776 133.359C42.9912 135.581 42.2453 138.077 42.1008 140.644Z" fill="#1D1868"/>
<path d="M44.2378 139.442C44.2378 142.817 46.5781 144.147 49.5036 142.459C51.0282 141.463 52.2975 140.12 53.2081 138.538C54.1187 136.956 54.645 135.181 54.7439 133.356C54.7439 129.98 52.4036 128.65 49.5036 130.338C47.9728 131.329 46.6974 132.671 45.7821 134.254C44.8668 135.836 44.3376 137.614 44.2378 139.442Z" fill="#A8CFF0"/>
<path d="M52.5053 129.673C53.0174 130.046 53.4248 130.546 53.6879 131.124C53.9509 131.702 54.0605 132.339 54.0062 132.972C53.9071 134.8 53.3811 136.58 52.4706 138.166C51.5602 139.752 50.291 141.1 48.7658 142.101C47.8694 142.682 46.7944 142.918 45.7386 142.766C46.3422 143.05 47.0109 143.164 47.6738 143.097C48.3367 143.029 48.969 142.782 49.5036 142.382C51.0282 141.387 52.2975 140.043 53.2081 138.461C54.1187 136.88 54.6449 135.104 54.7439 133.279C54.7439 131.284 53.8536 129.98 52.5053 129.673Z" fill="#1B1389"/>
<path d="M49.1474 127.704C49.8754 127.179 50.7234 126.848 51.6129 126.741C52.5023 126.633 53.4043 126.754 54.2351 127.091C53.4813 126.927 52.7023 126.92 51.9456 127.07C51.1889 127.219 50.4705 127.522 49.8343 127.96C47.6827 129.351 45.8899 131.235 44.603 133.458C43.3162 135.68 42.5721 138.178 42.4316 140.746C42.3322 141.694 42.4986 142.652 42.9122 143.511C43.3257 144.369 43.9699 145.095 44.772 145.604C43.7707 145.22 42.9299 144.504 42.3887 143.574C41.8474 142.644 41.6383 141.556 41.7957 140.49C41.9345 137.928 42.6726 135.435 43.95 133.213C45.2274 130.992 47.0081 129.104 49.1474 127.704Z" fill="#0F0878"/>
<path d="M48.7403 131.463C48.5391 131.588 48.3713 131.761 48.2516 131.966C48.1319 132.171 48.0639 132.402 48.0535 132.64C48.0535 133.1 48.3588 133.279 48.7403 133.049C48.9392 132.915 49.1047 132.737 49.2239 132.529C49.343 132.32 49.4126 132.087 49.4272 131.847C49.4272 131.412 49.1219 131.233 48.7403 131.463ZM48.7403 139.544C48.5414 139.677 48.376 139.855 48.2568 140.064C48.1377 140.272 48.0681 140.506 48.0535 140.746C48.0535 141.18 48.3588 141.359 48.7403 141.129C48.9416 141.004 49.1094 140.832 49.2291 140.627C49.3488 140.422 49.4168 140.191 49.4272 139.953C49.4272 139.518 49.1219 139.339 48.7403 139.544ZM50.7245 132.972C51.0044 133.125 51.4368 132.972 51.7167 132.409C51.9965 131.847 51.971 131.438 51.7167 131.284C51.4623 131.131 51.0044 131.284 50.7245 131.847C50.4447 132.409 50.4702 132.691 50.7245 132.972ZM46.7561 139.876C46.4763 139.723 46.0438 139.876 45.764 140.464C45.4842 141.053 45.5096 141.411 45.764 141.564C46.0184 141.717 46.4763 141.564 46.7561 141.001C47.0359 140.439 47.0105 139.902 46.7561 139.748V139.876ZM52.2509 133.611C52.0496 133.736 51.8818 133.909 51.7621 134.114C51.6424 134.319 51.5744 134.55 51.564 134.788C51.564 135.222 51.8693 135.401 52.2509 135.197C52.4498 135.063 52.6152 134.885 52.7344 134.677C52.8535 134.468 52.9231 134.235 52.9377 133.995C52.9377 133.432 52.6324 133.253 52.2509 133.483V133.611ZM45.2298 137.677C45.0286 137.802 44.8608 137.975 44.7411 138.18C44.6214 138.385 44.5533 138.616 44.543 138.853C44.543 139.314 44.8482 139.467 45.2298 139.263C45.4287 139.129 45.5942 138.951 45.7133 138.743C45.8325 138.534 45.9021 138.301 45.9167 138.061C45.9167 137.498 45.6114 137.319 45.2298 137.549V137.677ZM51.7167 137.012C51.4368 136.859 51.0044 137.012 50.7245 137.575C50.4447 138.137 50.4702 138.547 50.7245 138.7C50.9789 138.853 51.4368 138.7 51.7167 138.137C51.9965 137.575 51.971 137.038 51.7167 136.884V137.012ZM46.7561 134.174C46.4763 134.02 46.0438 134.174 45.764 134.736C45.4842 135.299 45.5096 135.683 45.764 135.862C46.0184 136.041 46.4763 135.862 46.7561 135.273C47.0359 134.685 47.0105 134.199 46.7561 134.046V134.174Z" fill="#1D1868"/>
<path d="M46.6035 137.217C46.5787 137.467 46.6197 137.719 46.7224 137.948C46.8251 138.177 46.9858 138.374 47.1886 138.521L48.0535 139.033C48.4096 139.237 48.1807 138.777 48.7403 138.444C49.332 138.059 49.8247 137.538 50.1784 136.925C50.532 136.312 50.7366 135.623 50.7754 134.915C50.7754 134.276 51.3605 134.276 51.0043 134.072L50.0631 133.535C49.8323 133.436 49.5803 133.399 49.3311 133.426C49.0818 133.453 48.8435 133.543 48.6386 133.688C48.051 134.078 47.5615 134.6 47.2084 135.212C46.8552 135.824 46.6482 136.511 46.6035 137.217Z" fill="#342C9F"/>
<path d="M47.5193 137.754C47.5193 139.058 48.4351 139.57 49.5544 138.93C50.1447 138.543 50.6363 138.022 50.9898 137.409C51.3433 136.796 51.5487 136.109 51.5895 135.401C51.5895 134.097 50.6737 133.586 49.5544 134.225C48.9668 134.615 48.4773 135.137 48.1242 135.749C47.7711 136.361 47.564 137.048 47.5193 137.754Z" fill="#0F0878"/>
<path d="M40.2439 144.582V136.399L45.5351 127.218L52.9886 122.897L48.486 120.314L41.0071 124.661L35.7158 133.841V142.024L40.2439 144.582Z" fill="#D1EBFF"/>
<path d="M40.2439 144.582V136.399L45.5351 127.218L52.9886 122.897L48.486 120.314L41.0071 124.661L35.7158 133.841V142.024L40.2439 144.582Z" fill="#D1EBFF"/>
<path opacity="0.7" d="M40.2439 144.582V136.399L35.7158 133.841V142.024L40.2439 144.582Z" fill="#1B1389"/>
<path d="M40.2439 136.399L45.5351 127.218L41.0071 124.661L35.7158 133.842L40.2439 136.399Z" fill="#A8CFF0"/>
<path d="M41.4904 143.891V136.731L46.4509 128.139L53.0141 124.329L57.0588 126.656V132.282L58.3053 131.566V125.914L53.0141 122.871L45.5351 127.218L40.2439 136.399V144.633L41.4904 143.891Z" fill="#1B1389"/>
<path d="M1.47546 125.301L29.8395 142.229C30.5218 142.619 31.2932 142.824 32.0781 142.824C32.863 142.824 33.6344 142.619 34.3167 142.229L39.6079 139.237V144.096L34.2658 147.139C33.5852 147.534 32.8131 147.742 32.0272 147.742C31.2413 147.742 30.4692 147.534 29.7886 147.139L2.54388 131.284C2.24598 131.109 1.99817 130.859 1.82439 130.558C1.65061 130.258 1.55672 129.918 1.55178 129.571L1.47546 125.301Z" fill="#0F0878"/>
<path d="M34.2658 137.012C34.2654 137.186 34.2147 137.356 34.1199 137.501C34.025 137.647 33.8901 137.761 33.7316 137.831C33.0964 138.088 32.4111 138.197 31.7278 138.148C31.0445 138.099 30.3813 137.895 29.7886 137.549L25.7439 135.222C25.5531 135.105 25.3981 134.937 25.2957 134.737C25.1933 134.538 25.1474 134.313 25.1632 134.089C25.1789 133.865 25.2557 133.649 25.385 133.466C25.5143 133.282 25.6913 133.138 25.8965 133.049L27.8807 132.077C28.0282 132.008 28.1888 131.973 28.3514 131.973C28.5139 131.973 28.6745 132.008 28.822 132.077C30.0176 132.614 31.7728 133.79 33.4009 133.279C33.8843 133.125 34.3421 133.637 34.3167 134.148L34.2658 137.012Z" fill="#0F0878"/>
<path d="M1.95874 126.144L29.9412 142.152C30.6235 142.542 31.3949 142.747 32.1798 142.747C32.9647 142.747 33.7361 142.542 34.4184 142.152L39.7096 139.16L38.1579 138.342L34.3166 140.644C33.6313 141.038 32.8552 141.246 32.0653 141.246C31.2754 141.246 30.4993 141.038 29.814 140.644L3.63768 125.301V123.357L1.9333 124.406C1.781 124.495 1.65502 124.623 1.56829 124.777C1.48156 124.931 1.43721 125.105 1.4398 125.283C1.44239 125.46 1.49183 125.633 1.58303 125.784C1.67423 125.936 1.80391 126.06 1.95874 126.144Z" fill="#342C9F"/>
<path d="M3.58691 124.994L3.63779 125.019V123.383L3.61235 123.408L3.58691 124.994Z" fill="#1B1389"/>
<path d="M39.3027 138.981L34.215 141.82C33.5327 142.21 32.7613 142.415 31.9764 142.415C31.1915 142.415 30.42 142.21 29.7378 141.82L1.93338 125.812C1.82469 125.765 1.72743 125.695 1.64835 125.607C1.56928 125.519 1.51029 125.414 1.47548 125.301C1.45768 125.485 1.49398 125.67 1.57989 125.834C1.6658 125.997 1.79754 126.132 1.95881 126.221L29.9413 142.229C30.6235 142.619 31.395 142.824 32.1799 142.824C32.9648 142.824 33.7362 142.619 34.4185 142.229L39.7097 139.237L39.3027 138.981Z" fill="#1B1389"/>
<path d="M39.8114 121.823C39.738 121.853 39.6559 121.853 39.5825 121.823C39.5359 121.775 39.5098 121.711 39.5098 121.644C39.5098 121.577 39.5359 121.513 39.5825 121.465L41.3377 120.391C41.8027 120.109 42.1874 119.712 42.4548 119.237C42.7222 118.762 42.8632 118.226 42.8641 117.68V110.623C42.8559 110.114 42.7242 109.615 42.4803 109.169C42.2364 108.724 41.8879 108.345 41.4649 108.065L39.7351 106.889C39.6778 106.852 39.6375 106.793 39.6232 106.726C39.6089 106.659 39.6217 106.589 39.6588 106.531C39.6959 106.473 39.7543 106.433 39.8211 106.419C39.8879 106.404 39.9576 106.417 40.0149 106.454L41.7702 107.631C42.2721 107.968 42.6833 108.424 42.9673 108.96C43.2514 109.495 43.3994 110.093 43.3983 110.699V117.629C43.3959 118.263 43.2308 118.886 42.9188 119.437C42.6069 119.988 42.1586 120.449 41.6176 120.774L39.8369 121.848L39.8114 121.823Z" fill="#A8CFF0"/>
<path d="M44.3395 117.962L43.093 117.22C42.7904 116.992 42.5421 116.7 42.3661 116.364C42.1901 116.027 42.0908 115.656 42.0754 115.277V111.466C42.0754 110.725 42.5333 110.367 43.093 110.699L44.3395 111.415C44.642 111.643 44.8904 111.935 45.0664 112.272C45.2424 112.608 45.3417 112.979 45.357 113.359V117.194C45.357 117.936 44.8991 118.268 44.3395 117.962Z" fill="#A8CFF0"/>
<path d="M44.3395 111.415L43.093 110.699C42.9853 110.6 42.8446 110.546 42.6987 110.546C42.5529 110.546 42.4122 110.6 42.3044 110.699C42.4467 110.666 42.5946 110.666 42.7369 110.699L43.9834 111.441C44.286 111.668 44.5343 111.961 44.7103 112.297C44.8863 112.633 44.9856 113.005 45.0009 113.384V117.194C45.012 117.323 44.9975 117.453 44.9582 117.576C44.9189 117.699 44.8556 117.812 44.772 117.91C45.1281 117.91 45.3571 117.552 45.3571 117.041V113.205C45.3203 112.852 45.2109 112.511 45.0357 112.203C44.8605 111.894 44.6234 111.626 44.3395 111.415Z" fill="#1B1389"/>
<path d="M60.8746 83.2098L33.0702 67.1253L22.4368 73.467C20.2106 74.7709 18.3614 76.6363 17.072 78.8786C15.7827 81.121 15.0978 83.6628 15.0851 86.2528H15.2632L42.9658 102.286L60.8746 83.2098Z" fill="#D1EBFF"/>
<path opacity="0.5" d="M49.4526 95.3563L54.0824 90.421L23.5561 72.7766L22.4114 73.467C20.7573 74.4397 19.3061 75.7248 18.1377 77.2516L49.4526 95.3563Z" fill="white"/>
<path d="M42.7623 102.133L60.6965 91.5461V83.082L50.1141 89.2958C47.877 90.6002 46.0202 92.4727 44.7299 94.7257C43.4396 96.9787 42.7611 99.5331 42.7623 102.133Z" fill="white"/>
<path d="M42.9403 102.286L60.8745 91.6996V83.1587L50.2921 89.5004C48.0624 90.8004 46.2104 92.6649 44.9206 94.9081C43.6307 97.1514 42.9479 99.6952 42.9403 102.286Z" fill="#A8CFF0"/>
<path d="M3.61228 119.47V122.743C3.60675 122.873 3.64025 123 3.70836 123.11C3.77648 123.219 3.87602 123.306 3.99386 123.357L6.28334 124.559C6.38256 124.605 6.49286 124.62 6.60068 124.603C6.7085 124.587 6.80914 124.539 6.89022 124.465C6.9713 124.392 7.02928 124.297 7.05705 124.19C7.08481 124.084 7.08114 123.973 7.0465 123.869L6.13071 121.056C5.99039 120.694 5.71709 120.401 5.36755 120.237L3.61228 119.47Z" fill="#0F0878"/>
<path d="M25.8202 134.685L30.9079 137.549C31.015 137.606 31.1346 137.634 31.2554 137.631C31.3763 137.628 31.4944 137.595 31.5988 137.533C31.7031 137.472 31.7902 137.385 31.8518 137.28C31.9134 137.176 31.9475 137.057 31.9509 136.936V134.736C31.9522 134.388 31.8579 134.047 31.6784 133.749C31.4988 133.451 31.241 133.209 30.9334 133.049L29.3816 132.23C29.0798 132.043 28.7318 131.943 28.3768 131.943C28.0218 131.943 27.6738 132.043 27.372 132.23L25.8202 133.381C25.6855 133.428 25.5688 133.516 25.4861 133.633C25.4035 133.75 25.3591 133.89 25.3591 134.033C25.3591 134.177 25.4035 134.316 25.4861 134.433C25.5688 134.55 25.6855 134.638 25.8202 134.685Z" fill="white"/>
<path d="M3.61228 120.595V122.539C3.60675 122.668 3.64025 122.796 3.70836 122.905C3.77648 123.015 3.87602 123.101 3.99386 123.153L6.28334 124.354C6.37955 124.41 6.49072 124.435 6.60136 124.424C6.71199 124.414 6.81659 124.369 6.90057 124.295C6.98455 124.222 7.04375 124.124 7.0699 124.016C7.09606 123.907 7.08788 123.793 7.0465 123.69L6.13071 121.132C5.99039 120.771 5.71709 120.478 5.36755 120.314L4.60439 119.931C4.49556 119.884 4.37686 119.865 4.25902 119.876C4.14118 119.887 4.0279 119.927 3.92943 119.993C3.83097 120.059 3.75041 120.149 3.69503 120.254C3.63966 120.359 3.61122 120.476 3.61228 120.595Z" fill="#D1EBFF"/>
<path d="M3.61233 120.595C4.61355 121.896 5.69244 123.134 6.84303 124.303C6.93566 124.234 7.0049 124.139 7.04132 124.029C7.07774 123.919 7.07957 123.8 7.04654 123.69L6.13075 121.132C5.99044 120.771 5.71714 120.478 5.3676 120.314L4.60444 119.931C4.49561 119.884 4.37691 119.865 4.25907 119.876C4.14123 119.887 4.02795 119.927 3.92948 119.993C3.83101 120.059 3.75045 120.149 3.69508 120.254C3.63971 120.359 3.61127 120.476 3.61233 120.595Z" fill="white"/>
<g style="mix-blend-mode:multiply">
<path d="M9.46313 135.273V134.353C9.4663 134.136 9.52554 133.923 9.63506 133.736C9.74459 133.549 9.90062 133.393 10.0879 133.285C10.2751 133.177 10.4872 133.119 10.7032 133.118C10.9192 133.117 11.1318 133.172 11.3202 133.279L19.4351 138.086C20.0584 138.445 20.577 138.962 20.9386 139.586C21.3003 140.21 21.4924 140.919 21.4956 141.641V142.357L9.46313 135.273Z" fill="#342C9F"/>
</g>
<path d="M31.8237 134.276C31.759 134.014 31.6393 133.769 31.4725 133.557C31.3058 133.346 31.0959 133.172 30.857 133.049L29.3053 132.23C29.0035 132.043 28.6555 131.943 28.3004 131.943C27.9454 131.943 27.5974 132.043 27.2956 132.23L25.7439 133.381C25.6266 133.466 25.5389 133.586 25.4933 133.723C25.4476 133.861 25.4463 134.01 25.4895 134.148L31.8237 134.276Z" fill="#D1EBFF"/>
<path d="M27.0159 132.768L27.8808 134.609C27.8808 134.609 29.2799 133.381 29.0001 132.819C28.7203 132.256 27.0159 132.768 27.0159 132.768Z" fill="#FFCC00"/>
<path d="M28.1606 134.072C28.1606 134.532 27.8299 134.711 27.4229 134.481C27.2167 134.341 27.0454 134.155 26.9219 133.937C26.7984 133.72 26.7261 133.477 26.7106 133.228C26.7106 132.768 27.0413 132.589 27.4229 132.819C27.6365 132.953 27.8149 133.137 27.9433 133.355C28.0716 133.573 28.1461 133.819 28.1606 134.072Z" fill="#FFDE17"/>
<path d="M4.07019 121.337L5.08773 123.255C5.08773 123.255 6.56317 121.976 6.28335 121.388C6.00352 120.8 4.07019 121.337 4.07019 121.337Z" fill="#FFCC00"/>
<path d="M5.26582 122.743C5.26582 123.229 4.90968 123.434 4.50266 123.178C4.27895 123.04 4.09236 122.849 3.9593 122.622C3.82623 122.394 3.75075 122.138 3.7395 121.874C3.7395 121.388 4.0702 121.184 4.50266 121.439C4.72345 121.58 4.90775 121.772 5.04042 121.999C5.17309 122.226 5.25034 122.481 5.26582 122.743Z" fill="#FFDE17"/>
<path d="M28.3386 134.378L29.2035 136.22C29.2035 136.22 31.7474 134.583 31.5693 134.02C31.3913 133.458 28.3386 134.378 28.3386 134.378Z" fill="#FFCC00"/>
<path d="M29.4834 135.683C29.4834 136.168 29.1527 136.347 28.7457 136.117C28.5315 135.977 28.3532 135.789 28.225 135.567C28.0969 135.344 28.0225 135.095 28.0079 134.839C28.0079 134.378 28.3386 134.199 28.7457 134.43C28.9593 134.564 29.1377 134.748 29.2661 134.966C29.3944 135.184 29.4689 135.43 29.4834 135.683Z" fill="#FFDE17"/>
<path style="mix-blend-mode:screen" d="M31.8746 136.936V134.736C31.8759 134.388 31.7816 134.047 31.602 133.749C31.4225 133.451 31.1647 133.209 30.8571 133.049L29.3053 132.23C29.0035 132.043 28.6555 131.943 28.3005 131.943C27.9454 131.943 27.5975 132.043 27.2957 132.23L31.8746 136.936Z" fill="url(#paint0_radial_409_4416)"/>
<path d="M19.2315 138.828V141.027L11.3456 136.552V134.302L19.2315 138.828Z" fill="#D1EBFF"/>
<g style="mix-blend-mode:color-dodge">
<path d="M11.3456 134.302V134.634L18.9517 139.007V140.874L19.2315 141.027V138.828L11.3456 134.302Z" fill="white"/>
</g>
<path d="M27.0921 121.721V123.894L7.09741 112.54V110.29L27.0921 121.721Z" fill="#342C9F"/>
<path d="M27.0921 121.721V122.155L7.09741 110.776V110.29L27.0921 121.721Z" fill="#1B1389"/>
<path style="mix-blend-mode:screen" d="M3.6123 120.595V122.539C3.6123 122.795 6.15616 121.158 6.15616 121.158C6.01585 120.797 5.74255 120.504 5.39301 120.34L4.62985 119.956C4.52186 119.905 4.40271 119.881 4.28339 119.888C4.16406 119.895 4.04839 119.932 3.94704 119.996C3.84568 120.06 3.76189 120.148 3.7034 120.253C3.6449 120.357 3.61357 120.475 3.6123 120.595Z" fill="url(#paint1_radial_409_4416)"/>
<path d="M29.2544 144.377C29.2544 145.016 28.8219 145.272 28.2622 144.94C27.975 144.752 27.7356 144.499 27.5633 144.202C27.3909 143.904 27.2905 143.57 27.2701 143.226C27.2701 142.587 27.728 142.331 28.2622 142.638C28.5529 142.828 28.7944 143.085 28.9669 143.387C29.1393 143.69 29.2379 144.029 29.2544 144.377Z" fill="#A8CFF0"/>
<path d="M28.7965 144.658C28.5059 144.468 28.2644 144.211 28.0919 143.909C27.9194 143.607 27.8208 143.268 27.8044 142.919C27.7776 142.784 27.7776 142.645 27.8044 142.51C27.4482 142.51 27.1938 142.74 27.1938 143.226C27.2142 143.57 27.3146 143.904 27.487 144.202C27.6593 144.499 27.8987 144.752 28.186 144.94C28.593 145.17 28.9491 145.093 29.1017 144.786C28.9919 144.766 28.8877 144.723 28.7965 144.658Z" fill="#1D1868"/>
<path d="M26.5833 142.792C26.5833 143.431 26.1254 143.687 25.5912 143.38C25.3006 143.19 25.0591 142.933 24.8866 142.63C24.7141 142.328 24.6156 141.989 24.5991 141.641C24.5991 141.002 25.0316 140.746 25.5912 141.078C25.8771 141.267 26.1155 141.52 26.2876 141.818C26.4598 142.115 26.561 142.448 26.5833 142.792Z" fill="#A8CFF0"/>
<path d="M26.1001 143.201C25.8128 143.013 25.5734 142.76 25.4011 142.463C25.2288 142.165 25.1284 141.831 25.108 141.487C25.0634 141.355 25.0634 141.211 25.108 141.078C24.7518 141.078 24.4974 141.308 24.4974 141.769C24.5139 142.117 24.6124 142.456 24.7849 142.758C24.9574 143.061 25.1989 143.317 25.4895 143.508C25.8966 143.738 26.2273 143.661 26.4053 143.354L26.1001 143.201Z" fill="#1D1868"/>
<path d="M7.3772 131.745C7.3772 132.384 6.91931 132.64 6.3851 132.333C6.09258 132.143 5.84827 131.886 5.67162 131.584C5.49497 131.283 5.39085 130.943 5.36755 130.594C5.36755 129.98 5.82545 129.724 6.3851 130.031C6.67097 130.22 6.90934 130.473 7.08149 130.771C7.25363 131.068 7.35485 131.401 7.3772 131.745Z" fill="#A8CFF0"/>
<path d="M6.89389 132.026C6.61568 131.853 6.38125 131.617 6.20908 131.338C6.03691 131.058 5.93171 130.742 5.90179 130.415C5.87036 130.28 5.87036 130.14 5.90179 130.006C5.54565 130.006 5.29126 130.236 5.29126 130.696C5.31456 131.046 5.41867 131.385 5.59532 131.687C5.77197 131.989 6.01628 132.245 6.3088 132.435C6.69038 132.665 7.04652 132.588 7.19915 132.282L6.89389 132.026Z" fill="#1D1868"/>
<path d="M4.68074 130.185C4.68074 130.824 4.24829 131.08 3.68864 130.747C3.39705 130.564 3.15426 130.313 2.98137 130.014C2.80848 129.716 2.7107 129.379 2.69653 129.034C2.69653 128.395 3.12899 128.139 3.68864 128.446C3.97925 128.636 4.22075 128.893 4.39325 129.195C4.56574 129.497 4.66428 129.837 4.68074 130.185Z" fill="#A8CFF0"/>
<path d="M4.19736 130.415C3.91091 130.22 3.67257 129.963 3.5006 129.661C3.32863 129.36 3.2276 129.023 3.20525 128.676C3.17917 128.541 3.17917 128.402 3.20525 128.267C2.84911 128.267 2.59473 128.497 2.59473 128.983C2.60889 129.328 2.70667 129.665 2.87956 129.963C3.05246 130.262 3.29524 130.513 3.58683 130.696C3.99385 130.926 4.34999 130.85 4.50262 130.543C4.39416 130.519 4.29081 130.475 4.19736 130.415Z" fill="#1D1868"/>
<path d="M31.7474 134.225V137.473C32.3334 137.527 32.9214 137.393 33.4264 137.089V133.841C32.9149 134.129 32.3321 134.262 31.7474 134.225Z" fill="#EB4680"/>
<g style="mix-blend-mode:multiply">
<path d="M52.2254 112.847C51.9893 112.847 51.7628 112.753 51.5959 112.585C51.4289 112.417 51.3351 112.19 51.3351 111.952V102.286C51.3336 101.872 51.4411 101.464 51.6466 101.105C51.8521 100.746 52.1483 100.448 52.5053 100.24L57.2369 97.5043C57.3777 97.4268 57.5344 97.3831 57.6947 97.3765C57.9332 97.3831 58.1596 97.483 58.3259 97.655C58.4922 97.8269 58.5852 98.0572 58.5851 98.297V107.938C58.5892 108.352 58.4829 108.761 58.2771 109.121C58.0714 109.48 57.7737 109.778 57.4149 109.983L52.6833 112.745C52.543 112.821 52.3845 112.856 52.2254 112.847ZM57.6947 97.8879C57.6293 97.8622 57.5567 97.8622 57.4912 97.8879L52.7597 100.624C52.4741 100.784 52.2362 101.017 52.0707 101.301C51.9052 101.584 51.8181 101.907 51.8184 102.235V111.901C51.8244 111.97 51.8468 112.037 51.8839 112.096C51.921 112.155 51.9715 112.204 52.0314 112.239C52.0912 112.274 52.1586 112.294 52.2278 112.298C52.2969 112.301 52.3659 112.288 52.429 112.259L57.1605 109.497C57.4461 109.338 57.684 109.104 57.8495 108.821C58.015 108.538 58.1021 108.215 58.1018 107.886V98.297C58.1018 98.1885 58.0589 98.0845 57.9825 98.0077C57.9062 97.931 57.8027 97.8879 57.6947 97.8879Z" fill="#A8CFF0"/>
</g>
<path d="M52.2254 112.847C52.0837 112.885 51.9346 112.885 51.793 112.847L52.0219 112.413C52.1528 112.464 52.2981 112.464 52.4289 112.413L57.1605 109.651C57.4461 109.491 57.684 109.258 57.8495 108.974C58.015 108.691 58.1021 108.368 58.1017 108.04V98.297C58.1026 98.2148 58.0788 98.1342 58.0334 98.0658C57.988 97.9974 57.9232 97.9443 57.8474 97.9135L58.0254 97.4276C58.1947 97.4994 58.3386 97.6207 58.4384 97.7757C58.5382 97.9308 58.5893 98.1124 58.5851 98.297V107.938C58.5892 108.352 58.4828 108.761 58.2771 109.121C58.0713 109.48 57.7737 109.778 57.4149 109.983L52.6833 112.745C52.5417 112.817 52.3842 112.853 52.2254 112.847Z" fill="#A8CFF0"/>
<path d="M41.0071 124.661L45.5351 127.218L53.0141 122.871L45.5351 126.963L41.0071 124.661Z" fill="white"/>
<g opacity="0.3">
<path d="M169.803 17.3375L170.184 17.5932L62.7316 79.8343L62.3246 79.5786L169.803 17.3375Z" fill="#1B1389"/>
<path d="M166.801 15.5731L167.182 15.8288L59.7298 78.0955L59.3483 77.8398L166.801 15.5731Z" fill="#1B1389"/>
<path d="M163.799 13.8342L164.181 14.0899L56.728 76.331L56.3464 76.0753L163.799 13.8342Z" fill="#1B1389"/>
<path d="M160.797 12.0953L161.204 12.351L53.7263 74.5922L53.3447 74.3364L160.797 12.0953Z" fill="#1B1389"/>
<path d="M157.796 10.3564L158.203 10.5866L50.7499 72.8533L50.3429 72.5976L157.796 10.3564Z" fill="#1B1389"/>
<path d="M154.819 8.59204L155.201 8.84776L47.7482 71.0889L47.3412 70.8588L154.819 8.59204Z" fill="#1B1389"/>
<path d="M151.817 6.85315L152.199 7.10886L44.7464 69.35L44.3649 69.0943L151.817 6.85315Z" fill="#1B1389"/>
<path d="M148.816 5.11426L149.197 5.36997L41.7447 67.6111L41.3632 67.3554L148.816 5.11426Z" fill="#1B1389"/>
<path d="M145.814 3.34985L146.221 3.60557L38.7429 65.8723L38.3613 65.6166L145.814 3.34985Z" fill="#1B1389"/>
<path d="M142.812 1.61096L143.219 1.86668L35.7666 64.1078L35.3596 63.8777L142.812 1.61096Z" fill="#1B1389"/>
</g>
<g opacity="0.3">
<path d="M169.447 17.0818L169.854 17.3375L62.3755 79.5787L61.9939 79.3229L169.447 17.0818Z" fill="#0F0878"/>
<path d="M166.445 15.343L166.852 15.5987L59.3991 77.8398L58.9921 77.5841L166.445 15.343Z" fill="#0F0878"/>
<path d="M163.468 13.6041L163.85 13.8342L56.3973 76.1009L56.0157 75.8452L163.468 13.6041Z" fill="#0F0878"/>
<path d="M160.467 11.8396L160.848 12.0953L53.3956 74.3365L53.014 74.1063L160.467 11.8396Z" fill="#0F0878"/>
<path d="M157.465 10.1008L157.846 10.3565L50.3938 72.5976L50.0122 72.3419L157.465 10.1008Z" fill="#0F0878"/>
<path d="M154.463 8.36194L154.87 8.61765L47.3921 70.8588L47.0105 70.6031L154.463 8.36194Z" fill="#0F0878"/>
<path d="M151.461 6.59741L151.868 6.85313L44.4158 69.0943L44.0088 68.8641L151.461 6.59741Z" fill="#0F0878"/>
<path d="M148.485 4.85864L148.867 5.11436L41.4141 67.3555L41.0325 67.0998L148.485 4.85864Z" fill="#0F0878"/>
<path d="M145.483 3.11975L145.865 3.37547L38.4122 65.6166L38.0306 65.3609L145.483 3.11975Z" fill="#0F0878"/>
<path d="M142.482 1.38086L142.863 1.611L35.4105 63.8777L35.0289 63.622L142.482 1.38086Z" fill="#0F0878"/>
</g>
<path d="M174 56.1807L63.8 119.956V116.453L174 52.6774V56.1807Z" fill="#1B1389"/>
<path d="M172.855 52.1148L62.6553 115.89L63.8 116.453L174 52.6774L172.855 52.1148Z" fill="#D1EBFF"/>
<path d="M62.6807 119.342L63.8 119.956V116.453L62.6807 115.839V119.342Z" fill="#A8CFF0"/>
<path d="M173.873 56.2574L170.845 57.9963L166.572 56.9734L169.599 55.209L173.873 56.2574Z" fill="#D62D69"/>
<path d="M166.038 60.7835L163.011 62.548L158.737 61.5251L161.764 59.7607L166.038 60.7835Z" fill="#D62D69"/>
<path d="M158.203 65.3353L155.15 67.0742L150.876 66.0513L153.929 64.2869L158.203 65.3353Z" fill="#D62D69"/>
<path d="M150.342 69.8615L147.315 71.6259L143.041 70.6031L146.068 68.8386L150.342 69.8615Z" fill="#D62D69"/>
<path d="M142.507 74.4132L139.48 76.1777L135.206 75.1548L138.233 73.3904L142.507 74.4132Z" fill="#D62D69"/>
<path d="M134.646 78.9394L131.619 80.7038L127.346 79.6809L130.398 77.9165L134.646 78.9394Z" fill="#D62D69"/>
<path d="M126.811 83.4911L123.784 85.2556L119.51 84.2327L122.538 82.4683L126.811 83.4911Z" fill="#D62D69"/>
<path d="M118.976 88.0172L115.924 89.7817L111.675 88.7588L114.703 86.9944L118.976 88.0172Z" fill="#D62D69"/>
<path d="M111.116 92.569L108.089 94.3334L103.815 93.285L106.868 91.5461L111.116 92.569Z" fill="#D62D69"/>
<path d="M103.281 97.0952L100.254 98.8596L95.9799 97.8368L99.007 96.0723L103.281 97.0952Z" fill="#D62D69"/>
<path d="M95.4457 101.647L92.3931 103.411L88.1194 102.388L91.172 100.624L95.4457 101.647Z" fill="#D62D69"/>
<path d="M87.5851 106.173L84.5579 107.938L80.2842 106.915L83.3114 105.15L87.5851 106.173Z" fill="#D62D69"/>
<path d="M79.75 110.725L76.7228 112.489L72.4491 111.466L75.4763 109.702L79.75 110.725Z" fill="#D62D69"/>
<path d="M71.9149 115.251L68.8623 117.015L64.5886 115.993L67.6413 114.228L71.9149 115.251Z" fill="#D62D69"/>
<defs>
<radialGradient id="paint0_radial_409_4416" cx="0" cy="0" r="1" gradientUnits="userSpaceOnUse" gradientTransform="translate(29.9667 136.347) scale(4.29912 4.32159)">
<stop stop-color="white"/>
<stop offset="1"/>
</radialGradient>
<radialGradient id="paint1_radial_409_4416" cx="0" cy="0" r="1" gradientUnits="userSpaceOnUse" gradientTransform="translate(5.67283 122.999) scale(3.3579 3.37544)">
<stop stop-color="white"/>
<stop offset="1"/>
</radialGradient>
</defs>
</svg>
