<svg width="183" height="145" viewBox="0 0 183 145" fill="none" xmlns="http://www.w3.org/2000/svg">
<path d="M48.8866 45.6654C48.5188 45.1462 47.9348 44.6054 47.3075 44.7568C47.079 44.8009 46.8771 44.933 46.7451 45.1246C46.4119 46.3774 46.2018 47.6598 46.1178 48.9534C46.056 50.5167 46.2459 52.0797 46.6802 53.5827C46.7914 53.8525 46.9561 54.097 47.1643 54.3014C47.3724 54.5059 47.6198 54.6661 47.8915 54.7725C48.9515 55.1186 50.0547 54.2101 50.5089 53.1933C51.0649 52.0336 51.1803 50.7111 50.8334 49.4726C50.3731 48.1156 49.7172 46.833 48.8866 45.6654Z" fill="#1B1389"/>
<path opacity="0.7" d="M46.7234 45.038C46.8432 44.9009 47.0014 44.8029 47.1776 44.7568C47.8049 44.6054 48.389 45.1462 48.7567 45.6654C49.5873 46.833 50.2432 48.1156 50.7035 49.4726C51.0504 50.7111 50.9351 52.0336 50.379 53.1933C48.5021 50.8207 47.2458 48.0179 46.7234 45.038Z" fill="url(#paint0_linear_409_3925)"/>
<path d="M60.2862 107.879L90.0291 125.055L96.8862 114.693L93.4036 107.144L83.0206 100.113L60.2862 107.879Z" fill="#26231F"/>
<path d="M168.334 50.8571L178.674 57.9091L178.977 58.5797C179.956 60.6852 180.39 63.0033 180.239 65.3206C180.088 67.6378 179.356 69.8798 178.111 71.8402L175.581 75.9287L145.6 58.623L168.334 50.8571Z" fill="#26231F"/>
<path d="M69.9769 112.876C71.035 112.1 72.2841 111.625 73.5908 111.503C74.8976 111.381 76.2129 111.617 77.3964 112.184L83.8857 115.948L69.0467 141.344L62.5574 137.58C61.5235 136.821 60.706 135.805 60.1862 134.632C59.6663 133.46 59.4622 132.172 59.5939 130.896C59.7838 127.287 60.8231 123.774 62.6274 120.643C64.4316 117.511 66.9498 114.85 69.9769 112.876Z" fill="#26231F"/>
<path d="M66.0834 134.66C66.0834 141.279 70.7341 143.983 76.488 140.652C79.5154 138.676 82.0351 136.016 83.8427 132.885C85.6504 129.754 86.6952 126.242 86.8926 122.632C86.8926 116.013 82.2202 113.309 76.488 116.64C73.4569 118.612 70.9345 121.272 69.1264 124.403C67.3183 127.535 66.2756 131.049 66.0834 134.66Z" fill="#3F3932"/>
<path d="M76.5096 137.212C78.6117 135.878 80.3681 134.066 81.6351 131.923C82.9022 129.78 83.6438 127.367 83.7993 124.882C83.7993 120.253 80.7061 118.392 76.7475 120.556C74.6454 121.89 72.889 123.702 71.622 125.845C70.355 127.988 69.6134 130.401 69.4578 132.886C69.3929 137.429 72.5511 139.397 76.5096 137.212Z" fill="#D8D8D8"/>
<path d="M76.5097 136.044C78.3171 134.903 79.8281 133.349 80.9185 131.51C82.009 129.671 82.6479 127.6 82.7827 125.466C82.7827 121.507 80.1437 119.799 76.726 121.681C74.9318 122.831 73.4344 124.388 72.3557 126.226C71.2769 128.064 70.6472 130.131 70.5178 132.259C70.4097 136.282 73.1136 137.926 76.5097 136.044Z" fill="#A8A8A8"/>
<path d="M76.2069 132.713C77.2301 132.061 78.0848 131.176 78.7013 130.131C79.3178 129.086 79.6786 127.91 79.7544 126.699C79.7544 124.536 78.2618 123.498 76.3367 124.536C75.2929 125.18 74.4171 126.064 73.7815 127.113C73.146 128.162 72.7688 129.348 72.681 130.571C72.681 132.821 74.3033 133.773 76.2069 132.713Z" fill="#D8D8D8"/>
<path d="M72.443 126.613C73.2263 125.135 74.3916 123.895 75.8175 123.022C78.3267 121.637 80.3167 122.892 80.2735 125.812C80.1789 127.386 79.7119 128.914 78.9109 130.272C78.1098 131.63 76.9977 132.778 75.666 133.621C73.265 134.963 71.3398 133.859 71.21 131.177V130.831C71.2731 129.346 71.6962 127.898 72.443 126.613ZM72.6809 130.831C72.6579 131.238 72.7504 131.644 72.948 132.001C73.1455 132.358 73.4399 132.651 73.7972 132.848C74.1546 133.045 74.5602 133.137 74.9675 133.113C75.3747 133.089 75.7668 132.95 76.0987 132.713C77.1219 132.061 77.9766 131.176 78.5931 130.131C79.2096 129.086 79.5704 127.91 79.6462 126.699C79.6462 124.536 78.1536 123.498 76.2284 124.536C75.1299 125.209 74.2331 126.165 73.6327 127.305C73.3507 127.812 73.1258 128.349 72.9621 128.906C72.7981 129.439 72.7036 129.992 72.6809 130.55V130.831Z" fill="#BEBEBE"/>
<path d="M154.598 64.0094C155.656 63.2329 156.906 62.7584 158.212 62.6364C159.519 62.5145 160.834 62.7498 162.018 63.3171L168.529 67.0595L153.69 92.4556L147.2 88.6916C146.163 87.9351 145.341 86.9199 144.817 85.7472C144.293 84.5745 144.086 83.2851 144.215 82.0073C144.409 78.4021 145.449 74.8933 147.254 71.766C149.058 68.6388 151.574 65.9812 154.598 64.0094Z" fill="#26231F"/>
<path d="M150.705 85.7929C150.705 92.4123 155.377 95.1163 161.109 91.785C164.14 89.8134 166.663 87.1535 168.471 84.0221C170.279 80.8906 171.322 77.3763 171.514 73.7654C171.514 67.146 166.863 64.442 161.109 67.7733C158.082 69.7487 155.562 72.4095 153.755 75.5402C151.947 78.6708 150.902 82.1832 150.705 85.7929Z" fill="#3F3932"/>
<path d="M161.131 88.3456C163.234 87.013 164.992 85.2006 166.259 83.0572C167.526 80.9138 168.267 78.5005 168.421 76.0153C168.421 71.386 165.349 69.5256 161.391 71.6888C159.288 73.0227 157.532 74.8354 156.265 76.9785C154.998 79.1216 154.256 81.5343 154.101 84.0191C154.014 88.5619 157.172 90.552 161.131 88.3456Z" fill="#D8D8D8"/>
<path d="M161.152 87.1774C162.957 86.0271 164.465 84.4682 165.555 82.6267C166.645 80.7852 167.285 78.7129 167.426 76.5777C167.426 72.5974 164.765 70.8884 161.369 72.7704C159.558 73.9189 158.045 75.4803 156.955 77.3266C155.865 79.173 155.227 81.2515 155.096 83.3918C155.031 87.3721 157.756 89.0594 161.152 87.1774Z" fill="#A8A8A8"/>
<path d="M160.85 83.846C161.868 83.1995 162.721 82.3221 163.337 81.2848C163.953 80.2475 164.317 79.0795 164.397 77.8756C164.397 75.7124 162.883 74.6524 160.958 75.7124C159.939 76.3621 159.089 77.2438 158.476 78.2852C157.863 79.3266 157.505 80.4983 157.432 81.7045C157.389 83.9542 158.925 84.906 160.85 83.846Z" fill="#D8D8D8"/>
<path d="M157.043 77.7458C157.826 76.2685 158.991 75.0284 160.417 74.1549C162.926 72.7704 164.938 74.0251 164.895 76.9454C164.794 78.523 164.323 80.0546 163.518 81.4154C162.714 82.7762 161.599 83.9277 160.266 84.7762C159.842 85.1185 159.326 85.3271 158.783 85.3754C158.241 85.4237 157.696 85.3097 157.218 85.0477C156.741 84.7857 156.352 84.3876 156.101 83.904C155.85 83.4204 155.749 82.8732 155.81 82.3318V81.9857C155.879 80.4947 156.302 79.0416 157.043 77.7458ZM157.41 82.0722C157.41 84.2354 158.99 84.9709 160.828 83.9542C161.865 83.2996 162.73 82.4062 163.351 81.3486C163.972 80.2911 164.331 79.1002 164.397 77.8756C164.397 75.7124 162.883 74.6524 160.958 75.7124C159.866 76.3771 158.976 77.3269 158.384 78.4597C158.086 78.9618 157.854 79.4997 157.692 80.0604C157.523 80.5922 157.435 81.1465 157.432 81.7045L157.41 82.0722Z" fill="#BEBEBE"/>
<path d="M5.62408 87.0043C9.59013 81.4262 14.5465 76.6236 20.2468 72.8353C31.9837 64.9891 43.145 56.3141 53.6453 46.8768C58.1663 43.0262 66.3645 35.1738 71.145 31.7343C73.0053 30.2849 113.001 7.03043 123.709 0.822015C124.556 0.324481 125.512 0.0443393 126.494 0.00659302C127.475 -0.0311532 128.45 0.174671 129.333 0.605694C138.699 5.10517 162.667 18.7983 167.577 22.8002L169.891 25.6124C171.981 29.3979 174.563 32.8895 177.571 35.9958C178.742 36.6893 179.749 37.6286 180.522 38.749C181.295 39.8694 181.816 41.1442 182.048 42.4854C182.325 43.9546 182.462 45.4466 182.459 46.9417V64.8963C182.457 66.3062 182.092 67.6918 181.399 68.9199C179.932 71.642 177.948 74.0521 175.559 76.0152C175.559 65.4587 172.119 58.9042 161.953 64.7665C152.327 70.326 148.325 81.2718 148.325 91.9364L89.9858 125.055C89.9858 114.65 86.5031 108.161 76.423 114.066C67.0134 119.496 63.0117 130.052 62.817 140.479C61.8763 141.111 60.8585 141.62 59.7886 141.993C57.3307 143.25 54.6986 144.132 51.9797 144.611C39.3255 146.774 26.5631 139.938 16.418 133.319C9.58258 128.862 4.26132 124.32 1.64394 120.231C0.505234 118.413 -0.0670166 116.297 -3.05176e-05 114.153C0.108124 108.55 0.129745 95.6572 5.62408 87.0043Z" fill="#1B1389"/>
<path opacity="0.3" d="M32.8578 142.058C38.8911 144.596 45.4922 145.477 51.9798 144.611C54.669 144.124 57.2713 143.242 59.7021 141.993C60.7721 141.62 61.7898 141.111 62.7305 140.479C62.7162 133.756 64.6714 127.175 68.3546 121.551C57.539 135.568 45.8149 142.772 32.8578 142.058ZM182.459 55.7026V64.8963C182.457 66.3062 182.092 67.6918 181.399 68.9199C179.932 71.642 177.948 74.0521 175.559 76.0152C175.559 69.1362 174.066 63.9877 170.238 62.8412L182.459 55.7026ZM153.928 72.1647C150.16 78.0272 148.231 84.8827 148.39 91.8499L89.9858 125.055C89.9858 118.306 88.4284 113.266 84.6646 112.076L153.928 72.1647Z" fill="#1B1389"/>
<path opacity="0.7" d="M11.3348 118.263C4.84543 113.158 0.8004 107.447 0.843658 101.498C1.3979 96.3837 3.02702 91.4445 5.62416 87.0043C9.59021 81.4262 14.5466 76.6235 20.2469 72.8353C31.9838 64.9891 43.1451 56.3141 53.6454 46.8767C58.1664 43.0262 66.3646 35.1738 71.1451 31.7343C73.0054 30.2849 112.958 7.05203 123.687 0.821986C124.542 0.32432 125.506 0.0443098 126.494 0.00658919C127.482 -0.0311315 128.465 0.174593 129.355 0.605665C138.851 5.19167 163.381 19.2093 167.599 22.8002C161.109 26.045 149.169 32.8591 137.315 39.5002C124.596 46.5955 112.309 53.4962 109.995 56.2434C104.825 62.5384 87.2603 90.2924 87.2603 90.2924C81.2036 96.4575 66.8837 108.658 60.6107 114.585C57.7163 118.318 55.6514 122.624 54.5539 127.218C54.2295 128.776 40.5586 132.237 23.8376 125.466C19.3491 123.671 15.1392 121.245 11.3348 118.263Z" fill="#382FBA"/>
<g opacity="0.6">
<path d="M58.1663 116.965C29.7429 123.022 1.68719 98.1016 4.71557 88.843C5.02069 88.247 5.36015 87.6692 5.73224 87.1125C9.69829 81.5343 14.6547 76.7317 20.3549 72.9434C27.0173 68.4872 31.8627 64.9612 36.4702 61.3486C54.6837 85.6199 87.2603 90.3573 87.2603 90.3573C81.2035 96.5224 66.8836 108.723 60.6106 114.65C59.961 115.579 59.1294 116.367 58.1663 116.965Z" fill="#1B1389" style="mix-blend-mode:screen"/>
</g>
<g style="mix-blend-mode:multiply" opacity="0.2">
<path d="M82.6527 101.238L94.485 82.9591C94.5677 83.0892 94.6699 83.2059 94.7878 83.3052L83.0421 101.411V111.881H82.6095V101.346C82.611 101.306 82.6262 101.268 82.6527 101.238Z" fill="#1B1389"/>
</g>
<g style="mix-blend-mode:multiply" opacity="0.2">
<path d="M158.6 42.7017C158.657 42.6876 158.718 42.6953 158.77 42.7233C158.822 42.7513 158.861 42.7975 158.881 42.8532C160.279 50.137 161.239 57.4978 161.758 64.8963L161.347 65.1559C160.818 57.7429 159.851 50.3678 158.448 43.0695C158.426 43.0369 158.412 42.9993 158.408 42.9601C158.404 42.9209 158.41 42.8812 158.425 42.8448C158.44 42.8083 158.464 42.7761 158.494 42.7512C158.525 42.7262 158.561 42.7092 158.6 42.7017Z" fill="#1B1389"/>
</g>
<g style="mix-blend-mode:multiply" opacity="0.2">
<path d="M124.206 52.0685L124.596 51.744C126.869 67.832 128.003 84.0603 127.992 100.308L148.39 88.497C148.39 88.6917 148.39 88.8647 148.39 89.0378L127.862 100.892L89.9859 122.805C89.9975 122.647 89.9975 122.488 89.9859 122.33L127.581 100.568C127.614 84.3415 126.486 68.1337 124.206 52.0685Z" fill="#1B1389"/>
</g>
<path d="M75.7526 88.0859C62.5792 84.4734 49.7951 76.3397 38.9795 66.0644C38.6827 65.7835 38.4486 65.4429 38.2926 65.0651C38.1367 64.6872 38.0624 64.2807 38.0746 63.8721C38.0869 63.4636 38.1854 63.0622 38.3637 62.6944C38.5421 62.3266 38.7962 62.0007 39.1093 61.738L72.443 32.9457C80.0788 39.9112 92.5817 46.8335 108.459 53.7341C100.542 67.2542 91.154 80.1037 84.059 86.3986C82.9767 87.4382 81.6212 88.1488 80.1506 88.4475C78.68 88.7463 77.1547 88.6209 75.7526 88.0859Z" fill="#282523"/>
<path d="M82.0903 82.8725H83.1719C85.6838 82.3582 87.8915 80.8735 89.3151 78.7408C95.1584 71.5844 100.631 64.1332 105.712 56.4165C105.803 56.2646 105.86 56.0947 105.88 55.9186C105.9 55.7425 105.881 55.5641 105.826 55.3958C105.77 55.2274 105.679 55.073 105.559 54.943C105.438 54.8131 105.291 54.7106 105.128 54.6426C90.3102 48.153 79.6243 41.9446 72.6807 35.9741C72.4169 35.7444 72.0788 35.6178 71.729 35.6178C71.3791 35.6178 71.041 35.7444 70.7772 35.9741L44.5602 58.5364C44.3428 58.7196 44.1682 58.9482 44.0486 59.206C43.9291 59.4639 43.8674 59.7448 43.868 60.029C43.8563 60.3099 43.9042 60.5901 44.0086 60.8511C44.113 61.1121 44.2715 61.348 44.4736 61.5433C56.0463 72.5108 67.1864 79.1735 79.4946 82.5264C80.3098 82.7625 81.155 82.879 82.0038 82.8725H82.0903Z" fill="#35312D"/>
<path d="M109.714 59.9425C111.457 57.2702 113.807 55.0468 116.571 53.4529C121.2 50.7489 157.497 29.4629 161.672 28.3813C163.337 27.9703 167.664 35.0656 170.865 42.5287C170.865 42.5287 101.97 82.6346 92.9926 87.4802C92.4519 87.7831 91.738 87.199 92.0625 86.6582C94.6582 82.3967 104.825 67.3623 109.714 59.9425Z" fill="#282523"/>
<path d="M175.797 39.1542C175.927 39.3705 176.121 39.5003 176.338 39.3921C177.311 38.9378 179.193 37.7481 178.674 36.7746C178.674 36.7746 169.524 24.4876 168.615 24.1415C168.312 24.3145 166.236 25.3096 166.582 25.9369C166.69 25.9586 171.427 32.2752 175.797 39.1542Z" fill="#35312D"/>
<path d="M34.9127 118.436C36.3836 117.203 45.2308 117.073 59.1396 112.465C61.3028 112.184 60.1996 117.7 58.8584 120.145C58.296 121.205 57.6471 122.178 57.063 123.195C56.052 124.143 54.7464 124.716 53.3641 124.817C46.9364 126.083 40.3237 126.083 33.896 124.817C31.9492 124.125 33.5932 119.517 34.9127 118.436Z" fill="#F0FDFF"/>
<path d="M56.955 122.611C58.5906 119.491 59.3388 115.981 59.1181 112.465C61.1514 111.968 63.0117 111.968 63.1847 113.59C63.4876 116.532 58.9667 121.81 56.4358 123.671C56.6089 123.303 56.8252 122.978 56.955 122.611Z" fill="#E9751C"/>
<path d="M5.29972 92.3691C5.25732 91.6487 5.25732 90.9264 5.29972 90.2059C5.40258 88.4154 5.97722 86.6839 6.96533 85.1873C5.57235 86.7368 4.42023 88.4869 3.5476 90.379C2.45131 92.3056 1.78012 94.4446 1.57915 96.6523C1.34807 98.6462 1.83923 100.657 2.96355 102.32C3.43943 102.623 4.15327 101.411 4.39121 100.892C5.99192 97.7555 5.40788 95.4841 5.29972 92.3691Z" fill="#F0FDFF"/>
<path d="M30.262 116.965C29.6347 119.128 27.5365 123.865 26.1737 123.454C20.0521 122.156 7.87372 113.244 6.09996 109.848C5.47266 108.636 7.7872 101.195 8.50103 101C11.7037 104.605 15.3952 107.743 19.468 110.324C24.9624 113.85 30.5432 116.078 30.262 116.965Z" fill="#1B1389"/>
<path d="M19.4682 110.432C22.5831 112.379 25.7629 113.85 27.8611 114.91C29.4618 115.732 30.4352 116.251 30.2622 117.073C29.6517 119.381 28.511 121.514 26.931 123.303C20.7877 121.94 8.71748 113.114 6.94372 109.718C6.42457 108.723 7.93876 103.423 8.8689 101.541C11.9937 104.96 15.5578 107.95 19.4682 110.432Z" fill="#35312D"/>
<path opacity="0.3" d="M56.2196 101.844C61.3084 98.2748 66.091 94.2879 70.5178 89.9247C69.5708 91.4574 68.4924 92.905 67.2948 94.2511C64.4739 97.4763 61.2705 100.346 57.7554 102.796C53.938 105.502 49.8047 107.732 45.4473 109.437C43.3448 110.273 41.1735 110.925 38.9579 111.384C40.9485 110.604 42.8979 109.724 44.7983 108.745C48.7694 106.727 52.5868 104.421 56.2196 101.844Z" fill="#1B1389"/>
<g style="mix-blend-mode:screen" opacity="0.6">
<path d="M31.5815 73.2896C33.399 72.19 35.2848 71.2073 37.2273 70.3477C32.1028 73.8991 27.2773 77.8637 22.7993 82.202C19.8999 84.9793 17.2573 88.013 14.9039 91.2659C13.864 92.6721 12.9312 94.1545 12.1135 95.7005C12.4181 94.0037 12.9952 92.3674 13.8223 90.8549C15.7232 87.2907 18.1845 84.0551 21.1121 81.2719C24.2849 78.2192 27.7977 75.5409 31.5815 73.2896Z" fill="#102441"/>
</g>
<path d="M91.4999 28.987L114.602 42.334C115.371 42.7186 116.219 42.9188 117.079 42.9188C117.939 42.9188 118.787 42.7186 119.556 42.334L128.684 37.0558C128.979 36.9514 129.235 36.7581 129.416 36.5024C129.597 36.2467 129.694 35.9412 129.694 35.6281C129.694 35.3149 129.597 35.0094 129.416 34.7537C129.235 34.498 128.979 34.3047 128.684 34.2004L105.603 20.8533C104.834 20.4688 103.986 20.2686 103.127 20.2686C102.267 20.2686 101.419 20.4688 100.65 20.8533L91.4999 26.1316C91.2046 26.2359 90.949 26.4293 90.7682 26.685C90.5873 26.9406 90.4902 27.2461 90.4902 27.5593C90.4902 27.8725 90.5873 28.1779 90.7682 28.4336C90.949 28.6893 91.2046 28.8827 91.4999 28.987Z" fill="#282523"/>
<path d="M92.6896 29.5278L114.71 42.2475C115.432 42.6212 116.233 42.8162 117.046 42.8162C117.859 42.8162 118.66 42.6212 119.383 42.2475L127.494 37.5534C127.78 37.4635 128.029 37.285 128.206 37.0438C128.383 36.8026 128.478 36.5113 128.478 36.2122C128.478 35.913 128.383 35.6217 128.206 35.3805C128.029 35.1393 127.78 34.9608 127.494 34.871L105.474 22.1513C104.749 21.7878 103.949 21.5985 103.137 21.5985C102.326 21.5985 101.526 21.7878 100.801 22.1513L92.6896 26.8455C92.4043 26.9353 92.1551 27.1138 91.9781 27.355C91.8012 27.5962 91.7058 27.8875 91.7058 28.1867C91.7058 28.4858 91.8012 28.7771 91.9781 29.0183C92.1551 29.2595 92.4043 29.438 92.6896 29.5278Z" fill="#35312D"/>
<path d="M117.868 79.7359L123.514 76.4911C123.676 76.3965 123.814 76.2648 123.915 76.1069C124.017 75.949 124.079 75.7693 124.098 75.5826V74.7822C124.098 74.4577 123.839 74.3495 123.514 74.5442L117.868 77.8756C117.706 77.9702 117.569 78.1018 117.467 78.2598C117.366 78.4177 117.303 78.5973 117.284 78.7841V79.5845C117.284 79.8225 117.544 80.0388 117.868 79.7359Z" fill="#1B1389"/>
<path d="M151.591 60.2887L157.216 57.0222C157.379 56.929 157.517 56.7977 157.619 56.6395C157.721 56.4814 157.783 56.301 157.8 56.1137V55.3133C157.8 54.9888 157.54 54.8807 157.216 55.0754L151.591 58.3202C151.431 58.4174 151.296 58.5497 151.195 58.7071C151.093 58.8645 151.029 59.0429 151.007 59.2287V60.0291C151.007 60.3536 151.267 60.5699 151.591 60.2887Z" fill="#1B1389"/>
<path d="M109.908 80.7094C110.268 81.5834 110.32 82.5536 110.057 83.4613C109.794 84.369 109.23 85.1605 108.459 85.7064C108.168 85.8217 107.862 85.8945 107.55 85.9228C104.479 86.2472 100.282 86.2905 98.898 84.6032C98.7163 84.4089 98.5998 84.1626 98.5649 83.8989C98.53 83.6352 98.5784 83.3671 98.7033 83.1322C98.898 82.202 99.9363 78.3083 100.802 77.8756C103.965 78.3454 107.037 79.3013 109.908 80.7094Z" fill="#1B1389"/>
<path opacity="0.7" d="M99.4604 80.4066C99.6824 79.4616 100.144 78.5899 100.802 77.8756C103.987 78.3389 107.081 79.2949 109.973 80.7094C110.158 80.9631 110.27 81.2622 110.298 81.5747C106.645 82.1168 102.914 81.7147 99.4604 80.4066Z" fill="#1D1868"/>
<path d="M95.3937 83.3269C95.6533 83.3269 98.2923 82.6563 98.7682 82.5914C100.326 82.3751 102.489 85.1656 101.84 85.9227C101.688 86.1391 94.9394 86.5717 94.7231 86.5717C93.6416 86.6582 93.9228 83.4999 95.3937 83.3269Z" fill="#282523"/>
<path d="M177.592 66.8648L179.582 65.7183C179.725 65.6288 179.845 65.5085 179.935 65.3663C180.025 65.224 180.082 65.0634 180.101 64.8963V64.6583C180.101 64.3771 179.863 64.2689 179.582 64.442L177.592 65.5885C177.446 65.6741 177.323 65.7935 177.233 65.9365C177.142 66.0795 177.088 66.242 177.073 66.4105V66.6485C177.073 66.9297 177.289 67.0595 177.592 66.8648Z" fill="#E9751C"/>
<path d="M91.2188 116.813L93.2089 115.667C93.3559 115.583 93.4801 115.464 93.5706 115.32C93.6611 115.177 93.7151 115.014 93.728 114.845V114.607C93.728 114.326 93.5117 114.218 93.2089 114.391L91.2188 115.537C91.0736 115.629 90.9514 115.752 90.8614 115.899C90.7714 116.045 90.7161 116.21 90.6997 116.381V116.597C90.6997 116.813 90.9376 116.813 91.2188 116.813Z" fill="#E9751C"/>
<path d="M182.351 44.6703C183.194 48.3579 183.194 52.1882 182.351 55.8757C180.837 56.2218 180.188 49.7538 180.188 47.2229C180.17 46.9117 180.231 46.6009 180.368 46.3206C180.504 46.0402 180.71 45.7997 180.967 45.6221L182.351 44.6703Z" fill="#991111"/>
<path d="M8.60913 120.08L20.3333 127.932V132.151L8.60913 124.298V120.08Z" fill="#D8D8D8"/>
<path d="M49.0596 141.907C44.3063 142.535 39.4725 142.092 34.9128 140.609C33.8961 140.219 34.199 138.965 34.2639 137.84C34.2805 137.601 34.3888 137.377 34.5661 137.216C34.7434 137.055 34.9761 136.968 35.2156 136.974C39.8459 137.322 44.4984 136.719 48.8866 135.201C49.0398 135.145 49.2041 135.127 49.3656 135.149C49.5272 135.17 49.6812 135.23 49.8148 135.323C49.9484 135.416 50.0576 135.54 50.1332 135.685C50.2088 135.829 50.2487 135.989 50.2493 136.152V140.479C50.2738 140.824 50.1636 141.166 49.9418 141.432C49.7201 141.698 49.4039 141.868 49.0596 141.907Z" fill="#35312D"/>
<path d="M0.324496 106.127C0.457017 108.027 0.768444 109.91 1.25464 111.751C1.39076 112.348 1.46327 112.957 1.47095 113.569V117.051C1.47095 117.397 1.29789 117.376 1.21137 117.224C0.666498 116.241 0.265835 115.185 0.0216603 114.088V113.85C0.0432916 111.946 0.0865526 109.22 0.324496 106.127Z" fill="#35312D"/>
<defs>
<linearGradient id="paint0_linear_409_3925" x1="50.9847" y1="48.9535" x2="46.7882" y2="48.9535" gradientUnits="userSpaceOnUse">
<stop stop-color="#1B1389"/>
<stop offset="1" stop-color="#408EFF"/>
</linearGradient>
</defs>
</svg>
