<svg width="25" height="25" viewBox="0 0 25 25" fill="none" xmlns="http://www.w3.org/2000/svg">
<path d="M12.5001 15.1251C13.9498 15.1251 15.1251 13.9498 15.1251 12.5001C15.1251 11.0503 13.9498 9.87507 12.5001 9.87507C11.0503 9.87507 9.87507 11.0503 9.87507 12.5001C9.87507 13.9498 11.0503 15.1251 12.5001 15.1251Z" fill="#971E2A"/>
<path d="M12.5001 0C5.59649 0 0 5.59649 0 12.5001C0 19.4037 5.59649 25.0002 12.5001 25.0002C19.4037 25.0002 25.0002 19.4037 25.0002 12.5001C25.0002 5.59649 19.4037 0 12.5001 0ZM20.223 15.6771C20.163 16.8655 19.8291 18.0374 18.963 18.8943C18.0886 19.7593 16.9111 20.0816 15.7113 20.141H9.28897C8.08896 20.0816 6.91165 19.7595 6.03719 18.8943C5.17109 18.0374 4.83718 16.8655 4.77718 15.6771V9.32307C4.83718 8.13466 5.17114 6.96275 6.03719 6.10584C6.91165 5.24084 8.08911 4.91853 9.28897 4.85918H15.7112C16.9112 4.91853 18.0885 5.24069 18.963 6.10584C19.8291 6.96275 20.163 8.13466 20.223 9.32307L20.223 15.6771Z" fill="#971E2A"/>
<path d="M15.6301 6.30695C14.0658 6.26404 10.9348 6.26404 9.37047 6.30695C8.55641 6.3293 7.63355 6.53195 7.05355 7.15145C6.45085 7.79541 6.22309 8.57341 6.19999 9.44377C6.15939 10.9714 6.19999 15.5564 6.19999 15.5564C6.22644 16.4267 6.45085 17.2048 7.05355 17.8487C7.63355 18.4684 8.55641 18.6709 9.37047 18.6932C10.9348 18.7361 14.0658 18.7361 15.6301 18.6932C16.4442 18.6709 17.367 18.4682 17.947 17.8487C18.5497 17.2048 18.7775 16.4268 18.8006 15.5564V9.44377C18.7775 8.57341 18.5497 7.79541 17.947 7.15145C17.3668 6.53175 16.444 6.3293 15.6301 6.30695ZM12.5001 16.5689C11.6954 16.5689 10.9087 16.3302 10.2396 15.8832C9.57049 15.4361 9.04898 14.8006 8.74103 14.0571C8.43307 13.3137 8.3525 12.4956 8.50949 11.7063C8.66648 10.917 9.054 10.1921 9.62303 9.62303C10.1921 9.054 10.917 8.66648 11.7063 8.50949C12.4956 8.3525 13.3137 8.43307 14.0571 8.74103C14.8006 9.04898 15.4361 9.57049 15.8832 10.2396C16.3302 10.9087 16.5689 11.6954 16.5689 12.5001C16.5689 13.5792 16.1402 14.6141 15.3771 15.3771C14.6141 16.1402 13.5792 16.5689 12.5001 16.5689ZM16.5862 9.27117C16.4252 9.27113 16.2679 9.22337 16.1341 9.13393C16.0003 9.04449 15.8961 8.91738 15.8345 8.76868C15.7729 8.61998 15.7569 8.45637 15.7883 8.29853C15.8197 8.14069 15.8972 7.99571 16.011 7.88193C16.1248 7.76814 16.2698 7.69066 16.4277 7.65928C16.5855 7.62789 16.7491 7.64402 16.8978 7.70562C17.0465 7.76721 17.1736 7.87152 17.263 8.00533C17.3524 8.13915 17.4001 8.29647 17.4001 8.45741C17.4001 8.56429 17.3791 8.67013 17.3382 8.76887C17.2973 8.86761 17.2373 8.95733 17.1617 9.03289C17.0861 9.10846 16.9964 9.1684 16.8976 9.20928C16.7989 9.25016 16.693 9.27119 16.5862 9.27117Z" fill="#971E2A"/>
</svg>
