<svg width="16" height="16" viewBox="0 0 16 16" fill="none" xmlns="http://www.w3.org/2000/svg">
<path d="M8 0C3.58864 0 0 3.58864 0 8C0 12.4114 3.58864 16 8 16C12.4114 16 16 12.4114 16 8C16 3.58864 12.4114 0 8 0ZM8 15.4839C3.87355 15.4839 0.516129 12.1265 0.516129 8C0.516129 3.87355 3.87355 0.516129 8 0.516129C12.1265 0.516129 15.4839 3.87355 15.4839 8C15.4839 12.1265 12.1265 15.4839 8 15.4839Z" fill="black"/>
<path d="M8 1.03226C4.15794 1.03226 1.03226 4.15794 1.03226 8C1.03226 11.8421 4.15794 14.9677 8 14.9677C11.8421 14.9677 14.9677 11.8421 14.9677 8C14.9677 4.15794 11.8421 1.03226 8 1.03226ZM8 14.4516C5.72929 14.4516 3.73032 13.2715 2.58013 11.4932L3.23974 11.0534L2.95355 10.624L2.31587 11.049C2.13523 10.7138 1.98452 10.3605 1.86477 9.99329L2.64284 9.79871L2.51794 9.29832L1.72516 9.49652C1.63019 9.09652 1.57187 8.68258 1.55484 8.25806H2.06452V7.74194H1.55484C1.57161 7.31742 1.62994 6.90348 1.72542 6.50374L2.51819 6.70194L2.6431 6.20155L1.86503 6.00697C1.98477 5.63974 2.13548 5.28645 2.31613 4.95123L2.95381 5.37626L3.24 4.94684L2.58039 4.5071C2.78271 4.19432 3.01058 3.89987 3.26219 3.62735L3.68877 4.05394L4.05368 3.68903L3.6271 3.26245C3.89961 3.01084 4.19406 2.78297 4.50684 2.58065L4.94658 3.24026L5.376 2.95406L4.95097 2.31639C5.28619 2.13574 5.63948 1.98503 6.00671 1.86529L6.20129 2.64335L6.70168 2.51845L6.50348 1.72568C6.90323 1.63019 7.31716 1.57187 7.74168 1.5551V2.06452H8.25781V1.55484C8.68232 1.57161 9.09626 1.62994 9.496 1.72542L9.29781 2.51819L9.79819 2.6431L9.99277 1.86503C10.36 1.98477 10.7133 2.13548 11.0485 2.31613L10.6235 2.95381L11.0529 3.24L11.4926 2.58039C11.8054 2.78271 12.0999 3.01058 12.3724 3.26219L11.9458 3.68877L12.3107 4.05368L12.7373 3.6271C12.9889 3.89961 13.2168 4.19406 13.4191 4.50684L12.7595 4.94658L13.0457 5.376L13.6834 4.95097C13.864 5.28619 14.0147 5.63948 14.1345 6.00671L13.3564 6.20129L13.4813 6.70168L14.2741 6.50348C14.3695 6.90323 14.4279 7.31716 14.4446 7.74168H13.6774V8.25781H14.4452C14.4284 8.68232 14.3701 9.09626 14.2746 9.496L13.4818 9.29781L13.3569 9.79819L14.135 9.99277C14.0152 10.36 13.8645 10.7133 13.6839 11.0485L13.0462 10.6235L12.76 11.0529L13.4196 11.4926C12.2697 13.2715 10.2707 14.4516 8 14.4516Z" fill="black"/>
<path d="M8 9.29032C8.71148 9.29032 9.29032 8.71148 9.29032 8C9.29032 7.56594 9.07329 7.18297 8.74348 6.9489L8.25626 2.80852C8.24103 2.67871 8.13084 2.58065 8 2.58065C7.86916 2.58065 7.75897 2.67871 7.74374 2.80852L7.25652 6.9489C6.92671 7.18297 6.70968 7.56594 6.70968 8C6.70968 8.71148 7.28852 9.29032 8 9.29032ZM8 5.04748L8.19794 6.72981C8.1329 6.71948 8.06787 6.70968 8 6.70968C7.93213 6.70968 7.8671 6.71948 7.80206 6.72981L8 5.04748ZM8 7.22581C8.42684 7.22581 8.77419 7.57316 8.77419 8C8.77419 8.42684 8.42684 8.77419 8 8.77419C7.57316 8.77419 7.22581 8.42684 7.22581 8C7.22581 7.57316 7.57316 7.22581 8 7.22581Z" fill="black"/>
<path d="M10.8387 10.5806H5.16129C5.01858 10.5806 4.90323 10.696 4.90323 10.8387V12.3871C4.90323 12.5298 5.01858 12.6452 5.16129 12.6452H10.8387C10.9814 12.6452 11.0968 12.5298 11.0968 12.3871V10.8387C11.0968 10.696 10.9814 10.5806 10.8387 10.5806ZM10.5806 12.129H5.41935V11.0968H10.5806V12.129Z" fill="black"/>
</svg>
