<svg width="507" height="13" viewBox="0 0 507 13" fill="none" xmlns="http://www.w3.org/2000/svg">
<path d="M6.48967 10.9421H0.22742V9.93194L3.3281 6.72837C3.77468 6.25698 4.09439 5.86257 4.28215 5.5451C4.46992 5.22763 4.56634 4.91017 4.56634 4.5927C4.56634 4.17422 4.43947 3.8327 4.19081 3.57295C3.94214 3.31321 3.60721 3.1833 3.186 3.1833C2.6836 3.1833 2.29285 3.32762 2.01374 3.62104C1.73463 3.90965 1.59761 4.30888 1.59761 4.81395H0.0498047C0.0498047 4.27521 0.176675 3.79419 0.435487 3.36128C0.6943 2.93317 1.05968 2.59648 1.54178 2.35597C2.01881 2.11547 2.57196 2 3.20123 2C4.10453 2 4.82007 2.21647 5.3377 2.64457C5.8604 3.07267 6.11921 3.66911 6.11921 4.42911C6.11921 4.87165 5.98727 5.33342 5.72846 5.81444C5.46457 6.29545 5.03829 6.84383 4.43947 7.45952L2.16598 9.76841H6.48967V10.9421Z" fill="white"/>
<path d="M8.708 4.24634C8.99726 4.24634 9.22055 4.32329 9.37787 4.48203C9.53518 4.63595 9.61638 4.83321 9.61638 5.0689C9.61638 5.29978 9.53518 5.49216 9.37787 5.64127C9.22055 5.79038 8.99726 5.86733 8.708 5.86733C8.42889 5.86733 8.21067 5.79038 8.04828 5.64127C7.88589 5.49216 7.80469 5.29978 7.80469 5.06409C7.80469 4.82839 7.88588 4.636 8.0432 4.47727C8.20052 4.32816 8.41874 4.24634 8.708 4.24634ZM8.708 9.39315C8.99726 9.39315 9.22055 9.47011 9.37787 9.62884C9.53518 9.78276 9.61638 9.97996 9.61638 10.2157C9.61638 10.4465 9.53518 10.639 9.37787 10.7881C9.22055 10.9372 8.99726 11.0141 8.708 11.0141C8.42889 11.0141 8.21067 10.9372 8.04828 10.7881C7.88589 10.639 7.80469 10.4465 7.80469 10.2108C7.80469 9.97515 7.88588 9.78276 8.0432 9.62403C8.20052 9.4701 8.41874 9.39315 8.708 9.39315Z" fill="white"/>
<path d="M15.35 10.9419H13.8022V3.85674L11.5186 4.59269V3.35648L15.1521 2.09143H15.35V10.9419Z" fill="white"/>
<path d="M23.8404 7.80069H24.9975V8.98402H23.8404V10.9465H22.2875V8.98402H18.2683L18.2227 8.08929L22.2368 2.12476H23.8404V7.80069ZM19.8466 7.80069H22.2825V4.11618L22.1657 4.30854L19.8466 7.80069Z" fill="white"/>
<path d="M456.163 6.54508L456.602 2.69971H460.922V3.80136H457.716L457.496 5.62216C457.869 5.41846 458.29 5.3187 458.755 5.3187C459.523 5.3187 460.115 5.55152 460.54 6.01712C460.966 6.48272 461.176 7.10629 461.176 7.89199C461.176 8.66522 460.939 9.28461 460.47 9.74189C459.996 10.1992 459.352 10.432 458.531 10.432C457.795 10.432 457.185 10.2324 456.698 9.8375C456.216 9.44257 455.953 8.91877 455.913 8.27025H457.211C457.264 8.64024 457.404 8.92294 457.632 9.12249C457.86 9.32203 458.159 9.41763 458.527 9.41763C458.939 9.41763 459.26 9.27628 459.492 8.99775C459.72 8.71922 459.838 8.33677 459.838 7.85454C459.838 7.38894 459.711 7.02315 459.457 6.75294C459.202 6.48273 458.852 6.3455 458.409 6.3455C458.167 6.3455 457.961 6.37464 457.79 6.43699C457.619 6.49935 457.435 6.6199 457.238 6.7945L456.163 6.54508Z" fill="white"/>
<path d="M463.128 4.5365C463.378 4.5365 463.571 4.60301 463.707 4.73604C463.843 4.86907 463.913 5.03955 463.913 5.24325C463.913 5.4428 463.843 5.60906 463.707 5.73793C463.571 5.87096 463.378 5.93331 463.128 5.93331C462.887 5.93331 462.699 5.8668 462.558 5.73793C462.418 5.60906 462.348 5.44279 462.348 5.23909C462.348 5.03539 462.418 4.86906 462.554 4.73187C462.69 4.603 462.883 4.5365 463.128 4.5365ZM463.128 8.98472C463.378 8.98472 463.571 9.05123 463.707 9.18426C463.843 9.31729 463.913 9.48772 463.913 9.69142C463.913 9.89096 463.843 10.0573 463.707 10.1862C463.571 10.315 463.378 10.3815 463.128 10.3815C462.887 10.3815 462.699 10.315 462.558 10.1862C462.418 10.0573 462.348 9.89096 462.348 9.68726C462.348 9.48356 462.418 9.31728 462.554 9.18009C462.69 9.05122 462.883 8.98472 463.128 8.98472Z" fill="white"/>
<path d="M466.786 5.92904H467.602C468.014 5.92488 468.343 5.82512 468.584 5.62557C468.826 5.42603 468.944 5.1392 468.944 4.76089C468.944 4.39922 468.843 4.11651 468.641 3.91281C468.44 3.71326 468.133 3.6135 467.72 3.6135C467.361 3.6135 467.062 3.71326 466.83 3.90865C466.598 4.10403 466.484 4.36177 466.484 4.68188H465.141C465.141 4.2911 465.251 3.93361 465.47 3.6135C465.69 3.2934 465.997 3.03981 466.387 2.86105C466.777 2.68229 467.22 2.59082 467.703 2.59082C468.505 2.59082 469.137 2.78205 469.598 3.16452C470.058 3.54698 470.286 4.07911 470.286 4.76089C470.286 5.10178 470.172 5.42602 469.94 5.72534C469.707 6.02466 469.413 6.25331 469.049 6.40713C469.492 6.54847 469.826 6.77712 470.058 7.08059C470.29 7.38822 470.405 7.75407 470.405 8.18226C470.405 8.8682 470.159 9.41281 469.663 9.81606C469.168 10.2193 468.519 10.423 467.712 10.423C466.94 10.423 466.304 10.2276 465.812 9.83682C465.317 9.44604 465.071 8.92639 465.071 8.27787H466.413C466.413 8.6146 466.532 8.88481 466.769 9.09682C467.005 9.30468 467.326 9.41277 467.729 9.41277C468.146 9.41277 468.475 9.30884 468.712 9.09682C468.953 8.88896 469.071 8.58551 469.071 8.18642C469.071 7.78317 468.944 7.47555 468.694 7.25937C468.444 7.0432 468.071 6.9351 467.58 6.9351H466.791V5.92904H466.786Z" fill="white"/>
<path d="M477.018 3.40572L473.803 10.3233H472.395L475.606 3.71751H471.443V2.69482H477.018V3.40572Z" fill="white"/>
<path opacity="0.7" d="M439.557 5.99976H50.7017V6.99976H439.557V5.99976Z" fill="white"/>
<path d="M231.147 4.99976H50.7017V7.99976H231.147V4.99976Z" fill="white"/>
<path d="M229.144 12.5791C232.7 12.5791 235.583 9.84658 235.583 6.47583C235.583 3.10509 232.7 0.372559 229.144 0.372559C225.588 0.372559 222.705 3.10509 222.705 6.47583C222.705 9.84658 225.588 12.5791 229.144 12.5791Z" fill="white"/>
<path d="M492.222 4.92965H490.736V0H497.175V1.40846H492.222V4.92965Z" fill="white"/>
<path d="M497.174 12.2311H490.735V7.30151H492.221V10.8226H497.174V12.2311Z" fill="white"/>
<path d="M506.294 4.92965H504.808V1.40846H499.854V0H506.294V4.92965Z" fill="white"/>
<path d="M506.294 12.2311H499.854V10.8226H504.808V7.30151H506.294V12.2311Z" fill="white"/>
</svg>
