<svg width="11" height="11" viewBox="0 0 11 11" fill="none" xmlns="http://www.w3.org/2000/svg">
<path d="M2.73972 0.000240084C2.59683 0.0044844 2.46121 0.0640233 2.36159 0.166211L0.161572 2.35994C0.110355 2.41086 0.0697212 2.47132 0.0419961 2.53792C0.0142711 2.60452 0 2.67592 0 2.74802C0 2.82013 0.0142711 2.89153 0.0419961 2.95813C0.0697212 3.02473 0.110355 3.08519 0.161572 3.13611L2.36159 5.3299C2.41242 5.38237 2.47324 5.42419 2.54049 5.45294C2.60774 5.48169 2.68007 5.49678 2.75324 5.49732C2.82641 5.49786 2.89896 5.48385 2.96663 5.4561C3.0343 5.42835 3.09573 5.38736 3.14733 5.33565C3.19893 5.28394 3.23966 5.22255 3.26713 5.15495C3.29461 5.08735 3.30827 5.01493 3.30732 4.942C3.30638 4.86908 3.29084 4.79706 3.26163 4.73019C3.23241 4.66332 3.1901 4.60295 3.13718 4.55259L1.87711 3.29462H10.4495C10.5955 3.29462 10.7355 3.2368 10.8387 3.1339C10.942 3.03099 11 2.8914 11 2.74587C11 2.60035 10.942 2.46082 10.8387 2.35791C10.7355 2.25501 10.5955 2.19719 10.4495 2.19719H1.88249L3.13718 0.943461C3.21728 0.866722 3.27218 0.767571 3.29466 0.659129C3.31715 0.550687 3.30615 0.438007 3.26313 0.335912C3.22011 0.233818 3.14708 0.1471 3.05365 0.0871772C2.96022 0.0272543 2.85077 -0.00303461 2.73972 0.000240084ZM8.24513 5.48297C8.13635 5.48385 8.03027 5.51685 7.9403 5.57781C7.85034 5.63878 7.78054 5.72497 7.73972 5.82547C7.6989 5.92598 7.6889 6.03632 7.71098 6.14249C7.73307 6.24866 7.78624 6.34591 7.86379 6.42196L9.126 7.68099H0.551514C0.407729 7.68413 0.270895 7.7433 0.17032 7.84576C0.0697441 7.94823 0.013425 8.08583 0.013425 8.22917C0.013425 8.37251 0.0697441 8.51018 0.17032 8.61264C0.270895 8.71511 0.407729 8.77421 0.551514 8.77735H9.12278L7.86379 10.0354C7.80621 10.0845 7.75945 10.145 7.72643 10.213C7.69342 10.281 7.67487 10.3551 7.67194 10.4306C7.66902 10.5061 7.68179 10.5814 7.70944 10.6517C7.73709 10.7221 7.77904 10.786 7.83264 10.8394C7.88625 10.8929 7.95036 10.9347 8.02094 10.9622C8.09152 10.9898 8.16706 11.0025 8.24282 10.9996C8.31857 10.9967 8.3929 10.9782 8.46114 10.9453C8.52938 10.9124 8.59006 10.8658 8.63938 10.8084L10.8394 8.61568C10.9418 8.51296 10.9994 8.37401 10.9994 8.22917C10.9994 8.08434 10.9418 7.94538 10.8394 7.84267L8.63938 5.64894C8.58812 5.59643 8.52682 5.55466 8.45911 5.52615C8.3914 5.49765 8.31864 5.48298 8.24513 5.48297Z" fill="#BC2024"/>
</svg>
