<svg width="25" height="25" viewBox="0 0 25 25" fill="none" xmlns="http://www.w3.org/2000/svg">
<path d="M10.9431 14.8419L15.0092 12.5001L10.9431 10.1582V14.8419Z" fill="#971E2A"/>
<path d="M12.5001 0C5.59754 0 0 5.59754 0 12.5001C0 19.4026 5.59754 25.0002 12.5001 25.0002C19.4026 25.0002 25.0002 19.4026 25.0002 12.5001C25.0002 5.59754 19.4026 0 12.5001 0ZM20.3107 12.5129C20.3107 12.5129 20.3107 15.0479 19.9892 16.2704C19.8089 16.9395 19.2813 17.4671 18.6122 17.6471C17.3898 17.9689 12.5001 17.9689 12.5001 17.9689C12.5001 17.9689 7.62315 17.9689 6.38795 17.6343C5.71884 17.4543 5.19127 16.9265 5.01102 16.2574C4.68925 15.0479 4.68925 12.5001 4.68925 12.5001C4.68925 12.5001 4.68925 9.9652 5.01102 8.74278C5.19108 8.07367 5.73162 7.53313 6.38795 7.35307C7.61038 7.0313 12.5001 7.0313 12.5001 7.0313C12.5001 7.0313 17.3898 7.0313 18.6122 7.36585C19.2813 7.54591 19.8089 8.07367 19.9892 8.74278C20.3237 9.9652 20.3107 12.5129 20.3107 12.5129Z" fill="#971E2A"/>
</svg>
