<svg width="87" height="86" viewBox="0 0 87 86" fill="none" xmlns="http://www.w3.org/2000/svg">
<path d="M31.5729 31.9796L22.0911 28.0522C21.1055 27.6441 20.0192 27.6424 19.0323 28.0473C18.0454 28.4526 17.276 29.2159 16.866 30.1969L14.7294 37.4242L30.082 43.7834L33.6667 37.3064L33.7273 37.1812C34.5741 35.1556 33.6075 32.8224 31.5729 31.9796ZM31.3851 36.1469L28.9467 40.5529L17.8316 35.9487L19.2532 31.1219C19.4055 30.7951 19.6716 30.5414 20.008 30.4034C20.3626 30.2578 20.7531 30.2585 21.1072 30.4053L30.589 34.3326C30.9432 34.4792 31.2189 34.7544 31.3651 35.1076C31.5041 35.4423 31.5105 35.8092 31.3851 36.1469Z" fill="white"/>
<path d="M10.1121 49.336L8.12859 54.0807C7.53743 55.4947 7.53471 57.0533 8.12145 58.4695C8.70785 59.8853 9.81319 60.9893 11.2339 61.5777L15.3311 63.2746C16.0446 63.5703 16.7941 63.7179 17.5441 63.7179C18.2879 63.7179 19.0318 63.5726 19.74 63.2819C21.1625 62.698 22.2717 61.5978 22.8627 60.1838L24.8464 55.4389L10.1121 49.336ZM20.4989 59.2047C20.1704 59.9903 19.5543 60.6018 18.764 60.926C17.9735 61.2502 17.1037 61.2491 16.3146 60.9219L12.2173 59.2248C11.428 58.8979 10.8139 58.2848 10.4881 57.4981C10.1624 56.7111 10.1637 55.8453 10.4924 55.06L11.4924 52.6679L21.4989 56.8126L20.4989 59.2047Z" fill="white"/>
<path d="M41.1607 25.3376C41.0629 25.1015 40.9545 24.8722 40.8408 24.646C40.7441 24.4542 40.643 24.2656 40.5353 24.0814C39.418 22.1685 37.7151 20.6766 35.6274 19.8118L27.9056 16.6136C27.7442 16.5466 27.5816 16.4844 27.4181 16.426C27.3986 16.4191 27.3792 16.4135 27.3597 16.4066C27.2137 16.3555 27.0672 16.3068 26.9199 16.2625L26.9187 16.2621C24.6678 15.5842 22.271 15.6965 20.0675 16.6007C17.8678 17.5034 16.0908 19.1012 14.9734 21.1561C14.971 21.1605 14.9685 21.1645 14.9661 21.1689C14.8956 21.299 14.8286 21.4316 14.7637 21.565C14.7525 21.5882 14.7399 21.6105 14.7287 21.6339C14.6543 21.7897 14.5831 21.9476 14.516 22.1083L13.3386 24.9244L10.6548 34.4398L0.643357 58.3873C-0.210841 60.4306 -0.214579 62.6828 0.632991 64.729C1.48056 66.7751 3.07783 68.3704 5.13083 69.2208L14.1853 72.9712C15.2272 73.4027 16.3083 73.6071 17.3725 73.6071C20.6357 73.607 23.7391 71.6852 25.069 68.5045L35.0806 44.557L39.9708 35.9555L41.148 33.1395C42.1988 30.6255 42.2034 27.8549 41.1607 25.3376ZM17.5506 21.8275C17.5963 21.758 17.6432 21.6897 17.6911 21.6222C17.701 21.6083 17.7107 21.5943 17.7207 21.5804C19.4253 19.2048 22.3748 17.9951 25.2661 18.4883C25.2768 18.4902 25.2876 18.492 25.2984 18.4939C25.386 18.5091 25.4739 18.526 25.5616 18.5444C25.5644 18.5451 25.5673 18.5458 25.5702 18.5463C23.8423 21.1798 20.6323 22.4983 17.5416 21.8411C17.5448 21.8368 17.5477 21.8321 17.5506 21.8275ZM37.6663 34.8341L32.7761 43.4355L22.7052 67.5252C22.1135 68.9402 21.0039 70.0411 19.5805 70.6253C18.1572 71.2095 16.5902 71.2071 15.1688 70.6182L6.11433 66.8678C4.69294 66.279 3.58691 65.1744 2.99983 63.7577C2.41309 62.3408 2.41564 60.7812 3.00697 59.3664L13.0782 35.2767L15.762 25.7615L16.4199 24.1877C17.3176 24.4346 18.2271 24.5565 19.1273 24.5565C22.733 24.5565 26.1789 22.6487 28.029 19.425L33.5382 21.7068C32.2966 26.1786 34.2769 30.9592 38.3241 33.2606L37.6663 34.8341ZM39.3767 29.2947C39.3759 29.3768 39.3737 29.459 39.3703 29.541C39.3689 29.5735 39.3679 29.6058 39.3662 29.6381C39.3601 29.7499 39.3519 29.8617 39.3407 29.9733C39.3397 29.9841 39.338 29.9949 39.3368 30.0058C39.3263 30.1069 39.3133 30.2077 39.2986 30.3084C39.2935 30.343 39.2879 30.3777 39.2822 30.4124C39.2695 30.4924 39.2552 30.572 39.2399 30.6519C39.2331 30.6869 39.2267 30.7217 39.2192 30.7567C39.2151 30.7762 39.2102 30.7955 39.206 30.8149C36.5601 29.0951 35.2367 25.8997 35.8955 22.8236C35.9056 22.83 35.9161 22.8361 35.9259 22.8429C36.0666 22.9347 36.2038 23.0311 36.3373 23.1317C36.365 23.1526 36.3917 23.1742 36.4191 23.1955C36.5353 23.2855 36.6486 23.3785 36.7592 23.4748C36.7827 23.4952 36.8067 23.5148 36.8299 23.5356C36.9538 23.6464 37.0738 23.7616 37.19 23.8802C37.2167 23.9074 37.2425 23.9353 37.2688 23.9629C37.3713 24.0706 37.4709 24.1811 37.5671 24.2947C37.5832 24.314 37.6004 24.3324 37.6163 24.3517C37.7227 24.4801 37.824 24.6129 37.922 24.7485C37.9455 24.781 37.9682 24.814 37.9913 24.847C38.0809 24.9753 38.1677 25.1062 38.2496 25.2404C38.2578 25.2536 38.2665 25.2666 38.2748 25.2799C38.3621 25.4251 38.4435 25.5746 38.5217 25.7263C38.5405 25.7628 38.5589 25.7997 38.5771 25.8366C38.6537 25.9913 38.7273 26.1481 38.7941 26.3091C38.8382 26.416 38.8792 26.5236 38.9184 26.6315C38.9302 26.664 38.9414 26.6968 38.9528 26.7294C38.9801 26.8079 39.0061 26.8866 39.0308 26.9654C39.0415 26.9999 39.0525 27.0344 39.0627 27.0689C39.0899 27.1602 39.1152 27.2521 39.1388 27.3439C39.1436 27.3623 39.1489 27.3806 39.1534 27.399C39.181 27.5092 39.2053 27.6196 39.2279 27.7302C39.2338 27.7596 39.2387 27.7891 39.2444 27.8185C39.2602 27.9017 39.2748 27.9851 39.2877 28.0688C39.2931 28.1043 39.2984 28.1399 39.3035 28.1754C39.3156 28.2608 39.3261 28.3467 39.3351 28.4323C39.338 28.4597 39.3416 28.4868 39.3441 28.5142C39.3546 28.626 39.363 28.7378 39.3686 28.8497C39.3698 28.8729 39.3699 28.8961 39.3709 28.9192C39.3745 29.0089 39.3767 29.0987 39.3771 29.1883C39.3774 29.2233 39.3771 29.259 39.3767 29.2947Z" fill="white"/>
<path d="M76.6335 31.9796L67.1517 28.0522C66.1659 27.6441 65.0798 27.6424 64.0929 28.0473C63.106 28.4526 62.3366 29.2159 61.9266 30.1969L59.79 37.4242L75.1426 43.7834L78.7272 37.3064L78.7879 37.1812C79.6346 35.1556 78.6681 32.8224 76.6335 31.9796ZM76.4457 36.1469L74.0073 40.5529L62.8922 35.9487L64.3138 31.1219C64.466 30.7951 64.7321 30.5414 65.0686 30.4034C65.4232 30.2578 65.8137 30.2585 66.1678 30.4053L75.6496 34.3326C76.0037 34.4792 76.2795 34.7544 76.4257 35.1076C76.5647 35.4423 76.5711 35.8092 76.4457 36.1469Z" fill="white"/>
<path d="M55.1727 49.336L53.1892 54.0807C52.598 55.4947 52.5953 57.0533 53.182 58.4695C53.7684 59.8853 54.8738 60.9893 56.2945 61.5777L60.3917 63.2746C61.1052 63.5703 61.8547 63.7179 62.6047 63.7179C63.3485 63.7179 64.0924 63.5726 64.8006 63.2819C66.223 62.698 67.3323 61.5978 67.9233 60.1838L69.9069 55.4389L55.1727 49.336ZM65.5595 59.2047C65.231 59.9903 64.6149 60.6018 63.8246 60.926C63.0341 61.2502 62.1644 61.2491 61.3752 60.9219L57.2778 59.2248C56.4885 58.8979 55.8745 58.2848 55.5487 57.4981C55.223 56.7111 55.2243 55.8453 55.553 55.06L56.5529 52.6679L66.5595 56.8126L65.5595 59.2047Z" fill="white"/>
<path d="M86.2213 25.3376C86.1234 25.1015 86.015 24.8722 85.9014 24.646C85.8047 24.4542 85.7036 24.2656 85.5958 24.0814C84.4786 22.1685 82.7756 20.6766 80.688 19.8118L72.9662 16.6134C72.8048 16.5464 72.6422 16.4842 72.4787 16.4258C72.4592 16.4189 72.4396 16.4133 72.4203 16.4064C72.2743 16.3553 72.128 16.3066 71.9807 16.2623L71.9788 16.2618C69.728 15.5841 67.3314 15.6964 65.1282 16.6006C62.9286 17.5032 61.1514 19.1011 60.0341 21.1559C60.0318 21.1603 60.0292 21.1644 60.0268 21.1688C59.9563 21.2988 59.8894 21.4314 59.8245 21.5649C59.8132 21.588 59.8007 21.6104 59.7895 21.6337C59.715 21.7895 59.6438 21.9475 59.5767 22.1081L58.3993 24.9243L55.7154 34.4397L45.7039 58.3869C44.8497 60.4303 44.846 62.6825 45.6936 64.7287C46.5411 66.7747 48.1384 68.37 50.1914 69.2204L59.2459 72.9708C60.2878 73.4023 61.3689 73.6068 62.4331 73.6068C65.6963 73.6066 68.7997 71.6849 70.1295 68.5041L80.1412 44.5567L85.0314 35.9553L86.2086 33.1394C87.2594 30.6255 87.264 27.8549 86.2213 25.3376ZM62.6112 21.8275C62.6569 21.758 62.7038 21.6897 62.7517 21.6222C62.7616 21.6083 62.7712 21.5943 62.7813 21.5804C64.4859 19.2048 67.4354 17.9951 70.3267 18.4883C70.3374 18.4902 70.3482 18.492 70.3589 18.4939C70.4466 18.5091 70.5345 18.526 70.6221 18.5444C70.625 18.5451 70.6279 18.5458 70.6308 18.5463C68.9029 21.1798 65.6929 22.4983 62.6022 21.8411C62.6054 21.8368 62.6083 21.8321 62.6112 21.8275ZM82.7269 34.8343L77.8367 43.4357L67.7658 67.5252C67.1741 68.9402 66.0645 70.0411 64.6411 70.6253C63.2178 71.2095 61.6508 71.2071 60.2294 70.6182L51.1749 66.8678C49.7535 66.279 48.6475 65.1744 48.0604 63.7577C47.4737 62.3408 47.4762 60.7812 48.0676 59.3664L58.1388 35.2767L60.8226 25.7615L61.4805 24.1877C62.3782 24.4346 63.2876 24.5565 64.1879 24.5565C67.7936 24.5565 71.2395 22.6487 73.0896 19.425L78.5988 21.7068C77.3572 26.1786 79.3374 30.9592 83.3846 33.2606L82.7269 34.8343ZM84.4368 29.2949C84.4359 29.3769 84.4337 29.4591 84.4303 29.5412C84.429 29.5736 84.428 29.6059 84.4263 29.6382C84.4201 29.75 84.412 29.8618 84.4008 29.9735C84.3998 29.9843 84.3981 29.9951 84.3969 30.0059C84.3863 30.1071 84.3734 30.2079 84.3586 30.3085C84.3535 30.3432 84.3479 30.3779 84.3423 30.4125C84.3296 30.4925 84.3153 30.5722 84.3 30.652C84.2932 30.687 84.2868 30.7219 84.2793 30.7569C84.2752 30.7764 84.2703 30.7956 84.266 30.8151C81.6203 29.0951 80.297 25.8998 80.9558 22.8238C80.9658 22.8302 80.9763 22.8363 80.9862 22.843C81.1269 22.9349 81.264 23.0313 81.3976 23.1319C81.4253 23.1527 81.452 23.1744 81.4793 23.1957C81.5955 23.2857 81.7089 23.3787 81.8195 23.4749C81.8429 23.4954 81.8669 23.515 81.8902 23.5358C82.014 23.6466 82.134 23.7618 82.2502 23.8803C82.2769 23.9076 82.3027 23.9353 82.3291 23.9631C82.4315 24.0708 82.5311 24.1812 82.6273 24.2949C82.6434 24.3142 82.6606 24.3326 82.6766 24.3521C82.7829 24.4804 82.8842 24.6132 82.9823 24.7487C83.0057 24.7812 83.0285 24.8141 83.0516 24.8471C83.1411 24.9755 83.228 25.1064 83.3099 25.2405C83.318 25.2537 83.3267 25.2667 83.335 25.2801C83.4224 25.4252 83.5038 25.5747 83.5819 25.7265C83.6006 25.763 83.6191 25.7999 83.6373 25.8367C83.7139 25.9915 83.7875 26.1483 83.8543 26.3093C83.8985 26.4162 83.9394 26.5238 83.9787 26.6317C83.9904 26.6642 84.0016 26.697 84.013 26.7296C84.0404 26.8081 84.0664 26.8867 84.091 26.9656C84.1017 27.0001 84.1128 27.0346 84.1229 27.0691C84.1501 27.1604 84.1755 27.2522 84.1991 27.3441C84.2038 27.3623 84.2091 27.3808 84.2137 27.399C84.2412 27.5092 84.2655 27.6196 84.2881 27.7302C84.2941 27.7596 84.299 27.7891 84.3046 27.8185C84.3204 27.9017 84.335 27.9851 84.3479 28.0688C84.3534 28.1043 84.3586 28.1399 84.3637 28.1754C84.3758 28.2608 84.3863 28.3467 84.3953 28.4323C84.3982 28.4597 84.4018 28.4868 84.4043 28.5142C84.4149 28.626 84.423 28.7378 84.4288 28.8497C84.43 28.8729 84.4302 28.8961 84.4312 28.9192C84.4348 29.0089 84.437 29.0987 84.4373 29.1883C84.4375 29.2235 84.4371 29.2592 84.4368 29.2949Z" fill="white"/>
<path d="M56.931 4.75317L56.0065 7.12953L58.3939 8.04974L59.3184 5.67338L56.931 4.75317Z" fill="white"/>
<path d="M58.7797 0L57.8552 2.37635L60.2426 3.29657L61.1671 0.920217L58.7797 0Z" fill="white"/>
<path d="M26.619 82.7034L25.6945 85.0798L28.0819 86L29.0064 83.6236L26.619 82.7034Z" fill="white"/>
<path d="M28.4678 77.9485L27.5433 80.3249L29.9307 81.2451L30.8551 78.8687L28.4678 77.9485Z" fill="white"/>
<path d="M55.0876 9.49678L29.3925 75.5699L31.7803 76.4899L57.4754 10.4168L55.0876 9.49678Z" fill="white"/>
<path d="M5.61601 61.2959L4.63238 63.6486L7.94128 65.0192L8.92492 62.6666L5.61601 61.2959Z" fill="white"/>
<path d="M16.3378 65.7409L15.3541 68.094L18.6637 69.4648L19.6474 67.1117L16.3378 65.7409Z" fill="white"/>
<path d="M50.6733 61.2968L49.6897 63.6494L52.9986 65.0201L53.9822 62.6674L50.6733 61.2968Z" fill="white"/>
<path d="M61.3996 65.7408L60.4159 68.0939L63.7254 69.4647L64.7091 67.1116L61.3996 65.7408Z" fill="white"/>
</svg>
