<svg width="68" height="69" viewBox="0 0 68 69" fill="none" xmlns="http://www.w3.org/2000/svg">
<path d="M65.1702 45.3617L60.3183 44.6618C60.0098 44.615 59.7447 44.4525 59.5691 44.2037L55.9532 39.0652C54.9319 37.6007 53.2605 36.7258 51.4825 36.7258H47.1527C51.9334 33.5686 54.8387 28.2166 54.8387 22.3249V21.606L60.0013 16.3675L58.4504 14.7938L54.8387 18.4585V17.3766L50.977 18.6781C49.3768 19.2275 47.4681 18.7694 46.2707 17.5538L46.0645 17.3456V0H13.8039L0 14.0069V69H46.0645V57.871H48.3689C48.8787 60.4071 51.0932 62.3226 53.7419 62.3226C56.3907 62.3226 58.6051 60.4071 59.1149 57.871H64.7097C66.5235 57.871 68 56.3728 68 54.5323V48.6672C68 47.0044 66.8143 45.6144 65.1702 45.3617ZM51.6748 20.7892L52.6452 20.4621V20.6843L44.9677 28.4747L42.4529 25.9228L40.902 27.4965L44.9677 31.6221L52.5541 23.9242C52.0475 28.7996 49.2542 33.0931 44.9677 35.4705C40.2176 32.8361 37.2903 27.8492 37.2903 22.3249V20.4621L38.2543 20.7871C40.5271 21.569 43.1855 20.9984 44.9677 19.3688C46.75 20.9974 49.4228 21.5625 51.6748 20.7892ZM13.1613 3.79952V13.3548H3.74446L13.1613 3.79952ZM43.871 66.7742H2.19355V15.5806H15.3548V2.22581H43.871V17.3456L43.6659 17.5538C42.4684 18.7694 40.5764 19.2334 38.9521 18.6754L35.0968 17.3766V22.3238C35.0968 28.2155 38.002 33.5675 42.7828 36.7247H37.444C35.6034 36.7247 33.8966 37.6507 32.8781 39.2032L30.2347 43.231C30.0922 43.4478 29.8817 43.6059 29.637 43.6825L20.9892 46.311C19.5872 46.7474 18.6452 48.0331 18.6452 49.5133V54.5323C18.6452 56.3728 20.1216 57.871 21.9355 57.871H27.5302C28.04 60.4071 30.2545 62.3226 32.9032 62.3226C35.552 62.3226 37.7664 60.4071 38.2762 57.871H43.871V66.7742ZM29.6129 56.7581C29.6129 54.9175 31.0894 53.4193 32.9032 53.4193C34.7171 53.4193 36.1935 54.9175 36.1935 56.7581C36.1935 58.5986 34.7171 60.0968 32.9032 60.0968C31.0894 60.0968 29.6129 58.5986 29.6129 56.7581ZM53.7419 60.0968C51.9281 60.0968 50.4516 58.5986 50.4516 56.7581C50.4516 54.9175 51.9281 53.4193 53.7419 53.4193C55.5558 53.4193 57.0323 54.9175 57.0323 56.7581C57.0323 58.5986 55.5558 60.0968 53.7419 60.0968ZM65.8064 54.5323C65.8064 55.1463 65.3138 55.6452 64.7097 55.6452H59.1149C58.6051 53.1091 56.3907 51.1935 53.7419 51.1935C51.0932 51.1935 48.8787 53.1091 48.3689 55.6452H38.2762C37.7664 53.1091 35.552 51.1935 32.9032 51.1935C30.2545 51.1935 28.04 53.1091 27.5302 55.6452H21.9355C21.3314 55.6452 20.8387 55.1463 20.8387 54.5323V49.5133C20.8387 49.0188 21.1579 48.5884 21.6249 48.4423L30.2775 45.8127C31.0192 45.579 31.6356 45.1139 32.0608 44.465L34.7042 40.4373C35.3153 39.507 36.3392 38.9516 37.444 38.9516H51.4825C52.5498 38.9516 53.5524 39.4749 54.1655 40.3552L57.7825 45.4943C58.2977 46.23 59.1053 46.7283 60.0034 46.8642L64.8511 47.563C65.4048 47.6489 65.8064 48.113 65.8064 48.6672V54.5323Z" fill="white"/>
<path d="M31.8064 55.6452H34V57.871H31.8064V55.6452Z" fill="white"/>
<path d="M52.6452 55.6452H54.8387V57.871H52.6452V55.6452Z" fill="white"/>
<path d="M36.6123 41.1774L33.322 47.8548H55.5167L52.2264 41.1774H36.6123ZM36.8715 45.629L37.9683 43.4032H50.8704L51.9672 45.629H36.8715Z" fill="white"/>
<path d="M41.6774 4.45161H17.5484V15.5806H41.6774V4.45161ZM39.4839 13.3548H19.7419V6.67742H39.4839V13.3548Z" fill="white"/>
<path d="M28.5161 8.90322H30.7097V11.129H28.5161V8.90322Z" fill="white"/>
<path d="M32.9032 8.90322H35.0968V11.129H32.9032V8.90322Z" fill="white"/>
<path d="M24.129 8.90322H26.3226V11.129H24.129V8.90322Z" fill="white"/>
<path d="M4.3871 17.8064H29.6129V20.0323H4.3871V17.8064Z" fill="white"/>
<path d="M4.3871 26.7097H29.6129V28.9355H4.3871V26.7097Z" fill="white"/>
<path d="M19.7419 22.2581H29.6129V24.4839H19.7419V22.2581Z" fill="white"/>
<path d="M4.3871 22.2581H17.5484V24.4839H4.3871V22.2581Z" fill="white"/>
<path d="M4.3871 31.1613H29.6129V33.3871H4.3871V31.1613Z" fill="white"/>
<path d="M4.3871 35.6129H29.6129V37.8387H4.3871V35.6129Z" fill="white"/>
<path d="M21.0208 60.7646C20.4944 59.5425 19.7735 57.871 18.0968 57.871C16.4179 57.871 15.697 59.5458 15.1717 60.769C14.9896 61.1939 14.5039 62.3226 14.2688 62.3226C14.0192 62.3226 13.5453 61.2265 13.3423 60.7581C12.8159 59.5392 12.094 57.871 10.4194 57.871C8.7426 57.871 8.02177 59.5425 7.49534 60.7646C7.29344 61.2309 6.82324 62.3226 6.58064 62.3226H4.3871V64.5484H6.58064C8.2574 64.5484 8.97823 62.8769 9.50466 61.6547C9.70656 61.1885 10.1768 60.0968 10.4194 60.0968C10.662 60.0968 11.1321 61.1863 11.333 61.6515C11.8615 62.8747 12.5867 64.5484 14.2688 64.5484C15.9396 64.5484 16.6578 62.879 17.1821 61.6591C17.3829 61.1917 17.8531 60.0968 18.0968 60.0968C18.3394 60.0968 18.8096 61.1885 19.0115 61.6547C19.5379 62.8769 20.2587 64.5484 21.9355 64.5484H24.129V62.3226H21.9355C21.6929 62.3226 21.2227 61.2309 21.0208 60.7646Z" fill="white"/>
<path d="M26.3226 62.3226H28.5161V64.5484H26.3226V62.3226Z" fill="white"/>
</svg>
