<svg width="13" height="9" viewBox="0 0 13 9" fill="none" xmlns="http://www.w3.org/2000/svg">
<path d="M12.3034 0.623569L8.53885 4.36384L12.3034 8.10412C12.3714 7.96188 12.4127 7.80464 12.4127 7.63673V1.09096C12.4127 0.923026 12.3714 0.765806 12.3034 0.623569Z" fill="#AA1E27"/>
<path d="M11.3218 0L1.09096 0C0.923026 0 0.765806 0.0412869 0.623569 0.109339L5.43502 4.89655C5.86045 5.32197 6.55226 5.32197 6.97769 4.89655L11.7891 0.109339C11.6469 0.0412869 11.4897 0 11.3218 0Z" fill="#AA1E27"/>
<path d="M0.109339 0.623569C0.0412868 0.765806 0 0.923026 0 1.09096L0 7.63673C0 7.80466 0.0412868 7.96191 0.109339 8.10412L3.87386 4.36384L0.109339 0.623569Z" fill="#AA1E27"/>
<path d="M8.02462 4.87807L7.49192 5.41078C6.78306 6.11964 5.62963 6.11964 4.92077 5.41078L4.38809 4.87807L0.623569 8.61835C0.765806 8.6864 0.923026 8.72769 1.09096 8.72769H11.3218C11.4897 8.72769 11.6469 8.6864 11.7891 8.61835L8.02462 4.87807Z" fill="#AA1E27"/>
</svg>
