<svg width="88" height="51" viewBox="0 0 88 51" fill="none" xmlns="http://www.w3.org/2000/svg">
<path d="M7.59213 41.4759C6.11418 41.3765 5.33353 40.8963 4.37567 40.3046C3.63799 39.8489 2.80199 39.3323 1.6317 39.0208C0.942997 38.8376 0.237797 39.2493 0.055266 39.94C-0.127264 40.6309 0.282828 41.3394 0.970841 41.5226C1.77418 41.7364 2.35357 42.0943 3.0244 42.5089C4.21944 43.2473 5.57398 44.084 8.18991 44.084C10.7936 44.084 12.1482 43.2471 13.3432 42.5088C14.4205 41.8432 15.2713 41.3177 17.1454 41.3177C19.0195 41.3177 19.8703 41.8432 20.9476 42.5089C22.1427 43.2473 23.4972 44.084 26.1009 44.084C28.7047 44.084 30.0592 43.2471 31.2542 42.5088C32.3315 41.8432 33.1823 41.3177 35.0564 41.3177C36.9306 41.3177 37.7813 41.8432 38.8586 42.5088C40.0509 43.2454 41.402 44.08 43.9941 44.084H44.0178C46.6097 44.0802 47.9608 43.2454 49.1531 42.5088C50.2304 41.8432 51.0811 41.3177 52.9553 41.3177C54.8294 41.3177 55.6802 41.8432 56.7575 42.5088C57.9525 43.2471 59.307 44.084 61.9108 44.084C64.5145 44.084 65.869 43.2471 67.0641 42.5088C68.1414 41.8432 68.9922 41.3177 70.8663 41.3177C72.7404 41.3177 73.5912 41.8432 74.6685 42.5089C75.8635 43.2473 77.2181 44.084 79.8342 44.084C82.4379 44.084 83.7924 43.2471 84.9875 42.5089C85.6583 42.0945 86.2377 41.7364 87.041 41.5226C87.729 41.3394 88.1391 40.6309 87.9566 39.94C87.7741 39.2491 87.0685 38.8372 86.3802 39.0208C85.2099 39.3323 84.3739 39.8489 83.6362 40.3046C82.5589 40.9701 81.7081 41.4957 79.8218 41.4957C78.6874 41.4957 77.9286 41.3023 77.2669 41.0028C79.4397 39.4479 81.1952 37.3932 82.408 34.9579L87.8634 24.0039C88.0633 23.6027 88.042 23.1263 87.8071 22.7448C87.5721 22.3633 87.1572 22.131 86.7105 22.131H83.8663V17.8925C83.8663 17.1778 83.2892 16.5984 82.5773 16.5984H78.3554V12.3598C78.3554 11.6451 77.7782 11.0657 77.0663 11.0657H55.0219C54.31 11.0657 53.7328 11.6451 53.7328 12.3598V16.5984H49.5109C48.799 16.5984 48.2218 17.1778 48.2218 17.8925V27.6639H35.6446V13.6538H37.111C37.8229 13.6538 38.4001 13.0744 38.4001 12.3596C38.4001 11.6449 37.8229 11.0655 37.111 11.0655H27.3778V2.58826H28.8442C29.5561 2.58826 30.1333 2.00884 30.1333 1.29413C30.1333 0.579426 29.5561 0 28.8442 0H9.55562C8.84372 0 8.26656 0.579426 8.26656 1.29413V17.8923C8.26656 18.607 8.84372 19.1865 9.55562 19.1865C10.2675 19.1865 10.8447 18.607 10.8447 17.8923V13.6538H33.0665V16.5982H31.6C30.8881 16.5982 30.311 17.1776 30.311 17.8923C30.311 18.607 30.8881 19.1865 31.6 19.1865H33.0665V27.6637H19.2C18.3913 27.6637 17.7336 27.0032 17.7336 26.1915V23.425C17.7336 22.7103 17.1564 22.1309 16.4445 22.1309H1.28898C0.855685 22.1309 0.451264 22.3495 0.212875 22.7125C-0.0256868 23.0757 -0.066421 23.5349 0.10425 23.9347L7.59213 41.4759ZM24.7997 2.58844V5.53285H23.3332C22.6213 5.53285 22.0442 6.11227 22.0442 6.82698C22.0442 7.54168 22.6213 8.12111 23.3332 8.12111H24.7997V11.0655H10.8447V2.58826L24.7997 2.58844ZM81.2882 22.131H72.8442V19.1866H81.2882V22.131ZM61.8219 22.131V19.1866H70.2659V22.131H61.8219ZM75.7771 16.5984H67.3331V13.654H75.7771V16.5984ZM56.3109 13.6538H64.7549V16.5982H56.3109V13.6538ZM50.7998 19.1866H59.2438V22.131H50.7998V19.1866ZM50.7998 24.7193H58.4472L57.386 26.8501C57.1361 27.3521 56.6335 27.6639 56.0744 27.6639H50.8V24.7193H50.7998ZM15.1553 24.7193V26.1917C15.1553 28.4307 16.9698 30.2521 19.1998 30.2521H56.0743C57.6161 30.2521 59.0023 29.392 59.6917 28.0074L61.3293 24.7193H84.6245L83.1581 27.6639H64.6663C63.9544 27.6639 63.3772 28.2433 63.3772 28.958C63.3772 29.6727 63.9544 30.2521 64.6663 30.2521H81.8693L80.1021 33.8005C78.8935 36.2274 77.0457 38.2064 74.7324 39.5699C73.7837 39.1026 72.6038 38.7294 70.8663 38.7294C68.2626 38.7294 66.908 39.5663 65.713 40.3046C64.6357 40.9701 63.7849 41.4957 61.9108 41.4957C60.0367 41.4957 59.1859 40.9701 58.1086 40.3044C56.9135 39.5661 55.559 38.7294 52.9553 38.7294C50.3515 38.7294 48.997 39.5663 47.802 40.3046C46.7258 40.9695 45.8756 41.4945 44.0059 41.4957C42.1363 41.4945 41.2859 40.9693 40.2099 40.3044C39.0149 39.5661 37.6603 38.7294 35.0566 38.7294C32.4529 38.7294 31.0983 39.5663 29.9033 40.3046C28.826 40.9701 27.9752 41.4957 26.1011 41.4957C24.227 41.4957 23.3762 40.9701 22.2989 40.3044C21.1039 39.5661 19.7493 38.7294 17.1456 38.7294C14.5419 38.7294 13.1873 39.5663 11.9923 40.3046C11.4194 40.6585 10.9091 40.9719 10.2744 41.1888L3.24388 24.7193H15.1553Z" fill="black"/>
<path d="M87.9564 46.856C87.7739 46.1651 87.0684 45.7533 86.38 45.9368C85.2097 46.2485 84.3737 46.7649 83.6362 47.2206C82.5589 47.8862 81.7079 48.4117 79.8218 48.4117C77.9479 48.4117 77.0969 47.8862 76.0196 47.2204C74.8246 46.4821 73.47 45.6454 70.8663 45.6454C68.2626 45.6454 66.908 46.4823 65.713 47.2206C64.6357 47.8862 63.7849 48.4117 61.9108 48.4117C60.0367 48.4117 59.1859 47.8862 58.1086 47.2204C56.9135 46.4821 55.559 45.6454 52.9553 45.6454C50.3515 45.6454 48.997 46.4823 47.802 47.2206C46.7259 47.8855 45.8756 48.4105 44.0059 48.4117C42.1363 48.4105 41.2859 47.8853 40.2099 47.2204C39.0149 46.4821 37.6603 45.6454 35.0566 45.6454C32.4529 45.6454 31.0983 46.4823 29.9033 47.2206C28.826 47.8862 27.9752 48.4117 26.1011 48.4117C24.227 48.4117 23.3762 47.8862 22.2989 47.2204C21.1039 46.4821 19.7493 45.6454 17.1456 45.6454C14.5419 45.6454 13.1873 46.4823 11.9923 47.2206C10.915 47.8862 10.0642 48.4117 8.17788 48.4117C6.30393 48.4117 5.45298 47.8862 4.37567 47.2206C3.63799 46.7649 2.80199 46.2485 1.63187 45.9368C0.943684 45.7533 0.237968 46.1651 0.0554379 46.856C-0.127093 47.5469 0.282828 48.2554 0.971012 48.4387C1.77418 48.6524 2.35357 49.0103 3.02457 49.425C4.21961 50.1633 5.57415 51 8.19025 51C10.794 51 12.1485 50.1631 13.3436 49.4248C14.4209 48.7593 15.2716 48.2337 17.1458 48.2337C19.0199 48.2337 19.8707 48.7593 20.948 49.425C22.143 50.1633 23.4975 51 26.1013 51C28.705 51 30.0595 50.1631 31.2546 49.4248C32.3319 48.7593 33.1827 48.2337 35.0568 48.2337C36.9309 48.2337 37.7817 48.7593 38.859 49.4248C40.0513 50.1614 41.4024 50.996 43.9944 51H44.0181C46.61 50.9962 47.9611 50.1614 49.1534 49.4248C50.2307 48.7593 51.0815 48.2337 52.9556 48.2337C54.8297 48.2337 55.6805 48.7593 56.7578 49.4248C57.9529 50.1631 59.3074 51 61.9111 51C64.5148 51 65.8694 50.1631 67.0644 49.4248C68.1417 48.7593 68.9925 48.2337 70.8666 48.2337C72.7407 48.2337 73.5915 48.7593 74.6688 49.425C75.8639 50.1633 77.2184 51 79.8345 51C82.4382 51 83.7928 50.1631 84.9878 49.425C85.6586 49.0105 86.238 48.6524 87.0414 48.4387C87.729 48.2554 88.139 47.5469 87.9564 46.856Z" fill="black"/>
<path d="M15.0666 8.12112H17.8221C18.534 8.12112 19.1112 7.54169 19.1112 6.82698C19.1112 6.11227 18.534 5.53284 17.8221 5.53284H15.0666C14.3547 5.53284 13.7775 6.11227 13.7775 6.82698C13.7775 7.54169 14.3547 8.12112 15.0666 8.12112Z" fill="black"/>
<path d="M17.8221 19.1866C18.534 19.1866 19.1112 18.6072 19.1112 17.8925C19.1112 17.1778 18.534 16.5984 17.8221 16.5984H15.0666C14.3547 16.5984 13.7775 17.1778 13.7775 17.8925C13.7775 18.6072 14.3547 19.1866 15.0666 19.1866H17.8221Z" fill="black"/>
<path d="M26.0887 19.1866C26.8006 19.1866 27.3778 18.6072 27.3778 17.8925C27.3778 17.1778 26.8006 16.5984 26.0887 16.5984H23.3332C22.6213 16.5984 22.0442 17.1778 22.0442 17.8925C22.0442 18.6072 22.6213 19.1866 23.3332 19.1866H26.0887Z" fill="black"/>
<path d="M24.7247 35.785C25.4366 35.785 26.0138 35.2056 26.0138 34.4909C26.0138 33.7761 25.4366 33.1967 24.7247 33.1967H24.711C23.9991 33.1967 23.4288 33.7761 23.4288 34.4909C23.4288 35.2056 24.0128 35.785 24.7247 35.785Z" fill="black"/>
<path d="M35.7331 35.785C36.445 35.785 37.0222 35.2056 37.0222 34.4909C37.0222 33.7761 36.445 33.1967 35.7331 33.1967H35.7194C35.0075 33.1967 34.4372 33.7761 34.4372 34.4909C34.4372 35.2056 35.0212 35.785 35.7331 35.785Z" fill="black"/>
<path d="M46.769 35.785C47.4809 35.785 48.0581 35.2056 48.0581 34.4909C48.0581 33.7761 47.4809 33.1967 46.769 33.1967H46.7552C46.0433 33.1967 45.4731 33.7761 45.4731 34.4909C45.4731 35.2056 46.0571 35.785 46.769 35.785Z" fill="black"/>
<path d="M30.2359 35.785C30.9478 35.785 31.525 35.2056 31.525 34.4909C31.525 33.7761 30.9478 33.1967 30.2359 33.1967H30.2221C29.5102 33.1967 28.9399 33.7761 28.9399 34.4909C28.9399 35.2056 29.524 35.785 30.2359 35.785Z" fill="black"/>
<path d="M41.2443 35.785C41.9562 35.785 42.5333 35.2056 42.5333 34.4909C42.5333 33.7761 41.9562 33.1967 41.2443 33.1967H41.2305C40.5186 33.1967 39.9483 33.7761 39.9483 34.4909C39.9483 35.2056 40.5324 35.785 41.2443 35.785Z" fill="black"/>
<path d="M52.2801 35.785C52.9921 35.785 53.5692 35.2056 53.5692 34.4909C53.5692 33.7761 52.9921 33.1967 52.2801 33.1967H52.2664C51.5545 33.1967 50.9842 33.7761 50.9842 34.4909C50.9842 35.2056 51.5682 35.785 52.2801 35.785Z" fill="black"/>
</svg>
