<svg width="96" height="54" viewBox="0 0 96 54" fill="none" xmlns="http://www.w3.org/2000/svg">
<path d="M84.72 22.3501L79.5555 21.4906C78.8967 21.3817 78.2706 21.1271 77.7227 20.7453C77.1749 20.3636 76.7192 19.8644 76.389 19.2841L69.2565 6.80402C68.0737 4.73929 66.3673 3.02304 64.3094 1.82844C62.2515 0.633839 59.915 0.00314688 57.5355 0H32.4645C30.0851 0.00299543 27.7487 0.633462 25.6908 1.82779C23.6329 3.02213 21.9264 4.73807 20.7435 6.80252L13.4685 19.5331C13.1659 20.0596 12.7604 20.5198 12.2762 20.8862C11.792 21.2527 11.2389 21.5179 10.65 21.6661L5.679 22.9081C4.44131 23.2179 3.30349 23.8393 2.37378 24.7131C1.44407 25.5868 0.753408 26.684 0.3675 27.9001C0.351 27.9391 0.3495 27.9856 0.336 28.0261C0.118833 28.7252 0.00562273 29.4525 0 30.1846V40.5001C0.00238179 42.4885 0.793323 44.3948 2.19933 45.8008C3.60534 47.2068 5.5116 47.9978 7.5 48.0002H13.0275C13.8759 49.7949 15.2166 51.3116 16.8936 52.3739C18.5706 53.4361 20.5149 54 22.5 54C24.4851 54 26.4294 53.4361 28.1064 52.3739C29.7834 51.3116 31.1241 49.7949 31.9725 48.0002H64.0275C64.8758 49.7949 66.2166 51.3116 67.8936 52.3739C69.5706 53.4361 71.5149 54 73.5 54C75.4851 54 77.4293 53.4361 79.1063 52.3739C80.7834 51.3116 82.1241 49.7949 82.9725 48.0002H88.5C90.4883 47.9978 92.3946 47.2068 93.8006 45.8008C95.2066 44.3948 95.9976 42.4885 96 40.5001V35.6656C96.0079 32.468 94.8772 29.3719 92.8103 26.932C90.7434 24.4922 87.8754 22.8679 84.72 22.3501ZM91.341 30.0001C91.9342 30.9248 92.3782 31.9373 92.6565 33.0001H91.5C90.31 32.9998 89.1682 32.5297 88.323 31.6921C87.8478 31.2133 87.4842 30.6356 87.258 30.0001H91.341ZM3.015 30.0001H5.5785L4.8285 33.0001H3V30.1846C3 30.1216 3.0135 30.0616 3.015 30.0001ZM22.5 51.0002C21.0166 51.0002 19.5666 50.5603 18.3332 49.7362C17.0998 48.9121 16.1386 47.7407 15.5709 46.3703C15.0032 44.9998 14.8547 43.4918 15.1441 42.037C15.4335 40.5821 16.1478 39.2457 17.1967 38.1968C18.2456 37.1479 19.582 36.4336 21.0368 36.1442C22.4917 35.8548 23.9997 36.0034 25.3701 36.571C26.7406 37.1387 27.9119 38.1 28.736 39.3334C29.5601 40.5667 30 42.0168 30 43.5002C29.9976 45.4886 29.2067 47.3948 27.8007 48.8008C26.3947 50.2069 24.4884 50.9978 22.5 51.0002ZM73.5 51.0002C72.0166 51.0002 70.5666 50.5603 69.3332 49.7362C68.0998 48.9121 67.1385 47.7407 66.5709 46.3703C66.0032 44.9998 65.8547 43.4918 66.1441 42.037C66.4335 40.5821 67.1478 39.2457 68.1967 38.1968C69.2456 37.1479 70.5819 36.4336 72.0368 36.1442C73.4916 35.8548 74.9996 36.0034 76.3701 36.571C77.7405 37.1387 78.9119 38.1 79.736 39.3334C80.5601 40.5667 81 42.0168 81 43.5002C80.9976 45.4886 80.2066 47.3948 78.8006 48.8008C77.3946 50.2069 75.4883 50.9978 73.5 51.0002ZM88.5 45.0002H83.88C84.108 43.5047 84.0102 41.9777 83.5934 40.5236C83.1765 39.0694 82.4503 37.7225 81.4646 36.5751C80.4789 35.4276 79.2568 34.5067 77.8822 33.8754C76.5075 33.2441 75.0127 32.9172 73.5 32.9172C71.9873 32.9172 70.4924 33.2441 69.1178 33.8754C67.7431 34.5067 66.5211 35.4276 65.5353 36.5751C64.5496 37.7225 63.8235 39.0694 63.4066 40.5236C62.9897 41.9777 62.8919 43.5047 63.12 45.0002H32.88C33.108 43.5047 33.0103 41.9777 32.5934 40.5236C32.1765 39.0694 31.4503 37.7225 30.4646 36.5751C29.4789 35.4276 28.2569 34.5067 26.8822 33.8754C25.5075 33.2441 24.0127 32.9172 22.5 32.9172C20.9873 32.9172 19.4924 33.2441 18.1178 33.8754C16.7431 34.5067 15.5211 35.4276 14.5354 36.5751C13.5496 37.7225 12.8235 39.0694 12.4066 40.5236C11.9897 41.9777 11.8919 43.5047 12.12 45.0002H7.5C6.30652 45.0002 5.16193 44.5261 4.31802 43.6821C3.4741 42.8382 3 41.6936 3 40.5001V36.0001H6C6.33439 36.0001 6.65919 35.8884 6.92281 35.6826C7.18642 35.4769 7.37374 35.189 7.455 34.8646L8.955 28.8646C9.0104 28.6434 9.01466 28.4125 8.96744 28.1895C8.92022 27.9664 8.82277 27.757 8.6825 27.5773C8.54222 27.3975 8.36282 27.2521 8.15792 27.1521C7.95301 27.0521 7.728 27.0001 7.5 27.0001H4.3335C4.90535 26.426 5.62236 26.018 6.408 25.8196L11.3805 24.5761C12.361 24.3285 13.2817 23.8862 14.0878 23.2755C14.8939 22.6647 15.5688 21.898 16.0725 21.0211L23.3475 8.29053C24.2678 6.68494 25.5952 5.35042 27.1959 4.42156C28.7965 3.49271 30.6138 3.00238 32.4645 3.00001H57.5355C59.3861 3.00238 61.2034 3.49271 62.8041 4.42156C64.4047 5.35042 65.7322 6.68494 66.6525 8.29053L73.7835 20.7706C74.3335 21.7385 75.093 22.5712 76.0062 23.2078C76.9195 23.8444 77.9635 24.2689 79.062 24.4501L84.2265 25.3111C85.7366 25.5609 87.1741 26.1374 88.4385 27.0001H85.5C85.1021 27.0001 84.7206 27.1581 84.4393 27.4394C84.158 27.7207 84 28.1023 84 28.5001C83.999 29.4853 84.1923 30.461 84.5688 31.3714C84.9454 32.2818 85.4978 33.109 86.1945 33.8056C86.8911 34.5023 87.7183 35.0547 88.6287 35.4312C89.539 35.8078 90.5148 36.0011 91.5 36.0001H93V40.5001C93 41.6936 92.5258 42.8382 91.6819 43.6821C90.838 44.5261 89.6934 45.0002 88.5 45.0002Z" fill="black"/>
<path d="M68.187 14.2276C67.9821 13.8864 67.6501 13.6406 67.264 13.5443C66.8779 13.4479 66.4694 13.5089 66.1282 13.7138C65.7871 13.9187 65.5413 14.2507 65.445 14.6368C65.3486 15.0229 65.4096 15.4314 65.6145 15.7726L67.851 19.5001H49.5V7.50003H58.1025C58.8793 7.50215 59.6425 7.70436 60.3185 8.08716C60.9945 8.46996 61.5605 9.02043 61.962 9.68554L62.913 11.2725C63.1179 11.6137 63.4499 11.8595 63.8359 11.9558C64.222 12.0521 64.6306 11.9912 64.9717 11.7863C65.3129 11.5814 65.5586 11.2494 65.655 10.8633C65.7513 10.4772 65.6904 10.0687 65.4855 9.72754L64.533 8.14053C63.8641 7.03249 62.921 6.11545 61.7947 5.4778C60.6683 4.84016 59.3968 4.50341 58.1025 4.50002H48C47.6022 4.50002 47.2206 4.65805 46.9393 4.93936C46.658 5.22066 46.5 5.6022 46.5 6.00002V21.0001C46.5 21.3979 46.658 21.7794 46.9393 22.0607C47.2206 22.342 47.6022 22.5001 48 22.5001H70.5C70.7655 22.5 71.0262 22.4295 71.2555 22.2957C71.4848 22.162 71.6745 21.9697 71.8053 21.7386C71.936 21.5075 72.003 21.2459 71.9996 20.9804C71.9961 20.7149 71.9222 20.4552 71.7855 20.2276L68.187 14.2276Z" fill="black"/>
<path d="M42 4.50002H31.8975C30.6032 4.50341 29.3316 4.84016 28.2053 5.4778C27.079 6.11545 26.1359 7.03249 25.467 8.14053L18.2145 20.2276C18.0778 20.4552 18.0039 20.7149 18.0004 20.9804C17.9969 21.2459 18.064 21.5075 18.1947 21.7386C18.3254 21.9697 18.5151 22.162 18.7444 22.2957C18.9738 22.4295 19.2345 22.5 19.5 22.5001H42C42.3978 22.5001 42.7793 22.342 43.0606 22.0607C43.3419 21.7794 43.5 21.3979 43.5 21.0001V6.00002C43.5 5.6022 43.3419 5.22066 43.0606 4.93936C42.7793 4.65805 42.3978 4.50002 42 4.50002ZM40.5 19.5001H22.149L28.038 9.68554C28.4394 9.02043 29.0054 8.46996 29.6814 8.08716C30.3574 7.70436 31.1206 7.50215 31.8975 7.50003H40.5V19.5001Z" fill="black"/>
<path d="M51 24.0001H48C47.6022 24.0001 47.2206 24.1581 46.9393 24.4394C46.658 24.7207 46.5 25.1023 46.5 25.5001C46.5 25.8979 46.658 26.2795 46.9393 26.5608C47.2206 26.8421 47.6022 27.0001 48 27.0001H51C51.3978 27.0001 51.7793 26.8421 52.0606 26.5608C52.3419 26.2795 52.5 25.8979 52.5 25.5001C52.5 25.1023 52.3419 24.7207 52.0606 24.4394C51.7793 24.1581 51.3978 24.0001 51 24.0001Z" fill="black"/>
<path d="M22.5 24.0001H19.5C19.1022 24.0001 18.7206 24.1581 18.4393 24.4394C18.158 24.7207 18 25.1023 18 25.5001C18 25.8979 18.158 26.2795 18.4393 26.5608C18.7206 26.8421 19.1022 27.0001 19.5 27.0001H22.5C22.8978 27.0001 23.2793 26.8421 23.5606 26.5608C23.842 26.2795 24 25.8979 24 25.5001C24 25.1023 23.842 24.7207 23.5606 24.4394C23.2793 24.1581 22.8978 24.0001 22.5 24.0001Z" fill="black"/>
<path d="M73.5 39.0001C72.6099 39.0001 71.7399 39.2641 70.9999 39.7585C70.2599 40.253 69.6831 40.9558 69.3425 41.7781C69.0019 42.6003 68.9128 43.5051 69.0864 44.3781C69.2601 45.251 69.6887 46.0528 70.318 46.6821C70.9473 47.3115 71.7491 47.7401 72.6221 47.9137C73.495 48.0873 74.3998 47.9982 75.222 47.6576C76.0443 47.317 76.7471 46.7403 77.2416 46.0002C77.736 45.2602 78 44.3902 78 43.5002C78 42.3067 77.5258 41.1621 76.6819 40.3182C75.838 39.4742 74.6934 39.0001 73.5 39.0001ZM73.5 45.0002C73.2033 45.0002 72.9133 44.9122 72.6666 44.7474C72.4199 44.5825 72.2277 44.3483 72.1142 44.0742C72.0006 43.8001 71.9709 43.4985 72.0288 43.2075C72.0867 42.9165 72.2295 42.6493 72.4393 42.4395C72.6491 42.2297 72.9164 42.0868 73.2073 42.029C73.4983 41.9711 73.7999 42.0008 74.074 42.1143C74.3481 42.2279 74.5823 42.4201 74.7472 42.6668C74.912 42.9135 75 43.2035 75 43.5002C75 43.898 74.8419 44.2795 74.5606 44.5608C74.2793 44.8421 73.8978 45.0002 73.5 45.0002Z" fill="black"/>
<path d="M22.5 39.0001C21.61 39.0001 20.7399 39.2641 19.9999 39.7585C19.2599 40.253 18.6831 40.9558 18.3425 41.7781C18.0019 42.6003 17.9128 43.5051 18.0865 44.3781C18.2601 45.251 18.6887 46.0528 19.318 46.6821C19.9473 47.3115 20.7492 47.7401 21.6221 47.9137C22.495 48.0873 23.3998 47.9982 24.2221 47.6576C25.0443 47.317 25.7471 46.7403 26.2416 46.0002C26.7361 45.2602 27 44.3902 27 43.5002C27 42.3067 26.5259 41.1621 25.682 40.3182C24.8381 39.4742 23.6935 39.0001 22.5 39.0001ZM22.5 45.0002C22.2033 45.0002 21.9133 44.9122 21.6666 44.7474C21.42 44.5825 21.2277 44.3483 21.1142 44.0742C21.0006 43.8001 20.9709 43.4985 21.0288 43.2075C21.0867 42.9165 21.2296 42.6493 21.4393 42.4395C21.6491 42.2297 21.9164 42.0868 22.2074 42.029C22.4983 41.9711 22.7999 42.0008 23.074 42.1143C23.3481 42.2279 23.5824 42.4201 23.7472 42.6668C23.912 42.9135 24 43.2035 24 43.5002C24 43.898 23.842 44.2795 23.5606 44.5608C23.2793 44.8421 22.8978 45.0002 22.5 45.0002Z" fill="black"/>
</svg>
