<svg width="65" height="59" viewBox="0 0 65 59" fill="none" xmlns="http://www.w3.org/2000/svg">
<path d="M62.2917 27.0595V9.38636C62.2917 6.89695 61.293 4.50949 59.5153 2.7492C57.7376 0.988918 55.3265 0 52.8125 0H6.77083C4.9751 0 3.25291 0.70637 1.98313 1.96372C0.713354 3.22106 0 4.92639 0 6.70455V49.6136C0 52.1031 0.998695 54.4905 2.77638 56.2508C4.55407 58.0111 6.96514 59 9.47917 59H52.8125C55.3265 59 57.7376 58.0111 59.5153 56.2508C61.293 54.4905 62.2917 52.1031 62.2917 49.6136V42.6677C63.0819 42.3911 63.7664 41.8792 64.2512 41.2022C64.7361 40.5252 64.9976 39.7163 65 38.8864V30.8409C64.9976 30.011 64.7361 29.202 64.2512 28.5251C63.7664 27.8481 63.0819 27.3362 62.2917 27.0595ZM6.77083 2.68182H52.8125C54.6082 2.68182 56.3304 3.38819 57.6002 4.64553C58.87 5.90288 59.5833 7.60821 59.5833 9.38636V13.5566C58.7018 12.6624 57.6488 11.9516 56.4861 11.4658C55.3234 10.9799 54.0745 10.7288 52.8125 10.7273H6.77083C5.69339 10.7273 4.66008 10.3035 3.89821 9.54904C3.13635 8.79464 2.70833 7.77144 2.70833 6.70455C2.70833 5.63765 3.13635 4.61446 3.89821 3.86005C4.66008 3.10564 5.69339 2.68182 6.77083 2.68182ZM52.8125 56.3182H9.47917C7.68343 56.3182 5.96124 55.6118 4.69146 54.3545C3.42169 53.0971 2.70833 51.3918 2.70833 49.6136V12.0682C5.15938 13.9052 2.62708 13.4091 52.8125 13.4091C54.6082 13.4091 56.3304 14.1155 57.6002 15.3728C58.87 16.6302 59.5833 18.3355 59.5833 20.1136V26.8182H51.4583C49.3035 26.8182 47.2368 27.6658 45.7131 29.1746C44.1894 30.6835 43.3333 32.7298 43.3333 34.8636C43.3333 36.9974 44.1894 39.0438 45.7131 40.5526C47.2368 42.0614 49.3035 42.9091 51.4583 42.9091H59.5833V49.6136C59.5833 51.3918 58.87 53.0971 57.6002 54.3545C56.3304 55.6118 54.6082 56.3182 52.8125 56.3182ZM62.2917 38.8864C62.2917 39.242 62.149 39.5831 61.895 39.8345C61.6411 40.086 61.2966 40.2273 60.9375 40.2273H51.4583C50.0217 40.2273 48.644 39.6622 47.6282 38.6563C46.6124 37.6504 46.0417 36.2862 46.0417 34.8636C46.0417 33.4411 46.6124 32.0768 47.6282 31.071C48.644 30.0651 50.0217 29.5 51.4583 29.5H60.9375C61.2966 29.5 61.6411 29.6413 61.895 29.8927C62.149 30.1442 62.2917 30.4853 62.2917 30.8409V38.8864Z" fill="black"/>
<path d="M10.8333 8.04545H51.4583C51.8175 8.04545 52.1619 7.90418 52.4159 7.65271C52.6698 7.40124 52.8125 7.06018 52.8125 6.70455C52.8125 6.34891 52.6698 6.00785 52.4159 5.75638C52.1619 5.50491 51.8175 5.36364 51.4583 5.36364H10.8333C10.4742 5.36364 10.1297 5.50491 9.87579 5.75638C9.62184 6.00785 9.47917 6.34891 9.47917 6.70455C9.47917 7.06018 9.62184 7.40124 9.87579 7.65271C10.1297 7.90418 10.4742 8.04545 10.8333 8.04545Z" fill="black"/>
<path d="M52.8125 30.8409C52.009 30.8409 51.2236 31.0768 50.5555 31.5189C49.8874 31.9609 49.3667 32.5891 49.0592 33.3242C48.7518 34.0593 48.6713 34.8681 48.8281 35.6484C48.9848 36.4288 49.3717 37.1455 49.9399 37.7081C50.508 38.2707 51.2319 38.6539 52.02 38.8091C52.808 38.9643 53.6248 38.8846 54.3672 38.5802C55.1095 38.2757 55.7439 37.7601 56.1903 37.0985C56.6367 36.437 56.875 35.6593 56.875 34.8636C56.875 33.7967 56.447 32.7735 55.6851 32.0191C54.9233 31.2647 53.8899 30.8409 52.8125 30.8409ZM52.8125 36.2045C52.4534 36.2045 52.1089 36.0633 51.855 35.8118C51.601 35.5603 51.4583 35.2193 51.4583 34.8636C51.4583 34.508 51.601 34.1669 51.855 33.9155C52.1089 33.664 52.4534 33.5227 52.8125 33.5227C53.1716 33.5227 53.5161 33.664 53.77 33.9155C54.024 34.1669 54.1667 34.508 54.1667 34.8636C54.1667 35.2193 54.024 35.5603 53.77 35.8118C53.5161 36.0633 53.1716 36.2045 52.8125 36.2045Z" fill="black"/>
</svg>
