<svg width="74" height="73" viewBox="0 0 74 73" fill="none" xmlns="http://www.w3.org/2000/svg">
<path d="M65.2531 38.3575C63.3651 35.4209 60.7052 33.0711 57.5609 31.5623C56.8413 31.217 55.9777 31.5193 55.632 32.2375C55.2861 32.9557 55.5889 33.8175 56.3084 34.1628C61.7877 36.7919 65.328 42.4096 65.328 48.4744C65.328 51.0695 64.6871 53.6431 63.475 55.9173C63.1001 56.6206 63.3673 57.4943 64.072 57.8685C64.2882 57.9834 64.5207 58.0379 64.7496 58.0379C65.2667 58.0379 65.7669 57.7601 66.0268 57.2726C67.4607 54.5828 68.2186 51.5403 68.2186 48.4744C68.2186 44.8734 67.1932 41.375 65.2531 38.3575Z" fill="black"/>
<path d="M51.6948 29.7196L51.5976 29.7195C50.7995 29.7195 50.1523 30.3653 50.1523 31.1621C50.1523 31.9589 50.7995 32.6048 51.5976 32.6048L51.6812 32.605C51.6836 32.605 51.6857 32.605 51.6882 32.605C52.4832 32.605 53.1296 31.9635 53.1333 31.1691C53.137 30.3723 52.4929 29.7233 51.6948 29.7196Z" fill="black"/>
<path d="M42.5509 62.7859C37.0718 60.1566 33.5315 54.539 33.5315 48.4744C33.5315 45.8793 34.1723 43.3056 35.3845 41.0314C35.7594 40.3281 35.4922 39.4544 34.7875 39.0802C34.083 38.7059 33.2074 38.9727 32.8327 39.6761C31.3988 42.366 30.6409 45.4084 30.6409 48.4744C30.6409 52.0753 31.6663 55.5735 33.6063 58.5912C35.4944 61.5278 38.1543 63.8776 41.2986 65.3865C41.5005 65.4835 41.7138 65.5292 41.9238 65.5292C42.462 65.5292 42.9786 65.2278 43.2275 64.7113C43.5731 63.9932 43.2704 63.1312 42.5509 62.7859Z" fill="black"/>
<path d="M47.2619 64.3439L47.1782 64.3436C46.3764 64.3422 45.73 64.9826 45.7264 65.7795C45.7227 66.5763 46.367 67.2252 47.1651 67.229L47.2619 67.2293C48.06 67.2293 48.7072 66.5832 48.7072 65.7866C48.7072 64.9899 48.06 64.3439 47.2619 64.3439Z" fill="black"/>
<path d="M55.9926 24.8384C55.8167 24.42 55.6012 24.0258 55.3505 23.66H59.1132C62.7791 23.66 65.7616 20.6829 65.7616 17.0237C65.7616 13.3645 62.7791 10.3873 59.1132 10.3873H47.5391C48.2749 9.31946 48.7069 8.02753 48.7069 6.63635C48.7069 2.97712 45.7244 0 42.0585 0H6.64843C2.98254 0 0 2.97712 0 6.63635C0 10.2956 2.98254 13.2727 6.64843 13.2727H18.2225C17.4867 14.3406 17.0547 15.6325 17.0547 17.0237C17.0547 18.4149 17.4865 19.7068 18.2225 20.7747H14.4531C10.7872 20.7747 7.80467 23.7518 7.80467 27.411C7.80467 29.5126 8.78951 31.3879 10.3217 32.6047C8.78951 33.8214 7.80467 35.6968 7.80467 37.7983C7.80467 39.8999 8.78951 41.7752 10.3217 42.992C8.78951 44.2088 7.80467 46.0841 7.80467 48.1857C7.80467 50.2872 8.78951 52.1626 10.3217 53.3793C8.78951 54.5961 7.80467 56.4714 7.80467 58.573C7.80467 62.2322 10.7872 65.2094 14.4531 65.2094H31.4861C35.9732 70.0001 42.3565 73 49.4297 73C62.9778 73 74 61.9978 74 48.4744C74 37.219 66.3644 27.7115 55.9926 24.8384ZM59.1132 13.2727C61.1853 13.2727 62.871 14.9554 62.871 17.0237C62.871 19.0919 61.1853 20.7747 59.1132 20.7747H23.7031C21.6309 20.7747 19.9453 19.0919 19.9453 17.0237C19.9453 14.9554 21.6309 13.2727 23.7031 13.2727H59.1132ZM6.64843 10.3873C4.57628 10.3873 2.89062 8.70458 2.89062 6.63635C2.89062 4.56812 4.57628 2.88537 6.64843 2.88537H42.0585C44.1307 2.88537 45.8163 4.56812 45.8163 6.63635C45.8163 8.70458 44.1307 10.3873 42.0585 10.3873H6.64843ZM14.4531 23.66H49.8632C50.4454 23.66 51.0028 23.7951 51.5029 24.0369C50.8193 23.9796 50.1281 23.9487 49.4297 23.9487C42.6447 23.9487 36.4935 26.7084 32.0428 31.162H14.4531C12.3811 31.162 10.6953 29.4792 10.6953 27.411C10.6953 25.3428 12.3811 23.66 14.4531 23.66ZM14.4531 34.0474H29.5732C27.9325 36.2912 26.6639 38.8219 25.8583 41.5493H14.4531C12.381 41.5493 10.6953 39.8667 10.6953 37.7983C10.6953 35.7301 12.381 34.0474 14.4531 34.0474ZM14.4531 44.4347H25.1946C24.9754 45.7494 24.8595 47.0985 24.8595 48.4744C24.8595 49.6496 24.9446 50.8052 25.1055 51.9367H14.4531C12.381 51.9367 10.6953 50.2541 10.6953 48.1857C10.6953 46.1173 12.381 44.4347 14.4531 44.4347ZM14.4531 62.324C12.381 62.324 10.6953 60.6414 10.6953 58.573C10.6953 56.5046 12.381 54.822 14.4531 54.822H25.6956C26.4249 57.5361 27.6096 60.0656 29.1633 62.324H14.4531ZM49.4297 70.1146C37.4756 70.1146 27.7501 60.4068 27.7501 48.4744C27.7501 36.5419 37.4756 26.8341 49.4297 26.8341C61.3839 26.8341 71.1094 36.5419 71.1094 48.4744C71.1094 60.4068 61.3839 70.1146 49.4297 70.1146Z" fill="black"/>
</svg>
