<svg width="25" height="25" viewBox="0 0 25 25" fill="none" xmlns="http://www.w3.org/2000/svg">
<path d="M12.5001 0C5.60757 0 0 5.60757 0 12.5001C0 19.3921 5.60757 25.0002 12.5001 25.0002C19.3921 25.0002 25.0002 19.3921 25.0002 12.5001C25.0002 5.60757 19.3931 0 12.5001 0ZM15.6087 12.9402H13.5751V20.1887H10.5616C10.5616 20.1887 10.5616 16.2281 10.5616 12.9402H9.1291V10.3783H10.5616V8.72126C10.5616 7.53449 11.1255 5.68007 13.6028 5.68007L15.8358 5.68863V8.17546C15.8358 8.17546 14.4789 8.17546 14.215 8.17546C13.9512 8.17546 13.5761 8.30738 13.5761 8.87332V10.3788H15.8721L15.6087 12.9402Z" fill="#971E2A"/>
</svg>
